<?xml version="1.0" encoding="UTF-8"?>
<svg id="Layer_1" xmlns="http://www.w3.org/2000/svg" baseProfile="tiny" version="1.2" viewBox="0 0 106.5 105">
  <!-- Generator: Adobe Illustrator 29.2.1, SVG Export Plug-In . SVG Version: 2.1.0 Build 116)  -->
  <path d="M11.21,70.89c12.42,13.91,35.98,17.99,53.83-3.09-17.73,6.8-32.36,1.9-40.86-8.35-9.11-9.71-12.13-24.84-3.16-41.58C-2.12,32.94-1.03,56.83,11.21,70.89h0ZM96.17,33.93c-12.42-13.91-35.98-17.98-53.83,3.09,17.73-6.8,32.36-1.9,40.85,8.35,9.1,9.71,12.14,24.85,3.16,41.58,23.15-15.07,22.06-38.96,9.81-53.02h0Z" fill="#2e3191" fill-rule="evenodd"/>
  <path d="M71.82,95.35c13.91-11.95,18.21-35.23-2.47-53.52,6.54,17.79,1.53,32.18-8.72,40.33-9.72,8.78-24.74,11.37-41.22,2.01,14.67,23.39,38.34,22.95,52.4,11.18h0ZM35.11,9.96c-13.91,11.95-18.2,35.23,2.47,53.53-6.54-17.79-1.53-32.18,8.72-40.34,9.72-8.78,24.74-11.37,41.22-2.01C72.85-2.25,49.18-1.81,35.11,9.96h0Z" fill="#1a854a" fill-rule="evenodd"/>
</svg>