<?xml version="1.0" encoding="UTF-8"?>
<svg id="Layer_1" xmlns="http://www.w3.org/2000/svg" version="1.1" viewBox="0 0 105.8 105.1">
  <!-- Generator: Adobe Illustrator 29.2.1, SVG Export Plug-In . SVG Version: 2.1.0 Build 116)  -->
  <defs>
    <style>
      .st0 {
        fill: #1a864a;
      }

      .st0, .st1 {
        fill-rule: evenodd;
      }

      .st2 {
        fill: #2e3192;
      }

      .st1 {
        fill: #0c5880;
      }
    </style>
  </defs>
  <path class="st1" d="M10.3,70.7c12.4,13.9,36,18,53.8-3.1-17.7,6.8-32.4,1.9-40.9-8.3-9.1-9.7-12.1-24.8-3.2-41.6C-3.1,32.8-2,56.7,10.3,70.7h0ZM95.2,33.8c-12.4-13.9-36-18-53.8,3.1,17.7-6.8,32.4-1.9,40.8,8.4,9.1,9.7,12.1,24.8,3.2,41.6,23.1-15.1,22.1-39,9.8-53h0Z"/>
  <path class="st0" d="M70.9,95.2c13.9-11.9,18.2-35.2-2.5-53.5,6.5,17.8,1.5,32.2-8.7,40.3-9.7,8.8-24.7,11.4-41.2,2,14.7,23.4,38.3,23,52.4,11.2h0ZM34.2,9.8c-13.9,11.9-18.2,35.2,2.5,53.5-6.5-17.8-1.5-32.2,8.7-40.3,9.7-8.8,24.7-11.4,41.2-2C71.9-2.4,48.2-2,34.2,9.8h0Z"/>
  <path class="st2" d="M-89.4,166.5l56,.5H104.2"/>
</svg>