<?xml version="1.0" encoding="UTF-8"?>
<svg id="Layer_1" xmlns="http://www.w3.org/2000/svg" version="1.1" viewBox="0 0 406.3 107.5">
  <!-- Generator: Adobe Illustrator 29.2.1, SVG Export Plug-In . SVG Version: 2.1.0 Build 116)  -->
  <defs>
    <style>
      .st0, .st1 {
        fill: #1a864a;
      }

      .st0, .st2 {
        fill-rule: evenodd;
      }

      .st2, .st3 {
        fill: #0c5880;
      }
    </style>
  </defs>
  <path class="st3" d="M121.4,77.4h2.9l-1.4-7.6-1.4,7.6h-.1ZM116.5,84.7l4.1-18.1h4.5l4.1,18.1h-3.6l-.9-4.5h-3.9l-.9,4.5h-3.4ZM132.2,84.7v-15.1h-3.9v-3h11.1v3h-3.9v15.1h-3.4,0ZM141.7,84.7v-18.1h3.4v15h6.1v3.1h-9.5ZM157.6,77.4h2.9l-1.4-7.6-1.4,7.6h0ZM152.8,84.7l4.1-18.1h4.5l4.1,18.1h-3.6l-.9-4.5h-3.9l-.9,4.5s-3.4,0-3.4,0ZM167.2,78.4h3.4v1.2c0,1.1,0,1.9.4,2.3s.8.6,1.4.6,1.2-.2,1.6-.5.6-.9.6-1.6,0-1-.4-1.4c-.3-.4-.8-.9-1.7-1.5l-1.7-1.2c-1.5-1-2.4-1.9-2.8-2.6s-.6-1.5-.6-2.5c0-1.5.5-2.7,1.3-3.6.9-.9,2.1-1.3,3.7-1.3s3,.5,3.8,1.4c.9.9,1.3,2.2,1.3,3.9v.6h-3.2v-.5c0-1-.2-1.7-.5-2.1-.3-.4-.8-.6-1.6-.6s-1,.2-1.3.5-.5.8-.5,1.3.7,1.6,2.1,2.5h0l1.8,1.3c1.3.9,2.2,1.7,2.7,2.5s.7,1.8.7,3-.5,2.9-1.4,3.8c-.9.9-2.3,1.3-4,1.3s-3.2-.5-4-1.4c-.9-.9-1.3-2.4-1.3-4.3s0-.5,0-1h0c0-.1.2,0,.2,0ZM199.8,78.2h3.3v.7c0,2.1-.4,3.6-1.3,4.6s-2.2,1.5-4,1.5-1.6-.1-2.2-.3-1.2-.6-1.6-1c-.6-.6-1-1.5-1.3-2.6s-.4-3-.4-5.7,0-3.3.2-4.4c.2-1.1.4-1.9.7-2.4.5-.8,1.1-1.4,1.8-1.8.7-.4,1.6-.6,2.8-.6,1.8,0,3.2.5,4,1.4.8,1,1.2,2.5,1.3,4.6h-3.3v-.4c0-1-.2-1.7-.5-2.2s-.8-.7-1.4-.7-1.4.3-1.7,1c-.3.7-.4,2.5-.4,5.5s0,5.2.4,5.9.8,1.1,1.6,1.1,1.3-.3,1.6-.8c.3-.6.4-1.6.4-3.1v-.2h0ZM209.1,75.7c0,3,.2,4.8.5,5.6s1,1.2,1.9,1.2,1.6-.4,1.9-1.1.5-2.6.5-5.6-.2-4.9-.5-5.6c-.3-.8-1-1.1-1.9-1.1s-1.6.4-1.9,1.1c-.3.8-.5,2.6-.5,5.6h0ZM205.7,75.7c0-1.9,0-3.4.3-4.6.2-1.1.5-2,.8-2.6.5-.8,1.2-1.4,1.9-1.8.7-.4,1.7-.5,2.9-.5s2.1.2,2.9.5c.7.4,1.3.9,1.9,1.8.4.6.7,1.5.8,2.6.2,1.1.3,2.7.3,4.6s0,3.4-.3,4.6-.5,2-.8,2.6c-.5.8-1.2,1.4-1.9,1.8-.7.4-1.7.5-2.9.5s-2.1-.2-2.9-.5c-.7-.4-1.3-.9-1.9-1.8-.4-.6-.7-1.4-.8-2.6-.2-1.1-.3-2.7-.3-4.6h0ZM220.1,84.7v-18.1h5.1l2.5,11.7,2.5-11.7h5.1v18.1h-3.2v-16l-3.3,16h-2.1l-3.4-16v16h-3.2ZM241.5,74.5h1.4c1.1,0,1.8-.2,2.2-.6.4-.4.6-1.1.6-2.1s-.2-1.7-.6-2.1-1.1-.6-2.2-.6h-1.4v5.4h0ZM238.3,84.7v-18.1h5.8c1.8,0,3.1.4,3.9,1.2.8.8,1.2,2.1,1.2,3.9s-.4,3.1-1.2,4-2.1,1.3-3.8,1.3h-2.4v7.6h-3.5ZM254.9,74.3h1.9c1,0,1.6-.2,2-.6.4-.4.6-1.1.6-2.1s-.2-1.5-.6-1.9c-.4-.4-1.2-.5-2.3-.5h-1.6v5.1h0ZM251.6,84.7v-18.1h6c1.8,0,3.1.4,3.9,1.1.8.7,1.2,1.9,1.2,3.6s-.2,2.1-.6,2.8c-.4.7-1.1,1.1-1.9,1.2,1.6.4,2.4,1.8,2.5,4v2.6c.1.7.2,1.2.4,1.6.1.4.4.8.7,1.1h-4c-.1-.3-.2-.7-.2-1.1v-4.1c0-1.1-.2-1.8-.7-2.2-.4-.4-1.4-.6-2.7-.6h-1.1v7.9h-3.3l-.2.2ZM265.7,84.7v-18.1h9.3v3h-5.9v4.2h5.5v2.9h-5.5v5h6.1v3.1h-9.5ZM277.5,78.4h3.4v1.2c0,1.1.1,1.9.4,2.3s.8.6,1.4.6,1.2-.2,1.6-.5.6-.9.6-1.6-.1-1-.4-1.4c-.3-.4-.8-.9-1.7-1.5l-1.7-1.2c-1.5-1-2.4-1.9-2.8-2.6-.4-.7-.6-1.5-.6-2.5,0-1.5.4-2.7,1.4-3.6.9-.9,2.1-1.3,3.7-1.3s2.9.5,3.8,1.4c.9.9,1.3,2.2,1.3,3.9v.6h-3.2v-.5c0-1-.2-1.7-.5-2.1-.3-.4-.9-.6-1.6-.6s-1,.2-1.3.5-.5.8-.5,1.3.7,1.6,2.1,2.5h0l1.9,1.3c1.3.9,2.2,1.7,2.7,2.5s.7,1.8.7,3-.5,2.9-1.4,3.8c-.9.9-2.3,1.3-4,1.3s-3.2-.5-4.1-1.4c-.9-.9-1.3-2.4-1.3-4.3s0-.5,0-1h0c0-.1.1,0,.1,0ZM290.9,78.4h3.4v1.2c0,1.1.1,1.9.4,2.3s.8.6,1.4.6,1.2-.2,1.6-.5.6-.9.6-1.6-.1-1-.4-1.4c-.3-.4-.8-.9-1.7-1.5l-1.7-1.2c-1.5-1-2.4-1.9-2.8-2.6-.4-.7-.6-1.5-.6-2.5,0-1.5.4-2.7,1.4-3.6.9-.9,2.1-1.3,3.7-1.3s2.9.5,3.8,1.4c.9.9,1.3,2.2,1.3,3.9v.6h-3.2v-.5c0-1-.2-1.7-.5-2.1-.3-.4-.9-.6-1.6-.6s-1,.2-1.3.5-.5.8-.5,1.3.7,1.6,2.1,2.5h0l1.9,1.3c1.3.9,2.2,1.7,2.7,2.5s.7,1.8.7,3-.5,2.9-1.4,3.8c-.9.9-2.3,1.3-4,1.3s-3.2-.5-4.1-1.4c-.9-.9-1.3-2.4-1.3-4.3s0-.5,0-1h0c0-.1.1,0,.1,0ZM307.7,75.7c0,3,.2,4.8.5,5.6s1,1.2,1.9,1.2,1.6-.4,1.9-1.1.5-2.6.5-5.6-.2-4.9-.5-5.6c-.3-.8-1-1.1-1.9-1.1s-1.6.4-1.9,1.1c-.3.8-.5,2.6-.5,5.6h0ZM304.2,75.7c0-1.9,0-3.4.3-4.6.2-1.1.5-2,.8-2.6.5-.8,1.1-1.4,1.9-1.8.7-.4,1.7-.5,2.9-.5s2.1.2,2.9.5c.7.4,1.4.9,1.9,1.8.4.6.7,1.5.8,2.6s.3,2.7.3,4.6,0,3.4-.3,4.6c-.2,1.1-.5,2-.8,2.6-.5.8-1.2,1.4-1.9,1.8-.7.4-1.7.5-2.9.5s-2.1-.2-2.9-.5c-.7-.4-1.4-.9-1.9-1.8-.4-.6-.7-1.4-.8-2.6s-.3-2.7-.3-4.6h0ZM322.2,74.3h1.9c1,0,1.6-.2,2-.6.4-.4.6-1.1.6-2.1s-.2-1.5-.6-1.9c-.4-.4-1.2-.5-2.3-.5h-1.6v5.1h0ZM318.9,84.7v-18.1h6c1.8,0,3.1.4,3.9,1.1.8.7,1.2,1.9,1.2,3.6s-.2,2.1-.6,2.8c-.4.7-1.1,1.1-1.9,1.2,1.6.4,2.4,1.8,2.5,4v2.6c.1.7.2,1.2.4,1.6.1.4.4.8.7,1.1h-4c-.1-.3-.2-.7-.2-1.1v-4.1c0-1.1-.2-1.8-.7-2.2-.4-.4-1.4-.6-2.7-.6h-1.1v7.9h-3.3l-.2.2ZM344.8,84.7v-18.1h3.4v18.1h-3.4ZM354.5,82h1.5c.8,0,1.3,0,1.6-.2.3-.1.5-.3.7-.6.3-.5.5-1.1.7-1.9.1-.8.2-2.1.2-3.9s0-3-.2-3.8-.4-1.4-.8-1.8-.4-.4-.8-.4-.8-.1-1.4-.1h-1.4v12.8h-.1ZM351.2,84.7v-18.1h5.4c1.1,0,2,0,2.6.3.6.2,1.2.5,1.6.9.6.6,1.1,1.4,1.3,2.3s.4,2.4.4,4.4,0,4.4-.3,5.4c-.2,1.1-.5,2-.9,2.7s-1,1.3-1.7,1.6-2,.4-3.8.4h-4.6ZM365.3,84.7v-18.1h9.3v3h-5.9v4.2h5.5v2.9h-5.5v5h6.1v3.1h-9.5ZM381.3,77.4h2.9l-1.4-7.6-1.4,7.6h-.1ZM376.4,84.7l4.1-18.1h4.5l4.1,18.1h-3.6l-.9-4.5h-3.9l-.9,4.5h-3.4ZM391.3,84.7v-18.1h3.4v15h6.1v3.1h-9.5Z"/>
  <path class="st1" d="M131.1,25.4c-.8.6-1.3,1.2-1.8,1.7-.4.6-.6,1.3-.6,2.1s.2,1.8.3,2.9c.3,3.8.6,8.6.6,11s0,1.7,0,2.3c-.4.6-1.3,1.3-2.6,1.9-1.2.6-2.4.9-3.6.9-3.2,0-4.9-2-4.9-4.7s.4-2.4.9-3.8l-1.2-.6c-1.1,2.1-1.7,4.5-1.7,6.9,0,4.2,2.5,7.1,6.3,7.1s6.3-1.5,8-4.4c.8-2.3,1.1-4.7,1.1-7.8s0-5.3-.2-7.7l2.1-1.6c-1.6-2.8-2.5-4.6-2.5-6.1l-.3-.2h.1ZM136.7,49.7c.8-.9,1.4-1.8,1.9-2.7.5-.8.7-3.2.7-6.8s0-9.1-.5-14l-.4-.2c-.9.8-1.8,1.8-2.7,2.9.6,5,.8,9.9.8,14.9s0,3.9-.3,5.5l.5.4h0ZM133.8,25.7l.9-1.7h.4c.8,0,2.3.4,4.1.4s2-.3,2.9-1.1l.8-2.4-.3-.2c-.8.8-1.8,1.2-2.9,1.2-2.2,0-4-.7-5.2-.7s-2.1.9-2.2,2.7l1.2,1.9h.4-.1ZM146.8,35.4c-2.1,2.6-3.5,4.9-3.5,8.2s.7,5.8,5.3,5.8,4.2-1,5.5-2.8c.6-1.3,1.1-2.7,1.1-4.8s-.7-3.9-2.5-5.5c-1.5-1.4-3.4-2.6-5-3.9l-.5.3-.3,2.7h0ZM148.3,38c3,1.7,4.6,3.3,4.8,4.8-.7,1.2-2.6,1.9-4.2,1.9s-3.5-1.3-3.5-2.6.8-2.3,2.9-4.1h0ZM173.5,44.4h-.3c-1.8,0-3.1-1.2-3.5-3.8-.8-4.5-1.4-7.1-2-9.2h-.4c-.8.9-1.5,1.9-2.1,3,1.2,3.2,2,6.8,2,7.7s-.6,1.2-1.4,1.5c-1.2.5-2.3.8-3.4.8-1.9,0-2.8-1.1-2.9-2.8h-1.5v2.1c0,3.9,1.7,5.4,4.1,5.4s3.6-.6,4.9-1.6c.5-.4.9-1.1,1.3-2.2h0c.8,2.9,2.6,3.9,5,3.9h15.2c2.1,0,3.6-.3,4.6-.8.8-.3,1.5-1,2.2-2.3.7-1.5.9-2.8.9-4.2s-.7-3.6-2.3-6.4h-.2c-.8,1-1.6,2.2-2.3,3.5,1.1,1.8,2.2,4.1,2.2,4.7s-2.4.9-5,.9h-15.1v-.2ZM173.1,49.1h0ZM188.6,54.3c1,1,2,2,2.9,3,1-.8,1.8-1.6,2.5-2.6-.8-1-1.7-2.1-2.9-3.1l-2.5,2.7h0ZM183.3,54.4c1,1,2,1.9,2.9,3,1-.8,1.8-1.6,2.5-2.6-.8-1-1.7-2.1-2.9-3.1l-2.5,2.7h0ZM201.6,49.7c.8-.9,1.4-1.8,1.9-2.7.5-.8.7-3.2.7-6.8s0-9.1-.5-14l-.4-.2c-.9.8-1.8,1.8-2.7,2.9.6,5,.8,9.9.8,14.9s0,3.9-.3,5.5l.5.4h0ZM217.7,36.9c-.7,1.2-1.4,2.5-2.1,3.9,2.2,3.3,3.1,4.9,3.1,5.8s-1,2.3-2.5,3.9c-1.8,1.7-3.7,2.8-5.6,2.8s-1.6,0-2.3-.3l-.4,1.2c2.1,1.3,4.5,2,6.3,2s3.8-1.4,5.2-3.9c1.1-1.8,1.5-3.9,1.5-6.1s0-1,0-2.1c0-1.9-.8-3.9-2.8-7.2h-.4,0ZM235.9,44.4c-.9-4.8-2.6-7.6-5.1-7.6s-2.6.7-3.7,2.1c-1.2,1.4-1.7,2.9-1.7,4.6,0,4.1,2.9,5.6,7.3,5.6h.6c-.4.9-1.4,1.9-2.7,2.9-1.8,1.4-3.8,2.4-5.7,2.4s-1.9-.3-2.8-.6l-.5,1.2c2.4,1.6,4.7,2.5,6.7,2.5,3.6,0,6.5-4.2,7.4-8.4h19.1c2.1,0,3.6-.7,4.8-1.8h0c.2,1.3,1.3,1.8,2.5,1.8s2.5-.7,3.8-2h0c1,1.4,2.1,1.9,3.2,1.9s2.3-.9,3.4-2.3c.8-1.2,1.4-2.8,1.4-4s0-2.6-.5-5.2h-.3c-.9.8-1.7,1.7-2.5,2.6.4,1.2.6,2.6.9,4-.2.3-.6.4-1.1.4s-1.2-.3-1.7-.8-.7-1.1-.7-1.8.1-1.4.4-2.2l-.2-.2c-.6.3-1.1.6-1.7,1.1-.4,1.4-.4,2.8-1.9,3.5-.5.3-1,.4-1.6.4s-1.1-.3-1.1-1.1.6-1.8,1.4-3.1l-.2-.3c-.7.2-1.4.5-2.1.9-.5.7-1.1,1.7-1.8,2.3-.8.8-2.2,1.2-4.3,1.2h-19ZM233.6,44.4h-.9c-3,0-5.4-.9-5.4-2.2s.8-1.7,2.3-1.7,3.1,1.5,3.9,3.8h0ZM284.8,44.4h-.3c-2.6,0-3.8-1.8-5-4.5h-.4c-.6,1-1.1,2.2-1.6,3.4.8,1.7,1.6,3.1,2.6,4.2-.3,1.4-1.2,3-2.7,4.4-1.4,1.3-3.1,2.1-5,2.1s-1.2,0-2.1-.4l-.5,1.1c2.4,1.6,4.4,2.3,6.1,2.3s3.4-1.3,4.6-3.3c.8-1.3,1.5-2.9,1.5-5.2.7.2,1.4.4,2.4.4h.7c2,0,3.6-.9,4.8-2.5h0c1.2,2.1,3.2,2.5,5.3,2.5h.6c1.7,0,3.1-.6,4.1-2.6h0c1.9,2.2,4.6,3.5,6.3,3.5s2.2-1,2.7-2.8h0c1.1,1.6,2.6,1.9,3.9,1.9h.7c4.9,0,8-1,9-3s1.1-2.8,1.1-4.2c0-2.7-1-4.3-4.4-7.3l.8-1.8c-1.5-.2-3.1-.5-4.7-.8h0c2.9-1.4,6.3-2.6,10.2-3.8.7-1.3,1.4-2.6,2-3.8l-.2-.2c-5.1,1.7-9.5,3.3-11.9,4.4-1.6.7-2.3,1.9-2.3,3.4s.2,1.9.4,2.9c4.6,3.2,7.7,5.8,7.7,7.8s-3.2,1.8-7.8,1.8h-.7c-1.6,0-2.8-.6-3.4-1.8-1.4-2.9-2.4-6-5.1-6s-1.8.4-2.6,1.2c-.9.8-1.4,1.8-1.8,3-.8,2.3-1.1,3.6-4.3,3.6h-.6c-1,0-1.8-.2-2.5-.7-.9-.6-1.1-1.3-1.1-2.4s.2-1.1.4-2.1h-.2c-.7.3-1.3.7-1.8,1.1-.5,1.1-.6,2.5-1.9,3.3-.8.4-1.6.8-3.1.8h-.4.5ZM289.8,53.6c1,1,2,2,2.9,3,1-.8,1.8-1.6,2.5-2.6-.8-1-1.7-2.1-2.9-3.1l-2.5,2.7h0ZM284.5,53.6c1,1,2,1.9,2.9,3,1-.8,1.8-1.6,2.5-2.6-.8-1-1.7-2.1-2.9-3.1l-2.5,2.7h0ZM287.4,58.4c1,1,2,1.9,2.9,3,1-.8,1.8-1.6,2.5-2.6-.8-1-1.7-2.1-2.9-3.1l-2.5,2.7h0ZM301.7,42c.6-1,1.4-1.5,2.3-1.5,2,0,3.6,3.3,3.6,4.4s-.2.5-.5.5c-1.5,0-4.6-1.5-5.4-3.4h0ZM348.4,49.2c1.6,0,3-.6,4-2h0c.7,1.5,1.7,1.9,2.8,1.9s2.6-.9,3.9-2.2h0c.6,1.6,2.8,2.2,5.2,2.2h.7c1.9,0,3.3-.9,4.3-2.6h0c1,1.9,2.7,2.6,4.8,2.6h.6c10.8,0,15.4-1,17.5-2.9,1.1-1.3,1.9-3.7,1.9-5,0-3.1-2-5.7-5.2-5.7s-6.2,2.3-9.2,5.9h-.1c.6-1.5.9-3.1.9-4.9v-4.7l2-1.5c-2-3.2-2.5-4.8-2.5-6.2l-.3-.2c-1.8,1.4-2.4,2.3-2.4,3.4s.2,2.1.4,3.1c.2,2.7.3,5.1.3,7.4s0,4.1-.3,5.6l-.7,1h-2.9c-2.4,0-3-.9-3-3.1v-5.5c0-2.4,0-7-.4-10.3h-.3c-.9.6-1.7,1.4-2.6,2.3.4,4.3.7,9.5.7,13.6s-1,3.1-3.4,3.1h-.9c-1.2,0-2.2-.2-2.9-.6-.6-.4-.9-.9-.9-2s.3-1.8.6-2.8l-.2-.2-1.7,1.1c-.4,1.3-.7,2.6-1.4,3.4-.6.8-1.4,1.2-2.3,1.2s-.6,0-1-.5c-.2-.2-.2-.5-.2-1s.4-1.7.9-3.3l-.2-.2c-.7.3-1.4.7-2.1,1.1-.4,1.3-.8,2.3-1.4,2.9-.6.6-1.1.9-1.8.9-1.1,0-1.3-.5-1.7-1.4-.5-1.3-1.1-2.6-1.6-3.8h-.3c-.8,1.2-1.6,2.5-2.2,3.8,1.6,2.4,2.4,4.3,2.5,5.9-.1.8-.9,1.5-2,2.2-1.3.9-2.7,1.4-4.5,1.4s-2.7-.4-3.9-1.3c-1.4-1.1-1.6-2.5-1.6-4s.3-2.1,1.1-3.8l-1.2-.6c-1.3,2.1-1.9,4.6-1.9,6.7,0,4.2,2.3,7.8,7,7.8s5.4-1.3,7-3.3c.9-1.2,1.5-2.8,1.8-4.8h.3ZM379.5,44.4c3.3-3.3,6.1-4.8,8.5-4.8s3.4,1.4,3.7,2.6c-1.9,1.5-6.1,2.2-12.2,2.2h0ZM398.1,49.7c.8-.9,1.4-1.8,1.9-2.7.5-.8.7-3.2.7-6.8s0-9.1-.5-14l-.4-.2c-.9.8-1.8,1.8-2.7,2.9.6,5,.8,9.9.8,14.9s0,3.9-.3,5.5l.5.4h0Z"/>
  <path class="st2" d="M13.3,72.3c12.4,13.9,36,18,53.8-3.1-17.7,6.8-32.4,1.9-40.9-8.3-9.1-9.7-12.1-24.8-3.2-41.6C-.1,34.4.9,58.3,13.2,72.3h0ZM98.2,35.3c-12.4-13.9-36-18-53.8,3.1,17.7-6.8,32.4-1.9,40.8,8.4,9.1,9.7,12.1,24.8,3.2,41.6,23.1-15.1,22.1-39,9.8-53h0Z"/>
  <path class="st0" d="M73.9,96.8c13.9-11.9,18.2-35.2-2.5-53.5,6.5,17.8,1.5,32.2-8.7,40.3-9.7,8.8-24.7,11.4-41.2,2,14.7,23.4,38.3,23,52.4,11.2h0ZM37.2,11.4c-13.9,11.9-18.2,35.2,2.5,53.5-6.5-17.8-1.5-32.2,8.7-40.3,9.7-8.8,24.7-11.4,41.2-2C74.9-.8,51.2-.4,37.2,11.4h0Z"/>
</svg>