<?xml version="1.0" encoding="UTF-8"?>
<svg id="Layer_1" xmlns="http://www.w3.org/2000/svg" version="1.1" viewBox="0 0 293.59 172.66">
  <!-- Generator: Adobe Illustrator 29.2.1, SVG Export Plug-In . SVG Version: 2.1.0 Build 116)  -->
  <path d="M103.65,72.6c12.42,13.91,35.98,17.99,53.83-3.09-17.73,6.8-32.36,1.9-40.86-8.35-9.11-9.71-12.13-24.84-3.16-41.58-23.14,15.07-22.05,38.96-9.81,53.02h0ZM188.6,35.64c-12.42-13.91-35.98-17.98-53.83,3.09,17.73-6.8,32.36-1.9,40.85,8.35,9.1,9.71,12.14,24.85,3.16,41.58,23.15-15.07,22.06-38.96,9.81-53.02h0Z" fill="#2e3192" fill-rule="evenodd"/>
  <path d="M164.26,97.07c13.91-11.95,18.21-35.23-2.47-53.52,6.54,17.79,1.53,32.18-8.72,40.33-9.72,8.78-24.74,11.37-41.22,2.01,14.67,23.39,38.34,22.95,52.4,11.18h0ZM127.55,11.67c-13.91,11.95-18.2,35.23,2.47,53.53-6.54-17.79-1.53-32.18,8.72-40.34,9.72-8.78,24.74-11.37,41.22-2.01C165.28-.53,141.61-.1,127.55,11.67h0Z" fill="#1a864a" fill-rule="evenodd"/>
  <path d="M8.85,161.14h2.86l-1.44-7.57-1.42,7.57h0ZM4.02,168.39l4.07-18.05h4.51l4.1,18.05h-3.62l-.89-4.54h-3.87l-.87,4.54h-3.43ZM19.72,168.39v-15.07h-3.87v-2.98h11.1v2.98h-3.87v15.07h-3.36ZM29.21,168.39v-18.05h3.36v14.98h6.07v3.07h-9.43ZM45.14,161.14h2.86l-1.44-7.57-1.42,7.57h0ZM40.31,168.39l4.07-18.05h4.51l4.1,18.05h-3.62l-.89-4.54h-3.87l-.87,4.54h-3.43ZM54.66,162.05h3.36v1.16c0,1.11.14,1.86.42,2.26.28.4.76.6,1.44.6s1.25-.18,1.62-.54c.37-.36.56-.89.56-1.59,0-.54-.13-1-.39-1.39-.26-.38-.82-.88-1.68-1.49l-1.72-1.22c-1.48-1.03-2.43-1.88-2.83-2.55-.4-.67-.6-1.52-.6-2.53,0-1.52.45-2.7,1.35-3.56.9-.86,2.14-1.29,3.72-1.29,1.67,0,2.95.46,3.84,1.37.89.91,1.34,2.22,1.34,3.94,0,.17,0,.3,0,.4,0,.1-.01.18-.02.25h-3.19v-.48c0-.98-.16-1.68-.48-2.1-.32-.42-.85-.63-1.58-.63-.54,0-.96.16-1.27.48-.31.32-.46.75-.46,1.32,0,.76.69,1.6,2.07,2.52l.04.02,1.85,1.26c1.32.88,2.22,1.7,2.68,2.48.47.78.7,1.77.7,2.97,0,1.64-.47,2.9-1.41,3.8-.94.89-2.28,1.34-4.02,1.34s-3.16-.47-4.05-1.4c-.89-.94-1.33-2.37-1.33-4.29,0-.2.02-.54.05-1v-.07h0ZM87.33,161.95h3.27c0,.08,0,.19.01.34,0,.16.01.27.01.36,0,2.08-.44,3.64-1.32,4.65-.88,1.01-2.22,1.52-4.04,1.52-.86,0-1.6-.11-2.22-.33-.62-.22-1.15-.57-1.59-1.04-.61-.62-1.04-1.48-1.29-2.58-.25-1.1-.38-3-.38-5.72,0-1.86.08-3.34.22-4.44.15-1.1.38-1.91.69-2.45.49-.83,1.09-1.43,1.81-1.8.72-.37,1.64-.56,2.75-.56,1.83,0,3.16.48,3.99,1.43.83.96,1.25,2.49,1.26,4.6h-3.26v-.43c0-.98-.16-1.71-.48-2.19-.32-.48-.8-.72-1.44-.72-.81,0-1.36.33-1.65,1-.29.66-.44,2.5-.44,5.51,0,3.25.14,5.23.43,5.93.28.7.83,1.06,1.64,1.06.75,0,1.27-.28,1.57-.82.3-.55.44-1.57.44-3.05v-.25h0ZM96.61,159.36c0,2.97.17,4.84.52,5.61.35.77.99,1.16,1.92,1.16s1.55-.38,1.89-1.13c.34-.75.51-2.63.51-5.63s-.17-4.88-.52-5.65c-.34-.76-.98-1.15-1.9-1.15s-1.56.38-1.91,1.15c-.34.76-.52,2.65-.52,5.65h0ZM93.18,159.36c0-1.91.09-3.44.27-4.59.18-1.14.46-2,.84-2.58.52-.82,1.15-1.4,1.87-1.76.73-.35,1.68-.53,2.87-.53s2.14.18,2.87.53c.72.35,1.35.94,1.88,1.76.38.6.66,1.46.84,2.6.18,1.14.26,2.66.26,4.57s-.09,3.42-.27,4.56c-.18,1.14-.46,2.01-.83,2.61-.53.82-1.16,1.4-1.88,1.76-.73.35-1.68.53-2.87.53s-2.14-.18-2.87-.53c-.72-.35-1.35-.94-1.87-1.76-.38-.58-.66-1.44-.84-2.58-.18-1.14-.27-2.68-.27-4.59h0ZM107.63,168.39v-18.05h5.06l2.47,11.69,2.47-11.69h5.07v18.05h-3.21l.07-16.01-3.36,16.01h-2.06l-3.36-16.01.08,16.01h-3.22ZM129.03,158.24h1.4c1.05,0,1.78-.2,2.2-.62.42-.41.63-1.11.63-2.1s-.19-1.69-.58-2.08c-.39-.39-1.12-.58-2.21-.58h-1.45v5.38h0ZM125.78,168.39v-18.05h5.84c1.78,0,3.06.4,3.85,1.2.78.8,1.17,2.1,1.17,3.92s-.42,3.1-1.25,3.98c-.83.87-2.1,1.31-3.82,1.31h-2.45v7.65h-3.34ZM142.35,157.97h1.93c.98,0,1.65-.2,2.03-.58.38-.39.57-1.09.57-2.1,0-.9-.21-1.52-.62-1.88-.42-.36-1.17-.54-2.26-.54h-1.65v5.11h0ZM139.1,168.39v-18.05h6.03c1.82,0,3.13.37,3.93,1.11.8.74,1.2,1.94,1.2,3.62,0,1.17-.22,2.09-.64,2.77-.43.68-1.06,1.07-1.9,1.19,1.6.42,2.43,1.77,2.5,4.04v.23l.1,2.39c.03.68.12,1.22.26,1.64.14.41.36.76.66,1.06h-3.98c-.1-.3-.16-.66-.21-1.07-.05-.41-.08-.99-.09-1.74l-.05-1.89v-.48c0-1.05-.22-1.77-.67-2.16-.44-.39-1.35-.59-2.72-.59h-1.15v7.93h-3.25ZM153.19,168.39v-18.05h9.27v3h-5.93v4.17h5.52v2.86h-5.52v4.97h6.07v3.05h-9.41ZM164.98,162.05h3.36v1.16c0,1.11.14,1.86.42,2.26.28.4.76.6,1.44.6s1.25-.18,1.62-.54c.37-.36.56-.89.56-1.59,0-.54-.13-1-.39-1.39-.26-.38-.82-.88-1.68-1.49l-1.72-1.22c-1.48-1.03-2.43-1.88-2.83-2.55-.4-.67-.6-1.52-.6-2.53,0-1.52.45-2.7,1.35-3.56.9-.86,2.14-1.29,3.72-1.29,1.67,0,2.95.46,3.84,1.37.89.91,1.34,2.22,1.34,3.94,0,.17,0,.3,0,.4,0,.1-.01.18-.02.25h-3.19v-.48c0-.98-.16-1.68-.48-2.1-.32-.42-.85-.63-1.58-.63-.54,0-.96.16-1.27.48-.31.32-.46.75-.46,1.32,0,.76.69,1.6,2.07,2.52l.04.02,1.85,1.26c1.32.88,2.22,1.7,2.68,2.48.47.78.7,1.77.7,2.97,0,1.64-.47,2.9-1.41,3.8-.94.89-2.28,1.34-4.02,1.34s-3.16-.47-4.05-1.4c-.89-.94-1.33-2.37-1.33-4.29,0-.2.02-.54.05-1v-.07h0ZM178.37,162.05h3.36v1.16c0,1.11.14,1.86.42,2.26.28.4.76.6,1.44.6s1.25-.18,1.62-.54c.37-.36.56-.89.56-1.59,0-.54-.13-1-.39-1.39-.26-.38-.82-.88-1.68-1.49l-1.72-1.22c-1.48-1.03-2.43-1.88-2.83-2.55-.4-.67-.6-1.52-.6-2.53,0-1.52.45-2.7,1.35-3.56.9-.86,2.14-1.29,3.72-1.29,1.67,0,2.95.46,3.84,1.37.89.91,1.34,2.22,1.34,3.94,0,.17,0,.3,0,.4,0,.1-.01.18-.02.25h-3.19v-.48c0-.98-.16-1.68-.48-2.1-.32-.42-.85-.63-1.58-.63-.54,0-.96.16-1.27.48-.31.32-.46.75-.46,1.32,0,.76.69,1.6,2.07,2.52l.04.02,1.85,1.26c1.32.88,2.22,1.7,2.68,2.48.47.78.7,1.77.7,2.97,0,1.64-.47,2.9-1.41,3.8-.94.89-2.28,1.34-4.02,1.34s-3.16-.47-4.05-1.4c-.89-.94-1.33-2.37-1.33-4.29,0-.2.02-.54.05-1v-.07h0ZM195.17,159.36c0,2.97.17,4.84.52,5.61.35.77.99,1.16,1.92,1.16s1.55-.38,1.89-1.13c.34-.75.51-2.63.51-5.63s-.17-4.88-.52-5.65c-.34-.76-.98-1.15-1.9-1.15s-1.56.38-1.91,1.15c-.34.76-.52,2.65-.52,5.65h0ZM191.74,159.36c0-1.91.09-3.44.27-4.59.18-1.14.46-2,.84-2.58.52-.82,1.15-1.4,1.87-1.76.73-.35,1.68-.53,2.87-.53s2.14.18,2.87.53c.72.35,1.35.94,1.88,1.76.38.6.66,1.46.84,2.6.18,1.14.26,2.66.26,4.57s-.09,3.42-.27,4.56c-.18,1.14-.46,2.01-.83,2.61-.53.82-1.16,1.4-1.88,1.76-.73.35-1.68.53-2.87.53s-2.14-.18-2.87-.53c-.72-.35-1.35-.94-1.87-1.76-.38-.58-.66-1.44-.84-2.58-.18-1.14-.27-2.68-.27-4.59h0ZM209.68,157.97h1.93c.98,0,1.65-.2,2.03-.58.38-.39.57-1.09.57-2.1,0-.9-.21-1.52-.62-1.88-.42-.36-1.17-.54-2.26-.54h-1.65v5.11h0ZM206.43,168.39v-18.05h6.03c1.82,0,3.13.37,3.93,1.11.8.74,1.2,1.94,1.2,3.62,0,1.17-.22,2.09-.64,2.77-.43.68-1.06,1.07-1.9,1.19,1.6.42,2.43,1.77,2.5,4.04v.23l.1,2.39c.03.68.12,1.22.26,1.64.14.41.36.76.66,1.06h-3.98c-.1-.3-.16-.66-.21-1.07-.05-.41-.08-.99-.09-1.74l-.05-1.89v-.48c0-1.05-.22-1.77-.67-2.16-.44-.39-1.35-.59-2.72-.59h-1.15v7.93h-3.25ZM232.29,168.39v-18.05h3.36v18.05h-3.36ZM242.01,165.73h1.49c.76,0,1.29-.06,1.6-.16.3-.11.54-.3.72-.56.31-.47.54-1.11.67-1.93.13-.82.2-2.12.2-3.92s-.08-3.02-.24-3.82c-.16-.8-.42-1.4-.8-1.8-.2-.2-.45-.35-.76-.43-.31-.08-.79-.12-1.45-.12h-1.44v12.75h0ZM238.72,168.39v-18.05h5.4c1.1,0,1.98.09,2.63.28.65.19,1.19.49,1.61.92.64.62,1.08,1.4,1.34,2.34.26.94.39,2.4.39,4.39,0,2.56-.09,4.37-.27,5.43-.18,1.06-.49,1.96-.92,2.7-.42.74-.99,1.26-1.73,1.55-.74.29-2.02.44-3.84.44h-4.63ZM252.83,168.39v-18.05h9.27v3h-5.93v4.17h5.52v2.86h-5.52v4.97h6.07v3.05h-9.41ZM268.7,161.14h2.86l-1.44-7.57-1.42,7.57h0ZM263.87,168.39l4.07-18.05h4.51l4.1,18.05h-3.62l-.89-4.54h-3.87l-.87,4.54h-3.43ZM278.8,168.39v-18.05h3.36v14.98h6.07v3.07h-9.43Z" fill="#2e3192"/>
  <path d="M18.56,109.08c-.79.6-1.34,1.18-1.78,1.73-.44.56-.62,1.29-.62,2.14s.2,1.77.3,2.92c.32,3.75.64,8.64.64,11.01,0,.94,0,1.7-.04,2.27-.44.64-1.27,1.26-2.56,1.91-1.18.6-2.42.94-3.59.94-3.16,0-4.86-2.04-4.86-4.69,0-1.15.37-2.43.92-3.84l-1.22-.6c-1.08,2.13-1.73,4.46-1.73,6.92,0,4.23,2.46,7.1,6.33,7.1,2.82,0,6.32-1.47,8.01-4.43.75-2.27,1.1-4.67,1.1-7.75,0-2.71-.05-5.29-.16-7.74l2.07-1.57c-1.65-2.75-2.53-4.62-2.53-6.13l-.27-.19h0ZM24.2,133.37c.78-.92,1.4-1.81,1.89-2.68.51-.78.71-3.19.71-6.79,0-4.45-.07-9.08-.53-14.03l-.39-.21c-.88.85-1.75,1.81-2.68,2.92.56,5.02.78,9.95.78,14.9,0,2.2-.07,3.9-.3,5.53l.5.37h0ZM21.26,109.37l.9-1.66c.04-.07.2-.09.43-.09.78.02,2.26.42,4.09.42,1.01,0,2-.32,2.88-1.12l.78-2.42-.27-.17c-.82.78-1.79,1.18-2.92,1.18-2.17-.02-3.96-.71-5.2-.71-1.33,0-2.09.92-2.23,2.71l1.17,1.87h.37ZM34.34,119.11c-2.09,2.55-3.54,4.86-3.54,8.22,0,1.56.67,5.76,5.26,5.76,2.05,0,4.18-1.01,5.45-2.78.6-1.26,1.1-2.71,1.1-4.82,0-2.44-.72-3.91-2.48-5.51-1.55-1.38-3.36-2.55-4.97-3.88l-.49.32-.35,2.69h0ZM35.84,121.7c3.01,1.69,4.57,3.28,4.75,4.79-.71,1.22-2.64,1.93-4.16,1.93-2.07,0-3.47-1.26-3.47-2.64,0-.99.85-2.32,2.87-4.09h0ZM60.97,128.15h-.32c-1.84,0-3.06-1.19-3.51-3.81-.8-4.48-1.4-7.12-1.97-9.21l-.38-.12c-.8,1.04-1.49,2.07-2.11,3.15,1.15,3.19,1.97,6.78,1.97,7.67,0,.71-.6,1.15-1.44,1.51-1.19.53-2.31.81-3.37.81-1.92,0-2.82-1.06-2.91-2.85l-1.49.13c-.05.83-.05,1.5-.05,1.95,0,3.93,1.65,5.36,4.06,5.36,1.99,0,3.6-.57,4.93-1.63.5-.39.92-1.06,1.26-2.23h.06c.85,2.94,2.63,3.86,4.96,3.86h15.18c2.09,0,3.59-.3,4.64-.78.78-.34,1.51-1.01,2.24-2.34.69-1.48.94-2.82.94-4.17,0-1.47-.74-3.55-2.31-6.39l-.23-.05c-.78,1.04-1.56,2.22-2.35,3.58,1.06,1.8,2.25,4.12,2.25,4.67,0,.37-2.36.89-5,.89h-15.04ZM60.64,132.75h0,0ZM76.06,138.04c1,.98,1.98,1.96,2.94,2.99.98-.75,1.8-1.61,2.46-2.56-.75-1.03-1.71-2.08-2.86-3.11l-2.54,2.68h0ZM70.77,138.05c1,.98,1.99,1.95,2.94,2.98.98-.75,1.81-1.6,2.46-2.56-.75-1.03-1.7-2.08-2.86-3.11l-2.54,2.69h0ZM89.13,133.37c.78-.92,1.4-1.81,1.89-2.68.51-.78.71-3.19.71-6.79,0-4.45-.07-9.08-.53-14.03l-.39-.21c-.88.85-1.75,1.81-2.67,2.92.56,5.02.78,9.95.78,14.9,0,2.2-.07,3.9-.3,5.53l.5.37h0ZM105.23,120.57c-.68,1.2-1.42,2.53-2.06,3.91,2.2,3.31,3.08,4.93,3.08,5.75,0,.74-.97,2.33-2.53,3.89-1.75,1.7-3.7,2.79-5.59,2.79-.85,0-1.61-.09-2.3-.27l-.43,1.22c2.09,1.27,4.53,2.01,6.29,2.01,2,0,3.77-1.43,5.21-3.89,1.05-1.84,1.46-3.89,1.46-6.1,0-.43.09-1.04.09-2.11,0-1.89-.8-3.89-2.78-7.19h-.44ZM123.4,128.15c-.92-4.79-2.56-7.58-5.14-7.58-1.33,0-2.58.74-3.68,2.05-1.15,1.38-1.73,2.9-1.73,4.58,0,4.14,2.89,5.55,7.3,5.55h.64c-.44.93-1.4,1.94-2.67,2.91-1.84,1.43-3.77,2.37-5.73,2.37-1.03,0-1.95-.27-2.81-.64l-.53,1.22c2.44,1.64,4.68,2.53,6.73,2.53,3.59,0,6.48-4.21,7.44-8.39h18.76s0,0,0,0h.32c2.12,0,3.61-.71,4.76-1.81h.07c.25,1.33,1.29,1.81,2.46,1.81,1.11,0,2.5-.67,3.8-2.02h.04c1.01,1.36,2.07,1.95,3.22,1.95,1.24,0,2.31-.87,3.35-2.3.76-1.17,1.36-2.78,1.36-4.02,0-1.38-.07-2.64-.53-5.23l-.32-.14c-.92.89-1.73,1.8-2.53,2.69.37,1.19.63,2.59.85,3.97-.16.3-.6.43-1.13.43-.64,0-1.22-.27-1.69-.75-.49-.51-.67-1.13-.67-1.81s.11-1.45.36-2.2l-.2-.16c-.55.3-1.12.64-1.73,1.08-.37,1.42-.45,2.75-1.93,3.48-.5.26-.99.42-1.56.44-.53,0-1.06-.34-1.06-1.1,0-.67.56-1.75,1.43-3.07l-.16-.26c-.67.24-1.35.51-2.06.88-.53.71-1.15,1.72-1.8,2.31-.82.8-2.2,1.24-4.32,1.24h-.33s0,0,0,0h-18.6ZM121.09,128.15c-.27.05-.57.07-.89.07-3.02,0-5.37-.88-5.37-2.21,0-.58.85-1.69,2.32-1.69,1.77,0,3.09,1.52,3.94,3.83h0ZM172.32,128.15h-.32c-2.57,0-3.81-1.83-5-4.48h-.35c-.57,1-1.1,2.15-1.63,3.38.78,1.69,1.65,3.1,2.55,4.24-.27,1.4-1.17,3.03-2.68,4.42-1.43,1.34-3.08,2.13-5.01,2.13-.51,0-1.19-.09-2.07-.39l-.5,1.15c2.43,1.59,4.41,2.26,6.11,2.26,1.88,0,3.38-1.33,4.64-3.31.8-1.32,1.49-2.85,1.49-5.23.71.24,1.44.44,2.39.44h.39s.02,0,.02,0h.32c1.99,0,3.55-.87,4.8-2.5h.06c1.22,2.09,3.17,2.5,5.26,2.5h.62c1.68,0,3.12-.6,4.11-2.57h.09c1.93,2.19,4.6,3.51,6.3,3.51,1.31,0,2.16-1,2.71-2.82h.04c1.11,1.6,2.6,1.88,3.93,1.88h.32s.02,0,.02,0h.31c4.95,0,8.01-1.01,8.97-2.99.66-1.4,1.1-2.8,1.1-4.16,0-2.66-.98-4.34-4.42-7.32l.76-1.76c-1.5-.21-3.08-.46-4.71-.81v-.13c2.87-1.26,6.3-2.48,10.19-3.69.71-1.26,1.38-2.55,1.98-3.81l-.16-.16c-5.14,1.7-9.46,3.29-11.85,4.43-1.57.74-2.27,1.86-2.27,3.37,0,.89.16,1.86.45,2.89,4.65,3.15,7.73,5.83,7.73,7.76,0,1.03-3.18,1.79-7.76,1.79h-.34s0,0,0,0h-.32c-1.63,0-2.78-.57-3.37-1.79-1.4-2.93-2.44-5.98-5.13-5.98-.87,0-1.76.39-2.64,1.19-.85.78-1.36,1.81-1.75,2.96-.76,2.34-1.15,3.62-4.3,3.62h-.6c-.99,0-1.77-.25-2.46-.67-.87-.6-1.12-1.29-1.12-2.36,0-.46.16-1.14.44-2.11l-.16-.14c-.71.42-1.31.83-1.84,1.19-.51,1.06-.62,2.53-1.88,3.31-.76.45-1.58.78-3.12.78h-.35s0,0,0,0h0ZM177.28,137.29c1,.98,1.98,1.96,2.94,2.99.98-.75,1.8-1.61,2.46-2.56-.75-1.03-1.7-2.08-2.86-3.11l-2.54,2.68h0ZM171.98,137.3c1,.98,1.99,1.95,2.94,2.98.98-.75,1.81-1.6,2.46-2.56-.75-1.03-1.7-2.08-2.86-3.11l-2.54,2.69h0ZM174.91,142.12c1,.98,1.98,1.95,2.93,2.98.99-.75,1.81-1.6,2.46-2.56-.75-1.03-1.7-2.08-2.85-3.11l-2.54,2.69h0ZM189.2,125.68c.58-.97,1.36-1.49,2.3-1.49,2,0,3.61,3.26,3.61,4.42,0,.32-.18.49-.53.49-1.5,0-4.55-1.5-5.38-3.41h0ZM235.88,132.87c1.63,0,3-.6,4.02-2h.09c.67,1.47,1.66,1.88,2.76,1.88,1.35,0,2.64-.85,3.88-2.2h.07c.55,1.56,2.8,2.2,5.19,2.2h.32s.02,0,.02,0h.32c1.93,0,3.33-.92,4.34-2.57h.09c1,1.95,2.72,2.57,4.79,2.57h.32s0,0,0,0h.32c10.83-.02,15.38-.97,17.52-2.9,1.12-1.31,1.86-3.73,1.86-5.02,0-3.06-1.95-5.68-5.25-5.68-3.09,0-6.19,2.32-9.24,5.87l-.11-.05c.6-1.47.85-3.08.85-4.83,0-1.03-.05-2.78-.09-4.65l2-1.51c-2.02-3.16-2.55-4.75-2.55-6.19l-.27-.16c-1.8,1.44-2.35,2.32-2.35,3.44,0,1.03.25,2.09.35,3.11.2,2.73.34,5.07.34,7.37s-.05,4.07-.27,5.59l-.71,1.01h-2.4s0,0,0,0h-.46c-2.41,0-2.98-.94-2.98-3.13,0-1.06.04-3.11.04-5.53,0-3.22-.02-7.04-.38-10.32l-.3-.14c-.87.69-1.71,1.52-2.59,2.4.44,4.33.69,9.48.69,13.63,0,1.95-1.03,3.08-3.37,3.08h-.53s0,0,0,0h-.32c-1.18,0-2.19-.2-2.92-.64-.6-.36-.86-.89-.86-1.97,0-.66.3-1.78.62-2.83l-.23-.16-1.73,1.06c-.41,1.33-.74,2.58-1.38,3.36-.64.8-1.42,1.19-2.31,1.19-.31,0-.64-.07-.97-.46-.16-.23-.23-.52-.23-.99s.42-1.73.92-3.32l-.16-.16c-.71.34-1.4.73-2.07,1.12-.42,1.28-.8,2.31-1.38,2.93-.55.55-1.15.87-1.79.87-1.06,0-1.33-.53-1.73-1.44-.53-1.33-1.05-2.58-1.62-3.77l-.26-.02c-.83,1.26-1.55,2.47-2.19,3.77,1.61,2.41,2.42,4.34,2.51,5.86-.13.75-.94,1.51-2.02,2.25-1.29.87-2.74,1.44-4.49,1.44-1.45,0-2.72-.45-3.85-1.31-1.36-1.15-1.63-2.53-1.63-4.04,0-.83.3-2.12,1.08-3.81l-1.24-.62c-1.3,2.13-1.87,4.64-1.87,6.68,0,4.18,2.28,7.76,6.97,7.76,2.79,0,5.4-1.29,7.01-3.28.91-1.17,1.48-2.78,1.78-4.75h0ZM267.02,128.15c3.3-3.32,6.1-4.81,8.49-4.81,1.95,0,3.37,1.44,3.69,2.62-1.9,1.52-6.12,2.19-12.17,2.19h0ZM285.63,133.37c.78-.92,1.4-1.81,1.89-2.68.51-.78.71-3.19.71-6.79,0-4.45-.07-9.08-.53-14.03l-.39-.21c-.88.85-1.75,1.81-2.68,2.92.56,5.02.78,9.95.78,14.9,0,2.2-.07,3.9-.3,5.53l.5.37h0Z" fill="#1a864a"/>
</svg>