<?xml version="1.0" encoding="UTF-8"?>
<svg id="Layer_1" xmlns="http://www.w3.org/2000/svg" version="1.1" viewBox="0 0 45 107">
  <!-- Generator: Adobe Illustrator 29.2.1, SVG Export Plug-In . SVG Version: 2.1.0 Build 116)  -->
  <defs>
    <style>
      .st0 {
        fill: #fff;
      }

      .st1 {
        fill: #0c5880;
      }
    </style>
  </defs>
  <path class="st1" d="M38.2,30.3v-13.1c0-7-5.4-12.9-12.4-13-7.1-.1-12.9,5.6-12.9,12.6v14.6c0,.6.5,1,1.1,1-.9,14.4-2.8,54.6,4.7,68.2,1.1,2.9,3.8,5,6.9,5s5.8-2.1,6.9-5c7.7-13.9,5.5-55.9,4.6-69.3.6,0,1.1-.4,1.1-1ZM25.6,102.6c-2.5,0-4.5-2.3-4.5-5s2-5,4.5-5,4.5,2.3,4.5,5-2,5-4.5,5ZM32,93.5c-1.3-2.4-3.7-4-6.4-4s-5.1,1.6-6.4,4c-4.5-16.6-2.8-50-2.1-61.8,2.9-.9,6.5-2.7,7.9-6.4.2-.4.2-.9,0-1.4-.4-1.3-.6-2.5-.6-3.3,0-.3-.2-.6-.5-.8-1.5-.8-2.5-2.5-2.5-4.6s1.9-5,4.1-5,4.1,2.2,4.1,5-1.1,4-2.7,4.7c-.4.2-.6.6-.6,1,.2,2.2,1.3,7,7.6,9.5.7,10.3,2.7,45.8-2,63.1Z"/>
  <g>
    <path class="st0" d="M30.3,10.7c-1.6-2.3-4.5-3.4-7.2-2.2-2.8,1.3-4.3,4.7-4,7.7.2,1.4.7,2.8,1.6,4,.4.5,1.1.9,1.4,1.5.3.6.3,1.4.5,2,.6,2.4-2.3,4.5-4.3,5.5,1.9-.7,5-2.6,4.9-4.9,0-1.1-.3-2.7-1-3.5-1.1-1.2-1.9-2.2-2.3-3.8-.7-3.1.6-6.6,3.5-8,2.5-1.1,5.3,0,6.9,2.1,0-.1-.1-.2-.2-.3-.1-.2.1.2,0,0Z"/>
    <path class="st0" d="M25.6,91.1s.4,0,1,0c.7.1,1.7.4,2.7,1.2,1,.8,2,2.2,2.3,4,.3,1.8,0,4-1.5,5.8-.7.9-1.8,1.6-3,1.9-.6.2-1.2.2-1.9.2-.6,0-1.3,0-1.9-.3-1.3-.4-2.3-1.4-3.1-2.5-.8-1.1-1.4-2.4-1.8-3.7-.9-2.6-1.5-5.4-2.1-8.2-.6-2.8-1-5.7-1.3-8.6-.3-2.9-.6-5.8-.7-8.7-.1-1.4-.2-2.9-.2-4.3,0-1.4,0-2.8-.1-4.2,0-2.7,0-5.4,0-7.9,0-2.5,0-4.9.2-7.1.1-2.2.2-4.2.3-6,.1-1.8.3-3.3.4-4.6.2-2.5.3-4,.3-4,0,0-.1,1.5-.3,4,0,1.3-.2,2.8-.3,4.6,0,1.8-.2,3.8-.3,6-.1,2.2-.1,4.6-.2,7.1,0,2.5,0,5.2,0,7.9,0,1.4.1,2.8.2,4.2,0,1.4.1,2.8.2,4.3.2,2.9.5,5.8.8,8.7.4,2.9.8,5.8,1.3,8.6.5,2.8,1.2,5.6,2.1,8.1.4,1.3,1,2.5,1.7,3.5.7,1.1,1.6,2,2.8,2.3.6.2,1.2.2,1.8.3.6,0,1.2,0,1.7-.2,1.1-.3,2-.9,2.7-1.7,1.4-1.6,1.8-3.7,1.5-5.4-.2-1.7-1.1-3.1-2-3.9-.9-.8-1.9-1.2-2.6-1.3-.7-.2-1-.1-1-.1Z"/>
    <path class="st0" d="M35.7,32.4s.5,4.1.9,10.4c0,1.6.2,3.3.3,5,0,1.8.2,3.7.2,5.6,0,2,.1,4,0,6,0,2.1,0,4.1,0,6.2,0,2.1-.2,4.2-.2,6.2,0,2.1-.3,4.1-.4,6-.2,1.9-.4,3.8-.6,5.6-.3,1.8-.6,3.4-.8,5-.3,1.5-.6,2.9-.9,4.2-.3,1.2-.6,2.3-.9,3.2-.5,1.7-.8,2.7-.8,2.7,0,0,.3-1,.8-2.8.2-.9.6-1.9.8-3.2.2-1.2.6-2.6.8-4.2.2-1.5.5-3.2.7-5,.2-1.8.4-3.7.6-5.6.1-1.9.3-4,.4-6,0-2,.2-4.1.2-6.2,0-2.1,0-4.2,0-6.2,0-2.1,0-4.1,0-6,0-3.9-.2-7.5-.4-10.7,0-1.6-.2-3-.2-4.3,0-1.3-.2-2.4-.2-3.3-.1-1.8-.2-2.9-.2-2.9Z"/>
  </g>
</svg>