<?xml version="1.0" encoding="UTF-8"?>
<svg id="Layer_1" xmlns="http://www.w3.org/2000/svg" version="1.1" xmlns:xlink="http://www.w3.org/1999/xlink" viewBox="0 0 82 65">
  <!-- Generator: Adobe Illustrator 29.2.1, SVG Export Plug-In . SVG Version: 2.1.0 Build 116)  -->
  <defs>
    <linearGradient id="_횁책챌청챙첼챠챠청챕_찾챨횪채챔책챠챵_221" data-name="횁책챌청챙첼챠챠청챕 찾챨횪채챔책챠챵 221" x1="13.03" y1="29.3" x2="67.54" y2="29.3" gradientUnits="userSpaceOnUse">
      <stop offset="0" stop-color="#c7c7bf"/>
      <stop offset="1" stop-color="#b2b1ab"/>
    </linearGradient>
    <linearGradient id="_횁책챌청챙첼챠챠청챕_찾챨횪채챔책챠챵_220" data-name="횁책챌청챙첼챠챠청챕 찾챨횪채챔책챠챵 220" x1="3.19" y1="49.14" x2="77.24" y2="49.14" gradientUnits="userSpaceOnUse">
      <stop offset="0" stop-color="#b2b1ab"/>
      <stop offset="1" stop-color="#c7c7bf"/>
    </linearGradient>
    <linearGradient id="_횁책챌청챙첼챠챠청챕_찾챨횪채챔책챠챵_214" data-name="횁책챌청챙첼챠챠청챕 찾챨횪채챔책챠챵 214" x1="3.19" y1="36.9" x2="75.5" y2="36.9" gradientUnits="userSpaceOnUse">
      <stop offset="0" stop-color="#b36f14"/>
      <stop offset="1" stop-color="#c1822f"/>
    </linearGradient>
    <linearGradient id="_횁책챌청챙첼챠챠청챕_찾챨횪채챔책챠챵_2211" data-name="횁책챌청챙첼챠챠청챕 찾챨횪채챔책챠챵 221" y1="15.67" y2="15.67" xlink:href="#_횁책챌청챙첼챠챠청챕_찾챨횪채챔책챠챵_221"/>
    <linearGradient id="_횁책챌청챙첼챠챠청챕_찾챨횪채챔책챠챵_2201" data-name="횁책챌청챙첼챠챠청챕 찾챨횪채챔책챠챵 220" y1="35.51" y2="35.51" xlink:href="#_횁책챌청챙첼챠챠청챕_찾챨횪채챔책챠챵_220"/>
  </defs>
  <g id="_x31_0">
    <path d="M64.71,24.29c-7.64-4.41-17.79-6.47-27.8-6.23-.88-.02-1.77-.02-2.65,0-.88-.01-1.77-.02-2.65,0-10-.24-20.13,1.82-27.73,6.23-14.4,8.37-14.32,21.98.17,30.34,7.65,4.41,17.8,6.48,27.8,6.23h5.3c10,.24,20.13-1.82,27.73-6.23,14.39-8.36,14.32-21.98-.17-30.34ZM48.82,50.23c-4.04,2.35-9.09,3.75-14.35,4.24-5.27-.49-10.34-1.89-14.4-4.24-10.29-5.94-10.34-15.6-.12-21.54,4.04-2.35,9.08-3.75,14.35-4.23,5.27.49,10.34,1.89,14.41,4.24,10.29,5.94,10.35,15.6.13,21.54Z" display="none" fill="#afaaa1" opacity=".5"/>
    <g>
      <g isolation="isolate">
        <path d="M67.06,36.27c.01-3.93-.08-8.93-5.3-11.83-14.93-8.29-32.83-6.48-43.05-.54-5.08,2.95-5.67,9.24-5.68,13.11l.9,2.59c.01-3.88,2.55-7.75,7.63-10.7,10.22-5.94,26.9-5.94,37.18,0,5.18,2.99,7.76,6.92,7.75,10.85l1.05-2.52-.49-.97Z" fill="url(#_횁책챌청챙첼챠챠청챕_찾챨횪채챔책챠챵_221)"/>
        <g isolation="isolate">
          <path d="M77.24,37.35v2.45c-.02,5.46-3.6,10.91-10.75,15.07-14.4,8.37-37.89,8.37-52.39,0-7.29-4.21-10.93-9.75-10.92-15.28v-2.45c0,5.53,4.73,9.14,12.02,13.35,14.49,8.37,35.35,8.69,49.75.32,7.15-4.16,12.29-11.01,12.29-13.45h0Z" fill="url(#_횁책챌청챙첼챠챠청챕_찾챨횪채챔책챠챵_220)"/>
        </g>
        <path d="M66.33,22.07c-14.49-8.36-38-8.36-52.39,0C-.46,30.44-.38,44.05,14.11,52.42c14.49,8.37,37.99,8.37,52.39,0,14.39-8.36,14.32-21.98-.17-30.34ZM58.87,48.01c-10.22,5.94-26.9,5.94-37.19,0-10.29-5.94-10.34-15.6-.12-21.54,10.22-5.94,26.9-5.93,37.18,0,10.29,5.94,10.35,15.6.13,21.54Z" fill="#0c5880"/>
      </g>
      <g display="none">
        <path d="M73.22,42.06h2.28l-.22-2.95-3.03-7.13-5.07-9.38c-.28-.18-.57-.35-.86-.52-14.49-8.36-38-8.36-52.39,0C-.46,30.44-.38,44.05,14.11,52.42c4.89,2.83,10.82,4.67,17.07,5.59h11.74l.83-.36h3.69l1.22-.68h3.19v-.99h4.22l.74-1.29h3.23l.28-1.57h3.38v-1.83h3.29l-.82-2.05h3.69l.13-2.24h2.26l-.68-2.4h2.57l-.92-2.52ZM58.87,48.01c-10.22,5.94-26.9,5.94-37.19,0-10.29-5.94-10.34-15.6-.12-21.54,10.22-5.94,26.9-5.93,37.18,0,10.29,5.94,10.35,15.6.13,21.54Z" fill="url(#_횁책챌청챙첼챠챠청챕_찾챨횪채챔책챠챵_214)" opacity=".7"/>
      </g>
      <g>
        <path d="M76.57,26l-.03,10.82h-.22s0,2.64,0,2.64l-.8-.04v2.64s-1.36-.17-1.36-.17v2.7s-1.89-.39-1.89-.39v2.79s-2.39-.7-2.39-.7v2.95s-2.87-1.12-2.87-1.12v3.17s-3.28-1.67-3.28-1.67v3.5s-3.66-2.39-3.66-2.39v3.96s-3.97-3.36-3.97-3.36v4.65s-3.38-3.8-3.38-3.8c-.28.08-.57.14-.85.21v4.58s-2.53-4.01-2.53-4.01c-.62.12-1.25.22-1.88.32v4.38s-1.64-4.16-1.64-4.16c-.66.07-1.32.13-1.98.18l.03-10.82c.66-.05,1.33-.1,1.98-.18l1.58,4.03v-4.24c.66-.09,1.3-.2,1.94-.33l1.52,2.43v-2.75c.63-.14,1.25-.29,1.85-.46l1.44,1.63v-2.06c.59-.18,1.17-.38,1.73-.59l1.34,1.14v-1.67c.54-.23,1.07-.47,1.59-.72l1.21.79v-1.42c.25-.13.5-.27.73-.4.24-.14.46-.28.69-.42l1.07.55v-1.25c.43-.3.84-.6,1.23-.92l.9.36v-1.14c.37-.33.7-.66,1.02-1l.61.18c-.91-3.03-3.38-5.93-7.42-8.27-10.38-6-27.22-5.99-37.54,0-3.67,2.13-6.02,4.74-7.07,7.49.2.23.4.47.62.7v1.1s.84-.29.84-.29c.35.33.73.65,1.13.97v1.2s1.01-.45,1.01-.45c.42.3.88.59,1.34.87v1.34s1.16-.67,1.16-.67c.49.27.99.53,1.51.78v1.55s1.29-.97,1.29-.97c.55.23,1.11.44,1.68.65v1.87s1.4-1.39,1.4-1.39c.59.19,1.19.37,1.8.53v2.4s1.5-2.03,1.5-2.03c.63.14,1.26.27,1.9.39v3.44s1.57-3.17,1.57-3.17c.65.1,1.31.18,1.97.25l-.03,10.82c-.66-.07-1.31-.16-1.97-.25l-2.03,4.1v-4.45c-.47-.09-.95-.19-1.43-.3l-2.9,3.91v-4.69c-.12-.04-.26-.08-.39-.12l-3.72,3.67v-4.32s-3.84,2.89-3.84,2.89v-3.74s-3.5,2.04-3.5,2.04v-3.34s-3.11,1.4-3.11,1.4v-3.07s-2.66.92-2.66.92v-2.88s-2.18.55-2.18.55v-2.75s-1.65.28-1.65.28v-2.67s-1.11.1-1.11.1v-2.64s-.55,0-.55,0l.03-10.82s.02-2.64.02-2.64l.59.03v-2.65s1.16.15,1.16.15v-2.7s1.7.35,1.7.35v-2.8s2.22.65,2.22.65v-2.96s2.7,1.06,2.7,1.06v-3.18s3.14,1.6,3.14,1.6v-3.51s3.53,2.31,3.53,2.31v-3.97s4.16,3.52,4.16,3.52l.55.92c2.48-1.2,4.71-2,7.63-2.59l.02-5.14,1.63,4.16v1.27c.94-.15,1.91-.37,2.86-.46v-5.45s.71,4.25.71,4.25v.94c1.74-.14,3.5.03,5.26.09v-1.13s.21-4.27.21-4.27l-.02,5.4c1.15.05,2.29.13,3.42.26v-1.14s1.14-4.21,1.14-4.21l-.02,5.52c.81.12,1.62.26,2.41.42v-1.2s2.04-4.1,2.04-4.1l-.02,5.67c.46.12.93.23,1.38.37v-1.18s2.9-3.91,2.9-3.91l-.02,6.2c.11.04.21.09.32.13v-1.41s3.73-3.67,3.73-3.67v4.34s3.72-2.8,3.72-2.8v3.75s3.37-1.96,3.37-1.96v3.36s2.95-1.33,2.95-1.33v3.08s2.49-.86,2.49-.86v2.88s1.99-.5,1.99-.5v2.75s1.46-.25,1.46-.25v2.68s.91-.08.91-.08v2.64s.34,0,.34,0ZM40.23,42.97l-.41,4.27.17,10.82.21-4.27c.67,0,1.34-.01,2.01-.04l.72,4.25.03-10.82-.72-4.25c-.67.03-1.34.04-2.01.04ZM35.47,47.04l-.03,10.82,1.13-4.22c.66.05,1.33.09,2,.11l.03-10.82c-.67-.02-1.34-.06-2-.11l-1.13,4.22Z" fill="#0c5880"/>
        <path d="M3.89,26.38l.06.94-.03,10.82-.06-.94.03-10.82ZM76.34,28.64l-.03,10.82.14-.94.03-10.82-.14.94ZM4.21,39.84l.26.93.03-10.82-.26-.93-.03,10.82ZM75.5,42.06l.35-.92.03-10.82-.35.92-.03,10.82ZM5.11,42.43l.46.9.03-10.82-.46-.9-.03,10.82ZM74.15,44.58l.55-.89.03-10.82-.55.89-.03,10.82ZM6.58,44.93l.65.87.03-10.82-.65-.87-.03,10.82ZM72.25,46.98l.73-.84.03-10.82-.73.84-.03,10.82ZM8.57,47.31l.83.81.03-10.82-.83-.81-.03,10.82ZM69.86,49.23l.91-.78.03-10.82-.91.78-.03,10.82ZM11.06,49.53l1,.75.03-10.82-1-.75-.03,10.82ZM66.99,51.28l1.08-.71.03-10.82-1.08.71-.03,10.82ZM14.02,51.55l1.16.67.03-10.82-1.16-.67-.03,10.82ZM63.71,53.11l1.21-.63.03-10.82-1.21.62-.03,10.82ZM17.38,53.35l1.29.58.03-10.82-1.29-.58-.03,10.82ZM60.04,54.68l1.35-.53.03-10.82-1.35.53-.03,10.82ZM21.11,54.88l1.4.48.03-10.82-1.4-.48-.03,10.82ZM56.07,55.97l1.45-.43.03-10.82-1.45.43-.03,10.82ZM25.13,56.13l1.5.37.03-10.82-1.5-.37-.03,10.82ZM51.85,56.97l1.53-.32.03-10.82-1.53.32-.03,10.82ZM29.4,57.08l1.56.27.03-10.82-1.56-.27-.03,10.82ZM47.44,57.65l1.59-.21.03-10.82-1.59.21-.03,10.82ZM33.83,57.72l1.61.15.03-10.82-1.61-.15-.03,10.82ZM42.93,58l1.62-.09.03-10.82-1.62.09-.03,10.82ZM38.36,58.03l1.63.03.03-10.82-1.63-.03-.03,10.82Z" fill="#00bade"/>
        <path d="M69.2,26.13l7.37-.13-.06-.94-7.37.13c-.04-.39-.11-.77-.2-1.16l7.28-.67-.26-.93-7.28.67c-.13-.38-.27-.76-.45-1.14l7.07-1.19-.46-.91-7.06,1.19c-.21-.37-.43-.73-.68-1.1l6.74-1.69-.65-.87-6.74,1.69c-.29-.35-.6-.7-.93-1.04l6.32-2.17-.83-.81-6.32,2.17c-.36-.33-.73-.65-1.13-.97l5.8-2.61-1.01-.75-5.8,2.61c-.42-.3-.87-.58-1.34-.87l5.19-3.02-1.16-.67-5.19,3.02c-.49-.27-.99-.53-1.51-.77l4.49-3.37-1.29-.58-4.49,3.37c-.55-.23-1.11-.45-1.67-.65l3.73-3.67-1.41-.48-3.73,3.67c-.59-.19-1.19-.37-1.79-.53l2.9-3.91-1.5-.38-2.9,3.91c-.63-.14-1.26-.27-1.9-.39l2.03-4.1-1.57-.26-2.03,4.1c-.65-.1-1.31-.18-1.97-.25l1.13-4.21-1.61-.15-1.13,4.22c-.67-.05-1.33-.08-2-.11l.2-4.27-1.63-.03-.21,4.27c-.67,0-1.34.01-2.01.04l-.72-4.25-1.62.09.72,4.25c-.67.05-1.33.1-1.99.17l-1.63-4.16-1.59.21,1.63,4.16c-.65.09-1.29.2-1.93.33l-2.52-4.01-1.54.32,2.52,4.01c-.62.14-1.24.29-1.85.46l-3.36-3.8-1.45.43,3.36,3.8c-.59.18-1.16.38-1.73.59l-4.16-3.53-1.34.53,4.15,3.52c-.54.23-1.07.47-1.59.72l-4.88-3.2-1.22.62,4.88,3.2c-.24.13-.49.26-.73.4-.24.14-.46.28-.69.42l-5.54-2.82-1.07.71,5.53,2.82c-.43.3-.84.61-1.23.92l-6.1-2.39-.91.78,6.1,2.4c-.36.33-.7.66-1.02,1l-6.57-1.93-.73.84,6.57,1.94c-.29.35-.55.71-.79,1.07l-6.94-1.44-.54.89,6.94,1.44c-.21.37-.39.74-.56,1.12l-7.19-.93-.35.92,7.19.93c-.12.38-.22.77-.3,1.15l-7.34-.4-.15.94,7.34.4c-.04.39-.06.78-.06,1.16l-7.37.13.06.94,7.37-.13c.04.39.1.77.19,1.16l-7.28.67.26.93,7.27-.67c.12.38.27.76.44,1.14l-7.07,1.19.46.9,7.06-1.19c.2.37.43.74.68,1.1l-6.74,1.69.65.87,6.74-1.69c.28.35.59.7.92,1.04l-6.32,2.17.83.81,6.32-2.17c.35.33.73.65,1.13.97l-5.79,2.61,1,.75,5.8-2.61c.42.3.88.59,1.34.87l-5.19,3.01,1.16.67,5.19-3.01c.49.27.99.53,1.51.78l-4.49,3.36,1.29.58,4.48-3.36c.55.23,1.11.44,1.68.65l-3.73,3.67,1.4.48,3.72-3.67c.59.19,1.19.37,1.8.53l-2.9,3.91,1.5.37,2.9-3.91c.63.14,1.26.27,1.9.39l-2.03,4.1,1.56.27,2.03-4.1c.65.1,1.31.18,1.97.25l-1.13,4.22,1.61.15,1.13-4.22c.66.05,1.33.09,2,.11l-.21,4.27,1.63.03.21-4.27c.67,0,1.34-.01,2.01-.04l.72,4.25,1.62-.09-.72-4.25c.66-.05,1.33-.1,1.98-.18l1.63,4.16,1.59-.21-1.63-4.16c.65-.09,1.29-.2,1.93-.33l2.52,4.01,1.53-.32-2.52-4.01c.62-.14,1.24-.29,1.85-.46l3.36,3.8,1.45-.43-3.36-3.8c.59-.18,1.16-.38,1.73-.59l4.16,3.53,1.35-.53-4.16-3.53c.54-.23,1.07-.47,1.59-.72l4.89,3.2,1.21-.62-4.89-3.2c.25-.13.49-.27.73-.4.24-.14.46-.28.69-.42l5.54,2.82,1.08-.71-5.54-2.82c.43-.3.84-.6,1.23-.92l6.1,2.4.91-.78-6.1-2.4c.36-.33.7-.66,1.02-1l6.57,1.94.73-.84-6.57-1.94c.29-.35.55-.71.79-1.07l6.93,1.45.55-.89-6.94-1.44c.21-.37.39-.74.56-1.12l7.19.93.35-.92-7.19-.93c.13-.38.22-.77.3-1.15l7.34.4.14-.94-7.34-.4c.04-.39.07-.78.06-1.17ZM59.06,37.06c-10.31,5.99-27.15,6-37.54,0-10.38-6-10.44-15.75-.12-21.74,10.32-6,27.15-6,37.54,0,10.38,6,10.44,15.75.12,21.74Z" fill="#d69535"/>
      </g>
      <g isolation="isolate">
        <path d="M67.06,22.65c.01-3.93-.08-8.92-5.3-11.83-14.93-8.29-32.83-6.48-43.05-.54-5.08,2.95-5.67,9.24-5.68,13.11l.9,2.59c.01-3.88,2.55-7.75,7.63-10.7,10.22-5.94,26.9-5.93,37.18,0,5.18,2.99,7.76,6.92,7.75,10.85l1.05-2.52-.49-.97Z" fill="url(#_횁책챌청챙첼챠챠청챕_찾챨횪채챔책챠챵_2211)"/>
        <path d="M77.24,23.72v2.45c-.02,5.46-3.6,10.91-10.75,15.07-14.4,8.37-37.89,8.37-52.39,0-7.29-4.21-10.93-9.75-10.92-15.28v-2.45c0,5.53,4.73,9.14,12.02,13.35,14.49,8.37,35.35,8.69,49.75.32,7.15-4.16,12.29-11.01,12.29-13.45h0Z" fill="url(#_횁책챌청챙첼챠챠청챕_찾챨횪채챔책챠챵_2201)"/>
        <path d="M66.33,8.45c-14.49-8.36-38-8.36-52.39,0C-.46,16.81-.38,30.43,14.11,38.79c14.49,8.37,37.99,8.37,52.39,0,14.39-8.36,14.32-21.98-.17-30.34ZM58.87,34.39c-10.22,5.94-26.9,5.94-37.19,0-10.29-5.94-10.34-15.6-.12-21.54,10.22-5.94,26.9-5.93,37.18,0,10.29,5.94,10.35,15.6.13,21.54Z" fill="#dcdcd3"/>
      </g>
      <path d="M63.12,10.31c-12.71-7.34-33.33-7.34-45.96,0-12.63,7.34-12.56,19.28.15,26.62,12.71,7.34,33.33,7.34,45.96,0,12.63-7.34,12.56-19.28-.15-26.62ZM62.3,36.37c-12.1,7.03-31.85,7.03-44.02,0-12.17-7.03-12.24-18.47-.14-25.5,12.1-7.03,31.84-7.02,44.01,0,12.17,7.03,12.25,18.47.15,25.49Z" fill="#bebdb6" opacity=".3"/>
      <path d="M7.86,21.91c.64-4.23,3.73-8.36,9.3-11.6,12.63-7.34,33.25-7.34,45.96,0,7.26,4.19,10.39,9.88,9.39,15.36.81-5.37-2.34-10.92-9.45-15.02-12.71-7.34-33.33-7.34-45.96,0-5.42,3.15-8.49,7.15-9.24,11.26ZM18.22,36.7c12.17,7.03,31.93,7.03,44.02,0,5.33-3.1,8.3-7.05,8.9-11.11-.72,3.94-3.66,7.76-8.85,10.78-12.1,7.03-31.85,7.03-44.02,0-6.81-3.93-9.83-9.24-9.05-14.39-.96,5.25,2.04,10.7,8.99,14.72Z" fill="#bebdb6"/>
    </g>
  </g>
</svg>