<?xml version="1.0" encoding="utf-8"?>
<!-- Generator: Adobe Illustrator 29.2.1, SVG Export Plug-In . SVG Version: 9.03 Build 55982)  -->
<svg version="1.0" id="Layer_1" xmlns="http://www.w3.org/2000/svg" xmlns:xlink="http://www.w3.org/1999/xlink" x="0px" y="0px"
	 viewBox="0 0 450 376" enable-background="new 0 0 450 376" xml:space="preserve">
<g transform="translate(0.000000,419.000000) scale(0.100000,-0.100000)">
	<path fill="#0C5880" d="M2435,4009c-49-3-188-12-307-19c-120-7-218-16-218-19s-57-6-128-7c-70,0-156-4-192-7c-36-4-227-15-425-26
		c-646-36-750-43-785-51c-37-9,176-5,340,7c52,3,115,5,140,4c41-2,434-38,660-61c442-44,633-61,638-56c3,3-3,6-14,6
		c-10,0-59,5-109,10c-49,6-207,21-350,35s-347,33-453,44c-204,19-267,35-117,30c50-2,96,0,103,4c7,5,21,5,33,2c11-4,26-1,34,5
		c19,16,20,6,2-12c-12-11-7-14,27-15c55-3,106,6,106,18c0,6-6,7-12,3c-17-11-88-14-88-4c0,14,27,19,39,7c9-9,14-9,20,2
		c6,9,18,11,40,6c20-4,31-3,31,4c0,6,8,11,18,10c10,0,12-3,5-6c-18-7-16-23,2-23c8,0,15,5,15,11c0,7,12,9,36,4c27-5,34-3,28,6
		c-5,9,1,10,26,6c18-4,37-7,43-7s2-7-9-15c-17-14-17-14,11-3c17,7,36,18,43,25c8,7,18,10,24,7c5-4-3-15-19-25c-36-24-27-24,19,0
		c21,10,34,22,30,26s7,5,24,2c18-3,36-1,42,5c7,7,15,8,19,4s-3-16-17-27l-25-20l25,12c13,7,31,18,38,26c16,15,31,16,52,3
		c12-8,11-10-6-10c-12,0-28-8-35-17c-13-16-12-17,3-4c10,7,27,11,38,8s18-1,15,3c-11,18,14,18,90-2c44-11,98-21,120-23l40-4l-40,9
		c-88,19-149,38-125,39c14,1,41-3,60-8c69-18,106-22,90-10c-11,8-7,9,19,5c18-3,41-6,50-6c14,0,14-2,1-11c-11-7,16-8,90-3
		c58,4,122,8,142,8c20,1,40,5,45,10c4,5-3,5-17,1c-22-6-21-3,13,29c37,35,57,45,57,27c0-6-4-13-10-16c-5-3-10-11-10-17s10,1,23,15
		c12,15,28,27,35,27c17,0,15-10-5-33c-13-15-14-18-3-12c8,5,23,19,33,32c18,22,55,34,42,13c-3-5-2-10,4-10c5,0,13,5,16,10
		c4,7,13,6,27-1c11-6,35-8,53-5c19,4,68-2,116-13c66-15,114-19,224-17c77,2,118,1,91-1c-52-4-70-16-73-48c-2-18-2-18,8,2
		c14,27,37,37,55,22c10-8,14-8,14,0c0,6,9,11,21,11c11,0,17-4,14-10s1-7,9-4c9,3,16,10,16,15c0,4,14,7,30,6c19-1,28-7,26-14
		c-3-7,1-10,9-6c8,3,12,10,8,16c-4,7,0,8,11,4c10-4,21-7,24-7c4,0,0-5-8-10c-13-8-12-10,3-10c9,0,17,4,17,8c0,5,20,8,44,8
		c24-1,40-4,34-7c-5-4,11-10,37-13c26-4,49-5,53-2c3,3-6,6-19,6s-31,5-39,11c-12,8-11,9,5,5c11-3,38-8,60-12c61-10,69-19,17-20
		c-26,0-60-4-77-8c-19-4-25-3-17,2c10,6,1,11-29,16c-23,4-44,4-47,1s3-5,14-5c10,0,26-5,34-11c11-7,4-8-25-4c-22,3-32,2-23-2
		c10-5-21-8-70-9c-48,0-139-4-202-9s-149-8-190-7c-52,2-70-1-60-8c11-7,12-10,2-10c-8,0-16,9-19,20s-9,17-14,14s-7-10-4-15
		c4-5,2-9-4-9c-5,0-12,4-15,8c-3,5-27,9-53,9c-47,0-47,0-14-9c18-5,31-11,28-14c-9-9-72,13-69,25c1,7-15,11-44,11c-25,0-43-4-40-9
		c3-4,18-7,33-5c16,2,22,1,15-2c-6-3-9-10-6-15c4-7-9-8-33-5c-21,3-29,3-18,0c40-12,35-21-7-13c-56,11-79,10-53-1c16-7,17-9,3-9
		c-32-2-50,10-37,25c6,8,8,14,4,14s-13-7-19-16c-7-8-30-17-51-19c-22-1-47-5-55-8c-28-11-98-13-93-3c4,6-2,6-13,2c-10-5-49-11-86-13
		c-56-5-67-3-70,11s-5,14-16-4c-12-19-10-20,45-22c58-2,210,3,248,7c11,1,40,4,65,5l45,3l-35,7c-20,4,13,6,80,6c123-1,374,12,403,20
		c9,3,17,1,17-5s17-10,38-10l37,2l-35,7l-35,7l40,3c22,2,60,4,85,6c221,14,396,26,413,30c12,3,139,7,282,9c143,3,275,9,293,15
		c21,5,43,5,58-1c14-5,54-9,89-9c64,0,64,0,73-32c8-30,6-33-17-37c-26-4-26-4-3-10c13-3,23-8,24-11c1-12-13-1142-17-1285
		c-12-464-17-1323-8-1328c6-4,12,173,16,496c4,276,12,888,19,1360c6,471,9,860,5,863c-3,3-81,7-173,7c-92,1-157,5-143,8
		c35,10,5,10-96-1c-80-8-244-3-410,15c-22,2-78,6-125,10c-92,6-184,14-240,21c-32,3-272,22-329,25c-17,1-12,4,14,8
		C2876,4017,2555,4017,2435,4009z M2415,3981c-10-17,15-23,31-7c17,17,34,21,34,8c0-12-41-48-62-55c-11-4-18-2-18,5c0,9-3,9-12,0
		c-13-13-138-17-138-4c0,4-37,7-83,7s-110,5-143,12l-59,12l53-3c29-2,55,1,58,5c3,5,12,9,20,9s12-4,9-10c-8-12,5-13,25,0
		c9,6,17,5,22-3c5-9,10-9,20,1c18,18,39,15,31-5c-5-13-1-12,17,5c13,12,31,22,39,21c11,0,12-2,3-6c-6-2-9-9-6-14c3-6,11-6,20,2
		c8,6,25,8,39,5c16-4,25-2,25,5s11,9,30,6c16-4,32-2,35,3c3,6,8,10,11,10S2419,3986,2415,3981z M2935,3970c13-5,14-9,5-9
		c-8,0-24,4-35,9c-13,5-14,9-5,9C2908,3979,2924,3975,2935,3970z M3888,3903c-10-2-28-2-40,0c-13,2-5,4,17,4
		C3887,3908,3897,3906,3888,3903z M2705,3850c20-9,20-9,0-9c-11,0-27,4-35,9c-13,9-13,10,0,9C2678,3859,2694,3855,2705,3850z"/>
	<path fill="#0C5880" d="M2353,3963c4-3,2-12-4-20c-15-18-1-17,17,1c18,19,18,26-3,26C2354,3970,2350,3967,2353,3963z"/>
	<path fill="#0C5880" d="M2808,3963c12-2,22-8,22-13c0-4,10-5,23-2c22,6,22,6-3,13c-14,4-34,7-45,7C2788,3967,2789,3967,2808,3963z"
		/>
	<path fill="#0C5880" d="M2659,3951c-3-9-28-14-87-15c-45,0-82-5-82-10s42-5,98-1c53,4,113,7,132,7h35l-30,9c-16,5-35,7-42,5
		c-6-3-13,0-16,7C2664,3962,2662,3961,2659,3951z"/>
	<path fill="#0C5880" d="M2745,3950c19-8,83-14,74-6c-2,2-24,6-49,9C2740,3957,2732,3956,2745,3950z"/>
	<path fill="#0C5880" d="M2963,3929c-19-7-38-37-29-46c2-3,7,4,10,15c8,23,40,34,55,19c8-8,11-7,11,2c0,10,9,12,30,8c18-4,30-2,30,4
		C3070,3942,2994,3941,2963,3929z"/>
	<path fill="#0C5880" d="M2827,3913c4-10,9-11,19-2c8,6,23,9,34,6s23-1,26,4c3,6-12,9-39,8C2834,3927,2823,3923,2827,3913z"/>
	<path fill="#0C5880" d="M1570,3910c0-5-7-10-17-10c-9,0-14-3-10-6c8-8,47,5,47,17c0,5-4,9-10,9C1575,3920,1570,3916,1570,3910z"/>
	<path fill="#0C5880" d="M2680,3916c0-2,14-6,30-8c17-3,30-1,30,4c0,4-13,8-30,8C2694,3920,2680,3918,2680,3916z"/>
	<path fill="#0C5880" d="M1504,3899c-3-6-18-9-33-6s-34-1-46-10c-19-14-18-15,14-8c23,5,31,4,27-4c-12-19,7-12,39,14
		c17,14,25,25,18,25C1517,3910,1508,3905,1504,3899z"/>
	<path fill="#0C5880" d="M1965,3900c15-7,5-9-35-8c-30,0-98-3-150-7s-133-9-180-10c-102-5-104-5-62-15c19-4,99-2,180,5s153,10,160,8
		c6-3,12,0,12,6c0,7,9,9,25,5c14-3,42-3,63,1c31,6,34,9,17,15C1967,3912,1939,3911,1965,3900z"/>
	<path fill="#0C5880" d="M2350,3896c0-2,11-6,25-8c14-3,25-1,25,3c0,5-11,9-25,9S2350,3898,2350,3896z"/>
	<path fill="#0C5880" d="M2470,3890c31-10,76-12,67-4c-4,4-26,8-49,9C2454,3898,2451,3896,2470,3890z"/>
	<path fill="#0C5880" d="M2252,3877c9-11,17-12,25-5c7,6,24,7,38,4c14-4,25-3,25,2s-23,9-51,11C2245,3891,2240,3889,2252,3877z"/>
	<path fill="#0C5880" d="M3693,3883c9-2,25-2,35,0c9,3,1,5-18,5S3683,3886,3693,3883z"/>
	<path fill="#0C5880" d="M288,3873c12-2,30-2,40,0c9,3-1,5-23,4C283,3877,275,3875,288,3873z"/>
	<path fill="#0C5880" d="M2051,3871c-9-6,4-8,34-6c26,2,49,6,53,9C2147,3884,2066,3880,2051,3871z"/>
	<path fill="#0C5880" d="M2365,3866c-23-25-26-40-4-19c12,12,21,24,18,27C2377,3876,2370,3873,2365,3866z"/>
	<path fill="#0C5880" d="M168,3826c4-50,2-49,145-62c51-4,77-11,77-19c0-11,87-25,164-25c51,0,15,20-55,31c-35,5-80,16-99,23
		s-66,17-105,21c-67,7-95,17-95,36c0,5,19,9,41,9c38,0,583-53,669-65c19-2,64-7,100-11c192-17,590-63,598-68c5-3,13-20,18-38l8-33
		l4,45c2,24,9,49,15,53c8,6,5,7-7,3c-10-3-215,14-455,39c-240,24-526,54-636,65c-110,12-229,25-265,30s-79,10-95,10
		C165,3870,165,3869,168,3826z"/>
	<path fill="#0C5880" d="M1908,3863c18-7,15-23-5-24c-13,0-14-2-4-6c8-3,20,2,27,12c9,11,22,16,38,13c14-3,31-1,38,3c8,5-11,8-47,8
		C1922,3869,1901,3866,1908,3863z"/>
	<path fill="#0C5880" d="M1700,3849c-27-6-21-7,32-5c36,1,64-2,62-6c-8-13,9-9,30,7c18,14,15,15-35,14
		C1759,3858,1719,3854,1700,3849z"/>
	<path fill="#0C5880" d="M1950,3832c-23-12-22-12,14-6c28,5,37,4,32-5c-10-16-2-14,22,7c21,18,21,18-11,18
		C1989,3845,1963,3839,1950,3832z"/>
	<path fill="#0C5880" d="M2070,3842c0-5-10-14-22-20c-17-8-18-11-7-11c9-1,22,6,29,14s17,12,23,8c6-3,7-1,3,5
		C2088,3852,2070,3854,2070,3842z"/>
	<path fill="#0C5880" d="M4208,3813c12-2,30-2,40,0c9,3-1,5-23,4C4203,3817,4195,3815,4208,3813z"/>
	<path fill="#0C5880" d="M3905,3795c-436-35-466-38-461-52c4-9-4-13-22-14c-15,0-21-3-13-6c7-3,31,0,52,7c54,18,62,9,71-80l3-35
		l-135-8c-74-5-139-13-145-19c-7-7,35-8,132-3l142,7l3-194c2-106,3-194,2-196c-1-1-100-11-220-23c-456-42-678-66-654-71
		c14-3,3-4-25-2c-27,2-119-3-205-11c-85-8-167-16-182-17c-23-2-28-7-28-30c0-24,4-28,30-28c17,0,30,5,30,10c0,6,19,11,43,11
		c25,1,32,3,17,6c-51,8-55,16-11,24c45,9,73,3,51-11c-18-11-4-40,19-40c14,0,19,5,15,14c-3,9,4,20,17,27c13,6,24,8,26,3s46-8,98-8
		c102,2,258,31,248,47c-4,6,4,7,20,3c14-3,27-3,30,2c2,4,3,2,1-5s6-7,24,3c26,13,27,13,30-12c6-48-6-74-34-74c-15,0-23-4-19-10
		c8-12,46-3,57,14c4,6,8,27,8,47c0,35,19,57,35,41c3-3,21-5,40-4c24,3,36-2,44-15c9-16,10-15,11,9c0,32,35,43,104,33
		c41-7,99,1,281,35c94,18,90,19,91-25c0-27-4-42-15-47c-11-4-7-7,12-7l27-1v88c0,127,12,566,16,571c1,1,8,0,15-4c11-7,10-389-6-1760
		c-3-214-6-510-7-657c-1-210-5-268-15-272c-16-6-15-14-13,152c1,101-2,133-12,136c-7,3-31,8-53,13l-40,8l53,3l53,3l-3,37l-3,36
		l-90,18c-49,10-109,22-133,27c-43,9-59,17-51,26c3,2,63-7,134-20c71-14,133-25,137-25s8,146,8,324v323l-77,12c-43,7-89,15-103,18
		c-19,3-22,2-10-6c8-5,42-13,77-17c100-10,96,4,91-324c-2-158-8-284-14-289c-10-10-120,5-174,23l-34,12l-1,94c0,73-4,102-18,125
		c-16,27-18,28-12,5c11-44,18-168,10-197c-6-27-7-27-24,21c-9,27-22,51-29,54c-18,6-62-25-62-43c0-8-4-15-10-15c-5,0-10,4-10,10
		c0,5-10,8-22,6c-13-2-28,1-34,5c-24,19-70,0-84-35c-8-20-9-19-9,6c-1,14,5,29,12,32c6,3,3,5-8,3c-12-1-21-11-23-25
		c-2-12-8-20-13-17c-5,4-9-8-9-26c0-30,1-31,18-16c10,10,25,17,33,17c20,0,23-74,4-90c-12-10-12-16-4-26c7-8,9-29,5-51
		c-3-21-7-49-8-63c-3-22-7-25-38-23c-34,2-34,2,8-10c30-9,48-21,62-44c11-18,29-38,40-45c37-24,23-88-19-88c-20,0-31-7-39-24
		c-14-32-8-36,47-34c37,1,39,2,14,5c-21,3-33,10-33,19c0,24,31,29,47,8c9-12,16-15,21-8c4,6,14,14,22,17c10,4,8,6-7,6
		c-21,1-23,6-23,57c0,34,4,53,10,49c6-3,10-15,10-26c0-10,7-19,15-19s12,6,9,14c-5,14,28,25,141,47c63,12,161,47,135,49
		c-8,0-88-12-178-27l-162-28l-23,24c-21,23-22,30-19,187c2,126,6,165,17,174c13,11,14-10,9-156c-8-216-11-210,106-190
		c47,9,120,21,163,27c42,7,77,15,77,20c0,4,8,10,18,13c9,3-1,3-23,1c-30-3-36-2-25,6s12,12,2,16c-6,2-10,9-6,14c7,12,0,11-71-5
		c-98-24-108-7-103,173c2,77,7,106,17,109c11,4,12-14,6-100l-7-105l43-6c24-4,66-9,92-13c32-5,44-10,35-15c-10-7-9-9,4-9
		c26,0,31,18,7,30c-11,6-44,19-72,27c-29,9-46,18-39,21c12,4,54-2,165-24c15-3,27-12,27-20c0-9,4-13,9-9c5,3,12,1,16-5
		c3-5-1-10-10-10c-21,0-95-24-95-31c0-3,30-12,68-19c37-8,59-16,49-18c-12-2-15-10-12-25c8-34,12-215,5-226c-18-30-300-87-308-63
		c-5,17-27,15-42-3c-7-9-25-15-39-14c-14,2-43-5-65-15c-21-9-55-19-75-22c-20-2-69-11-110-20c-68-15-74-15-83,0c-5,9-27,19-48,22
		c-49,8-53,24-7,24c49,0,69,26,56,73c-7,25-16,37-27,37c-10,0-23,5-29,11c-7,7-17,8-28,1c-15-8-14-10,9-16c14-3,26-11,26-17
		c0-15-62,0-78,20c-7,9-11,10-7,4c3-7,0-13-7-13c-7-1-1-8,15-16c15-8,27-16,27-17c0-6-127,1-149,8c-19,6-23,4-18-8c6-16-11-27-44-27
		c-11,0-18-4-14-9c10-17-15-23-61-16c-35,5-44,10-44,26c0,11-14,56-31,99c-31,78-32,79-62,73c-23-5-29-3-25,8c4,12,73,29,235,55
		c27,4,33,10,39,40c6,32,9,35,38,32c19-2,31-9,32-18c0-8,5-23,9-34c10-23-9-36-52-36c-28,0-33-3-33-25c0-16-6-25-16-25
		c-13,0-15-7-10-32c8-42,12-45,66-52c44-6,44-6,13,7c-18,6-38,18-44,24c-20,20,10,63,59,84c24,11,40,23,37,29c-3,5,0,11,7,11
		c7,1,18,2,23,4c6,1,17,3,26,3c24,3,77,60,84,93c4,16,12,29,18,29c8,0,7,4-2,9c-11,7-12,15-3,38c21,53,24,97,8,133l-15,35l-1-55
		c-1-121-51-247-103-261c-34-9-57-2-57,17c0,13,12,18,37,15c19-3,51,69,63,142c25,144-44,358-128,396l-27,13l22-24
		c31-34,80-135,98-203c20-80,19-150-5-229c-17-54-25-66-43-67c-12-1-35-3-52-5c-16-2-52-6-80-9l-50-6l-24,43c-13,24-39,61-58,84
		c-18,23-33,50-33,60s-12,61-26,112c-14,52-24,106-22,120c3,25,6,27,59,29c74,2,135,19,158,45c13,13,27,19,41,15c17-4,19-3,10,8
		c-6,7-10,17-9,21c6,35-5,33-38-4c-44-49-97-67-172-57c-76,11-81,14-81,46c0,27,2,29,43,29c87,1,215,39,202,61c-4,5,9,9,27,10
		c30,1,31,2,8,8c-16,4-21,9-13,14c17,11,103,13,132,3c18-6,22-5,18,5c-2,8-10,13-16,11c-17-3-13,23,7,41c10,10,26,17,35,17
		c21,0,32-42,17-69c-10-20-8-21,27-22c51-2,46-2,143,11l85,11l-3,50c-3,43-7,49-25,48c-12,0-16-3-9-6c6-2,12-18,12-34
		c0-23-5-30-27-34c-16-4-47-10-70-16c-67-15-80-12-88,19c-8,34-43,72-65,72c-10,0-34-15-55-34c-51-47-113-57-161-24
		c-19,13-34,28-34,34s-7,17-15,24s-15,28-15,47s-4,42-9,52c-15,27-2,59,30,75c16,8,29,10,29,5c0-19,58,44,65,69c10,40,35,59,70,52
		l30-6l-27-7c-16-4-28-14-28-21c0-8-3-23-7-33c-3-10-3-15,2-11c4,4,17-10,27-32c30-60,39-48,13,17c-13,31-22,60-19,64
		c4,7,65,22,134,34c32,5,33,5,17-9c-10-8-18-17-18-20c2-18,0-19-10-6c-8,12-9,9-4-10c6-24,5-24-9-6c-20,25-21,7-1-21
		c8-12,11-24,7-27c-5-3-14,6-21,21c-6,14-14,23-17,20s-1-15,6-26c6-12,7-21,1-21c-5,0-15,16-21,36c-7,19-14,33-17,31
		c-2-3,3-21,11-41c16-38,17-53,3-48c-5,1-6-2-2-8c3-6,11-8,16-5s6-1,3-9c-4-11,3-19,21-26c15-6,30-9,32-6c3,2-5,7-16,11
		c-12,3-21,13-21,20c0,12,4,11,28-1c15-7,36-13,47-13c12,0,5,5-15,11c-38,11-60,25-60,39c0,5,13,3,30-6c16-8,37-15,47-14
		c10,0,3,5-14,10c-18,5-33,14-33,19s15,6,33,4c21-4,39,0,52,10c19,16,19,16-7,5c-27-12-78-5-78,9c0,4,15,6,34,4c20-2,37,1,41,9
		c5,8,4,10-4,5c-14-9-67,2-57,11c3,3,21,7,38,7c41,2,65-23,63-63c-1-21,2-28,12-24c7,3,19,1,26-5c6-5,25-12,42-16c16-4,33-13,37-19
		c12-18,9-92-3-104c-7-7-6-12,5-16c14-5,16,4,16,61c0,41,5,73,13,81c10,11,7,12-15,7c-14-3-37-2-50,3c-21,9-21,10-3,10
		c30,1,45,20,45,57c0,28-3,31-22,26c-14-3-19-2-14,6c4,7,14,12,22,12s14,9,14,19c0,14-5,18-20,14c-11-3-20-1-20,5c0,13,26,23,45,16
		c25-10,62,4,68,26c6,25-10,26-36,3c-11-10-17-12-13-5c6,10,2,10-21,0c-15-6-32-15-37-20c-6-4-18-8-28-8c-15,0-17,5-12,28
		c6,26,6,26-20-7c-31-41-32-45-8-32c30,16,43-3,49-69c6-57,4-62-13-58c-16,3-19,12-18,61l1,57l-41-5c-22-3-35-2-28,1
		c25,12,11,26-25,23c-64-3-103,1-103,11c0,6,20,10,45,10c31,0,45,4,45,13c0,8-7,14-15,14s-15-4-15-8s-9-5-20-2c-12,3-28-4-45-23
		c-19-20-37-29-61-30c-19-1-34,3-34,7c0,19-27,8-38-15c-13-30-52-54-52-33c0,7,5,18,12,25c9,9,5,12-18,12c-17,0-34-4-40-9
		c-12-12-76-22-69-11c13,20-15,18-29-2c-18-25-22-108-6-108c6,0,10-11,10-25s-4-25-10-25c-19,0-10-19,11-22c35-5,45-31,32-78
		c-13-49-7-80,16-80c11,0,12,3,4,8c-7,4-9,13-5,19c12,19,35-2,28-24c-14-45-44-63-105-63h-59l11,25c14,28,25,32,33,10
		c6-16,51-20,70-7c8,5,7,16-2,37l-12,30l-13-27c-14-32-16-32-51-16c-32,15-36,27-34,99c1,51,2,54,29,57c25,3,27,7,27,48
		c0,45,0,46-29,39c-29-6-30-5-34,37c-2,24-4-79-5-228c-2-234,0-273,13-278c21-8,19-46-2-47c-12,0-13-2-5-6c10-4,10-8,1-19
		s-8-14,5-14c21,0,21-29-1-46c-16-11-16-16-4-35c7-13,17-35,22-51c6-24,5-28-12-28c-10,0-19-5-19-11c0-7,12-9,35-5c28,6,35,4,35-9
		c0-11-10-15-35-15c-19,0-35-4-35-9s8-7,18-4c13,3,27-10,51-47c46-71,46-85-2-83c-22,1-41,4-43,6c-3,2-8,24-13,48c-7,36-9,27-9-56
		c1-57,3-85,7-65c6,32,9,35,54,44c40,7,51,5,69-10c15-14,34-19,74-17c39,1,54-2,54-12c0-18-11-21-144-41l-116-17v-83
		c0-57,4-84,13-87c10-4,10-7,0-18c-23-23-14-38,28-49c34-9,38-14,29-26c-16-19-20-18-14,3c2,10-1,8-7-5c-7-12-21-22-31-22
		c-11,0-17-4-14-9c4-5,24-5,48,1c138,31,484,86,492,78c5-5,7-12,5-15c-7-6-497-95-526-95c-19,0-22-5-19-35c1-19,4-36,7-39
		c5-4,217,32,393,68c155,31,150,31,143,5c-5-17-2-20,16-15c12,3,87,17,167,31s244,44,365,66c146,27,234,39,261,35c28-3,107,7,231,30
		c210,39,364,64,406,64c33,0,42-17,33-64c-6-33-10-35-64-45c-31-6-80-16-108-22c-28-5-64-12-80-15c-89-15-247-47-296-59
		c-32-8-60-15-63-15s-5,20-5,44v44l-62-13c-35-7-80-16-100-19c-37-7-38-8-38-49v-43l-72-13c-84-15-362-68-588-111
		c-85-17-166-33-179-35s-49-13-80-24c-31-10-78-22-106-25c-39-4-33-2,23,11l72,15v47v47l-87-18c-49-10-99-18-112-18
		c-20,0-22-4-17-25c14-54,0-71-67-83c-34-6-100-18-147-27c-47-8-101-18-120-21c-40-7-243-50-278-60c-23-7-23-6-20,77l3,84l40,6l40,6
		l-47,2l-48,1v-85c0-47-4-85-9-85s-49,11-98,24c-340,92-519,141-593,163c-47,13-94,26-106,29c-11,2-65,17-120,33
		c-54,16-128,37-164,46s-81,20-100,26c-37,11-76,21-153,39c-52,13-67,33-67,91c0,42,19,45,113,19c45-12,95-24,111-27s40-9,53-14
		s34-9,46-9c39,1-1,16-148,55c-77,21-144,41-150,46c-5,5,18,9,55,10c36,0,88,4,115,10c28,5,67,12,87,15c21,4,43,13,49,20
		c6,8,9,14,5,14c-21,0-333-53-350-60c-19-7-21-14-18-92l3-84l452-124c249-67,572-156,719-197l267-73l1278,244
		c703,135,1297,248,1320,252l42,6l3,82c2,44,1,84-2,88c-3,3-36,0-74-8s-70-13-72-11c-2,1,3,511,11,1132c8,622,15,1219,15,1328v197
		l-52-1C4089,3808,3993,3802,3905,3795z M4154,3468c-1-183-5-445-8-583c-3-137-9-583-12-990c-4-407-7-741-9-743c-1-1-62-14-136-27
		c-74-14-194-37-267-51c-74-14-135-24-136-22c-2,2,1,354,5,783s9,967,10,1195c2,228,5,485,7,571l3,156l157,12c86,7,200,16,252,21
		c52,4,104,8,116,9C4156,3800,4156,3798,4154,3468z M2678,3083c-10-2-26-2-35,0c-10,3-2,5,17,5S2687,3086,2678,3083z M2770,2365
		c0-8-9-13-20-12c-23,1-25,8-8,25C2755,2391,2770,2385,2770,2365z M2464,2344c16-43,8-54-41-54c-61,0-93,9-93,25c0,8,9,10,25,7
		c18-3,25,0,23,8C2372,2355,2455,2369,2464,2344z M2360,2244c0-19-4-34-10-34c-5,0-10,18-10,41c0,24,4,38,10,34
		C2356,2282,2360,2263,2360,2244z M2290,2225c0-20-5-25-25-25s-25,5-25,25s5,25,25,25S2290,2245,2290,2225z M2460,2000
		c0-13-20-13-40,0c-12,8-9,10,13,10C2448,2010,2460,2006,2460,2000z M2480,1966c-5-13-7-27-4-30c2-3-2-2-8,4c-18,15-28,12-28-9
		c0-20-49-31-146-31c-51,0-54,1-54,25c0,23,4,25,48,27c26,0,52,2,57,3c6,2,30,4,55,5c39,2,42,3,20,11c-23,8-23,8,5,5c17-3,37-1,45,5
		C2491,1993,2491,1993,2480,1966z M3172,1543c-2-21-9-44-15-51c-7-9-7-16,1-24c7-7,12-31,12-54c0-31,7-51,25-72c35-42,31-46-20-18
		c-30,17-42,21-38,11c4-11-2-15-20-15c-21,0-25,5-29,34c-5,47,0,60,18,45c15-13,20,1,5,17c-12,12-17,83-7,115c7,24,35,47,61,48
		C3172,1580,3174,1565,3172,1543z M3180,1295c0-14-6-25-12-25c-7,0-23-3-35-6c-20-5-23-2-23,19c0,20,6,27,28,30c15,2,30,5,35,6
		C3177,1319,3180,1309,3180,1295z M2301,1125c5,4,10,1,10-4c2-16,4-23,17-54c16-37,15-57-1-57c-36,0-63,63-51,118c6,30,8,32,12,14
		C2290,1130,2296,1122,2301,1125z M3610,945c0-16-58-35-107-35c-50,0-37,33,17,43C3576,963,3610,960,3610,945z M2541,941
		c-7-5-10-14-7-20c4-6,4-11-1-12c-29-2-81-10-100-14c-12-3-28-2-37,1c-30,12-5,24,48,24c35,0,58,5,66,15c7,8,20,15,29,15
		C2552,950,2552,948,2541,941z M2278,882c2-7-3-12-10-12c-8,0-15,7-15,15C2253,903,2272,900,2278,882z M3545,880c-16-4-41-8-55-8
		c-22,0-22,1,5,8c17,4,41,8,55,8C3572,888,3572,887,3545,880z M2478,733c-2-12-20-22-53-29c-77-18-107-17-103,3c2,12,20,22,53,29
		C2452,754,2482,753,2478,733z"/>
	<path fill="#0C5880" d="M4094,3397c-8-21,2-35,16-21c5,5,6,15,0,24C4102,3412,4100,3412,4094,3397z"/>
	<path fill="#0C5880" d="M3700,3350c0-13,5-20,13-17c6,2,12,10,12,17s-6,15-12,18C3705,3370,3700,3363,3700,3350z"/>
	<path fill="#0C5880" d="M2433,3793c9-2,25-2,35,0c9,3,1,5-18,5S2423,3796,2433,3793z"/>
	<path fill="#0C5880" d="M2278,3783c12-2,30-2,40,0c9,3-1,5-23,4C2273,3787,2265,3785,2278,3783z"/>
	<path fill="#0C5880" d="M3278,3743c18-2,45-2,60,0s0,4-33,4S3260,3745,3278,3743z"/>
	<path fill="#0C5880" d="M3153,3733c15-2,37-2,50,0c12,2,0,4-28,4C3148,3737,3137,3735,3153,3733z"/>
	<path fill="#0C5880" d="M3008,3723c12-2,32-2,45,0c12,2,2,4-23,4S2995,3725,3008,3723z"/>
	<path fill="#0C5880" d="M2868,3713c12-2,32-2,45,0c12,2,2,4-23,4S2855,3715,2868,3713z"/>
	<path fill="#0C5880" d="M562,3685c-12-15-23-33-24-39c0-6-2-15-2-21c-1-5-8-31-15-57c-9-33-12-83-9-156c4-95,8-115,31-155
		c30-50,91-87,145-87c17,0,34-4,37-10c8-13,71-13,95,0c25,13,132,1,127-14c-5-14-57-21-57-7c0,6-9,11-21,11c-11,0-17-4-14-10
		c9-14-8-13-23,2c-9,9-12,9-12,1c0-15,10-21,43-27c15-2,31-7,37-11c5-3,10-1,10,4c0,6,11,11,25,11c20,0,25,5,25,25c0,14,7,28,15,31
		c20,8,20,112,0,150c-8,16-15,46-15,66c0,31-4,39-24,44c-13,3-37,4-52,2c-27-3-29-7-36-58c-4-33-2-60,4-67c8-10,6-13-5-13
		c-9,0-19,5-22,10c-10,16-101,12-114-4c-10-11-8-15,6-19c10-3,4-5-14-6c-23-1-37,6-52,25c-19,24-21,40-21,150c0,169,0,169,171,183
		c115,9,150,7,425-24c164-18,306-36,315-39c8-4,23-20,33-37c15-25,18-60,22-202c3-112,1-165-5-152c-5,11-10,74-11,140
		c-2,146-8,140-12-10l-3-110h-30c-83,2-316,30-377,46c-34,9-38,13-38,42c-1,18-2,92-3,165c-3,130-2,132,19,132c12,0,100-9,195-20
		c95-12,182-20,194-18c11,2-72,13-185,26c-192,21-293,35-348,48c-14,3-21,1-18-5c4-5,31-13,61-16l55-7l2-186l3-186l245-33
		c135-18,246-32,248-33c5,0,2-40-4-40c-4,0-83-7-177-16c-94-8-178-13-187-11s-21-2-27-9c-10-10-5-17,23-33c19-12,46-21,60-21
		c22,0,24-4,24-50c0-27,4-50,10-50c15,0,23,48,13,83c-8,29-13,33-53,37c-86,10-41,25,107,37c81,7,162,14,179,17l32,4l7-171
		c4-95,5-225,3-290c-1-64,0-117,4-117c3,0,8-8,10-17s2,215,0,497c-2,283,0,511,4,507s12,3,18,15c24,47,53,56,208,68
		c80,6,158,8,172,4c29-7,34-28,10-42c-14-8-14-10,1-22c13-11,19-10,35,5c11,10,20,23,20,29c0,24,18,38,39,31c16-5,21-15,21-38
		c0-52,10-75,36-81c27-7,26,0,24-217c-1-121,6-173,21-163c5,3,9,95,9,205v199h-35h-35v64c0,56-2,64-17,60c-10-2-85-8-168-14
		c-109-7-151-6-156,2s-27,9-71,4c-34-5-79-8-98-8c-20,0-26-2-14-5l22-4l-21-23c-21-23-21-23-46-5c-16,12-57,23-106,29
		c-164,20-261,31-280,32c-11,0-45,4-75,9c-31,5-141,18-245,29c-105,11-215,23-246,26C587,3712,582,3711,562,3685z M684,3680
		c35,13,36,13,36-5c0-9-10-15-26-15c-33,0-79-48-88-91c-8-43-7-163,3-223c6-38,16-57,41-79c30-27,37-29,82-23c44,6,49,5,46-11
		c-7-36-125-23-150,16c-10,17-13,18-27,3c-15-14-17-12-23,29s-10,288-6,336c2,16,5,19,15,12c9-8,14-4,19,15c7,29,35,50,45,35
		C654,3673,667,3673,684,3680z M928,3387c3-22-1-27-17-27c-21,0-26,15-15,45C905,3428,925,3418,928,3387z M940,3329c0-5-13-9-30-9
		c-35,0-41,17-7,22C929,3347,940,3343,940,3329z M960,3293c0-4-9-16-20-28c-12-13-18-29-14-38c10-26,22-20,16,8c-2,15,0,25,7,25
		c6,0,10-16,9-40c-1-39-2-40-40-40c-31,0-38,3-38,20c0,11-4,20-10,20c-5,0-10-9-10-20c0-13-5-18-15-14s-15,20-15,44s5,40,15,44
		c8,3,15,0,15-7c0-8,4-7,9,3c6,8,7,18,5,22c-3,4,15,8,40,8S960,3297,960,3293z M820,3229c0-65-13-62-25,4c-9,49-9,53,7,49
		C816,3279,820,3267,820,3229z"/>
	<path fill="#0C5880" d="M2748,3703c17-2,47-2,65,0c17,2,3,4-33,4S2730,3705,2748,3703z"/>
	<path fill="#0C5880" d="M2623,3693c15-2,37-2,50,0c12,2,0,4-28,4C2618,3697,2607,3695,2623,3693z"/>
	<path fill="#0C5880" d="M2445,3680c-14-6-2-9,42-9c34-1,65,4,68,9C2563,3692,2474,3692,2445,3680z"/>
	<path fill="#0C5880" d="M2358,3673c12-2,32-2,45,0c12,2,2,4-23,4S2345,3675,2358,3673z"/>
	<path fill="#0C5880" d="M2218,3663c18-2,45-2,60,0s0,4-33,4S2200,3665,2218,3663z"/>
	<path fill="#0C5880" d="M1969,3590c-15-4-81-11-148-15c-98-6-126-11-146-27c-14-11-25-26-25-34s-3-14-7-14c-8,0-10-368-5-757
		c3-173,5-203,18-203c11,0,14-8,12-27c-3-24-7-27-42-27c-23-1-41-6-44-14c-2-7,2-13,9-11c8,1,27,1,43,0c27-1,28-3,23-38
		c-3-21-3-30-1-20c3,9,14,17,24,17c21,0,34-29,24-54c-7-19-40-22-47-3c-3,6-2-7,0-30c5-41,5-43-22-43c-26,0-27,1-21,48
		c3,26,2,65-3,87l-8,40l-8-38c-4-21-5-60-3-88c4-37,2-49-8-49c-11,0-14,26-14,124c0,73,4,127,10,131c6,3,10,22,10,41
		c0,31-2,33-19,23c-14-9-42-8-122,5c-237,39-240,39-251,28c-10-10-13-291-3-300c2-2,12-1,22,2c16,5,18,16,15,117c-3,86-1,114,10,120
		c11,7,11,9,0,9c-22,0-9,33,15,36c25,4,40-13,25-28c-8-8-7-15,3-24c18-19,27-18,24,4c-3,33,1,52,11,52c6,0,10-52,10-136v-135l43,6
		c100,14,187,21,187,13c0-4-9-8-19-8c-11,0-23-4-26-10c-3-5,0-10,8-10s17-10,21-22c12-47,7-57-31-63c-21-3-59-9-85-14
		c-52-9-58-3-58,49c0,31,9,37,78,46c66,9,69,18,2,10c-30-3-70-6-87-6h-33v-66v-67l38,6c20,3,72,9,116,13c66,6,79,10,84,26
		c3,15,7,16,13,7c8-13,121-15,140-3c18,10,8,34-18,48c-20,11-23,15-10,16c25,0,40,46,28,82c-8,22-8,29,2,25c16-5,22-75,7-91
		c-8-10-4-17,14-30c38-24,75-21,86,9c7,17,17,25,34,25c13,0,32,3,42,7c14,5,16,2,12-21c-4-17-1-25,6-23c6,2,9,13,8,23
		c-3,15-1,17,9,7c7-7,26-13,41-13c21,0,28,5,28,20c0,14-5,18-17,13c-16-6-16-5-4,10c14,18,47,24,36,7c-4-6,13-10,45-10
		c46,0,51-2,45-19c-4-15-2-18,12-15c17,5,18-5,15-150c-2-98,1-163,8-176s7-20,0-20c-5,0-10-9-10-20c0-13,7-20,19-20c18,0,20-7,18-54
		c-1-33,3-60,11-67c10-10,12,38,12,243c0,141,3,264,7,273c5,15,1,17-31,13c-47-5-68,21-31,38c19,9,22,8,17-8c-2-10,1-18,7-18
		s11,6,11,13c0,8,3,7,10-3c7-12,12-12,22-2c9,9,9,12-1,12c-9,0-11,18-8,70c2,39,0,73-4,76c-5,3-9-4-9-15c0-12-5-21-10-21
		c-7,0-7-7,1-21c13-25-1-39-37-39c-13,0-24-8-27-20c-6-22-47-28-47-7c0,8-11,19-25,25c-23,11-25,10-25-13c0-21-7-27-52-39
		c-29-8-72-18-95-21c-29-5-47-14-58-31c-26-40-47-31-44,19c1,23,2,59,1,81c-2,37-3,38-29,31c-16-4-34-8-40-8c-7,0-13-5-13-10
		c0-6-3-8-6-5c-3,4,0,16,6,29c11,20,17,21,83,16c39-3,73-11,77-17c9-14,62-9,58,5c-2,6-12,10-23,10s-20,5-20,10c0,6,15,9,33,7l32-3
		v80c0,44,2,85,4,93c3,7-9,24-27,37l-32,25l24-26c15-17,20-31,15-40c-5-7-7-39-6-71c3-53,1-58-23-67c-14-5-38-7-53-4
		c-16,3-45,1-65-4c-31-9-41-7-59,8c-20,15-23,29-25,89c-2,71-2,71,30,87c18,9,42,25,54,36c16,15,29,19,47,14c15-4,26-2,26,4
		c0,5-22,10-49,10c-41,0-50-3-54-21c-5-17-12-21-36-17c-17,3-31,1-31-4c0-4-4-8-10-8c-5,0-10,15-10,33c0,28,3,32,30,34
		c24,2,30-2,30-18c0-13-4-18-12-13c-7,4-8,3-4-4s13-12,21-12c9,0,13,15,13,50c1,28-3,50-9,50c-5,0-9-3-9-7c0-5-13-8-30-8
		c-40,0-32,18,13,28c36,9,37,11,37,53v44h-42h-43v79c0,68,3,81,18,85c12,3,17-2,17-19c0-40,18-75,35-69c11,5,15-2,16-27
		c2-33,2-33,6-5l5,29l61-7c34-4,105-12,157-19l95-13l-85-7c-47-4-118-10-157-14l-73-6v-54c0-50,1-53,19-43c27,14,41,13,41-5
		c0-8,7-15,16-15c11,0,15,8,13,33c-4,41-9,52-19,37c-5-8-9-7-13,4c-5,13,1,16,36,15c23,0,36-3,30-6c-8-3-13-22-13-46
		c0-41,1-42,18-21c14,18,32,23,100,29c59,4,87,3,98-5c11-10,14-9,15,6c0,11,2,35,3,54s5,36,9,38c4,1,45,2,91,2h83l-5-115
		c-3-80-1-115,6-115c17,0,25,62,20,150l-5,80h56c64,0,97,13,59,23c-38,11-103,8-116-5c-8-8-12-8-12-1s-37,14-92,18
		c-51,4-97,12-101,19c-6,7-7,5-4-5c7-22-32-30-97-19c-27,4-56,5-65,3s-27,0-41,6c-18,7,2,9,75,7c55-2,79-1,53,1c-27,2-48,7-48,11
		s-21,6-47,6c-27-1-53,3-59,7c-6,5-25,3-43-4c-43-16-64-1-66,47c-1,43-33,73-50,46c-3-5-15-10-26-10c-10,0-19,5-19,10
		c0,6,11,10,25,10c22,0,24,3,15,19c-5,11-13,92-16,179c-7,160-7,160,18,184c22,23,35,25,146,32c136,7,182,14,182,27
		C2010,3601,2005,3601,1969,3590z M2038,2938c-6-16-42-26-102-27c-58-1-53,10,12,25C2013,2952,2043,2953,2038,2938z M1347,2433
		c-2-32-3-6-3,57s1,89,3,58C1349,2516,1349,2464,1347,2433z M1496,2574c54-9,54-9,51-83c-1-39-8-76-14-82c-16-16-143-32-158-19
		c-11,9-11,133,0,178C1381,2594,1382,2594,1496,2574z M2187,2293c-3-10-5-2-5,17s2,27,5,18C2189,2318,2189,2302,2187,2293z
		 M1347,2253c-2-16-4-3-4,27s2,43,4,28C1349,2292,1349,2268,1347,2253z M2183,2206c3-30,1-43-4-35s-8,34-8,59
		C2172,2283,2177,2274,2183,2206z"/>
	<path fill="#0C5880" d="M2938,3542l-298-25v-129c0-128,0-128,23-124c12,3,51,7,87,10c134,12,397,36,448,42l52,5v125
		c0,68-3,123-7,123C3238,3568,3101,3556,2938,3542z M3225,3439v-104l-130-12c-71-7-135-10-142-8s-15,0-18-5c-4-6-32-10-63-11
		c-31,0-84-4-117-8c-97-12-95-14-95,104v103l48,6c26,4,139,13,252,22c112,8,206,16,207,18c2,2,16,2,31,1l27-1V3439z"/>
	<path fill="#0C5880" d="M2448,3523c12-2,30-2,40,0c9,3-1,5-23,4C2443,3527,2435,3525,2448,3523z"/>
	<path fill="#0C5880" d="M2313,3513c9-2,25-2,35,0c9,3,1,5-18,5S2303,3516,2313,3513z"/>
	<path fill="#0C5880" d="M1774,3140c-21-10-32-19-23-19c8-1,20,4,26,10c9,9,23,9,55,1c24-6,75-13,113-16l70-5l-40,15
		c-23,9-58,14-82,11c-25-3-50,1-61,8C1817,3156,1807,3155,1774,3140z"/>
	<path fill="#0C5880" d="M983,3138c1-7-14-17-33-24l-35-12l55-9c57-10,82-7,59,8c-17,10-12,15,29,22c27,6,32,4,32-13
		c0-15,7-20,26-20c14,0,23-4,20-9c-5-8,15-21,31-21c2,0,2,15-2,33c-4,21-3,27,3,18c7-9,15-11,27-4c14,9,12,11-16,17c-20,4-35,2-37-4
		c-5-15-42-12-42,4s-30,26-82,26C994,3150,981,3146,983,3138z"/>
	<path fill="#0C5880" d="M720,3125c-14-17-70-21-70-5c0,6-9,10-20,10s-19-5-17-11c1-6-4-14-10-16c-7-3-13,0-13,6c0,25-60,0-61-26
		c-2-24-9-11-9,15c0,30-2,32-38,32c-21,0-41-2-43-5c-3-2-3-26,1-52c5-47,6-48,36-45l31,3l6-218c4-120,7-366,8-548c1-181,4-477,8-657
		l6-327l26-28c23-24,27-40,32-111c4-53,3-81-3-77c-12,8-12,9,4-44c11-38,19-47,49-57l37-13v38c0,20,5,42,11,48s8,16,4,23
		c-5,8-15,120-11,120c1,0,26-7,56-15s79-15,108-15c39,0,52-4,52-15c0-8-7-15-15-15s-15-5-15-11c0-12-32-9-127,10c-24,4-43,5-43,0
		c0-9,6-11,104-30l58-11l-5-33c-4-22-1-38,8-45c17-14,31,5,17,23c-27,35,2,86,46,79l28-4v342c-1,188-3,329-6,314c-4-19-8-25-13-16
		c-5,6-5,17-2,22c4,6,2,17-5,25c-16,19,4,29,30,15c12-6,35-8,52-5c21,5,28,4,24-4c-5-7,3-9,24-4c29,5,31,4,28-18c-2-17-10-25-28-27
		c-14-2-37-8-52-14c-27-10-28-13-26-77l2-66l3,61c4,61,4,61,41,72c20,6,46,13,57,14c22,4,30,27,21,63c-5,21-10,23-35,15
		c-16-4-32-5-36-2c-3,4-23,6-43,7h-37l-5,85c-3,53-12,97-23,117c-22,41-22,95,1,123c27,34,57,19,89-43c14-29,29-54,33-57
		c12-9,21-43,12-49c-4-3,0-42,9-86l17-80l2,50c1,28,2,53,2,56s-3,31-6,62c-4,37-13,64-26,79c-42,48-50,58-50,66c0,5-9,17-20,27
		c-49,44-111-26-91-103c16-60,20-92,12-92c-4,0-23,5-41,11c-89,31-77,211,17,256c28,13,33,19,20,21c-10,2-24,0-30-5c-7-4-5,0,5,9
		c13,11,30,15,56,12l37-4l-30,14c-16,9-39,15-51,16c-24,0-71-45-56-54c6-4,0-25-15-52c-56-100-18-234,67-234c27,0,34-21,20-64
		c-8-25-8-41-1-55c7-13,8-22,1-26c-6-4-7-13-1-23c4-9,9-127,10-262s4-254,7-265c5-19-2-22-66-33c-155-27-265-5-288,56
		c-11,27-16,232-28,1165c-6,405-5,487,6,487c10,0,10,3-2,13c-22,17-32,107-12,107c7,0,14,7,14,15c0,24,27,29,55,11
		c25-16,25-16,26,11c1,16,3,21,6,11c3-14,15-17,59-17c50,1,54,3,54,25C750,3143,738,3147,720,3125z M661,1210c5,0,9-4,9-10
		c0-14-13-12-36,6c-17,14-17,15-1,10C643,1213,656,1210,661,1210z M928,1180c-3-16-1-30,3-30s4-10,1-22c-5-22-6-21-18,9
		c-10,22-22,33-44,38c-52,11-33,31,34,34C930,1210,932,1208,928,1180z M654,1148c14-67,16-108,5-108c-6,0-9-6-6-13c3-8,1-20-5-28
		c-8-11-11-11-15-1c-3,7-10,18-17,24c-9,9-9,27,3,80C634,1172,646,1187,654,1148z"/>
	<path fill="#0C5880" d="M784,3115c-3-8-3-19,1-25c3-5,0-10-7-11c-7,0-2-5,11-10c20-8,23-15,19-49c-2-28,0-40,9-40s13,15,13,45
		c0,32,4,45,14,45c9,0,12-7,9-20c-4-15,0-20,16-20c20,0,21,1,7,29c-9,16-22,31-31,35c-9,3-14,2-11-3s-1-11-9-15c-11-4-15,2-15,24
		C810,3131,793,3141,784,3115z"/>
	<path fill="#0C5880" d="M3090,3101c0-23-5-31-22-34c-20-5-20-5,2-4c19,2,26,9,31,32c5,24,7,19,9-25c2-62,6-58,13,13
		c4,41,2,47-14,47C3095,3130,3090,3123,3090,3101z"/>
	<path fill="#0C5880" d="M3253,3123c9-2,25-2,35,0c9,3,1,5-18,5S3243,3126,3253,3123z"/>
	<path fill="#0C5880" d="M1762,3105c-22-12-19-14,49-30c80-20,157-26,165-13c8,12,24,10,24-4c0-10,21-13,75-11c51,1,75-2,75-10
		c1-7,7-1,15,13l14,25l1-30l2-30l10,28c5,16,8,31,5,33c-3,3-70,10-149,15c-78,5-159,14-178,19C1825,3123,1791,3121,1762,3105z
		 M1903,3093c72-7,72-7,27-14c-55-8-175,10-145,22c11,4,26,6,33,3C1826,3102,1864,3097,1903,3093z"/>
	<path fill="#0C5880" d="M876,3086c3-9,13-16,21-16c9,0,13-6,9-15c-4-13,8-15,79-15h85l3-162l3-163l1,183l1,183l-21-7
		c-12-4-23-11-25-15c-2-5-13-9-23-9c-13,0-18,4-13,12s2,9-9,5c-10-3-17-3-17,2s-15,11-32,13c-18,3-41,8-51,13
		C874,3100,871,3099,876,3086z"/>
	<path fill="#0C5880" d="M3535,3070c-3-5-7-83-10-172c-2-90-4-170-4-179c-1-13-17-17-80-22c-44-3-87-10-97-15c-17-10-17-11,7-17
		c13-3,54-1,89,4c36,6,67,11,70,11s4-87,3-192l-3-193l-27-6c-16-4-56-7-90-8c-35,0-63-5-63-11c0-5-7-10-16-10c-8,0-12,5-9,10
		c11,18-39,10-70-11c-16-12-21-18-10-14c63,23,65,22,65-39v-56h-35c-29,0-35,4-36,23c0,21-1,21-9,2c-6-16-9-10-12,25l-5,45l-1-42
		c-1-27-7-43-14-43s0-7,16-15c77-40,126-16,126,62v46l50-6c33-4,65-1,91,8c23,8,45,15,50,15s9-25,9-56v-56l-77,5l-78,6l74-14
		c41-8,80-16,87-19s14,11,17,38c7,51,9,906,3,906C3543,3080,3539,3076,3535,3070z"/>
	<path fill="#0C5880" d="M2718,3063c-16-2-28-8-28-12c0-10,28-7,60,7C2775,3069,2767,3070,2718,3063z"/>
	<path fill="#0C5880" d="M2820,3055c-33-13-33-14-9-14c15-1,32,6,39,14C2864,3072,2865,3072,2820,3055z"/>
	<path fill="#0C5880" d="M590,3040c1-11,30-43,30-33c0,16,122,26,132,11c11-18,10-72-2-84c-11-11,27-62,50-66c24-5,28-17,23-72
		c-6-64,4-57,12,9c4,28,11,58,16,68c7,13,6,17-6,17c-11,0-15,11-15,39c0,36-3,40-30,46c-26,6-30,11-30,38v32h-90
		C631,3045,590,3043,590,3040z M790,2940c0-17,5-29,11-27c6,1,14-4,16-10c3-8-5-13-21-13c-24,0-26,4-26,40c0,22,5,40,10,40
		C786,2970,790,2957,790,2940z"/>
	<path fill="#0C5880" d="M1134,3041c12-19,19-344,8-337c-5,3-14-6-20-19c-7-14-16-25-22-25c-15,0-12-26,5-40c12-10,15-38,15-136
		c0-122,0-125-24-136c-56-25-56-25-56,297c0,162-4,295-8,295s-6-159-4-352c3-287,1-351-9-340c-7,6-23,12-35,12c-19,0-21-4-15-27
		c4-15,14-29,22-31c11-4,12-3,1,10c-10,12-9,18,3,28s16,9,21-3c3-9,3-21-1-27s-3-10,2-9c20,3,24-2,13-17c-11-12-10-18,3-31
		c15-15,16-15,10,5c-4,16-1,22,11,22c15,0,15,3,1,30c-8,16-15,50-15,76c0,46,0,46,29,42c17-2,28-1,25,4s6,6,20,2l26-6v138
		c0,115,4,146,20,181c21,48,52,61,101,44c18-6,35-11,38-11s7,52,8,116l2,117l-39-6l-39-5l-7,69c-4,45-11,69-19,69c-7,0-27,3-45,7
		C1135,3051,1129,3050,1134,3041z M1193,2865c-3-16,0-49,5-72c8-35,7-43-4-43s-14,20-13,98c1,60,4,87,8,72
		C1194,2906,1195,2882,1193,2865z M1290,2850c0-10-4-22-10-25c-5-3-10-24-10-45c0-23-7-45-17-56c-17-17-18-15-25,32
		c-7,56,0,116,15,126C1260,2892,1290,2872,1290,2850z M1140,2640c0-11-7-20-15-20s-15,9-15,20s7,20,15,20S1140,2651,1140,2640z"/>
	<path fill="#0C5880" d="M1232,2809c2-7,10-15,17-17c8-3,12,1,9,9c-2,7-10,15-17,17C1233,2821,1229,2817,1232,2809z"/>
	<path fill="#0C5880" d="M2464,3038c-7-10,37-10,54,0c8,6,2,9-18,9C2483,3047,2467,3043,2464,3038z"/>
	<path fill="#0C5880" d="M2595,3030c19-8-27-13-133-15c-17,0-32-4-32-9s24-6,54-2c30,3,68,3,85,0c30-6,31-9,31-56c0-34,4-47,11-42
		c7,4,9,22,6,44c-4,33-2,39,17,44c50,14,56,9,56-45c0-43,3-50,16-45c9,3,18,6,20,6s4,13,4,29c0,39,9,61,26,61c8,0,14,5,14,10
		c0,6-10,8-24,4c-13-3-27-1-30,5c-4,6-17,11-29,11c-15,0-18-3-10-8s-2-8-24-9c-20-1-31,2-24,7c14,8-9,21-37,19
		C2578,3039,2579,3037,2595,3030z"/>
	<path fill="#0C5880" d="M1020,2975c0-14,5-25,10-25c6,0,10,11,10,25s-4,25-10,25C1025,3000,1020,2989,1020,2975z"/>
	<path fill="#0C5880" d="M2412,2861l3-118l-96-6c-53-3-112-2-130,2l-34,7l3,100c3,79,0,103-11,113c-13,10-15,5-19-34
		c-2-25,1-45,5-45c5,0,5-4,2-10c-3-5-1-10,6-10c8,0,9-3,4-9c-16-14-305-40-357-32c-45,7-48,6-48-14s4-22,48-17c41,4,53,0,82-24
		c22-18,28-20,17-7c-18,21-18,21,0,26c10,3,50,9,88,13c39,3,81,8,95,9c34,4,60-12,60-35c0-10,11-27,25-38c30-24,31-33,4-50
		c-25-16-139-7-183,14c-35,17-43,13-18-9c9-9,56-22,104-30c87-13,87-13,111,10c24,24,127,58,127,42c0-5-11-9-24-9c-20,0-23-4-19-21
		c5-16,2-20-8-17c-8,3-13,10-12,16c2,8-5,8-23,0c-23-11-23-13-7-22c10-5,27-11,38-12s19-5,18-10c-1-8,71-10,152-5c19,2,19,2,3,15
		c-22,16-24,30-4,23c8-3,16-1,18,4c4,12,38,1,38-12c0-4-7-6-15-3c-12,5-14,0-12-23c5-42,15-55,36-44c15,9,184,21,271,21
		c27,0,31,2,20,10c-13,8-13,10,3,10c9,0,17,5,17,10c0,6-12,8-27,5c-83-16-176-25-195-20c-12,4-24,2-28-4c-5-9-14-9-34-1
		c-21,8-26,15-21,30s-1,24-24,38c-31,17-40,45-20,58c8,5,10,41,6,118c-3,63-2,92,2,66c5-25,9-41,9-36c1,5,9,2,19-5
		c38-32,194-49,227-24c17,13,6,15-95,17l-114,3l-3,48l-3,47h-40h-41L2412,2861z M2354,2696c13,5,16,0,16-25c0-17-4-31-10-31
		c-5,0-10,5-10,10c0,6-7,10-16,10s-12,5-8,13c5,8,2,8-9-2c-18-15-20-9-10,28c5,22,7,22,18,7C2332,2697,2344,2692,2354,2696z"/>
	<path fill="#0C5880" d="M2524,2958c3-13,6-31,6-40c0-35,18-17,22,22c3,34,1,40-15,40C2522,2980,2519,2975,2524,2958z"/>
	<path fill="#0C5880" d="M2184,2865c0-55,1-76,3-47s2,74,0,100S2184,2920,2184,2865z"/>
	<path fill="#0C5880" d="M594,2934c3-9,6-21,6-27c0-7,5-4,11,6c5,9,22,17,36,17c36,0,26,6-20,13C595,2948,589,2946,594,2934z"/>
	<path fill="#0C5880" d="M850,2918c0-17,2-18,15-8c8,7,15,14,15,15c0,2-7,5-15,9C855,2938,850,2933,850,2918z"/>
	<path fill="#0C5880" d="M964,2924c3-9,6-37,7-62c1-57,6-46,12,26c3,41,1,52-11,52C963,2940,960,2934,964,2924z"/>
	<path fill="#0C5880" d="M1435,2926c-77-8-110-15-109-23c1-7,2-34,3-60c1-45,1-46,21-28c16,14,39,18,130,19l110,1v53
		C1590,2948,1608,2944,1435,2926z M1543,2880c-11-11-190-24-180-14c10,11,146,31,170,26C1543,2889,1548,2884,1543,2880z"/>
	<path fill="#0C5880" d="M3277,2853c-1-1-72-4-157-8c-131-4-157-8-168-22c-10-15-16-15-33-5c-16,11-27,9-67-9c-26-12-51-21-57-19
		c-5,1-22,2-37,1c-18-1-28,4-28,12c0,21,11,27,31,17c11-7,20-7,24,0c3,5-5,15-19,21c-48,22-78-34-34-65c15-11,26-12,39-6
		c26,14,33,12,19-5c-7-9-10-18-6-22c3-3,6-2,6,4s12,19,27,29c26,17,75,24,278,39c98,8,219,26,235,36c11,6,6,8-18,7
		C3294,2857,3278,2855,3277,2853z"/>
	<path fill="#0C5880" d="M3375,2833c11-3,24-9,30-14c5-5,16-9,25-9c12,1,11,4-4,15c-11,8-31,14-45,14C3360,2838,3359,2837,3375,2833
		z"/>
	<path fill="#0C5880" d="M2564,2816c-27-20-9-70,26-73c14-1,19,0,12,3c-6,3-10,10-6,15c3,5-2,9-10,9c-19,0-21,21-4,38
		C2600,2826,2586,2832,2564,2816z"/>
	<path fill="#0C5880" d="M1545,2809c-22-4-79-10-127-14l-86-7l-4-57c-3-53-1-57,17-54c11,2,56-3,100-12c101-20,117-20,133,2
		c14,20,8,76-9,82c-6,2-3,11,6,21C1603,2801,1591,2817,1545,2809z M1486,2770c9,0,12,5,8,11c-9,15,38,0,48-15c15-22,8-65-11-75
		c-10-6-20-9-22-7s-23,6-47,9c-51,5-53,7-56,46c-2,30,4,35,42,34c6-1,12,4,13,11c0,7,2,7,6-1C1469,2776,1478,2770,1486,2770z
		 M1347,2718c-2-13-4-3-4,22s2,35,4,23C1349,2750,1349,2730,1347,2718z"/>
	<path fill="#0C5880" d="M3275,2804c-11-2-46-6-78-9c-34-4-55-10-51-16c3-6,13-7,23-4c9,4,45,9,81,11s79,8,95,13c29,9,29,9-10,9
		C3313,2808,3286,2806,3275,2804z"/>
	<path fill="#0C5880" d="M962,2558l1-243l8,180c5,99,9,194,10,210c3,58-1,95-11,95C964,2800,961,2714,962,2558z"/>
	<path fill="#0C5880" d="M2917,2784c-11-11,3-24,18-17c8,3,15,1,15-5c0-5,28-9,68-7c83,3,89,1,97-36c4-16,14-33,23-39
		c9-5,13-10,8-10c-6,0-1-6,9-14c27-19,13-46-25-46c-16,0-30-5-30-10c0-7,13-8,35-4c30,5,36,3,46-20c9-19,9-29,0-40c-8-10-9-16-1-21
		c30-18-1-62-35-49c-17,7-21,44-5,44c6,0,10,4,10,9c0,9-26,9-33,0c-2-2-7-33-10-69c-4-51-3-59,5-37c13,36,49,34,59-3
		c7-28,11-21,29,48c11,43,0,146-21,183c-6,12-5,19,4,22c6,3-3,11-20,18c-28,11-33,19-33,46c0,46-29,63-83,51c-37-8-59-7-108,8
		C2931,2788,2921,2787,2917,2784z"/>
	<path fill="#0C5880" d="M3170,2751l-25-7l28-6c19-4,27-1,27,8c0,8-1,14-2,13C3196,2758,3184,2755,3170,2751z"/>
	<path fill="#0C5880" d="M2621,2734c-18-21-11-26,61-33c35-4,69-10,75-14c9-6,11-3,7,7c-6,14-44,22-83,17c-8-2-10,3-6,11
		c6,10,5,11-6,1c-17-17-29-16-29,1c0,8,8,17,18,19c14,4,14,5-3,5C2644,2749,2629,2742,2621,2734z"/>
	<path fill="#0C5880" d="M2845,2704c-16-25-16-25,4-15c11,6,30,11,44,11s24,6,24,15C2917,2741,2865,2733,2845,2704z"/>
	<path fill="#0C5880" d="M824,2684c0-19,3-34,7-34c9,0,9,59,0,64C827,2717,824,2703,824,2684z"/>
	<path fill="#0C5880" d="M3188,2693c12-2,30-2,40,0c9,3-1,5-23,4C3183,2697,3175,2695,3188,2693z"/>
	<path fill="#0C5880" d="M2861,2669c-18-11-30-23-27-27c4-3,10-2,14,4c4,5,23,17,42,27c19,9,28,17,20,17S2880,2681,2861,2669z"/>
	<path fill="#0C5880" d="M1063,2654c-3-8-1-20,6-27c8-8,11-4,11,16C1080,2673,1073,2678,1063,2654z"/>
	<path fill="#0C5880" d="M3238,2658c9-9,15-9,24,0s7,12-12,12S3229,2667,3238,2658z"/>
	<path fill="#0C5880" d="M1949,2588c0-40-2-83-3-95c-2-20,0-21,73-16c42,3,78,7,80,10c8,7-14,20-44,27c-21,5-26,4-15-3
		c24-16,3-25-32-14c-25,9-28,11-11,12c12,1,25,6,29,12c4,8,29,9,76,4c40-3,68-3,65,2s-7,29-8,54c-2,33-7,45-19,46c-9,1-53,9-99,17
		c-46,9-85,16-87,16S1950,2627,1949,2588z M2102,2609c20-11,24-34,7-45c-16-10-128-31-134-26c-8,8-6,78,3,86
		C1987,2634,2077,2623,2102,2609z"/>
	<path fill="#0C5880" d="M2168,2654c-4-6,1-20,11-31c13-13,17-29,14-46c-4-20-1-27,11-27c11,0,16-9,16-30c0-16,5-30,11-30
		c7,0,10-18,7-50c-4-58,7-67,15-12c14,90,19,102,46,108c14,4,32,11,39,17c6,5,13,6,13,1c1-5,2-13,3-19c1-5,7-27,15-49
		c8-23,11-55,7-80c-5-33-4-37,5-22c11,18,8,96-5,126c-5,12,5,15,59,16c54,0,66-3,71-18c3-10,2-22-1-28c-3-5,1-10,9-10
		c11,0,13,6,7,28c-12,42-34,72-51,72c-8,0-28-7-44-15c-36-19-56-19-56,0c0,9,9,15,24,15s26,7,29,20c4,17,0,20-28,20
		c-20,0-35-6-39-15c-3-10-19-15-45-15c-25,0-41-5-45-15c-3-8-13-15-21-15c-12,0-15,6-10,21c4,11,4,32,0,46c-5,20-10,24-30,19
		c-17-4-24-2-27,11C2176,2658,2172,2661,2168,2654z M2222,2588c-9-9-12-7-12,12s3,21,12,12S2231,2597,2222,2588z"/>
	<path fill="#0C5880" d="M3298,2628l5-33l-28,25l-27,25l8-35c5-19,9-55,9-80c0-39-3-45-22-48c-17-3-22-11-25-45c-6-54-2-58,16-15
		c8,19,27,43,41,52l26,17l-3-88l-3-88l-30,2c-64,4-100,9-111,15c-6,4-20,1-30-7c-24-18-58-20-49-2c4,6-2,3-12-9s-33-30-50-40l-33-18
		v-136v-136l36,4c33,4,34,5,19,22c-11,12-14,26-10,40c4,11,3,20-2,19c-19-3-34,2-29,10c3,4,26,2,51-6c47-16,56-34,35-74
		c-7-13-7-19,0-19c5,0,10,7,10,15s5,15,10,15c6,0,10-9,10-20s5-20,10-20c12,0,12,11,4,63c-7,41-41,67-88,67c-26,0-36,18-32,60
		c2,17,9,25,22,25c10,0,25,6,32,13c7,6,24,12,38,12s24,6,24,14s3,22,7,31c5,15,1,16-28,10c-19-4-41-12-49-17c-12-7-10-8,6-5
		s21,0,20-12c-2-10-14-17-33-18c-26-2-32,2-35,22c-6,29-2,35,25,35c37,0,97,23,97,37c0,9,7,12,18,10c9-3,40-8,67-12c28-3,62-8,78-11
		l27-6v186c0,148-3,186-13,186S3295,2650,3298,2628z"/>
	<path fill="#0C5880" d="M3350,2468c0-94,2-169,4-167s7,79,10,172c5,116,4,167-3,167S3350,2583,3350,2468z"/>
	<path fill="#0C5880" d="M2824,2599c15-12,24-25,19-29c-12-11-142-20-148-10c-3,5,12,9,32,9c46,0,70,5,80,14c4,4-18,5-48,2
		c-67-8-82-12-75-24c3-5-1-12-9-15c-10-3-15-1-13,7c3,14-2,17-33,17c-17,0-19-3-10-13c6-8,9-16,6-18c-2-3,5-10,15-17
		c16-10,20-10,20,0c0,9,3,8,10-2c6-9,10-10,10-3c0,6,9,10,20,8s20,2,20,8c0,7,4,6,10-3c9-13,10-13,10,0c0,9,3,11,8,4
		c9-14,64-13,59,1c-3,6,8,11,24,11c16,1,29-1,29-5c0-3,3-16,6-28c5-17,2-23-9-23c-9,0-18-10-20-22l-4-23l-2,23c-1,21-4,22-43,17
		c-41-6-64-15-40-15c7,0,12-8,13-17c0-15,2-15,9,2c9,20,9,20,10,0s1-20,10,0s9,20,10,0s1-20,10,0c7,17,9,17,9,3c1-22,31-24,31-3
		c0,8,7,15,15,15c18,0,19,21,4,73c-11,39-40,77-60,77C2802,2620,2809,2610,2824,2599z"/>
	<path fill="#0C5880" d="M995,2510c2-58,4-136,5-174c0-38,3-67,6-64c9,10,4,281-6,313C993,2607,992,2586,995,2510z"/>
	<path fill="#0C5880" d="M3070,2574c0-9-5-13-12-9s-6,0,3-7s19-27,23-45c6-24,3-34-11-43c-17-10-17-11,2-8c23,4,31,40,20,95
		C3089,2590,3070,2604,3070,2574z"/>
	<path fill="#0C5880" d="M2987,2562c2-10,11-19,19-19c9,0,13,6,9,14c-3,8-5,17-5,19s-6,4-14,4C2987,2580,2984,2573,2987,2562z"/>
	<path fill="#0C5880" d="M1153,2505c0-38,2-53,4-32c2,20,2,52,0,70C1155,2560,1153,2544,1153,2505z"/>
	<path fill="#0C5880" d="M2517,2563c-3-4,1-21,8-38c7-16,14-24,14-17c1,7,6,10,11,7c6-3,10-1,10,4c0,6,11,11,25,11c34,0,32,17-2,22
		c-16,3-35,8-44,12C2529,2568,2520,2568,2517,2563z"/>
	<path fill="#0C5880" d="M1282,2529c10-17,10-23,1-26c-10-4-9-8,1-19c21-21,24-18,24,26c1,33-3,40-19,40
		C1272,2550,1271,2547,1282,2529z"/>
	<path fill="#0C5880" d="M3000,2510c-12-7-12-12-3-21c15-15,26-7,21,15C3016,2515,3011,2517,3000,2510z"/>
	<path fill="#0C5880" d="M2460,2445c0-14,5-25,11-25c5,0,7,5,4,10c-4,6-1,17,5,25c10,12,9,15-4,15C2466,2470,2460,2461,2460,2445z"
		/>
	<path fill="#0C5880" d="M1278,2453c6-2,12-13,12-23s-6-21-12-23c-10-4-10-6,0-6c15-1,16-31,1-31c-5,0-7-4-4-10c3-5,13-10,21-10
		c10,0,14,14,14,55c0,51-2,55-22,54C1275,2459,1271,2456,1278,2453z"/>
	<path fill="#0C5880" d="M2410,2440c0-12,7-20,18-20c14,0,15,2,2,10c-10,6-11,10-2,10c6,0,12,5,12,10c0,6-7,10-15,10
		S2410,2451,2410,2440z"/>
	<path fill="#0C5880" d="M2540,2438c0-16,3-17,23-7c31,16,31,16,2,21C2545,2456,2540,2453,2540,2438z"/>
	<path fill="#0C5880" d="M3026,2444c-4-9-4-19-2-21c8-8,26,8,26,23C3050,2465,3034,2464,3026,2444z"/>
	<path fill="#0C5880" d="M3022,2370c-24-42-17-53,12-21c10,11,16,29,14,40C3046,2406,3041,2403,3022,2370z"/>
	<path fill="#0C5880" d="M1840,2382c0-5,14-7,30-4c17,2,30,6,30,8s-13,4-30,4C1854,2390,1840,2386,1840,2382z"/>
	<path fill="#0C5880" d="M2978,2373c-11-13-13-24-7-38c8-19,9-19,6,1c-1,11,4,28,12,37C3007,2396,2997,2395,2978,2373z"/>
	<path fill="#0C5880" d="M1265,2330c11-5,16-9,12-9c-5-1-1-9,9-18c15-16,15-17-2-24c-11-4-13-8-6-8c6-1,12-10,12-20c0-11-6-22-12-24
		c-8-3-5-6,5-6c10-1,15-5,12-11c-3-5-1-10,4-10c7,0,11,27,11,70v70l-32-1C1250,2339,1248,2337,1265,2330z"/>
	<path fill="#0C5880" d="M1191,2170c4-148,5-160,23-160c13,0,16-4,11-17c-17-40-17-60,0-67c13-5,15-2,10,14c-7,23,10,28,19,5
		c5-13,9-13,25-3c32,20,30,42-3,53c-39,13-43,32-42,202l1,133h-24h-23L1191,2170z"/>
	<path fill="#0C5880" d="M1111,2117c-2-111-4-224-5-252c-1-44,2-50,19-50c13,0,21,8,23,23c5,35,22,26,22-13c0-19-4-35-10-35
		c-5,0-10-5-10-11c0-5,4-8,10-4c5,3,11-28,13-77c2-64,3-54,5,45c2,115,4,127,20,127c17,0,18-18,20-262c2-144,6-266,9-271
		c9-15-29-74-59-92c-34-19-53-11-24,11c19,13,18,14-12,14c-31,0-32-2-32-39c0-22-4-41-10-43c-12-4-16-66-6-98c9-28,44-70,59-70
		c5,0,4,6-2,13c-15,18-3,28,25,21c20-5,23-3,18,18c-2,12-7,43-10,68c-8,77-27,75-21-3c5-65,4-68-17-65c-11,2-20,9-18,16
		c1,8-2,11-8,7s-10,12-10,42c0,47,1,49,46,72c25,14,57,39,70,56c23,31,24,32,24,314l1,283l22-5c12-3,33-8,46-11c42-10,46-22,46-146
		c0-65,3-113,7-107c4,7,8,21,8,32c0,33,54,58,135,63c70,4,71,5,67,31c-2,14,1,37,7,51c8,22,10,18,10-27c1-45,13-74,26-61
		c3,2,2,34-2,70l-6,67l-25-17c-22-15-31-14-116,2c-99,20-130,32-121,47c4,5-6,9-20,9c-23,0-26,3-21,23s2,22-34,23c-22,1-40-2-40-7
		c0-4-15-12-32-17c-18-6-41-13-50-17c-16-6-18,0-18,69c0,42,3,76,6,76s13-4,23-10c16-8,17-6,13,16c-3,19-7,22-13,12c-5-8-9,15-9,57
		c0,119-12,235-24,235C1118,2320,1114,2256,1111,2117z M1470,1771c60-14,75-22,75-36c0-15-12-21-60-30c-33-7-72-15-87-20
		c-28-7-28-7-28,42c0,46,5,64,19,63C1392,1789,1429,1781,1470,1771z"/>
	<path fill="#0C5880" d="M1949,2213c-2-204,0-305,5-311c13-12,18,10,17,77c0,68,0,71,24,71c14,0,25-7,28-17c4-16,5-16,6-1
		c0,9,9,19,19,21c9,3-1,5-23,6c-41,1-41,1-40,41v40l45,1c31,0,39,3,26,8c-11,4-23,16-27,27c-6,15-8,16-8,3c-1-10-12-19-26-21l-25-5
		v83c0,49-4,84-10,84S1950,2277,1949,2213z"/>
	<path fill="#0C5880" d="M1688,2243c-22-6-23-19-2-27c29-11,44-6,44,14S1722,2252,1688,2243z"/>
	<path fill="#0C5880" d="M901,2221c-6-10-7-21-4-25c12-12,18-6,18,19C915,2245,914,2246,901,2221z"/>
	<path fill="#0C5880" d="M1606,2224c-11-29-7-346,4-339c7,5,10,67,8,181c-2,96-3,174-4,174S1609,2233,1606,2224z"/>
	<path fill="#0C5880" d="M3140,2200c0-22,5-40,10-40c6,0,10,18,10,40s-4,40-10,40C3145,2240,3140,2222,3140,2200z"/>
	<path fill="#0C5880" d="M3243,2205c0-22,2-30,4-17c2,12,2,30,0,40C3244,2237,3242,2227,3243,2205z"/>
	<path fill="#0C5880" d="M1460,2214c-52-7-99-13-103-13c-4-1-6-43-5-93c3-90,4-93,26-91c12,2,22-2,22-7c0-6,10-10,23-9
		c18,1,15,4-15,17l-38,17v67c0,37,4,69,9,72c18,12,129,22,150,14c20-7,22-14,20-79c-2-82-14-99-67-99c-58,0-23-21,37-22
		c30-1,55-7,59-14c7-13,4,222-3,244c-2,6-8,11-12,11C1559,2228,1512,2222,1460,2214z"/>
	<path fill="#0C5880" d="M760,2203c-44-8-49-25-6-21c22,2,41,9,44,16c2,6,0,11-5,11C789,2208,774,2205,760,2203z"/>
	<path fill="#0C5880" d="M1642,2063l3-149l23,4c19,4,23,1,20-14c-2-11-11-18-20-18c-10,1-21-10-28-29c-12-36-3-124,14-130
		c7-3,34,6,60,19s57,24,68,24c14,0,18,5,14,15c-3,8-1,15,4,15c6,0,10-4,10-10c0-5,9-10,20-10s20,4,20,8c0,10,45,32,65,32
		c8,0,15-4,15-10c0-5-8-10-17-10c-10,0-24-4-32-9c-8-6,0-8,25-7c31,1,44,7,62,30c27,37,28,48,2,64c-21,13-22,12-23-33c0-16-1-17-4-3
		c-4,17-7,17-35,2c-39-20-141-15-164,8c-13,13-16,44-16,177c0,88-3,163-6,165c-4,2-24,7-45,11l-39,8L1642,2063z M1780,1793
		c0-5-93-43-106-43c-20,0-18,64,2,95l16,24l44-36C1760,1812,1780,1795,1780,1793z"/>
	<path fill="#0C5880" d="M2659,2180c13-12,38-20,59-20c41,0,40,6-2,14c-16,3-34,10-40,16c-5,5-17,10-25,10
		C2639,2199,2641,2194,2659,2180z"/>
	<path fill="#0C5880" d="M1283,2183c9-2,15-8,12-13s-1-11,5-15c5-3,10-1,10,5s5,8,10,5c6-3,10-2,10,3c0,10-35,23-55,21
		C1270,2188,1273,2186,1283,2183z"/>
	<path fill="#0C5880" d="M3096,2175c4-8,10-12,15-9c14,8,10,24-6,24C3096,2190,3093,2184,3096,2175z"/>
	<path fill="#0C5880" d="M1821,2159c0-9-9-20-18-24c-17-6-17-7-1-16c10-5,25-5,40,0c16,7,18,10,6,10c-9,1-19,11-21,24
		C1825,2165,1822,2168,1821,2159z"/>
	<path fill="#0C5880" d="M1065,2148c-3-7-1-26,4-43c9-29,9-29,10,13C1080,2159,1074,2172,1065,2148z"/>
	<path fill="#0C5880" d="M1288,2134c6-3,10-10,7-14c-3-5,4-8,15-7c28,2,19,21-11,24C1286,2138,1281,2137,1288,2134z"/>
	<path fill="#0C5880" d="M1771,2075c0-38,2-46,10-33c6,11,6,29,0,50C1772,2124,1772,2123,1771,2075z"/>
	<path fill="#0C5880" d="M1283,2093c9-2,17-12,18-21c0-11,2-12,6-4c2,6,9,10,14,6c5-3,9-1,9,4c0,10-35,23-55,21
		C1270,2098,1273,2096,1283,2093z"/>
	<path fill="#0C5880" d="M1288,2043c6-2,9-10,5-16c-4-7,0-8,11-4c10,4,20,7,22,7c3,0,2,5-1,10c-3,6-16,10-28,9
		C1285,2049,1281,2046,1288,2043z"/>
	<path fill="#0C5880" d="M3047,2036c-6-16,2-28,14-20c12,7,11,34,0,34C3056,2050,3050,2044,3047,2036z"/>
	<path fill="#0C5880" d="M1800,2030c-15-10-15-10,25-10c3,0,5,3,6,7C1832,2039,1816,2040,1800,2030z"/>
	<path fill="#0C5880" d="M2665,2020c-7-12,2-30,16-30c5,0,9,9,9,20C2690,2031,2675,2037,2665,2020z"/>
	<path fill="#0C5880" d="M984,1987c-9-9-7-24,7-60c11-27,17-53,14-58c-4-5-2-9,4-9s9,21,7,53c-2,28-4,60-5,70
		C1010,2003,1000,2004,984,1987z"/>
	<path fill="#0C5880" d="M1413,1975c-3-9-3-19,1-22c3-4,6-1,6,5c0,7,12,12,28,13c24,0,25,1,7,9C1426,1993,1420,1992,1413,1975z"/>
	<path fill="#0C5880" d="M1479,1963c-1-10-2-27-3-37c-1-11-7-21-14-23c-7-3-10,1-6,11c5,12,0,16-21,16c-20,0-26-4-23-17
		c3-15,14-18,68-16c89,4,110,10,110,33c0,14-5,18-17,13c-11-4-14-3-9,5s0,12-12,12c-15,0-19-6-17-25c3-27-12-34-21-10
		c-4,8-13,15-21,15c-12,0-13,3-4,14c8,10,9,16,1,21C1485,1978,1479,1973,1479,1963z"/>
	<path fill="#0C5880" d="M3071,1956c-17-20-71-27-63-8c4,11,0,13-16,8c-51-17-143-25-201-19c-51,5-63,3-59-7c2-8,23-14,53-16
		c53-2,70-16,109-85c10-19,21-29,23-22c3,7-9,29-26,50c-16,20-28,40-26,44c4,6,67,18,130,24c11,1,31-2,43-7c31-11,80,23,58,41
		C3086,1967,3080,1967,3071,1956z"/>
	<path fill="#0C5880" d="M1148,1953c6-2,12-16,12-29s5-24,10-24c11,0,12,6,4,38c-4,12-14,22-23,21C1141,1959,1140,1957,1148,1953z"
		/>
	<path fill="#0C5880" d="M1320,1926c0-19,5-38,10-41c6-4,10,10,10,34c0,23-4,41-10,41C1325,1960,1320,1945,1320,1926z"/>
	<path fill="#0C5880" d="M2655,1951c-3-5,0-13,6-17c8-4,7-9-2-15c-23-14-32-10-26,12c5,19,3,21-25,15c-17-3-40-6-52-6
		c-17-1-15-4,11-15c70-30,133-119,174-245c10-30,18-45,18-34c1,12,8,24,16,27c11,5,7,17-20,58c-37,54-43,74-22,82c7,4,5,8-8,12
		c-11,3-29,20-40,38c-28,47-30,51-11,44c10-4,24-1,33,8c13,14,11,16-16,21c-17,4-28,10-25,15s3,9,0,9S2659,1956,2655,1951z"/>
	<path fill="#0C5880" d="M2115,1879c-16-10-45-19-62-19c-32,0-33-2-33-40c0-35,3-40,22-40c32,0,99-50,114-85c12-26,13-27,14-7
		c0,12,3,22,8,22c4,0,6-82,4-182c-3-139-7-188-18-206c-8-12-20-20-26-16s-8,3-5-4c4-5-5-21-21-34c-27-22-27-23-8-42
		c12-13,15-21,7-25c-7-5-3-15,13-30l25-23l-35-33c-35-33-72-49-109-47c-14,1-16,0-5-5c8-3,18-11,22-17c5-8,8-7,8,2c0,6,9,12,20,12
		c35,0,11-29-28-33c-31-3-29-4,13-5c59-3,71-9,78-42c3-14,4,2,2,35c-1,33-5,66-6,74c-6,25,31,24,54,0c16-18,17-21,4-16
		c-9,3-19,2-22-3c-4-6-2-10,3-10c15,0,29-49,30-110c2-61-8-86-32-77c-9,4-16,2-16-4c0-5,6-12,14-15c11-4,13-12,5-31
		c-14-37-12-38,37-35c46,4,53,14,11,17c-32,2-27,29,8,36l30,7l-32,1c-37,1-44,16-13,26c18,6,20,15,20,96c0,87-1,89-20,79
		c-11-6-20-7-20-2s12,15,28,22l27,13l-27,11c-27,9-38,26-19,26c11,0,11-5,19,305c4,143,11,266,15,273c5,7,4,12-2,12s-8,7-5,15
		c4,8,1,15-6,15c-6,0-8-4-5-10c3-5-1-10-9-10c-10,0-13,6-10,15c4,8,1,15-5,15s-11,12-11,26c0,31,20,28,36-5c11-21,12-22,17-2
		c3,14-1,22-14,26c-10,4-19,13-19,21c0,17-31,19-48,2c-7-7-12-22-12-35s-3-23-8-23c-7,0-62,48-62,54c0,2,25,16,55,31
		c30,14,55,33,55,41C2160,1904,2152,1903,2115,1879z M2171,1202c-6-2-9-8-6-12c3-5,1-11-5-15c-5-3-10,1-10,9c0,9-4,16-10,16
		c-5,0-10,16-10,36c0,25,7,41,23,54l22,18l3-51C2180,1227,2177,1204,2171,1202z M2110,1035c0-8-4-15-9-15c-13,0-22,16-14,24
		C2098,1055,2110,1050,2110,1035z"/>
	<path fill="#0C5880" d="M1360,1881c0-10,63-28,142-39c50-8,60-6,74,10c10,10,15,20,13,22s-31,0-64-5c-71-12-111-8-107,9
		c1,7-9,12-28,12C1374,1890,1360,1886,1360,1881z"/>
	<path fill="#0C5880" d="M2768,1834c-4-3,2-25,11-47c36-83,52-159,53-245c0-48-4-98-9-112s-7-38-3-55c6-30,6-29,24,20
		c29,82,32,196,7,294C2824,1797,2790,1857,2768,1834z"/>
	<path fill="#0C5880" d="M1291,1818c15-17,41-20,36-4c-2,6-14,13-26,14C1281,1831,1280,1830,1291,1818z"/>
	<path fill="#0C5880" d="M1292,1770c7-10,17-16,25-13c17,7,9,19-16,26C1284,1787,1283,1785,1292,1770z"/>
	<path fill="#0C5880" d="M1959,1756c10-11,7-17-11-30c-12-9-17-16-10-16s19,8,28,18c19,23,61,18,69-8c3-10,15-20,26-23
		c22-6,22-28,1-35c-7-2-10,2-6,11c4,11-5,19-33,26c-51,14-63,14-63-3c0-12-19-14-103-12c-57,1-108,6-115,10c-20,12-14-12,9-35
		c12-12,27-18,36-15c9,4,49,9,89,13c63,5,74,4,74-9c0-11-14-18-47-22c-100-14-104-15-92-38c7-14,14-17,18-9c6,9,92,31,122,31
		c5,0,18-10,30-22c20-21,21-22,16-3c-7,24,23,65,47,65c21,0,59-86,53-119c-3-14,0-32,5-41c16-25,0-107-24-130c-20-19-20-19-1-44
		c14-18,23-22,31-14s6,15-5,26c-12,12-12,17-3,20c7,3,16-1,20-8c10-17,30,68,30,132c0,107-48,219-114,266
		C1990,1771,1936,1784,1959,1756z M2008,1651c-30-39-48-39-48-1c0,28,3,30,36,30h36L2008,1651z M2132,1498c-9-9-12-7-12,12
		s3,21,12,12S2141,1507,2132,1498z"/>
	<path fill="#0C5880" d="M1840,1745c0-17-16-20-23-5c-3,6-4,5-3-2c5-23,36-22,36,1c0,12-2,21-5,21S1840,1753,1840,1745z"/>
	<path fill="#0C5880" d="M1130,1741c-24-7-25-10-25-81c0-62,3-75,17-78c21-4,37,46,35,116c0,28-1,52-1,51
		C1155,1748,1144,1745,1130,1741z"/>
	<path fill="#0C5880" d="M1291,1728c15-17,41-20,36-4c-2,6-14,13-26,14C1281,1741,1280,1740,1291,1728z"/>
	<path fill="#0C5880" d="M2880,1715c0-8,5-15,10-15c6,0,10,7,10,15s-4,15-10,15C2885,1730,2880,1723,2880,1715z"/>
	<path fill="#0C5880" d="M1690,1714c0-7-11-9-25-6c-18,3-25,0-25-12c0-16,22-20,52-8c13,5,15,11,8,22C1695,1718,1690,1720,1690,1714
		z"/>
	<path fill="#0C5880" d="M1292,1681c6-11,18-17,26-13c12,4,12,8-4,19C1288,1706,1278,1703,1292,1681z"/>
	<path fill="#0C5880" d="M1010,1602l5-87l3,79c2,44-1,83-5,87S1007,1650,1010,1602z"/>
	<path fill="#0C5880" d="M3140,1645c-20-24-6-28,15-5c10,11,13,20,8,20C3157,1660,3147,1653,3140,1645z"/>
	<path fill="#0C5880" d="M1291,1637c7-7,21-14,32-14c15-2,16,1,7,13c-7,8-21,14-32,14C1283,1650,1282,1647,1291,1637z"/>
	<path fill="#0C5880" d="M1201,1624c-1-28-59-94-82-94c-17,0-19-8-18-62c1-77,15-195,18-153c14,209,12,200,38,207c18,5,19-1,21-69
		c1-40,6-81,12-91c7-12,9,12,6,82c-2,55,0,112,6,127c5,15,8,38,5,51C1203,1643,1203,1643,1201,1624z"/>
	<path fill="#0C5880" d="M1695,1599c-5-14,0-28,14-43c25-26,47-96,34-105c-10-7-10-15,1-53c10-35,0-78-18-78c-15,0-26-21-26-51
		c0-46,41-5,64,64c18,54,20,77,7,77c-5,0-12,7-15,16c-5,12-2,15,10,10c14-6,16-1,10,35c-8,51-37,118-43,102c-10-26-25-12-19,17
		C1720,1624,1705,1631,1695,1599z M1732,1285c0-5-5-11-11-13s-11,4-11,13s5,15,11,13S1732,1290,1732,1285z"/>
	<path fill="#0C5880" d="M1293,1603c4-3,7-10,7-17s7-13,15-13s15,6,15,14c0,7-4,13-9,13s-15,2-23,3C1291,1605,1288,1605,1293,1603z"
		/>
	<path fill="#0C5880" d="M1071,1543c1-39,2-43,9-23c12,36,12,70,0,70C1075,1590,1070,1569,1071,1543z"/>
	<path fill="#0C5880" d="M980,1460c0-68,2-121,5-118c7,7,8,229,1,236C982,1581,980,1528,980,1460z"/>
	<path fill="#0C5880" d="M1291,1547c7-7,21-14,32-14c15-2,16,1,7,13c-7,8-21,14-32,14C1283,1560,1282,1557,1291,1547z"/>
	<path fill="#0C5880" d="M1288,1513c6-2,12-11,12-19c0-17,43-3,46,15c1,6,0,7-2,2c-4-6-14-7-30,0C1288,1520,1264,1523,1288,1513z"/>
	<path fill="#0C5880" d="M1009,1478c-3-13-1-41,2-63c5-35,6-33,8,23C1020,1501,1015,1519,1009,1478z"/>
	<path fill="#0C5880" d="M1291,1457c7-7,21-14,32-14c15-2,16,1,7,13c-7,8-21,14-32,14C1283,1470,1282,1467,1291,1457z"/>
	<path fill="#0C5880" d="M2932,1418c-14-54-10-58,16-14c17,28,18,37,8,46C2945,1458,2940,1451,2932,1418z"/>
	<path fill="#0C5880" d="M1354,1430c3-14,6-63,7-110s3-77,6-67c3,11,11,16,19,13c7-3,16,0,20,6c4,7,3,8-4,4s-12-1-12,8
		c0,10,6,13,17,9c12-5,15-2,10,10c-5,13,2,12,36-6s43-28,45-55c2-24,11-36,33-48c21-10,29-20,25-31c-5-11-2-14,10-9c8,3,20,6,25,6
		c23,0-7,29-42,39c-34,10-39,16-39,41c0,16,5,32,11,36c7,4-7,13-32,21c-24,8-55,26-70,39c-14,13-30,24-37,24s-12,8-12,18
		c0,14,2,15,10,2c17-26,11-5-11,36C1355,1442,1351,1447,1354,1430z"/>
	<path fill="#0C5880" d="M1288,1423c6-2,12-11,12-18c0-9,7-11,21-8c21,6,21,7,4,20c-11,7-26,13-34,12C1280,1429,1279,1427,1288,1423
		z"/>
	<path fill="#0C5880" d="M3220,1403c0-5,6-17,13-27c12-16,21-17,78-9l64,9l-60,13c-33,7-68,15-77,17C3228,1409,3220,1407,3220,1403z
		"/>
	<path fill="#0C5880" d="M1292,1371c5-9,18-17,29-17c22,0,7,21-21,29C1285,1387,1283,1385,1292,1371z"/>
	<path fill="#0C5880" d="M1841,1358c-7-21-18-38-25-38s-25-13-41-30c-20-21-24-30-14-30c9,0,28,14,42,30c15,17,35,30,45,30
		c24,0,34,10,23,24c-5,6-11,20-13,31C1855,1390,1851,1386,1841,1358z"/>
	<path fill="#0C5880" d="M1013,1317c0-32,4-60,8-63c11-6,10,60,0,96C1016,1368,1013,1358,1013,1317z"/>
	<path fill="#0C5880" d="M1948,1343c-33-5-36-19-8-28c27-9,26-35-2-35c-13,0-43-7-67-16c-48-16-186-27-238-18c-24,5-30,10-26,22
		c4,14,3,14-5,3c-5-7-15-10-21-7c-6,4-11,1-11-8c0-14,15-19,85-31c56-9,228,12,276,34c47,21,68,46,46,54c-9,3-8,8,2,20
		c7,10,10,16,5,16C1979,1348,1963,1345,1948,1343z"/>
	<path fill="#0C5880" d="M1293,1333c9-2,15-9,12-14c-4-5,4-9,16-9c18,0,19,2,9,15c-7,8-22,14-34,14C1279,1338,1278,1337,1293,1333z"
		/>
	<path fill="#0C5880" d="M2892,1328c-18-18-14-28,11-27c17,1,18,2,4,6s-16,8-6,19C2915,1343,2909,1345,2892,1328z"/>
	<path fill="#0C5880" d="M1288,1293c6-2,12-10,12-17c0-6,9-12,20-12c28,0,25,15-6,26C1289,1300,1264,1303,1288,1293z"/>
	<path fill="#0C5880" d="M1954,1222c-14-22-126-42-239-42c-95,0-99-1-71-15c32-17,132-20,141-5c3,6,17,10,31,10c27,0,27-4,4-66
		c-13-33-71-86-87-79c-11,4-13,1-9-11c4-10-1-25-10-35c-10-11-12-19-6-19s14,5,18,11s20,9,39,6c18-3,52-2,76,1c42,7,42,7-26,12
		l-69,5l58,57c48,48,62,57,84,53l27-5l-27,11c-16,6-28,14-28,19c0,11,60,47,85,52c11,1,27,11,35,22c10,11,29,18,53,18
		c20,0,37,4,37,8C2070,1245,1964,1238,1954,1222z"/>
	<path fill="#0C5880" d="M2371,1209c-24-5-45-10-47-12c-3-2,9-37,26-77c16-40,30-79,30-87c0-12,9-13,43-8c59,9,77,15,77,25
		c0,24-63,170-73,169C2420,1218,2395,1214,2371,1209z M2447,1126c26-62,23-74-17-78c-20-2-29,4-43,34c-10,20-21,53-24,73
		c-6,36-6,36,27,33C2419,1185,2424,1179,2447,1126z"/>
	<path fill="#0C5880" d="M2682,1198c-25-13-45-69-28-80c16-11,28-10,21,2c-4,7,12,9,47,6c29-2,43-2,31,1c-13,2-23,9-23,15s3,8,7,5
		c3-4,13-1,21,6c12,9,16,9,19,0c3-7,13-13,24-13c32,0,16-25-21-31l-35-6l43-2c36-1,42,2,42,19c0,18,5,20,43,15c24-3,5,5-45,19
		c-48,13-94,31-103,40s-17,16-18,15C2706,1209,2695,1204,2682,1198z M2725,1165c0-14-8-21-27-23c-31-4-33,0-17,29
		C2694,1196,2725,1192,2725,1165z"/>
	<path fill="#0C5880" d="M1361,1153c-1-24,3-33,15-33s14,3,6,13c-5,6-12,21-15,32C1364,1178,1362,1174,1361,1153z"/>
	<path fill="#0C5880" d="M1020,1155c-9-40,21-147,37-131c3,3,0,12-7,21c-7,8-16,38-20,67S1021,1161,1020,1155z"/>
	<path fill="#0C5880" d="M1627,1153c-4-3-7-14-7-24c0-18-43-31-140-44c-25-3-58-9-74-12c-29-5-29-5-11,13s18,19,0,23
		c-10,2-25-6-34-17s-29-23-46-26c-16-2,24-2,90,1c107,4,155,8,177,12c16,3,68,54,68,67C1650,1161,1638,1165,1627,1153z"/>
	<path fill="#0C5880" d="M3120,1135c0-8,7-15,15-15s15,4,15,9s-7,11-15,15C3126,1147,3120,1144,3120,1135z"/>
	<path fill="#0C5880" d="M1565,1130c27-12,35-12,35,0c0,6-12,10-27,9C1548,1139,1547,1138,1565,1130z"/>
	<path fill="#0C5880" d="M1671,1122c-17-31-13-40,5-14c9,13,14,26,11,29C1684,1139,1677,1133,1671,1122z"/>
	<path fill="#0C5880" d="M1480,1114c0-11,6-14,23-9c38,12,43,25,9,25C1490,1130,1480,1125,1480,1114z"/>
	<path fill="#0C5880" d="M2951,1119c6-3,9-21,7-39c-2-20,2-35,10-37c7-3,12,5,12,21c0,14,8,34,18,44c17,17,16,17-20,17
		C2958,1125,2946,1123,2951,1119z"/>
	<path fill="#0C5880" d="M1437,1114c-8-8,1-24,14-24c5,0,9,7,9,15C1460,1120,1448,1125,1437,1114z"/>
	<path fill="#0C5880" d="M3151,1107c2-1,11-8,20-15c13-10,19-9,29,3c11,13,8,15-20,15C3161,1110,3149,1109,3151,1107z"/>
	<path fill="#0C5880" d="M940,1073c-10-12-11-18-2-21c7-2,12-10,12-17c0-12,21-25,40-25c5,0,1,18-8,40C963,1095,961,1096,940,1073z"
		/>
	<path fill="#0C5880" d="M1226,1075c-4-11,2-15,25-15c27,0,29,2,15,15c-8,8-19,15-24,15C1236,1090,1230,1083,1226,1075z"/>
	<path fill="#0C5880" d="M490,1056c0-18,6-22,53-30c49-9,48,8-3,28C491,1074,490,1074,490,1056z"/>
	<path fill="#0C5880" d="M717,1063c-8-13,16-28,43-29c14,0,39-4,55-9c44-11,22,6-33,27C729,1072,723,1073,717,1063z"/>
	<path fill="#0C5880" d="M1883,1063c-24-8-13-19,20-20c17-1,25,1,17,4s-17,9-20,13S1889,1065,1883,1063z"/>
	<path fill="#0C5880" d="M3176,1055c-4-11-22-16-63-17c-54-1-55-2-13-5c64-6,110,4,103,22C3196,1074,3184,1074,3176,1055z"/>
	<path fill="#0C5880" d="M1656,1034c-20-20-21-50-1-58c12-4,14,0,9,18c-4,18,0,28,17,40c18,12,20,16,7,16
		C1679,1050,1664,1043,1656,1034z"/>
	<path fill="#0C5880" d="M2920,1043c0-10,42-43,55-43c3,0,5,7,5,15s-8,15-18,15s-23,5-30,12C2924,1050,2920,1050,2920,1043z"/>
	<path fill="#0C5880" d="M1820,1031c0-12,91-40,105-33c5,3,4,7-3,10c-7,2-9,8-6,14c5,7-5,9-27,6c-19-3-42-1-51,4
		C1827,1037,1820,1037,1820,1031z"/>
	<path fill="#0C5880" d="M1686,1005c-3-9,0-15,9-15c8,0,15,7,15,15s-4,15-9,15S1690,1013,1686,1005z"/>
	<path fill="#0C5880" d="M2050,980c0-20,5-30,15-30c9,0,15,9,15,24c0,13-7,26-15,30C2054,1008,2050,1002,2050,980z"/>
	<path fill="#0C5880" d="M1044,967c20-18,24-26,15-30c-8-3-2-6,12-6c15-1,42-3,60-6l34-5l-34,11c-18,5-52,21-75,35l-41,25L1044,967z
		"/>
	<path fill="#0C5880" d="M1880,955c0-8,5-15,10-15c6,0,10,7,10,15s-4,15-10,15C1885,970,1880,963,1880,955z"/>
	<path fill="#0C5880" d="M1655,926c-43-23-62-23-320-13c-119,5-122,5-40-4c50-4,136-13,192-19s151-24,210-41c87-25,119-29,164-24
		c30,4,62,11,70,16c16,10,13,10-98,13c-38,2-95,11-127,20c-56,17-58,20-40,33c11,8,29,11,44,8c14-4,34-9,45-11s43-9,71-15
		c34-8,57-8,69-2c13,8-6,16-89,36c-58,15-107,26-108,26C1696,948,1677,938,1655,926z"/>
	<path fill="#0C5880" d="M4283,910c0-25,2-35,4-22c2,12,2,32,0,45C4285,945,4283,935,4283,910z"/>
	<path fill="#0C5880" d="M856,911c5-5,56-20,114-35c123-32,150-38,132-30c-6,3-10,10-6,15c3,5-13,9-34,9c-23,0-45,6-52,15
		s-15,13-18,11c-2-3-12-1-21,4C950,911,845,921,856,911z"/>
	<path fill="#0C5880" d="M1505,790c33-11,74-20,91-20c16,0,36-6,43-12c10-11,14-10,21,2c6,10,23,15,54,15c30,0,46,4,46,13
		c0,15-3,15-70,2c-34-7-72-7-109,0C1451,812,1441,812,1505,790z"/>
	<path fill="#0C5880" d="M2061,794c-18-8-56-16-83-18s-57-11-67-20s-47-21-82-27c-82-13-86-19-11-16c33,1,58,5,56,8s40,16,94,28
		c166,38,156,35,141,48C2098,806,2087,805,2061,794z"/>
	<path fill="#0C5880" d="M1430,756c47-13,86-23,88-21c5,5-91,34-133,40C1363,778,1383,769,1430,756z"/>
</g>
</svg>
