<?xml version="1.0" encoding="UTF-8"?>
<svg xmlns="http://www.w3.org/2000/svg" version="1.1" xmlns:xlink="http://www.w3.org/1999/xlink" viewBox="0 0 80 80">
  <!-- Generator: Adobe Illustrator 29.2.1, SVG Export Plug-In . SVG Version: 2.1.0 Build 116)  -->
  <defs>
    <style>
      .st0 {
        fill: url(#radial-gradient2);
      }

      .st0, .st1, .st2, .st3 {
        mix-blend-mode: multiply;
      }

      .st4 {
        mask: url(#mask-1);
      }

      .st5 {
        mask: url(#mask);
      }

      .st6 {
        fill: url(#linear-gradient1);
      }

      .st7 {
        fill: #ea9485;
      }

      .st7, .st8 {
        mix-blend-mode: screen;
      }

      .st7, .st8, .st2 {
        opacity: .5;
      }

      .st9 {
        fill: none;
      }

      .st8 {
        fill: url(#linear-gradient5);
      }

      .st8, .st10 {
        display: none;
      }

      .st11 {
        fill: url(#radial-gradient1);
      }

      .st12 {
        clip-path: url(#clippath-1);
      }

      .st13 {
        isolation: isolate;
      }

      .st14 {
        fill: #0c5880;
      }

      .st1 {
        fill: url(#linear-gradient2);
      }

      .st15 {
        fill: url(#linear-gradient4);
      }

      .st16 {
        fill: url(#linear-gradient3);
      }

      .st2 {
        fill: url(#radial-gradient);
      }

      .st17 {
        fill: #cccfd2;
      }

      .st18 {
        fill: url(#radial-gradient3);
      }

      .st19 {
        fill: url(#linear-gradient);
      }

      .st20 {
        clip-path: url(#clippath);
      }

      .st3 {
        fill: url(#radial-gradient4);
      }
    </style>
    <linearGradient id="linear-gradient" x1="15.4" y1="13.6" x2="66.1" y2="64.2" gradientUnits="userSpaceOnUse">
      <stop offset="0" stop-color="#dee0e2"/>
      <stop offset=".3" stop-color="#fff"/>
      <stop offset=".3" stop-color="#fdfdfd"/>
      <stop offset=".3" stop-color="#e5e6e8"/>
      <stop offset=".3" stop-color="#d2d5d7"/>
      <stop offset=".3" stop-color="#c5c8cb"/>
      <stop offset=".4" stop-color="#bdc1c5"/>
      <stop offset=".4" stop-color="#bbbfc3"/>
      <stop offset=".5" stop-color="#c3c7ca"/>
      <stop offset=".5" stop-color="#d7dadc"/>
      <stop offset=".6" stop-color="#e3e6e7"/>
      <stop offset=".6" stop-color="#e8eaeb"/>
      <stop offset=".7" stop-color="#b7bcc4"/>
      <stop offset=".7" stop-color="#949ca9"/>
      <stop offset=".8" stop-color="#a0a6b1"/>
      <stop offset="1" stop-color="#bbbfc3"/>
    </linearGradient>
    <radialGradient id="radial-gradient" cx="41.8" cy="2.5" fx="41.8" fy="2.5" r="59.5" gradientUnits="userSpaceOnUse">
      <stop offset=".8" stop-color="#fff"/>
      <stop offset=".8" stop-color="#f5f5f5"/>
      <stop offset=".8" stop-color="#c7c7c7"/>
      <stop offset=".8" stop-color="#9c9c9c"/>
      <stop offset=".8" stop-color="#777"/>
      <stop offset=".8" stop-color="#565656"/>
      <stop offset=".8" stop-color="#3b3b3b"/>
      <stop offset=".8" stop-color="#252525"/>
      <stop offset=".8" stop-color="#141414"/>
      <stop offset=".8" stop-color="#080808"/>
      <stop offset=".9" stop-color="#010101"/>
      <stop offset=".9" stop-color="#000"/>
    </radialGradient>
    <radialGradient id="radial-gradient1" cx="59.2" cy="70" fx="59.2" fy="70" r="76.2" gradientUnits="userSpaceOnUse">
      <stop offset="0" stop-color="#3b3730"/>
      <stop offset="0" stop-color="#37332c"/>
      <stop offset="1" stop-color="#141310"/>
    </radialGradient>
    <radialGradient id="radial-gradient2" cx="58.9" cy="70" fx="58.9" fy="70" r="75.7" gradientUnits="userSpaceOnUse">
      <stop offset="0" stop-color="#3b3730"/>
      <stop offset=".2" stop-color="#2b2923"/>
      <stop offset=".7" stop-color="#0c0b09"/>
      <stop offset="1" stop-color="#000"/>
    </radialGradient>
    <linearGradient id="linear-gradient1" x1="40.7" y1="6.3" x2="40.7" y2="69.9" gradientUnits="userSpaceOnUse">
      <stop offset="0" stop-color="#595b5e"/>
      <stop offset=".3" stop-color="#787b7e"/>
      <stop offset="1" stop-color="#c9cccf"/>
      <stop offset="1" stop-color="#cccfd2"/>
    </linearGradient>
    <radialGradient id="radial-gradient3" cx="43.2" cy="43" fx="43.2" fy="43" r="10.3" gradientUnits="userSpaceOnUse">
      <stop offset="0" stop-color="#1f1d19"/>
      <stop offset="1" stop-color="#141310"/>
    </radialGradient>
    <linearGradient id="linear-gradient2" x1="43.7" y1="41.9" x2="39.7" y2="37.8" gradientUnits="userSpaceOnUse">
      <stop offset="0" stop-color="#3b3830"/>
      <stop offset="0" stop-color="#37342c"/>
      <stop offset="1" stop-color="#141310"/>
    </linearGradient>
    <linearGradient id="linear-gradient3" x1="31.2" y1="29.3" x2="49.2" y2="47.3" gradientUnits="userSpaceOnUse">
      <stop offset="0" stop-color="#141310"/>
      <stop offset=".3" stop-color="#1f1d19"/>
      <stop offset=".5" stop-color="#141310"/>
      <stop offset=".6" stop-color="#1f1d19"/>
      <stop offset=".8" stop-color="#1d1b17"/>
      <stop offset=".8" stop-color="#171612"/>
      <stop offset="1" stop-color="#141310"/>
    </linearGradient>
    <filter id="luminosity-noclip" x="10.1" y="-8292" width="61.2" height="32766" color-interpolation-filters="sRGB" filterUnits="userSpaceOnUse">
      <feFlood flood-color="#fff" result="bg"/>
      <feBlend in="SourceGraphic" in2="bg"/>
    </filter>
    <mask id="mask-1" x="10.1" y="-8292" width="61.2" height="32766" maskUnits="userSpaceOnUse"/>
    <radialGradient id="radial-gradient4" cx="40.7" cy="38.8" fx="40.7" fy="38.8" r="30.6" gradientUnits="userSpaceOnUse">
      <stop offset=".7" stop-color="#000"/>
      <stop offset=".7" stop-color="#030303"/>
      <stop offset=".7" stop-color="#0e0e0e"/>
      <stop offset=".8" stop-color="#202020"/>
      <stop offset=".8" stop-color="#3a3a3a"/>
      <stop offset=".9" stop-color="#5b5b5b"/>
      <stop offset=".9" stop-color="#848484"/>
      <stop offset="1" stop-color="#b4b4b4"/>
      <stop offset="1" stop-color="#ebebeb"/>
      <stop offset="1" stop-color="#fff"/>
    </radialGradient>
    <mask id="mask" x="10.1" y="8.2" width="61.2" height="61.2" maskUnits="userSpaceOnUse">
      <g class="st4">
        <path class="st3" d="M40.7,8.2c-16.9,0-30.6,13.7-30.6,30.6s13.7,30.6,30.6,30.6,30.6-13.7,30.6-30.6-13.7-30.6-30.6-30.6Z"/>
      </g>
    </mask>
    <clipPath id="clippath">
      <path class="st9" d="M67.9,47.1v-.4c.1,0-2.9-.8-2.9-.8v.3c0,0,2.9.9,2.9.9ZM63.4,47.7v-.3c.1,0,3.9,1.4,3.9,1.4v.4c-.1,0-3.9-1.5-3.9-1.5ZM63.6,49.7v-.3c.1,0,3,1.3,3,1.3l-.2.4-2.8-1.3ZM59.7,49.6v-.3c.1,0,5.9,3.1,5.9,3.1l-.2.3-5.7-3.2ZM66,38.9v-.3s3.1,0,3.1,0v.4s-3.1,0-3.1,0ZM65,40.7v-.3s4.1.2,4.1.2v.4s-4.1-.3-4.1-.3ZM65.7,42.6v-.3s3.1.4,3.1.4v.4c0,0-3.1-.4-3.1-.4ZM62.1,43.4h0s6.4,1.3,6.4,1.3h0s0,.4,0,.4h0s-6.4-1.4-6.4-1.4h0s0-.3,0-.3ZM64.4,33.7v-.3c0,0,3.8-1,3.8-1v.4c0,0-3.8.9-3.8.9ZM64.9,31.6v-.3c-.1,0,2.8-1,2.8-1v.4c.1,0-2.8.9-2.8.9ZM65.7,35.3v-.3c0,0,3-.5,3-.5v.4c0,0-3,.5-3,.5ZM62.4,37.1h0s6.5-.6,6.5-.6h0s0,.4,0,.4h0s-6.5.5-6.5.5h0s0-.3,0-.3ZM61.8,27.1l-.2-.3,3.5-2.1.2.3-3.5,2ZM61.6,25l-.2-.3,2.5-1.8.2.3-2.6,1.7ZM63.5,28.2l-.2-.3,2.8-1.4.2.4-2.8,1.3ZM60.9,30.9h0s6-2.5,6-2.5h0s.1.4.1.4h0s-6.1,2.4-6.1,2.4h0s0-.3,0-.3ZM57.4,21.5l-.2-.2,2.7-3,.3.3-2.8,3ZM56.6,19.6l-.3-.2,1.9-2.4.3.2-1.9,2.4ZM59.3,22.1l-.2-.3,2.2-2.1.3.3-2.3,2.1ZM57.7,25.4h0s5-4.2,5-4.2h0s.2.3.2.3h0s-5.1,4.1-5.1,4.1h0s-.2-.2-.2-.2ZM51.5,17.5h-.3c0-.1,1.7-3.8,1.7-3.8l.4.2-1.8,3.6ZM50.2,15.9h-.3c0-.1,1.1-3,1.1-3h.4c0,.1-1.1,3-1.1,3ZM53.6,17.5l-.3-.2,1.5-2.7.3.2-1.6,2.7ZM52.9,21.2h0s3.6-5.4,3.6-5.4h0s0,0,.2.1c0,0,.2.1.2.1h0s-3.7,5.4-3.7,5.4h0s-.2-.2-.2-.2ZM44.8,15.4h-.3c0,0,.6-4.1.6-4.1h.4c0,0-.6,4.1-.6,4.1ZM43.1,14.2h-.3s.2-3.1.2-3.1h.4s-.2,3.1-.2,3.1ZM46.7,14.8h-.3c0,0,.7-3.1.7-3.1h.4c0,0-.7,3.1-.7,3.1ZM47.2,18.5h0s1.9-6.3,1.9-6.3h0s.4,0,.4.1h0s-2,6.2-2,6.2h0s-.3,0-.3,0ZM39.4,14.2h-.3s-.2-3.1-.2-3.1h.4s.2,3.1.2,3.1ZM35.7,14.7h-.3c0,0-.7-2.9-.7-2.9h.4c0,0,.7,2.9.7,2.9ZM37.7,15.3h-.3c0,0-.6-3.9-.6-3.9h.4c0,0,.6,3.9.6,3.9ZM40.9,17.6h0v-6.5s0,0,0,0c0,0,.4,0,.4,0h0v6.5h0s-.3,0-.3,0ZM32.2,15.8h-.3c0,.1-1.1-2.8-1.1-2.8h.4c0-.1,1.1,2.8,1.1,2.8ZM28.8,17.3l-.3.2-1.6-2.7.3-.2,1.5,2.7ZM30.9,17.4h-.3c0,.1-1.8-3.5-1.8-3.5l.4-.2,1.7,3.7ZM34.6,18.5h0s-2-6.2-2-6.2h0s.4-.1.4-.1h0s1.9,6.3,1.9,6.3h0s-.3,0-.3,0ZM23,21.9l-.2.3-2.3-2.1.3-.3,2.2,2.1ZM25,21.3l-.2.2-2.8-3,.3-.3,2.7,3ZM25.7,19.4l-.3.2-1.9-2.4.3-.2,1.9,2.4ZM28.9,21.3h0s-3.7-5.4-3.7-5.4h0s0,0,.2-.1c0,0,.2,0,.2,0h0s3.6,5.4,3.6,5.4h0s-.2.2-.2.2ZM18.8,27.9l-.2.3-2.8-1.3.2-.4,2.8,1.4ZM20.5,26.8l-.2.3-3.5-2,.2-.3,3.5,2.1ZM20.7,24.7l-.2.3-2.6-1.7.2-.3,2.5,1.8ZM24.2,25.7h0s-5.1-4.1-5.1-4.1h0s.2-.3.2-.3h0s5.1,4.1,5.1,4.1h0s-.2.2-.2.2ZM17.8,33.3v.3c0,0-4-.9-4-.9v-.4c0,0,4,1,4,1ZM16.5,34.9v.3c0,0-3.1-.5-3.1-.5v-.4c0,0,3.1.5,3.1.5ZM17.4,31.3v.3c-.1,0-3.1-.9-3.1-.9v-.4c.1,0,3.1,1,3.1,1ZM21.1,31.2h0s-6.1-2.4-6.1-2.4h0s.1-.4.1-.4h0s6,2.5,6,2.5h0s0,.3,0,.3ZM16.3,42.3v.3s-3,.4-3,.4v-.4c0,0,3-.4,3-.4ZM17.1,40.4v.3s-4,.3-4,.3v-.4s4-.2,4-.2ZM16.1,38.6v.3s-3.1,0-3.1,0v-.4s3.1,0,3.1,0ZM19.6,37.4h0s-6.5-.5-6.5-.5h0s0-.4,0-.4h0s6.5.6,6.5.6h0s0,.3,0,.3ZM18.4,49.4v.3c.1,0-2.6,1.3-2.6,1.3l-.2-.4,2.8-1.3ZM22.3,49.6l-5.7,3.2-.2-.3,5.7-3.1v.3ZM18.5,47.3v.3c.1,0-3.7,1.5-3.7,1.5v-.4c-.1,0,3.7-1.4,3.7-1.4ZM17.1,45.9v.3c0,0-2.9.9-2.9.9v-.4c-.1,0,2.9-.8,2.9-.8ZM20.1,43.7h0s-6.4,1.4-6.4,1.4h0s0-.4,0-.4h0s6.4-1.3,6.4-1.3h0s0,.3,0,.3Z"/>
    </clipPath>
    <linearGradient id="linear-gradient4" x1="19.7" y1="30.9" x2="74.9" y2="30.9" gradientUnits="userSpaceOnUse">
      <stop offset="0" stop-color="#ffd579"/>
      <stop offset=".3" stop-color="#ff8f53"/>
      <stop offset=".8" stop-color="#ff3623"/>
      <stop offset="1" stop-color="#ff1310"/>
    </linearGradient>
    <clipPath id="clippath-1">
      <path class="st14" d="M42.5,38.2c1.9-1.2,3.9-2.4,5.9-3.7,2-1.2,4-2.5,5.9-3.7,1.9-1.2,3.6-2.3,5.1-3.3,3-1.9,5-3.2,5-3.2,0,0,0-.2,0-.3,0,0-.2-.1-.2,0,0,0-2,1.2-5.1,3-1.5.9-3.3,2-5.2,3.1-1.9,1.2-3.9,2.4-5.9,3.6-2,1.2-4,2.5-5.9,3.6-1.9,1.2-3.7,2.2-5.2,3.2-.7.5-1.4.9-2,1.3-.6.4-1.1.8-1.5,1.1-.8.6-1.3,1-1.3,1,0,0,0,.2,0,.2,0,.1.2.2.2.1,0,0,.5-.3,1.4-.8.5-.2,1-.5,1.6-.9.6-.4,1.3-.8,2.1-1.2,1.5-.9,3.3-2,5.1-3.2Z"/>
    </clipPath>
    <linearGradient id="linear-gradient5" x1="40.7" y1="39.2" x2="40.7" y2=".6" gradientUnits="userSpaceOnUse">
      <stop offset="0" stop-color="#ea9485"/>
      <stop offset=".2" stop-color="#c27c6f"/>
      <stop offset=".5" stop-color="#784f46"/>
      <stop offset=".7" stop-color="#422e29"/>
      <stop offset=".9" stop-color="#201a16"/>
      <stop offset="1" stop-color="#141310"/>
    </linearGradient>
  </defs>
  <g class="st13">
    <g id="Layer_1">
      <path class="st19" d="M40.7,3.6C21.3,3.6,5.4,19.4,5.4,38.8s15.8,35.3,35.3,35.3,35.3-15.8,35.3-35.3S60.1,3.6,40.7,3.6"/>
      <path class="st2" d="M40.7,3.6C21.3,3.6,5.4,19.4,5.4,38.8s15.8,35.3,35.3,35.3,35.3-15.8,35.3-35.3S60.1,3.6,40.7,3.6"/>
      <g>
        <path class="st11" d="M40.7,8.2c-16.9,0-30.6,13.7-30.6,30.6s13.7,30.6,30.6,30.6,30.6-13.7,30.6-30.6-13.7-30.6-30.6-30.6Z"/>
        <path class="st0" d="M12.7,40c0-16.2,13.2-29.4,29.4-29.4s25.9,10,28.7,23.2c-2.4-14.5-15-25.6-30.2-25.6s-30.6,13.7-30.6,30.6,13.7,30.6,30.6,30.6.5,0,.7,0c-15.9-.4-28.7-13.4-28.7-29.4Z"/>
        <path class="st6" d="M40.7,6C22.6,6,7.9,20.7,7.9,38.8s14.7,32.8,32.8,32.8,32.8-14.7,32.8-32.8S58.8,6,40.7,6ZM40.7,70.6c-17.5,0-31.8-14.3-31.8-31.8S23.2,7.1,40.7,7.1s31.8,14.3,31.8,31.8-14.3,31.8-31.8,31.8Z"/>
      </g>
      <g>
        <path class="st17" d="M67.9,47.1v-.4c.1,0-2.9-.8-2.9-.8v.3c0,0,2.9.9,2.9.9ZM63.4,47.7v-.3c.1,0,3.9,1.4,3.9,1.4v.4c-.1,0-3.9-1.5-3.9-1.5ZM63.6,49.7v-.3c.1,0,3,1.3,3,1.3l-.2.4-2.8-1.3ZM59.7,49.6v-.3c.1,0,5.9,3.1,5.9,3.1l-.2.3-5.7-3.2ZM66,38.9v-.3s3.1,0,3.1,0v.4s-3.1,0-3.1,0ZM65,40.7v-.3s4.1.2,4.1.2v.4s-4.1-.3-4.1-.3ZM65.7,42.6v-.3s3.1.4,3.1.4v.4c0,0-3.1-.4-3.1-.4ZM62.1,43.4h0s6.4,1.3,6.4,1.3h0s0,.4,0,.4h0s-6.4-1.4-6.4-1.4h0s0-.3,0-.3ZM64.4,33.7v-.3c0,0,3.8-1,3.8-1v.4c0,0-3.8.9-3.8.9ZM64.9,31.6v-.3c-.1,0,2.8-1,2.8-1v.4c.1,0-2.8.9-2.8.9ZM65.7,35.3v-.3c0,0,3-.5,3-.5v.4c0,0-3,.5-3,.5ZM62.4,37.1h0s6.5-.6,6.5-.6h0s0,.4,0,.4h0s-6.5.5-6.5.5h0s0-.3,0-.3ZM61.8,27.1l-.2-.3,3.5-2.1.2.3-3.5,2ZM61.6,25l-.2-.3,2.5-1.8.2.3-2.6,1.7ZM63.5,28.2l-.2-.3,2.8-1.4.2.4-2.8,1.3ZM60.9,30.9h0s6-2.5,6-2.5h0s.1.4.1.4h0s-6.1,2.4-6.1,2.4h0s0-.3,0-.3ZM57.4,21.5l-.2-.2,2.7-3,.3.3-2.8,3ZM56.6,19.6l-.3-.2,1.9-2.4.3.2-1.9,2.4ZM59.3,22.1l-.2-.3,2.2-2.1.3.3-2.3,2.1ZM57.7,25.4h0s5-4.2,5-4.2h0s.2.3.2.3h0s-5.1,4.1-5.1,4.1h0s-.2-.2-.2-.2ZM51.5,17.5h-.3c0-.1,1.7-3.8,1.7-3.8l.4.2-1.8,3.6ZM50.2,15.9h-.3c0-.1,1.1-3,1.1-3h.4c0,.1-1.1,3-1.1,3ZM53.6,17.5l-.3-.2,1.5-2.7.3.2-1.6,2.7ZM52.9,21.2h0s3.6-5.4,3.6-5.4h0s0,0,.2.1c0,0,.2.1.2.1h0s-3.7,5.4-3.7,5.4h0s-.2-.2-.2-.2ZM44.8,15.4h-.3c0,0,.6-4.1.6-4.1h.4c0,0-.6,4.1-.6,4.1ZM43.1,14.2h-.3s.2-3.1.2-3.1h.4s-.2,3.1-.2,3.1ZM46.7,14.8h-.3c0,0,.7-3.1.7-3.1h.4c0,0-.7,3.1-.7,3.1ZM47.2,18.5h0s1.9-6.3,1.9-6.3h0s.4,0,.4.1h0s-2,6.2-2,6.2h0s-.3,0-.3,0ZM39.4,14.2h-.3s-.2-3.1-.2-3.1h.4s.2,3.1.2,3.1ZM35.7,14.7h-.3c0,0-.7-2.9-.7-2.9h.4c0,0,.7,2.9.7,2.9ZM37.7,15.3h-.3c0,0-.6-3.9-.6-3.9h.4c0,0,.6,3.9.6,3.9ZM40.9,17.6h0v-6.5s0,0,0,0c0,0,.4,0,.4,0h0v6.5h0s-.3,0-.3,0ZM32.2,15.8h-.3c0,.1-1.1-2.8-1.1-2.8h.4c0-.1,1.1,2.8,1.1,2.8ZM28.8,17.3l-.3.2-1.6-2.7.3-.2,1.5,2.7ZM30.9,17.4h-.3c0,.1-1.8-3.5-1.8-3.5l.4-.2,1.7,3.7ZM34.6,18.5h0s-2-6.2-2-6.2h0s.4-.1.4-.1h0s1.9,6.3,1.9,6.3h0s-.3,0-.3,0ZM23,21.9l-.2.3-2.3-2.1.3-.3,2.2,2.1ZM25,21.3l-.2.2-2.8-3,.3-.3,2.7,3ZM25.7,19.4l-.3.2-1.9-2.4.3-.2,1.9,2.4ZM28.9,21.3h0s-3.7-5.4-3.7-5.4h0s0,0,.2-.1c0,0,.2,0,.2,0h0s3.6,5.4,3.6,5.4h0s-.2.2-.2.2ZM18.8,27.9l-.2.3-2.8-1.3.2-.4,2.8,1.4ZM20.5,26.8l-.2.3-3.5-2,.2-.3,3.5,2.1ZM20.7,24.7l-.2.3-2.6-1.7.2-.3,2.5,1.8ZM24.2,25.7h0s-5.1-4.1-5.1-4.1h0s.2-.3.2-.3h0s5.1,4.1,5.1,4.1h0s-.2.2-.2.2ZM17.8,33.3v.3c0,0-4-.9-4-.9v-.4c0,0,4,1,4,1ZM16.5,34.9v.3c0,0-3.1-.5-3.1-.5v-.4c0,0,3.1.5,3.1.5ZM17.4,31.3v.3c-.1,0-3.1-.9-3.1-.9v-.4c.1,0,3.1,1,3.1,1ZM21.1,31.2h0s-6.1-2.4-6.1-2.4h0s.1-.4.1-.4h0s6,2.5,6,2.5h0s0,.3,0,.3ZM16.3,42.3v.3s-3,.4-3,.4v-.4c0,0,3-.4,3-.4ZM17.1,40.4v.3s-4,.3-4,.3v-.4s4-.2,4-.2ZM16.1,38.6v.3s-3.1,0-3.1,0v-.4s3.1,0,3.1,0ZM19.6,37.4h0s-6.5-.5-6.5-.5h0s0-.4,0-.4h0s6.5.6,6.5.6h0s0,.3,0,.3ZM18.4,49.4v.3c.1,0-2.6,1.3-2.6,1.3l-.2-.4,2.8-1.3ZM22.3,49.6l-5.7,3.2-.2-.3,5.7-3.1v.3ZM18.5,47.3v.3c.1,0-3.7,1.5-3.7,1.5v-.4c-.1,0,3.7-1.4,3.7-1.4ZM17.1,45.9v.3c0,0-2.9.9-2.9.9v-.4c-.1,0,2.9-.8,2.9-.8ZM20.1,43.7h0s-6.4,1.4-6.4,1.4h0s0-.4,0-.4h0s6.4-1.3,6.4-1.3h0s0,.3,0,.3Z"/>
        <path class="st17" d="M24.5,48.6c0,.6-.2,1-.6,1s-.6-.3-.6-1c0-.6.3-1,.6-1s.6.3.6.9ZM23.5,48.6c0,.5.1.8.4.8s.4-.3.4-.8-.1-.8-.4-.8-.4.3-.4.8Z"/>
        <path class="st17" d="M20.8,42h0l-.3.2v-.2s.4-.2.4-.2h.2v1.9h-.2v-1.6ZM23,42.7c0,.6-.2,1-.6,1s-.6-.3-.6-1c0-.6.3-1,.6-1s.6.3.6.9ZM21.9,42.7c0,.5.1.8.4.8s.4-.3.4-.8-.1-.8-.4-.8-.4.3-.4.8Z"/>
        <path class="st17" d="M20.3,38.1v-.2l.2-.2c.5-.4.7-.7.7-1,0-.2,0-.4-.4-.4s-.3,0-.4.2v-.2c0-.1.2-.2.4-.2.4,0,.6.3.6.5s-.2.6-.6,1h-.1c0,.1.8.1.8.1v.2h-1.2ZM23,37.2c0,.6-.2,1-.6,1s-.6-.3-.6-1c0-.6.3-1,.6-1s.6.3.6.9ZM21.9,37.2c0,.5.1.8.4.8s.4-.3.4-.8-.1-.8-.4-.8-.4.3-.4.8Z"/>
        <path class="st17" d="M21.7,32.1c0,0,.2.1.4.1.3,0,.4-.2.4-.4,0-.3-.2-.4-.5-.4h-.1v-.2h.1c.2,0,.4,0,.4-.3s0-.3-.3-.3-.3,0-.4.1v-.2c0,0,.2-.1.4-.1.4,0,.5.2.5.4s-.1.4-.3.4h0c.2,0,.4.2.4.5s-.2.6-.7.6-.4,0-.5-.1v-.2ZM24.4,31.5c0,.6-.2,1-.6,1s-.6-.3-.6-1c0-.6.3-1,.6-1s.6.3.6.9ZM23.4,31.5c0,.5.1.8.4.8s.4-.3.4-.8-.1-.8-.4-.8-.4.3-.4.8Z"/>
        <path class="st17" d="M25.3,27.2v-.5h-.9v-.2l.8-1.2h.3v1.2h.3v.2h-.3v.5h-.2ZM25.3,26.5v-.6c0,0,0-.2,0-.3h0c0,.1-.1.2-.2.3l-.5.6h0s.6,0,.6,0ZM27.2,26.2c0,.6-.2,1-.6,1s-.6-.3-.6-1c0-.6.3-1,.6-1s.6.3.6.9ZM26.2,26.3c0,.5.1.8.4.8s.4-.3.4-.8-.1-.8-.4-.8-.4.3-.4.8Z"/>
        <path class="st17" d="M30.1,21.8h-.7v.5s0,0,0,0c.1,0,.3,0,.4,0,.1,0,.3.2.3.5,0,.4-.3.6-.7.6s-.4,0-.5-.1v-.2c.1,0,.3.1.5.1s.4-.2.4-.4c0-.2-.2-.4-.5-.4s-.2,0-.3,0v-.9h1v.2ZM31.6,22.5c0,.6-.2,1-.6,1s-.6-.3-.6-1c0-.6.3-1,.6-1s.6.3.6.9ZM30.6,22.6c0,.5.1.8.4.8s.4-.3.4-.8-.1-.8-.4-.8-.4.3-.4.8Z"/>
        <path class="st17" d="M35.4,19.2c0,0-.1,0-.2,0-.4,0-.6.4-.6.7h0c0-.1.2-.2.4-.2.3,0,.6.2.6.6s-.2.7-.6.7-.7-.3-.7-.8.1-.7.3-.8c.2-.2.4-.2.6-.3,0,0,.1,0,.2,0v.2ZM35.3,20.3c0-.3-.2-.4-.4-.4s-.3,0-.4.2c0,0,0,0,0,.1,0,.3.1.5.4.5s.4-.2.4-.4ZM37.1,20c0,.6-.2,1-.6,1s-.6-.3-.6-1c0-.6.3-1,.6-1s.6.3.6.9ZM36.1,20c0,.5.1.8.4.8s.4-.3.4-.8-.1-.8-.4-.8-.4.3-.4.8Z"/>
        <path class="st17" d="M41.1,18.1v.2l-.8,1.7h-.3l.8-1.6h0s-.9,0-.9,0v-.2h1.2ZM42.6,19c0,.6-.2,1-.6,1s-.6-.3-.6-1c0-.6.3-1,.6-1s.6.3.6.9ZM41.6,19c0,.5.1.8.4.8s.4-.3.4-.8-.1-.8-.4-.8-.4.3-.4.8Z"/>
        <path class="st17" d="M45.8,20.4c0-.2.1-.4.4-.5h0c-.2-.1-.3-.3-.3-.4,0-.3.2-.5.6-.5s.5.2.5.5,0,.3-.3.4h0c.2,0,.4.3.4.5,0,.3-.3.5-.6.5s-.6-.2-.6-.5ZM46.8,20.4c0-.2-.2-.3-.4-.4-.2,0-.3.2-.3.4,0,.2.1.4.4.4s.4-.1.4-.3ZM46.2,19.4c0,.2.1.3.4.3.2,0,.3-.2.3-.3s0-.3-.3-.3-.3.1-.3.3ZM48.6,19.9c0,.6-.2,1-.6,1s-.6-.3-.6-1c0-.6.3-1,.6-1s.6.3.6.9ZM47.6,19.9c0,.5.1.8.4.8s.4-.3.4-.8-.1-.8-.4-.8-.4.3-.4.8Z"/>
        <path class="st17" d="M51.4,23.6c0,0,.1,0,.2,0,.1,0,.3,0,.4-.2.1-.1.2-.3.2-.5h0c-.1.1-.3.2-.4.2-.3,0-.5-.2-.5-.6s.3-.7.6-.7.6.3.6.8-.1.7-.3.9c-.1.1-.3.2-.5.2,0,0-.2,0-.2,0v-.2ZM51.5,22.5c0,.2.1.4.4.4s.3,0,.4-.2c0,0,0,0,0,0,0-.3-.1-.6-.4-.6s-.4.2-.4.5ZM53.9,22.8c0,.6-.2,1-.6,1s-.6-.3-.6-1c0-.6.3-1,.6-1s.6.3.6.9ZM52.9,22.8c0,.5.1.8.4.8s.4-.3.4-.8-.1-.8-.4-.8-.4.3-.4.8Z"/>
        <path class="st17" d="M54.7,26.4h0l-.3.2v-.2s.4-.2.4-.2h.2v1.9h-.2v-1.6ZM56.9,27.1c0,.6-.2,1-.6,1s-.6-.3-.6-1c0-.6.3-1,.6-1s.6.3.6.9ZM55.9,27.1c0,.5.1.8.4.8s.4-.3.4-.8-.1-.8-.4-.8-.4.3-.4.8ZM58.3,27.1c0,.6-.2,1-.6,1s-.6-.3-.6-1c0-.6.3-1,.6-1s.6.3.6.9ZM57.3,27.1c0,.5.1.8.4.8s.4-.3.4-.8-.1-.8-.4-.8-.4.3-.4.8Z"/>
        <path class="st17" d="M57,31.2h0l-.3.2v-.2s.4-.2.4-.2h.2v1.9h-.2v-1.6ZM58.5,31.2h0l-.3.2v-.2s.4-.2.4-.2h.2v1.9h-.2v-1.6ZM60.7,31.9c0,.6-.2,1-.6,1s-.6-.3-.6-1c0-.6.3-1,.6-1s.6.3.6.9ZM59.6,31.9c0,.5.1.8.4.8s.4-.3.4-.8-.1-.8-.4-.8-.4.3-.4.8Z"/>
        <path class="st17" d="M58.3,36.9h0l-.3.2v-.2s.4-.2.4-.2h.2v1.9h-.2v-1.6ZM59.2,38.5v-.2l.2-.2c.5-.5.7-.7.7-1,0-.2,0-.4-.4-.4s-.3,0-.4.2v-.2c0-.1.2-.2.4-.2.4,0,.6.3.6.5s-.2.6-.6,1h-.1c0,.1.8.1.8.1v.2h-1.2ZM61.9,37.6c0,.6-.2,1-.6,1s-.6-.3-.6-1c0-.6.3-1,.6-1s.6.3.6.9ZM60.9,37.6c0,.5.1.8.4.8s.4-.3.4-.8-.1-.8-.4-.8-.4.3-.4.8Z"/>
        <path class="st17" d="M57.8,42.6h0l-.3.2v-.2s.4-.2.4-.2h.2v1.9h-.2v-1.6ZM58.8,44c0,0,.2.1.4.1.3,0,.4-.2.4-.4,0-.3-.2-.4-.5-.4h-.1v-.2h.1c.2,0,.4,0,.4-.3s0-.3-.3-.3-.3,0-.4.1v-.2c0,0,.2-.1.4-.1.4,0,.5.2.5.4s-.1.4-.3.4h0c.2,0,.4.2.4.5s-.2.6-.7.6-.4,0-.5-.1v-.2ZM61.4,43.3c0,.6-.2,1-.6,1s-.6-.3-.6-1c0-.6.3-1,.6-1s.6.3.6.9ZM60.4,43.3c0,.5.1.8.4.8s.4-.3.4-.8-.1-.8-.4-.8-.4.3-.4.8Z"/>
        <path class="st17" d="M55.8,47.8h0l-.3.2v-.2s.4-.2.4-.2h.2v1.9h-.2v-1.6ZM57.5,49.5v-.5h-.9v-.2l.8-1.2h.3v1.2h.3v.2h-.3v.5h-.2ZM57.5,48.8v-.6c0,0,0-.2,0-.3h0c0,.1-.1.2-.2.3l-.5.6h0s.6,0,.6,0ZM59.4,48.5c0,.6-.2,1-.6,1s-.6-.3-.6-1c0-.6.3-1,.6-1s.6.3.6.9ZM58.4,48.5c0,.5.1.8.4.8s.4-.3.4-.8-.1-.8-.4-.8-.4.3-.4.8Z"/>
      </g>
      <path class="st17" d="M40.7,23.9c-8.2,0-14.9,6.7-14.9,14.9s6.7,14.9,14.9,14.9,14.9-6.7,14.9-14.9-6.7-14.9-14.9-14.9ZM40.7,53.2c-7.9,0-14.4-6.5-14.4-14.4s6.5-14.4,14.4-14.4,14.4,6.5,14.4,14.4-6.5,14.4-14.4,14.4Z"/>
      <path class="st18" d="M40.7,34.7c-2.3,0-4.1,1.9-4.1,4.1s1.9,4.1,4.1,4.1,4.1-1.9,4.1-4.1-1.9-4.1-4.1-4.1Z"/>
      <path class="st1" d="M40.7,43.2c-2.4,0-4.4-2-4.4-4.4s2-4.4,4.4-4.4,4.4,2,4.4,4.4-2,4.4-4.4,4.4ZM40.7,34.9c-2.1,0-3.9,1.7-3.9,3.9s1.7,3.9,3.9,3.9,3.9-1.7,3.9-3.9-1.7-3.9-3.9-3.9Z"/>
      <path class="st16" d="M40.7,25.7c-7.2,0-13.1,5.9-13.1,13.1s5.9,13.1,13.1,13.1,13.1-5.9,13.1-13.1-5.9-13.1-13.1-13.1ZM40.7,44.6c-3.2,0-5.8-2.6-5.8-5.8s2.6-5.8,5.8-5.8,5.8,2.6,5.8,5.8-2.6,5.8-5.8,5.8Z"/>
      <g class="st5">
        <path class="st14" d="M40.7,8.2c-16.9,0-30.6,13.7-30.6,30.6s13.7,30.6,30.6,30.6,30.6-13.7,30.6-30.6-13.7-30.6-30.6-30.6Z"/>
      </g>
      <g class="st10">
        <g class="st20">
          <path class="st15" d="M40.7,7.1c-16.7,0-30.3,13.6-30.3,30.3s1.9,12.1,5.4,17.2l10.1-7c-2.1-3-3.2-6.5-3.2-10.2,0-9.9,8.1-18,18-18s18,8.1,18,18-1.1,7.2-3.2,10.2l10.1,7c3.5-5.1,5.4-11,5.4-17.2,0-16.7-13.6-30.3-30.3-30.3Z"/>
        </g>
      </g>
      <g>
        <g>
          <path class="st14" d="M42.5,38.2c1.9-1.2,3.9-2.4,5.9-3.7,2-1.2,4-2.5,5.9-3.7,1.9-1.2,3.6-2.3,5.1-3.3,3-1.9,5-3.2,5-3.2,0,0,0-.2,0-.3,0,0-.2-.1-.2,0,0,0-2,1.2-5.1,3-1.5.9-3.3,2-5.2,3.1-1.9,1.2-3.9,2.4-5.9,3.6-2,1.2-4,2.5-5.9,3.6-1.9,1.2-3.7,2.2-5.2,3.2-.7.5-1.4.9-2,1.3-.6.4-1.1.8-1.5,1.1-.8.6-1.3,1-1.3,1,0,0,0,.2,0,.2,0,.1.2.2.2.1,0,0,.5-.3,1.4-.8.5-.2,1-.5,1.6-.9.6-.4,1.3-.8,2.1-1.2,1.5-.9,3.3-2,5.1-3.2Z"/>
          <g class="st12">
            <polygon class="st14" points="32.1 44.1 64.2 24.2 64.1 21.4 28.1 43.4 32.1 44.1"/>
          </g>
        </g>
        <path class="st14" d="M40.7,36.8c-1.1,0-2.1.9-2.1,2.1s.9,2.1,2.1,2.1,2.1-.9,2.1-2.1-.9-2.1-2.1-2.1Z"/>
      </g>
      <path class="st8" d="M40.7,38.7c13,0,24.2,4.6,28.6,11,1.3-3.4,2-7,2-10.9,0-16.9-13.7-30.6-30.6-30.6s-30.6,13.7-30.6,30.6.7,7.5,2,10.9c4.4-6.4,15.5-11,28.6-11Z"/>
      <path class="st7" d="M68.6,48.6c-.1-.2-.3-.4-.5-.7-.2-.3-.5-.5-.8-.9-.6-.6-1.3-1.4-2.3-2.1-.5-.4-1-.7-1.5-1.1-.6-.4-1.2-.7-1.8-1.1-1.3-.7-2.7-1.4-4.3-2-1.6-.6-3.3-1.1-5.1-1.6-1.8-.4-3.7-.8-5.6-1-1-.1-1.9-.2-2.9-.3-1,0-1.9,0-2.9,0-2,0-4,.1-5.9.4-1.9.2-3.8.6-5.6,1-1.8.5-3.5,1-5.1,1.6-1.6.6-3,1.3-4.3,2-.6.4-1.3.7-1.8,1.1-.5.4-1.1.7-1.5,1.1-.9.8-1.7,1.5-2.3,2.1-.3.3-.5.6-.8.9-.2.3-.4.5-.5.7-.3.4-.4.6-.4.6,0,0,.2-.2.4-.5.1-.2.3-.4.5-.7.2-.2.5-.5.8-.8.6-.6,1.4-1.3,2.4-2,1-.7,2.1-1.4,3.4-2.1,1.3-.6,2.8-1.3,4.3-1.8,1.6-.6,3.3-1,5-1.4,1.8-.4,3.6-.7,5.5-.9,1.9-.2,3.8-.3,5.8-.3,1,0,2,0,2.9,0,1,0,1.9.1,2.9.2,1.9.2,3.8.5,5.5.9,1.8.4,3.5.9,5,1.4,1.6.5,3,1.2,4.3,1.8,1.3.7,2.4,1.4,3.4,2.1,1,.7,1.8,1.4,2.4,2,.3.3.6.6.8.8.2.2.4.5.5.7.3.4.4.5.4.5,0,0-.1-.2-.4-.6Z"/>
      <path class="st17" d="M39.4,55.1l.2,2.8h-.4v-1.2c0-.4-.1-.9-.1-1.2h0c0,.3-.2.7-.4,1.1l-.5,1.4h-.3l-.5-1.3c-.1-.4-.2-.8-.3-1.1h0c0,.4,0,.8,0,1.2v1.2h-.4l.2-2.8h.5l.5,1.4c.1.3.2.7.3.9h0c0-.3.2-.6.3-.9l.5-1.4h.5ZM41.6,55.3c.2.1.2.3.2.6s0,.5-.2.6c-.2.2-.5.3-.9.3s-.2,0-.3,0v1.1h-.4v-2.8c.2,0,.4,0,.7,0s.6,0,.8.2ZM41.5,55.9c0-.4-.3-.6-.7-.6s-.3,0-.3,0v1.1c0,0,.2,0,.3,0,.4,0,.7-.2.7-.6ZM44.1,55.1v1.2h-1.4v-1.2h-.4v2.8h.4v-1.3h1.4v1.3h.4v-2.8h-.4Z"/>
    </g>
  </g>
</svg>