<?xml version="1.0" encoding="UTF-8"?>
<svg id="Layer_1" xmlns="http://www.w3.org/2000/svg" version="1.1" xmlns:xlink="http://www.w3.org/1999/xlink" viewBox="0 0 3567.8 2371.1">
  <!-- Generator: Adobe Illustrator 29.2.1, SVG Export Plug-In . SVG Version: 2.1.0 Build 116)  -->
  <defs>
    <style>
      .st0 {
        fill: url(#GradientFill_2);
      }

      .st1 {
        fill: #0c5880;
      }

      .st1, .st2 {
        fill-rule: evenodd;
      }

      .st2 {
        fill: #000002;
      }
    </style>
    <linearGradient id="GradientFill_2" data-name="GradientFill 2" x1="2588.2" y1="1183.3" x2="2588.2" y2="614.5" gradientUnits="userSpaceOnUse">
      <stop offset="0" stop-color="#e5e6e5"/>
      <stop offset="1" stop-color="#cbcaca"/>
    </linearGradient>
  </defs>
  <path class="st2" d="M1800.7,2019c-42.8,0-77.5-34.7-77.5-77.5v-145.9c0-102,154.9-102,154.9,0v145.9c0,42.8-34.7,77.5-77.5,77.5h0ZM3375.7,2264.5c42.8,0,77.5-34.7,77.5-77.5V237.7c0-42.8-34.7-77.5-77.5-77.5H225.7c-42.8,0-77.5,34.7-77.5,77.5v1949.3c0,42.8,34.7,77.5,77.5,77.5h3150ZM303.2,2109.6h2995.1V315.2H303.2v1794.4h0ZM1297.6,1965.2h-568.8c-102,0-102-154.9,0-154.9h568.8c102,0,102,154.9,0,154.9h0ZM1228.8,614.5h-431.2c-102,0-102-154.9,0-154.9h431.2c102,0,102,154.9,0,154.9h0ZM1455.6,894.6h-884.8c-102,0-102-154.9,0-154.9h884.8c102,0,102,154.9,0,154.9h0ZM1455.6,1208h-884.8c-102,0-102-154.9,0-154.9h884.8c102,0,102,154.9,0,154.9h0ZM2950.1,1338.3h-723.8c-42.8,0-77.5-34.7-77.5-77.5v-723.8c0-42.8,34.7-77.5,77.5-77.5h723.8c42.8,0,77.5,34.7,77.5,77.5v723.8c0,42.8-34.7,77.5-77.5,77.5h0ZM2303.8,1183.3v-568.9h568.9v568.9h-568.9ZM2882.8,1659.4h-589.3c-102,0-102-154.9,0-154.9h589.3c102,0,102,154.9,0,154.9h0ZM3006.1,1965.2h-835.9c-102,0-102-154.9,0-154.9h835.9c102,0,102,154.9,0,154.9h0ZM1800.7,706.5c-42.8,0-77.5-34.7-77.5-77.5v-145.8c0-102,154.9-102,154.9,0v145.8c0,42.8-34.7,77.5-77.5,77.5h0ZM1800.7,1144c-42.8,0-77.5-34.7-77.5-77.5v-145.8c0-102,154.9-102,154.9,0v145.8c0,42.8-34.7,77.5-77.5,77.5h0ZM1800.7,1581.5c-42.8,0-77.5-34.7-77.5-77.5v-145.8c0-102,154.9-102,154.9,0v145.8c0,42.8-34.7,77.5-77.5,77.5Z"/>
  <path class="st1" d="M1800.7,2019c-42.8,0-77.5-34.7-77.5-77.5v-145.9c0-102,154.9-102,154.9,0v145.9c0,42.8-34.7,77.5-77.5,77.5h0ZM303.2,2109.6h2995.1V315.2H303.2v1794.4h0ZM728.8,1810.3h568.8c102,0,102,154.9,0,154.9h-568.8c-102,0-102-154.9,0-154.9h0ZM1455.6,1208h-884.8c-102,0-102-154.9,0-154.9h884.8c102,0,102,154.9,0,154.9h0ZM1455.6,894.6h-884.8c-102,0-102-154.9,0-154.9h884.8c102,0,102,154.9,0,154.9h0ZM1228.8,614.5h-431.2c-102,0-102-154.9,0-154.9h431.2c102,0,102,154.9,0,154.9h0ZM1723.2,1504.1v-145.8c0-102,154.9-102,154.9,0v145.8c0,42.8-34.7,77.5-77.5,77.5s-77.5-34.7-77.5-77.5h0ZM2950.1,1338.3h-723.8c-42.8,0-77.5-34.7-77.5-77.5v-723.8c0-42.8,34.7-77.5,77.5-77.5h723.8c42.8,0,77.5,34.7,77.5,77.5v723.8c0,42.8-34.7,77.5-77.5,77.5h0ZM2293.6,1659.4c-102,0-102-154.9,0-154.9h589.3c102,0,102,154.9,0,154.9h-589.3ZM2170.2,1965.2c-102,0-102-154.9,0-154.9h835.9c102,0,102,154.9,0,154.9h-835.9ZM1800.7,706.5c-42.8,0-77.5-34.7-77.5-77.5v-145.8c0-102,154.9-102,154.9,0v145.8c0,42.8-34.7,77.5-77.5,77.5h0ZM1800.7,1144c-42.8,0-77.5-34.7-77.5-77.5v-145.8c0-102,154.9-102,154.9,0v145.8c0,42.8-34.7,77.5-77.5,77.5Z"/>
  <rect class="st0" x="2303.8" y="614.5" width="568.9" height="568.9"/>
</svg>