<?xml version="1.0" encoding="UTF-8"?>
<svg id="Layer_1" xmlns="http://www.w3.org/2000/svg" version="1.1" viewBox="0 0 300 300">
  <!-- Generator: Adobe Illustrator 29.2.1, SVG Export Plug-In . SVG Version: 2.1.0 Build 116)  -->
  <defs>
    <style>
      .st0 {
        fill: #0c5880;
      }
    </style>
  </defs>
  <path class="st0" d="M126,2.1c-21.2,3.4-41.4,11.4-60.5,24.2-12.1,8.1-31.3,27.3-39.5,39.6C11.1,88.2,2.4,113.2,1.4,136.5l-.4,10,1.9-6c1-3.3,2.7-10.5,3.6-16,6.8-39,30.1-74.4,63-96,18.3-12,35.9-18.6,61.2-23,5-.8,10.7-2.2,12.5-3q3.2-1.4-4.2-1.3c-4.1,0-10,.4-13,.9Z"/>
  <path class="st0" d="M156.7,2.6c1.8.8,7.4,2.1,12.5,3,25.3,4.3,43.9,11.2,61.5,23.1,21.9,14.7,38.6,33.8,49.9,56.8,6.5,13.5,9.9,23.6,12.5,38,1.1,6,2.9,13.7,3.9,17l1.8,6v-6.3c.4-17.2-6.8-42.7-17.1-61.4-14.4-26.4-38.5-49.7-64.6-62.7C198.4,6.8,175.9.9,159.8,1.1h-6.3c0,.1,3.2,1.5,3.2,1.5Z"/>
  <path class="st0" d="M134,7.7c-34.1,3.6-68.3,21.5-91,47.6-16.9,19.3-27.8,41.1-33.1,65.7-3.3,15-3.3,42.9-.1,57.7,6.2,28.7,19.4,52.6,40.6,73.5,9.3,9.2,24,19.8,36.1,26,8.5,4.4,25,10.1,36.5,12.5,11.8,2.5,42,2.5,53.7,0,58.7-12.5,103.9-58.8,113.7-116.6,2.1-12.5,2.1-37.1,0-48.2-6-32-19.7-57.6-42.2-79-15.7-14.9-37.5-27.9-57.8-34.2-14.8-4.7-39.3-6.8-56.4-5ZM170.9,11.6c12,1.7,30.3,7.5,41.2,12.9,40.8,20.5,68.3,57.7,76.1,103,1.7,9.9,1.9,14.6,1.5,27-.8,23-5.2,39.9-15.2,59.3-19.9,38.3-55.1,64.8-98,73.8-12.3,2.6-40.2,2.6-52.8.1-56.3-11.3-100.1-55.1-111.4-111.4-2.5-12.3-2.5-40.3,0-52.6,5.5-27.5,19.1-52.8,38.8-72.6C82.6,19.6,126.5,5.1,170.9,11.6Z"/>
  <path class="st0" d="M137,20.6c-58.4,7.2-102.8,48-114.7,105.4-2.4,11.7-2.4,36.3,0,48,5.6,27.1,17,48.4,36.2,67.5,19.1,19.2,40.4,30.6,67.5,36.2,11.7,2.4,36.3,2.4,48,0,41.2-8.6,74-33.6,92-70.2,9.8-19.8,13.4-35.3,13.4-57.5s-3.6-37.7-13.4-57.5c-17.7-36-49.8-60.9-89.5-69.6-8.8-1.9-31.8-3.2-39.5-2.3ZM175.5,25.9c18.7,4.1,29.9,8.8,46.1,19.6,26.8,17.9,47.4,49,53.9,81.5s1.5,37.2.4,43c-5.2,27.4-19.1,53.6-38,71.5-17.6,16.7-38,27.3-62.8,32.7-12.7,2.8-35.5,3-48.6.5-16.9-3.4-33.6-10.3-48.6-20.3s-24.9-21.6-31.3-30.6c-23.2-33.2-29.6-75.2-17.1-113.5,14.5-44.2,54.6-78.6,99.7-85.2,4-.6,8.4-1.3,9.8-1.5,5.4-1,27.9.5,36.5,2.3Z"/>
  <path class="st0" d="M142.5,28.7c-4.8,2.5-7.3,5.3-9.1,9.9-4.4,11.6,4.4,24.4,16.9,24.4s18.5-9.9,17.4-19.6c-1.3-12.2-15-20.1-25.2-14.7ZM158.7,32.8c4.3,3,6.6,8.5,6,13.8-.9,8.4-8,14.1-16.3,13.1-19.2-2.1-16.6-31,2.7-29.4,2.6.2,6,1.3,7.6,2.5Z"/>
  <path class="st0" d="M111,32.6c-19.5,6.5-33.6,15.8-30.8,20.3.6,1,3,2.9,5.3,4.3,5,3.1,8.5,7.6,10.9,14.1,2.6,6.9,4,7.3,12.7,3,4.1-1.9,10.5-4.6,14.3-5.9,7.2-2.5,10.6-4.7,10.6-7.1s-.9-3.1-1.9-5.1c-2.9-5.7-3.5-10.6-2.1-17.1,2.4-11.2-1.3-12.5-19-6.5ZM127.5,35c-3.6,7-2.7,17.3,2.1,23.7l2.4,3.2-4.2,1.1c-7.7,1.9-15.7,5.2-21.5,8.6-3,1.9-5.7,3.4-5.9,3.4s-.4-1.5-.4-3.3c0-4-5-12.8-8.7-15.5-1.6-1.1-4.4-2.6-6.3-3.4l-3.5-1.5,4.5-2.8c10.6-6.7,34.5-16.2,41.3-16.4,1.6-.1,1.6.1.2,2.9Z"/>
  <path class="st0" d="M169.9,31.1c-.8,1.6-.8,3.6.1,8,1.4,6.5.8,11.4-2.1,17.1-1,2-1.9,4.3-1.9,5.1,0,2.4,3.4,4.6,10.6,7.1,3.8,1.3,10.2,4,14.2,6,8.8,4.4,10.2,4,13.2-4.1,2.3-6.2,5.1-9.7,11.1-13.9,4.9-3.3,5.5-5.2,2.8-8-4.6-4.9-23.1-14.3-35-17.8-7.5-2.3-11.6-2.1-13,.5ZM186.1,35.9c11.2,3.8,21.1,8.3,29.3,13.4l3.9,2.4-2.9.7c-7.7,1.9-16.4,12.1-16.4,19.3s-.2,3.3-.4,3.3-2.9-1.5-5.9-3.4c-5.8-3.4-13.8-6.7-21.5-8.6l-4.2-1.1,2.4-3.2c4.8-6.4,5.7-16.7,2.1-23.7-1.4-2.8-1.4-3,.2-3s7,1.8,13.4,3.9Z"/>
  <path class="st0" d="M68,59.9c-9.1,4.8-12.4,15.2-7.8,24.1,5.7,11,18.8,13.3,27.4,4.6,7.1-7,8-15.7,2.4-23.4-5-6.9-14.7-9.3-22-5.3ZM84.1,63.3c4.5,3,7.4,10,6.5,15.3-1,5.1-6.9,11-12,12-8.9,1.6-17.6-5.5-17.6-14.5s13.3-19.4,23.1-12.8Z"/>
  <path class="st0" d="M218.2,58.8c-7.3,2.2-13,11.5-11.8,19.5.8,5.3,6.3,12.3,11.3,14.3,7.4,3.1,16.4.3,21-6.7s2.8-5.3,2.8-10.5-.4-6.7-3.1-10.1c-5.1-6.3-12.4-8.7-20.2-6.5ZM231.8,63c4.5,2.8,7.2,7.6,7.2,13s-2.8,10.3-8.1,13.1c-9.4,4.8-20.5-1.5-21.6-12.2-1.2-11.8,12.3-20.1,22.5-13.9Z"/>
  <path class="st0" d="M134,68.5c-26.7,5.4-49.9,24.4-60.5,49.5-3.4,8-6.5,23.1-6.5,31.5,0,47.7,40.1,85.9,87.4,83.2,59.6-3.4,96.4-66.9,69.5-120.1-16.6-32.8-54.2-51.3-89.9-44.1ZM170.5,72.5c23.7,6.5,43.4,23.8,53.1,46.5,16.6,38.5-.3,83.8-38.1,102.4-11.4,5.7-18.4,7.5-31.5,8.3-51.7,3-92.8-44.7-82.4-95.5,6.2-30.8,30.9-55.8,61.9-62.6,8.7-1.9,28.3-1.4,37,.9Z"/>
  <path class="st0" d="M135.5,81.6c-3.8.8-11.3,3.6-16.5,6.1-7.9,3.8-10.8,5.9-18.1,13.2s-9.4,10.2-13.2,18.1c-10.2,21.1-10.2,40.9,0,62,3.8,7.9,5.9,10.8,13.2,18.1s10.2,9.4,18.1,13.2c28.2,13.6,58,8.7,80.1-13.3,7.3-7.2,9.4-10.1,13.2-18,10.4-21.6,10.1-42.9-1.1-64.5-5-9.6-18.1-22.7-27.7-27.7-15.2-7.9-33-10.5-48-7.2ZM168.6,86.1c24.8,7.6,41.6,26,46.9,51.4,7.2,34.6-16.2,70.3-51,77.6-13,2.7-29.3,1.2-41-3.9-13.6-5.9-25.5-16.9-32.2-29.8-16.2-31.2-7.1-67.3,21.9-87.2,14.6-10,38-13.5,55.4-8.1Z"/>
  <path class="st0" d="M135,87.6c-28.4,7.4-49,33.6-49,62.3.1,29.1,21.2,56,49.2,62.6,8.1,1.9,21.6,1.9,29.7,0,16.9-4,34.1-17.8,41.9-33.7,2.3-4.5,4.8-11.2,5.7-14.8,6.6-28.3-8.2-58.6-34.7-71.4-5.1-2.4-11.7-4.9-14.6-5.5-7.3-1.5-21.6-1.3-28.2.5ZM164.2,91.9c11.7,3,19.3,7.3,27.9,16,15.4,15.4,21.2,35.9,15.9,56.5-2.9,11.3-7.3,19-16,27.6-8.6,8.7-16.3,13.1-27.6,16-20.6,5.3-41.1-.5-56.5-15.9-23.9-23.9-23.9-60.3,0-84.2s36-21.2,56.3-16Z"/>
  <path class="st0" d="M46.8,82.7c-6.1,6.9-16,29.7-17.4,40.5-.4,2.9-.1,4.9.9,6.2,1.4,1.8,1.9,1.9,8.5.7,6.1-1.1,7.9-1,12.6.3,3,.9,5.8,2.1,6.1,2.6,1,1.6,5.1,1.1,6.8-.8,1-1,2.8-5,4.1-8.8s3.8-9.9,5.7-13.6c4.3-8.8,3.6-11.4-3.6-14-6.6-2.4-9.4-4.5-13.2-10.3-3-4.5-4.9-6.4-6.4-6.5-.4,0-2.2,1.7-4.1,3.7ZM59.4,94.5c4.1,3.1,9.8,5.5,13.1,5.5s2.5.2,2.5.4-1.5,2.9-3.4,5.9c-3.4,5.8-6.7,13.8-8.6,21.5l-1.1,4.2-3.2-2.4c-6.4-4.8-16.7-5.7-23.7-2.1-3.8,2-3.8,1.5-.4-10.1,2.6-9.3,9.1-23.7,13.8-31.3l2.8-4.4,2.5,5.1c1.4,2.9,3.9,6.3,5.7,7.7Z"/>
  <path class="st0" d="M246.5,81.7c-7.6,9.1-10.4,11.5-16,13.8-8.2,3.3-8.8,5.1-4.5,14.1,1.7,3.8,4.3,10,5.6,13.8,2.5,7.4,4.8,10.6,7.2,10.6s3.5-.9,5.8-2.1c5.3-2.5,14.2-3.5,18.4-2,2.3.8,3.8.8,5.2,0,1.8-1,2-1.8,1.5-6.3-1.4-13.2-15.9-43.6-20.8-43.6s-1.6.8-2.4,1.7ZM257,96.5c4.8,9.6,12.4,31.1,11.5,32.3-.1.1-2.2-.7-4.6-1.8s-6.4-2-8.9-2c-4.5,0-12,2.8-15.2,5.7-1.5,1.4-1.8,1.2-2.8-2.9-1.9-7.7-5.2-15.7-8.6-21.5-1.9-3-3.4-5.7-3.4-5.9s1.5-.4,3.3-.4c7.1,0,17.4-8.8,19.3-16.4s.8-2.8,2.1-1c.8,1,4.1,7.3,7.3,13.9Z"/>
  <path class="st0" d="M246,91.5c0,.2,1.5,3.9,3.4,8.2,3.4,7.9,4.6,11.3,6.6,19.1,1.3,5.1,3.4,4.6,2.4-.6-1.6-8.5-8.7-25.7-11-26.6-.8-.3-1.4-.3-1.4-.1Z"/>
  <path class="st0" d="M36.8,134c-5.5,2.9-9.8,10.1-9.8,16.3.1,9,8.8,17.7,17.7,17.7,14.1,0,22.8-16.1,15-27.8-5-7.6-15-10.3-22.9-6.2ZM53.7,137.8c4.3,3,6.6,8.5,6,13.8-.9,8.4-8,14.1-16.3,13.1-19.2-2.1-16.6-31,2.7-29.4,2.6.2,6,1.3,7.6,2.5Z"/>
  <path class="st0" d="M246.7,134.1c-2,1.1-4.9,3.7-6.3,5.9-10.2,15.4,5.5,33.7,22.3,26.1,9.4-4.3,12.9-17,7-25.9-5-7.7-15-10.3-23-6.1ZM263.7,137.8c4.3,3,6.6,8.5,6,13.8-.9,8.4-8,14.1-16.3,13.1-19.2-2.1-16.6-31,2.7-29.4,2.6.2,6,1.3,7.6,2.5Z"/>
  <path class="st0" d="M57.5,167c-.3.5-3,1.7-6,2.6-4.8,1.6-6.2,1.6-12.6.4-6.8-1.3-7.2-1.3-8.6.6-1,1.3-1.3,3.3-.9,6.2,1.4,10.9,12.3,35.5,18.1,41.2,3.9,3.8,5.5,3.3,9.4-3,3.4-5.5,8.2-9.5,12.6-10.5,4.8-1.2,7.5-3.3,7.5-6s-1.5-5.6-3.4-9.3-4.4-9.7-5.5-13.2c-1.2-3.5-2.8-7.2-3.8-8.2-1.7-1.9-5.8-2.4-6.8-.8ZM63.7,174.6c1.7,6.7,6.2,17.1,9.2,21.3,2.8,3.8,2.7,4.1-1.1,4.1s-12.9,5-15.6,8.7c-1.1,1.6-2.6,4.4-3.4,6.3l-1.5,3.5-2.8-4.5c-4.8-7.6-11.3-22.1-13.9-31.4-3.4-11.7-3.4-12.1.5-10,5.4,2.8,12.8,2.9,18.7.4,2.8-1.2,5.7-2.9,6.3-3.6,1.6-1.9,1.8-1.6,3.6,5.2Z"/>
  <path class="st0" d="M235.7,167.8c-1,1-2.6,4.7-3.8,8.2-1.1,3.5-3.6,9.5-5.6,13.3-5.2,10.5-4.7,11.7,6.5,16.3,3.8,1.5,7.8,5.2,13.4,12.2,2.4,2.9,3.1,2.8,6.7-1.3,6.2-7.1,15.6-29.7,16.8-40.1.5-4.5.3-5.3-1.5-6.3-1.4-.8-2.9-.8-5.2,0-4.4,1.6-13.8.6-18.8-2s-6.4-2.6-8.5-.3ZM248.5,173.9c6.5,1.8,10,1.3,18.6-2.3,1.5-.6,1.4.4-.8,8.1-3,10.7-7.6,21.8-13.4,31.9l-4.3,7.5-1.3-3.5c-.6-2-2.4-5.1-3.8-7-3-4-11.5-8.6-15.7-8.6s-2.8-.2-2.8-.4,1.5-2.9,3.4-5.9c3.4-5.8,6.7-13.8,8.6-21.5l1.1-4.2,3.2,2.4c1.8,1.3,5,2.9,7.2,3.5Z"/>
  <path class="st0" d="M256,181.1c-1.7,6.8-4.5,14.8-7.4,21.1-2.4,5.4-2.3,7.5.3,4.5,3.7-4.5,11-27.2,9.2-29s-1.3.5-2.1,3.4Z"/>
  <path class="st0" d="M69,207.6c-4.5,2-6.8,4.1-9.1,8.6-6.1,11.9,2.7,25.8,16.2,25.8s10.6-2.6,13.9-7.2c5.3-7.3,4.7-15.8-1.7-22.8-5.1-5.8-12.4-7.4-19.3-4.4ZM81.3,210.4c7.8,3.2,11.3,11.6,8.1,19.4-6.3,15.2-28.4,10.6-28.4-5.8s2.9-10.6,8.3-13c5-2.3,7.7-2.5,12-.6Z"/>
  <path class="st0" d="M218.6,207c-6.1,1.9-12.6,10.9-12.6,17.5s.9,4.9,1.9,7.1c5,10.9,19.2,13.8,28.1,5.8,14.1-12.8.9-35.8-17.4-30.4ZM230.7,211c14.3,6.4,9.1,28-6.7,28s-10.3-2.8-13-7.9c-3.1-6.2-2.3-11.9,2.3-17,4.7-5.1,10.7-6.2,17.4-3.1Z"/>
  <path class="st0" d="M99.8,223c-.9.6-2.4,3.1-3.4,5.8-2.4,6.4-5.9,10.9-10.9,14-6.5,3.9-7.1,5.5-3.4,9.6,3.6,4.2,19.6,12.3,31.7,16,15.2,4.8,18.5,3.2,16.2-7.5-1.4-6.5-.8-11.4,2.1-17.1,1-2,1.9-4.3,1.9-5.1,0-2.4-3.4-4.6-10.6-7.1-3.8-1.3-10.2-4-14.1-6-4-2-7.4-3.6-7.5-3.6-.2,0-1.1.5-2,1ZM106.3,228.4c5.8,3.4,13.8,6.7,21.5,8.6l4.2,1.1-2.4,3.2c-4.8,6.4-5.7,16.7-2,23.8.8,1.7,1.4,3.2,1.2,3.3-.2.2-4.8-1-10.3-2.6-10.3-3-24.6-9.3-32.4-14.2l-4.4-2.8,5.1-2.5c7.2-3.4,13.2-11.9,13.2-18.8s.2-2.5.4-2.5,2.9,1.5,5.9,3.4Z"/>
  <path class="st0" d="M190.4,225.9c-4.4,2.1-10.9,4.8-14.5,6-3.7,1.2-7.5,3.1-8.5,4.2-1.6,1.8-1.6,2.4-.5,5.2,4.5,11,4.6,12.4,2.5,23.5-1.5,7.7,5.7,8.1,22.8,1.2,16.9-6.7,29.1-15.1,27-18.5-.4-.7-3.2-3.2-6.2-5.7-5.3-4.2-7.5-7.4-10.1-14.6-2-5.4-3.7-5.6-12.5-1.3ZM200,228.2c0,7.3,8.7,17.5,16.4,19.4l2.9.7-3.9,2.4c-8.2,5.1-18.1,9.6-29.3,13.4-6.4,2.1-12.4,3.9-13.4,3.9-1.6,0-1.6-.2-.2-3,3.6-7,2.7-17.3-2.1-23.7l-2.4-3.2,4.2-1.1c7.2-1.8,17.2-5.9,21.9-8.9,2.4-1.6,4.7-3,5.2-3,.4-.1.7,1.4.7,3.1Z"/>
  <path class="st0" d="M142.5,238.9c-7.5,3.4-12.1,13.7-9.6,21.4,4.8,14.5,23.5,17.1,31.8,4.5,5.9-8.9,2.4-21.6-7-25.9-5.3-2.3-10.1-2.4-15.2,0ZM158.7,242.8c4.3,3,6.6,8.5,6,13.8-.9,8.4-8,14.1-16.3,13.1-19.2-2.1-16.6-31,2.7-29.4,2.6.2,6,1.3,7.6,2.5Z"/>
  <path class="st0" d="M297.2,157.7c-.7,2.3-2.1,9-3.2,15-2.8,15.5-6.4,27.3-12,39-20.5,43.3-58.2,72.4-105.2,81.4-6.2,1.1-14,3-17.3,4l-6,1.9,10-.4c17.2-.7,32.4-4.7,51.1-13.5,28.4-13.5,54.8-39.1,68.8-67,10-19.8,16.3-44,15.4-59.1l-.3-5.5-1.3,4.2Z"/>
  <path class="st0" d="M1.4,164c1.1,23.1,9.9,48,24.6,70.1,8.4,12.5,27.4,31.5,39.9,39.9,22.3,14.9,47.3,23.6,70.6,24.6,9.7.4,9.9.4,6.1-1.1-2.1-.8-8-2.2-13-3-34-5.8-60.3-19.1-83.1-42.1-21.8-21.8-34.7-47.5-40.6-80.1-1.1-6.2-2.7-12.8-3.5-14.6-1.4-3-1.5-2.7-1,6.3Z"/>
</svg>