<?xml version="1.0" encoding="UTF-8"?>
<svg xmlns="http://www.w3.org/2000/svg" version="1.1" viewBox="0 0 268.5 418.5">
  <!-- Generator: Adobe Illustrator 29.2.1, SVG Export Plug-In . SVG Version: 2.1.0 Build 116)  -->
  <defs>
    <style>
      .st0 {
        fill: #e89288;
      }

      .st1 {
        fill: #d0d2d3;
      }

      .st2 {
        fill: #fff;
      }

      .st3 {
        fill: #112129;
      }

      .st4 {
        fill: #d47f76;
      }

      .st5 {
        fill: #f7a59b;
      }

      .st6 {
        fill: #0c5880;
      }

      .st7 {
        display: none;
      }

      .st8 {
        fill: #facdc9;
      }

      .st9 {
        fill: #f7b7af;
      }
    </style>
  </defs>
  <g id="BACKGROUND" class="st7">
    <rect class="st1" x="-122.9" y="-29" width="500" height="500"/>
  </g>
  <g id="OBJECTS">
    <g>
      <rect class="st2" x="50.1" y="26.4" width="153.9" height="152.6" rx="22.5" ry="22.5"/>
      <rect class="st6" x="61.3" y="34.6" width="131.6" height="131.6" rx="13.5" ry="13.5"/>
      <rect class="st6" x="61.3" y="19.5" width="131.6" height="131.6" rx="13.5" ry="13.5"/>
      <g>
        <path class="st2" d="M127.1,74.5c-2.6,0-4.6-2.1-4.6-4.6v-22.5c0-2.6,2.1-4.6,4.6-4.6s4.6,2.1,4.6,4.6v22.5c0,2.6-2.1,4.6-4.6,4.6Z"/>
        <path class="st2" d="M127.1,128c-22.1,0-40-18-40-40s2.5-16.2,7.2-22.9c4.6-6.6,11-11.6,18.4-14.5,2.4-.9,5.1.3,6,2.7.9,2.4-.3,5.1-2.7,6-11.8,4.5-19.7,16.1-19.7,28.7s13.8,30.7,30.7,30.7,30.7-13.8,30.7-30.7-7.9-24.1-19.7-28.7c-2.4-.9-3.6-3.6-2.7-6,.9-2.4,3.6-3.6,6-2.7,7.5,2.9,13.8,7.9,18.4,14.5,4.7,6.7,7.2,14.6,7.2,22.9,0,22.1-18,40-40,40Z"/>
      </g>
    </g>
    <g>
      <path class="st0" d="M115.5,390.9l-38.5-114c-2.8-8.3.2-17.4,7.4-22.4l38.4-26.9-7.3,163.2Z"/>
      <path class="st5" d="M127.1,99.3h0c-10.7,0-19.5,8.7-19.5,19.5v160.4h38.9V118.7c0-10.7-8.7-19.5-19.5-19.5Z"/>
      <path class="st5" d="M131.4,192.2l83.5,23c12.6,3.5,21.3,14.9,21.3,27.9v52.6c0,7.8-1.5,15.5-4.4,22.8l-20.7,51.4v38.2h-103.4v-157.1l23.7-58.8Z"/>
      <path class="st0" d="M159.8,222.2v-22.2l-13.2-3.7v22.2c0,6,4.1,11.2,9.9,12.7l10.3,2.6c-4.2-2.2-7-6.6-7-11.6Z"/>
      <g>
        <polygon class="st4" points="182.8 206.3 173.4 203.7 182.8 233.6 182.8 206.3"/>
        <polygon class="st4" points="212.7 243.5 212.7 214.6 202.8 211.8 212.7 243.5"/>
      </g>
      <path class="st9" d="M127.1,105.5h0c-7.4,0-13.3,6-13.3,13.3v13.3h26.6v-13.3c0-7.4-6-13.3-13.3-13.3Z"/>
      <path class="st8" d="M140.4,132.1c-3.2-2.1-8-3.4-13.3-3.4s-10.1,1.3-13.3,3.4h0c0,0,26.6,0,26.6,0h0Z"/>
    </g>
  </g>
  <g id="DESIGNED_BY_FREEPIK">
    <g>
      <g>
        <g>
          <path class="st3" d="M137.2,442.2c-.4.4-.8.9-1.1,1.5l-.5-.2c0-.3-.3-.5-.7-.5-.3,0-.6.3-.5.7,0,.3.3.6.7.5,0,0,.1,0,.2,0l.5.2c-.3.6-.4,1.1-.5,1.7h.7c.2-1.2.8-2.4,1.8-3.3l-.5-.5Z"/>
          <path class="st3" d="M142.6,439.9c-.2,0-.3,0-.5,0v-.6c.1-.1.2-.4.2-.6,0-.4-.4-.7-.8-.6-.4,0-.7.4-.6.8,0,.3.2.5.4.6v.6c-.6.1-1.3.3-2,.6l.3.7c.9-.4,1.9-.7,3-.7s1,0,1.5.2l.2-.7c-.5-.1-1.1-.2-1.6-.2Z"/>
          <path class="st3" d="M149.2,442.5c.3,0,.6-.3.5-.7,0-.3-.3-.6-.7-.5-.3,0-.5.3-.5.6l-.4.4c-.4-.4-.9-.8-1.4-1.1l-.4.6c1.1.7,2,1.7,2.6,2.9l.7-.3c-.3-.6-.6-1.1-.9-1.5l.4-.4c0,0,.1,0,.2,0Z"/>
          <path class="st3" d="M142.1,450.1c-.4,0-.8,0-1.2,0-.9,0-1.7,0-2.5-.2-.4,0-.8-.2-1.3-.3,1,1.9,3.1,3.1,5.4,3.1s5.3-1.9,5.9-4.5c-.7.4-1.5.8-2.5,1.1-1.2.4-2.6.6-4,.7Z"/>
          <path class="st3" d="M142.6,441.4c-3.4,0-6.1,2.7-6.1,5.9s0,.8.1,1.3c.7.5,2.7.9,5.3.7,2.9-.2,5.3-1,6.7-2.2,0-.2,0-.4,0-.6-.4-3-3-5.2-6-5.2ZM140.5,448c-1,0-1.8-.8-1.8-1.8s.8-1.8,1.8-1.8,1.8.8,1.8,1.8-.8,1.8-1.8,1.8ZM145.2,447c-.7,0-1.4-.6-1.4-1.4s.6-1.4,1.4-1.4,1.4.6,1.4,1.4-.6,1.4-1.4,1.4Z"/>
        </g>
        <path class="st3" d="M158.6,443.3c-.3-.1-.8-.3-1.4-.2-.6,0-.8.3-.8,1v.9h2.2v1.7h-2.2v5.5h-1.9v-5.5h-1.3v-1.7h1.3v-.9c0-1.7.9-2.8,2.6-2.8s1.2.1,1.6.3v1.7Z"/>
        <path class="st3" d="M163.4,446.6c-.2,0-.4,0-.5,0-.9,0-1.5.5-1.5,1.6v3.9h-1.9v-7.2h1.9v.8c.5-.7,1.1-1,2-1s.8.1,1.1.3l-1,1.6Z"/>
        <path class="st3" d="M171,448.5c0,.2,0,.5,0,.7h-5.1c.2,1,.9,1.5,1.8,1.5s1.3-.3,1.8-.7l1.1,1.2c-.8.7-1.9,1.1-3.1,1.1-2.2,0-3.7-1.5-3.7-3.8s1.5-3.8,3.6-3.8,3.5,1.5,3.5,3.8ZM165.9,447.8h3.2c-.2-.9-.7-1.4-1.6-1.4s-1.4.5-1.6,1.4Z"/>
        <path class="st3" d="M178.7,448.5c0,.2,0,.5,0,.7h-5.1c.2,1,.9,1.5,1.8,1.5s1.3-.3,1.8-.7l1.1,1.2c-.8.7-1.9,1.1-3.1,1.1-2.2,0-3.7-1.5-3.7-3.8s1.5-3.8,3.6-3.8,3.5,1.5,3.5,3.8ZM173.6,447.8h3.2c-.2-.9-.7-1.4-1.6-1.4s-1.4.5-1.6,1.4Z"/>
        <path class="st3" d="M187,448.5c0,2.2-1.5,3.8-3.5,3.8s-1.6-.4-2.1-.9v3.7h-1.9v-10.1h1.9v.8c.5-.6,1.2-1,2.1-1,2,0,3.5,1.6,3.5,3.8ZM181.3,448.5c0,1.1.7,2,1.8,2s1.9-.9,1.9-2-.7-2-1.9-2-1.8.8-1.8,2Z"/>
        <path class="st3" d="M190.1,442.6c0,.7-.5,1.2-1.2,1.2s-1.2-.5-1.2-1.2.5-1.2,1.2-1.2,1.2.5,1.2,1.2ZM189.9,452.1h-1.9v-7.2h1.9v7.2Z"/>
        <path class="st3" d="M193.1,447.5l2.7-2.6h2.4l-3.5,3.4,3.5,3.8h-2.4l-2.7-2.9v2.9h-1.9v-10.7h1.9v6Z"/>
      </g>
      <g>
        <path class="st3" d="M61.5,452v-1.1c-.5.7-1.4,1.2-2.4,1.2-1.8,0-3.1-1.4-3.1-3.7s1.3-3.7,3.1-3.7,1.8.5,2.4,1.2v-3.8h1.1v9.8h-1.1ZM61.5,450.1v-3.2c-.4-.6-1.2-1.1-2.1-1.1-1.4,0-2.3,1.2-2.3,2.7s.8,2.7,2.3,2.7,1.7-.5,2.1-1.1Z"/>
        <path class="st3" d="M64,448.5c0-2.1,1.5-3.7,3.5-3.7s3.4,1.7,3.4,3.8v.3h-5.7c0,1.3,1,2.4,2.5,2.4s1.6-.3,2.2-.9l.5.7c-.7.7-1.7,1.1-2.8,1.1-2.1,0-3.6-1.5-3.6-3.7ZM67.5,445.7c-1.5,0-2.3,1.3-2.3,2.4h4.6c0-1.1-.7-2.4-2.3-2.4Z"/>
        <path class="st3" d="M71.7,451.1l.6-.8c.5.5,1.4,1,2.3,1s1.7-.5,1.7-1.2c0-1.7-4.4-.7-4.4-3.3s1-2,2.6-2,2.1.5,2.6,1l-.5.8c-.4-.5-1.2-.9-2.1-.9s-1.6.5-1.6,1.1c0,1.6,4.4.5,4.4,3.3s-1,2.1-2.8,2.1-2.1-.4-2.9-1.1Z"/>
        <path class="st3" d="M78.5,443.2c0-.4.3-.7.7-.7s.7.3.7.7-.3.7-.7.7-.7-.3-.7-.7ZM78.7,452v-7.1h1.1v7.1h-1.1Z"/>
        <path class="st3" d="M81.6,453.9l.6-.8c.6.7,1.3,1,2.3,1s2.3-.6,2.3-2.1v-1c-.5.7-1.4,1.3-2.4,1.3-1.8,0-3.1-1.4-3.1-3.7s1.3-3.7,3.1-3.7,1.8.5,2.4,1.2v-1.1h1.1v6.9c0,2.3-1.6,3.1-3.4,3.1s-2-.2-2.9-1.1ZM86.8,450v-3.1c-.4-.6-1.2-1.1-2.1-1.1-1.4,0-2.3,1.1-2.3,2.7s.8,2.7,2.3,2.7,1.7-.5,2.1-1.2Z"/>
        <path class="st3" d="M94.5,452v-4.6c0-1.2-.6-1.6-1.6-1.6s-1.7.5-2.1,1.1v5.2h-1.1v-7.1h1.1v1c.5-.6,1.5-1.2,2.5-1.2s2.3.7,2.3,2.3v5h-1.1Z"/>
        <path class="st3" d="M97,448.5c0-2.1,1.5-3.7,3.5-3.7s3.4,1.7,3.4,3.8v.3h-5.7c0,1.3,1,2.4,2.5,2.4s1.6-.3,2.2-.9l.5.7c-.7.7-1.7,1.1-2.8,1.1-2.1,0-3.6-1.5-3.6-3.7ZM100.5,445.7c-1.5,0-2.3,1.3-2.3,2.4h4.6c0-1.1-.7-2.4-2.3-2.4Z"/>
        <path class="st3" d="M110.4,452v-1.1c-.5.7-1.4,1.2-2.4,1.2-1.8,0-3.1-1.4-3.1-3.7s1.3-3.7,3.1-3.7,1.8.5,2.4,1.2v-3.8h1.1v9.8h-1.1ZM110.4,450.1v-3.2c-.4-.6-1.2-1.1-2.1-1.1-1.4,0-2.3,1.2-2.3,2.7s.8,2.7,2.3,2.7,1.7-.5,2.1-1.1Z"/>
        <path class="st3" d="M116.7,452v-9.8h1.1v3.8c.6-.8,1.4-1.2,2.4-1.2,1.8,0,3.1,1.5,3.1,3.7s-1.3,3.7-3.1,3.7-1.9-.5-2.4-1.2v1.1h-1.1ZM120,451.2c1.4,0,2.3-1.2,2.3-2.7s-.8-2.7-2.3-2.7-1.7.5-2.1,1.1v3.2c.4.6,1.2,1.1,2.1,1.1Z"/>
        <path class="st3" d="M124.6,453.8c.2,0,.4.1.6.1.5,0,.8-.2,1.1-.7l.5-1.1-3-7.1h1.2l2.4,5.8,2.3-5.8h1.2l-3.5,8.5c-.4,1-1.1,1.4-2.1,1.4-.2,0-.6,0-.8-.1l.2-1Z"/>
      </g>
    </g>
  </g>
</svg>