<?xml version="1.0" encoding="UTF-8"?>
<svg xmlns="http://www.w3.org/2000/svg" version="1.1" xmlns:xlink="http://www.w3.org/1999/xlink" viewBox="0 0 100 104">
  <!-- Generator: Adobe Illustrator 29.2.1, SVG Export Plug-In . SVG Version: 2.1.0 Build 116)  -->
  <defs>
    <linearGradient id="linear-gradient" x1="48.12" y1="40.71" x2="93.79" y2="79.81" gradientUnits="userSpaceOnUse">
      <stop offset="0" stop-color="#000"/>
      <stop offset="1" stop-color="#fff"/>
    </linearGradient>
    <linearGradient id="linear-gradient1" x1="96.11" y1="86.95" x2="85.44" y2="41.21" gradientTransform="translate(-35.51)" xlink:href="#linear-gradient"/>
    <linearGradient id="linear-gradient2" x1="51.75" y1="16.39" x2="55.49" y2="30.58" gradientTransform="translate(1.67)" xlink:href="#linear-gradient"/>
  </defs>
  <g isolation="isolate">
    <g id="Layer_1">
      <g>
        <g>
          <polygon points="43.82 53.66 43.82 100.8 89.02 74.7 89.02 27.56 43.82 53.66" fill="#d7e3ff"/>
          <polygon points="7.36 32.61 7.36 79.76 43.82 100.8 43.82 53.66 7.36 32.61" fill="#6e8be0"/>
          <polygon points="43.82 53.66 43.82 85.2 89.02 49.24 89.02 27.56 43.82 53.66 43.82 53.66" fill="url(#linear-gradient)" mix-blend-mode="screen" opacity=".5"/>
          <polygon points="28.09 64.44 28.09 82.96 30.28 84.22 37.21 88.22 37.21 69.7 28.09 64.44" fill="#bcf"/>
          <polygon points="28.09 64.44 37.21 69.7 41.58 67.18 38.67 65.49 37.21 66.33 31.01 62.75 31.01 62.76 30.28 63.18 28.09 64.44" fill="#d7e3ff"/>
          <path d="M52.56,6.51l36.46,21.05-45.21,26.1L7.36,32.61,52.56,6.51Z" fill="#bcf"/>
          <polygon points="37.21 69.7 37.21 88.22 41.58 85.7 41.58 67.18 37.21 69.7" fill="#d7e3ff"/>
          <path d="M47.97,19.08v1.43c.26.3.59.54.95.73.16.09.33.17.5.24.84.36,1.72.56,2.61.62.9.06,1.82-.03,2.69-.26.7-.18,1.36-.45,1.95-.9.18-.13.35-.28.49-.45h0v-1.28c0,.14-.02.27-.06.4-.13.46-.48.84-.87,1.13-.53.4-1.12.64-1.74.8-.78.2-1.6.28-2.4.23-.8-.05-1.58-.23-2.33-.55-.6-.26-1.19-.61-1.51-1.17-.17-.29-.27-.64-.27-.98Z" fill="#bcf"/>
          <g>
            <polygon points="28.09 54.34 28.09 61.07 30.28 62.33 31.01 62.75 37.21 66.33 37.21 59.6 28.09 54.34" fill="#bcf"/>
            <polygon points="28.09 54.34 37.21 59.6 41.58 57.07 32.47 51.81 30.28 53.07 28.09 54.34" fill="#d7e3ff"/>
            <polygon points="37.21 59.6 37.21 66.33 38.67 65.49 41.58 63.81 41.58 57.07 37.21 59.6" fill="#d7e3ff"/>
          </g>
          <g>
            <polygon points="87.52 74 85.87 74.93 84.23 75.86 80.96 77.74 77.69 79.64 76.06 80.59 74.44 81.55 76.08 80.62 77.72 79.69 81 77.81 84.26 75.91 85.89 74.96 87.52 74" fill="#637bc2"/>
            <polygon points="87.52 73.13 85.87 74.06 84.23 75 80.96 76.88 77.69 78.77 76.06 79.73 74.44 80.69 76.08 79.76 77.72 78.82 81 76.94 84.26 75.05 85.89 74.09 87.52 73.13" fill="#637bc2"/>
            <polygon points="87.52 72.27 85.87 73.2 84.23 74.13 80.96 76.01 77.69 77.91 76.06 78.86 74.44 79.82 76.08 78.89 77.72 77.96 81 76.08 84.26 74.18 85.89 73.23 87.52 72.27" fill="#637bc2"/>
            <polygon points="87.52 71.4 85.87 72.33 84.23 73.27 80.96 75.15 77.69 77.04 76.06 78 74.44 78.96 76.08 78.03 77.72 77.09 81 75.21 84.26 73.32 85.89 72.36 87.52 71.4" fill="#637bc2"/>
            <polygon points="87.52 70.54 85.87 71.47 84.23 72.4 80.96 74.28 77.69 76.18 76.06 77.13 74.44 78.09 76.08 77.16 77.72 76.23 81 74.35 84.26 72.45 85.89 71.5 87.52 70.54" fill="#637bc2"/>
          </g>
          <polygon points="29.66 68.34 29.66 75.25 35.64 78.71 35.64 71.79 29.66 68.34" fill="#222c6b"/>
          <g>
            <polygon points="63.73 89.28 63.73 90.97 49.88 98.96 49.88 60.24 63.73 52.24 63.73 89.28" fill="#bcf"/>
            <polygon points="63.73 52.24 49.88 60.24 48.42 59.39 62.27 51.4 63.73 52.24" fill="#bcf"/>
            <polygon points="49.88 60.24 49.88 98.96 48.42 98.12 48.42 59.39 49.88 60.24" fill="#6e8be0"/>
            <path d="M49.88,60.24c1.1-.75,2.23-1.47,3.37-2.16.57-.35,1.14-.69,1.71-1.03l1.73-1.01,1.74-.99c.58-.32,1.16-.65,1.75-.96,1.17-.64,2.35-1.26,3.56-1.84-1.1.75-2.23,1.47-3.37,2.16-.57.35-1.14.69-1.71,1.03l-1.73,1.01-1.74.99c-.58.32-1.16.65-1.75.96-1.17.64-2.35,1.26-3.56,1.84Z" fill="#fff"/>
            <polygon points="49.88 60.24 63.73 52.24 63.73 69.75 49.88 89.13 49.88 60.24" fill="url(#linear-gradient1)" mix-blend-mode="screen" opacity=".5"/>
            <path d="M61.65,84.91c-.28,0-.5-.22-.5-.5v-22.01c0-.28.22-.5.5-.5s.5.22.5.5v22.01c0,.28-.22.5-.5.5Z" fill="#6e8be0"/>
            <polygon points="58.56 64.9 57.06 65.76 58.12 64.09 57.97 64.03 56.91 65.7 56.91 64.2 56.7 64.32 56.7 65.82 55.64 65.37 55.49 65.61 56.55 66.06 55.05 66.92 55.05 67.14 56.55 66.27 55.49 67.94 55.64 68.01 56.7 66.33 56.7 67.83 56.91 67.71 56.91 66.21 57.97 66.66 58.12 66.42 57.06 65.97 58.56 65.11 58.56 64.9" fill="#fff"/>
          </g>
          <g>
            <polygon points="62.77 16.61 62.77 23.35 48.19 31.77 48.19 25.03 62.77 16.61" fill="#d7e3ff"/>
            <path d="M62.77,16.61l-14.58,8.42-10.21-5.89,14.58-8.42,10.21,5.89ZM53.02,20.17c.27-.47.38-1.06.24-1.57-.14-.51-.54-.94-.97-1.27-.59-.44-1.25-.71-1.95-.9-.87-.23-1.79-.31-2.69-.26-.9.05-1.77.25-2.61.62-.67.29-1.32.68-1.69,1.31-.27.47-.38,1.06-.24,1.57.08.31.26.58.48.82h0c.15.16.32.31.49.45.59.44,1.25.71,1.95.9.87.23,1.79.31,2.69.26.9-.05,1.77-.25,2.61-.62.17-.07.34-.15.5-.24.36-.19.69-.43.95-.73.09-.1.17-.22.24-.34Z" fill="#d7e3ff"/>
            <path d="M52.78,19.06v.02c0,.34-.1.69-.27.98-.32.56-.91.91-1.51,1.17-.76.33-1.53.5-2.33.55-.8.05-1.62-.03-2.4-.23-.62-.16-1.22-.4-1.74-.8-.39-.3-.74-.68-.87-1.13-.04-.13-.05-.26-.06-.4,0-.35.09-.71.27-1.01.24-.42.63-.72,1.06-.96.15-.08.3-.15.45-.22.76-.33,1.54-.5,2.34-.55.8-.05,1.62.03,2.4.23.62.16,1.22.4,1.74.8.39.3.74.68.87,1.13.04.13.05.27.06.41Z" fill="#d7e3ff"/>
            <polygon points="48.19 25.03 48.19 31.77 37.98 25.87 37.98 19.14 48.19 25.03" fill="#6e8be0"/>
            <path d="M62.77,16.61c-1.17.79-2.35,1.54-3.55,2.27-.6.37-1.2.73-1.8,1.09l-1.82,1.06-1.83,1.04c-.61.34-1.22.69-1.84,1.02-1.23.67-2.47,1.33-3.74,1.94,1.16-.79,2.35-1.54,3.55-2.27.6-.37,1.2-.72,1.8-1.09l1.82-1.06,1.83-1.04c.61-.34,1.22-.69,1.84-1.02,1.23-.67,2.47-1.33,3.74-1.94Z" fill="#fff"/>
            <polygon points="48.19 31.77 48.19 25.03 62.77 16.61 62.77 20.51 48.19 31.77" fill="url(#linear-gradient2)" mix-blend-mode="screen" opacity=".5"/>
          </g>
        </g>
        <path d="M37.21,69.7c.68-.51,1.4-.94,2.13-1.37.74-.41,1.47-.82,2.25-1.15-.68.51-1.4.94-2.13,1.37-.74.41-1.47.82-2.25,1.15Z" fill="#fff"/>
        <path d="M37.21,59.6c.68-.51,1.4-.94,2.13-1.37.74-.41,1.47-.82,2.25-1.15-.68.51-1.4.94-2.13,1.37-.74.41-1.47.82-2.25,1.15Z" fill="#fff"/>
      </g>
    </g>
  </g>
</svg>