<?xml version="1.0" encoding="UTF-8"?>
<svg xmlns="http://www.w3.org/2000/svg" version="1.1" xmlns:xlink="http://www.w3.org/1999/xlink" viewBox="0 0 103 75">
  <!-- Generator: Adobe Illustrator 29.2.1, SVG Export Plug-In . SVG Version: 2.1.0 Build 116)  -->
  <defs>
    <linearGradient id="_횁책챌청챙첼챠챠청챕_찾챨횪채챔책챠챵_51" data-name="횁책챌청챙첼챠챠청챕 찾챨횪채챔책챠챵 51" x1="47.23" y1="13.56" x2="29.46" y2="44.34" gradientUnits="userSpaceOnUse">
      <stop offset="0" stop-color="#e0dfd6"/>
      <stop offset=".04" stop-color="#dddcd3"/>
      <stop offset=".66" stop-color="#bdbcb6"/>
      <stop offset="1" stop-color="#b2b1ab"/>
    </linearGradient>
    <linearGradient id="_횁책챌청챙첼챠챠청챕_찾챨횪채챔책챠챵_511" data-name="횁책챌청챙첼챠챠청챕 찾챨횪채챔책챠챵 51" x1="77.48" y1="31.03" x2="59.71" y2="61.8" xlink:href="#_횁책챌청챙첼챠챠청챕_찾챨횪채챔책챠챵_51"/>
    <linearGradient id="_횁책챌청챙첼챠챠청챕_찾챨횪채챔책챠챵_38" data-name="횁책챌청챙첼챠챠청챕 찾챨횪채챔책챠챵 38" x1="82.6" y1="33.37" x2="69.57" y2="55.93" gradientUnits="userSpaceOnUse">
      <stop offset=".75" stop-color="#ecece2"/>
      <stop offset=".77" stop-color="#e7e7dd"/>
      <stop offset=".8" stop-color="#d9d9d0"/>
      <stop offset=".82" stop-color="#c2c2bb"/>
      <stop offset=".83" stop-color="#b2b1ab"/>
    </linearGradient>
    <linearGradient id="_횁책챌청챙첼챠챠청챕_찾챨횪채챔책챠챵_381" data-name="횁책챌청챙첼챠챠청챕 찾챨횪채챔책챠챵 38" x1="60.83" y1="58.63" x2="56.97" y2="65.33" xlink:href="#_횁책챌청챙첼챠챠청챕_찾챨횪채챔책챠챵_38"/>
    <linearGradient id="_횁책챌청챙첼챠챠청챕_찾챨횪채챔책챠챵_382" data-name="횁책챌청챙첼챠챠청챕 찾챨횪채챔책챠챵 38" x1="85.59" y1="36.91" x2="68.82" y2="65.95" xlink:href="#_횁책챌청챙첼챠챠청챕_찾챨횪채챔책챠챵_38"/>
    <linearGradient id="_횁책챌청챙첼챠챠청챕_찾챨횪채챔책챠챵_383" data-name="횁책챌청챙첼챠챠청챕 찾챨횪채챔책챠챵 38" x1="85.32" y1="48.25" x2="78.51" y2="60.04" xlink:href="#_횁책챌청챙첼챠챠청챕_찾챨횪채챔책챠챵_38"/>
    <linearGradient id="_횁책챌청챙첼챠챠청챕_찾챨횪채챔책챠챵_249" data-name="횁책챌청챙첼챠챠청챕 찾챨횪채챔책챠챵 249" x1="90.04" y1="56.55" x2="88.06" y2="59.97" gradientUnits="userSpaceOnUse">
      <stop offset="0" stop-color="#c0bfb8"/>
      <stop offset=".22" stop-color="#bcbbb4"/>
      <stop offset="1" stop-color="#b2b1ab"/>
    </linearGradient>
    <linearGradient id="_횁책챌청챙첼챠챠청챕_찾챨횪채챔책챠챵_129" data-name="횁책챌청챙첼챠챠청챕 찾챨횪채챔책챠챵 129" x1="60.04" y1="10.84" x2="58.2" y2="14.02" gradientUnits="userSpaceOnUse">
      <stop offset="0" stop-color="#413737"/>
      <stop offset=".37" stop-color="#3a3232"/>
      <stop offset="1" stop-color="#352e2e"/>
    </linearGradient>
    <linearGradient id="_횁책챌청챙첼챠챠청챕_찾챨횪채챔책챠챵_126" data-name="횁책챌청챙첼챠챠청챕 찾챨횪채챔책챠챵 126" x1="64.4" y1="29.05" x2="62.15" y2="32.95" gradientUnits="userSpaceOnUse">
      <stop offset="0" stop-color="#d3d3cb"/>
      <stop offset=".44" stop-color="#cdcdc5"/>
      <stop offset="1" stop-color="#bebdb6"/>
    </linearGradient>
    <linearGradient id="_횁책챌청챙첼챠챠청챕_찾챨횪채챔책챠챵_384" data-name="횁책챌청챙첼챠챠청챕 찾챨횪채챔책챠챵 38" x1="72.88" y1="15.98" x2="65.08" y2="29.48" xlink:href="#_횁책챌청챙첼챠챠청챕_찾챨횪채챔책챠챵_38"/>
  </defs>
  <g isolation="isolate">
    <g id="Layer_1">
      <g id="_x38_">
        <path d="M32.37,29.45c-3.62-.16-8.16-.13-13.15.33C5.93,31.01.16,38.8,6.51,42.6c7.84,4.7,37.95,22.82,38.02,22.77,6.21,3.97,17.16,6.09,26.97,4.88,3.23-.4,5.98-1.12,8.2-2.06L32.37,29.45Z" fill="#afaaa1" opacity=".5"/>
        <g>
          <path d="M45.32,12.47c-2.29-1.33-5.46-1.14-8.97.88-6.97,4.02-12.59,13.76-12.57,21.76.01,3.97,1.41,6.77,3.68,8.08l12.76,7.37,17.86-30.72-12.76-7.37Z" fill="url(#_횁책챌청챙첼챠챠청챕_찾챨횪채챔책챠챵_51)"/>
          <path d="M50.91,15.69c-2.29-1.33-5.46-1.14-8.97.88-6.97,4.02-12.59,13.76-12.57,21.76.01,3.97,1.41,6.77,3.68,8.08l31.1,17.96,16.13-27.75c.95-1.64.39-3.73-1.25-4.68l-28.12-16.25Z" fill="#0c5880"/>
          <path d="M61.9,25.67s-14.21-10.3-19.02-8.43c-3.5,1.37-6.6,5.45-8.03,7.57-.47.7-.24,1.64.48,2.06l23.21,13.4,4.03-3.48.63-3.47-1.3-7.65Z" fill="#332c2c" opacity=".8"/>
          <path d="M75.58,29.93c-2.29-1.33-5.46-1.14-8.97.88-6.97,4.02-12.59,13.76-12.57,21.76.01,3.97,1.41,6.77,3.68,8.08l12.76,7.37,17.86-30.72-12.76-7.37Z" fill="url(#_횁책챌청챙첼챠챠청챕_찾챨횪채챔책챠챵_511)"/>
          <g isolation="isolate">
            <path d="M96.58,37.31c-.53-.31-1.26-.26-2.07.2-.31.18-.6.41-.87.68l2.79,1.62,2.95-.88-2.79-1.62Z" fill="#ecece2"/>
            <polygon points="93.63 38.19 88.8 38.78 92.45 41.7 96.42 39.81 93.63 38.19" fill="#deded4"/>
            <path d="M67.17,65.25l-2.79-1.62c.66,1.6,1.68,2.8,2.95,3.54l2.79,1.62c-1.28-.74-2.29-1.94-2.95-3.54Z" fill="#b2b1ab"/>
            <polygon points="64.35 52.9 59.53 57.88 62.32 59.5 68.22 55.15 64.35 52.9" fill="#d3d3cb"/>
            <path d="M85.84,35.25c-2.38-1.38-5.66-1.19-9.3.91-5.58,3.22-10.33,10-12.2,16.74l3.88,2.25,20.41-18.28-2.79-1.62Z" fill="url(#_횁책챌청챙첼챠챠청챕_찾챨횪채챔책챠챵_38)"/>
            <path d="M59.53,57.88c-.27.05-.57.16-.87.33-1.61.93-2.91,3.17-2.9,5.03,0,.92.33,1.56.85,1.87l2.79,1.62,2.93-7.22-2.79-1.62Z" fill="url(#_횁책챌청챙첼챠챠청챕_찾챨횪채챔책챠챵_381)"/>
            <path d="M97.3,39.13c-.31.18-.6.41-.87.68l-4.83.59c-1.9-4.57-6.67-5.85-12.26-2.63-5.58,3.22-10.33,10-12.2,16.74l-4.82,4.98c-.27.05-.57.16-.87.33-1.61.93-2.91,3.18-2.9,5.03,0,1.84,1.31,2.59,2.92,1.66.3-.18.6-.42.87-.68l4.83-.59c1.89,4.58,6.67,5.85,12.25,2.63,5.59-3.23,10.33-10,12.2-16.75l4.82-4.98c.27-.06.56-.15.87-.33,1.6-.93,2.91-3.18,2.9-5.03,0-1.85-1.32-2.59-2.92-1.66Z" fill="#c7c7bf"/>
          </g>
          <g isolation="isolate">
            <path d="M89.23,39.01c-2.16-1.26-5.16-1.08-8.46.83-6.57,3.8-11.88,12.99-11.86,20.53.01,3.75,1.33,6.38,3.47,7.62l1.16.67,16.85-28.99-1.16-.67Z" fill="url(#_횁책챌청챙첼챠챠청챕_찾챨횪채챔책챠챵_382)"/>
            <path d="M81.93,40.51c-6.57,3.8-11.88,12.99-11.86,20.53.02,7.55,5.36,10.59,11.94,6.79,6.57-3.79,11.87-12.98,11.85-20.53-.02-7.55-5.36-10.59-11.93-6.8Z" fill="#cfcfc5"/>
          </g>
          <g isolation="isolate">
            <path d="M86.41,48.87c-.88-.51-2.1-.44-3.44.34-2.67,1.54-4.83,5.28-4.82,8.34,0,1.52.54,2.59,1.41,3.1l1.25.73,6.85-11.78-1.25-.73Z" fill="url(#_횁책챌청챙첼챠챠청챕_찾챨횪채챔책챠챵_383)"/>
            <path d="M84.23,49.94c-2.67,1.54-4.83,5.28-4.82,8.34s2.18,4.3,4.85,2.76c2.67-1.54,4.82-5.27,4.82-8.34,0-3.07-2.18-4.3-4.85-2.76Z" fill="#d6d6cc"/>
            <path d="M84.24,53.65c-.89.51-1.6,1.75-1.6,2.77,0,1.02.72,1.43,1.61.92.89-.51,1.6-1.75,1.6-2.77,0-1.02-.72-1.43-1.61-.92Z" fill="#898883"/>
          </g>
          <path d="M85.41,53.88c-.25-.15-.61-.13-1,.1-.77.45-1.4,1.53-1.4,2.42,0,.44.16.75.41.9l10.25,5.92,1.98-3.41-10.25-5.92Z" fill="url(#_횁책챌청챙첼챠챠청챕_찾챨횪채챔책챠챵_249)"/>
          <path d="M94.66,59.9c-.77.45-1.4,1.53-1.4,2.42,0,.89.63,1.25,1.4.8.77-.45,1.4-1.53,1.39-2.42s-.63-1.25-1.4-.8Z" fill="#a5a49d"/>
          <path d="M97.82,40.86c-.6.35-1.09,1.19-1.09,1.88,0,.69.49.97,1.09.62.6-.35,1.09-1.19,1.09-1.88,0-.69-.49-.97-1.09-.62Z" fill="#898883"/>
          <path d="M60.91,62.16c-.6.35-1.09,1.19-1.09,1.88,0,.69.49.97,1.09.62.6-.35,1.09-1.19,1.09-1.88,0-.69-.49-.97-1.09-.62Z" fill="#898883"/>
        </g>
        <path d="M62.24,34.24c-1.64,1.64-3.13,3.57-4.36,5.65l.56.32c1.18.68,2.57.91,3.9.63,3.17-.66,5.41-.5,5.41-.5l-5.52-6.1Z" fill="#b2b1ab" opacity=".7"/>
        <g>
          <polygon points="49.33 18.31 46.73 19.81 46.73 23.27 50.88 25.67 53.47 24.17 53.47 20.71 49.33 18.31" fill="#332c2c"/>
          <path d="M52.09,4.33c-1.12-.65-2.67-.56-4.38.43-3.4,1.97-6.15,6.73-6.14,10.63,0,1.94.69,3.31,1.8,3.95l21.6,12.47,7.88-13.56c.46-.8.19-1.82-.61-2.29l-20.14-11.64Z" fill="#0c5880"/>
          <path d="M48.7,4.29c-.32.13-.65.28-.99.47-.82.47-1.6,1.11-2.32,1.86l25.61,14.79,1.83-3.16s-24.14-13.96-24.14-13.96Z" fill="url(#_횁책챌청챙첼챠챠청챕_찾챨횪채챔책챠챵_129)" mix-blend-mode="screen" opacity=".3"/>
          <path d="M74.74,19.24c-.33-.19-.79-.17-1.3.11l7.22,4.19c.51-.28.96-.31,1.3-.11l-7.22-4.19Z" fill="#ecece2"/>
          <polygon points="67.75 35.28 60.53 31.09 60.54 36.14 67.76 40.34 67.75 35.28" fill="#b2b1ab"/>
          <path d="M67.73,31.01l-7.22-4.19c-1.03.59-1.86,2.03-1.86,3.21,0,.59.21,1,.54,1.2l7.22,4.19c-.33-.19-.54-.61-.54-1.2,0-1.18.83-2.62,1.86-3.21Z" fill="url(#_횁책챌청챙첼챠챠청챕_찾챨횪채챔책챠챵_126)"/>
          <path d="M71.56,15.22c-1.18-.68-2.8-.59-4.6.45-3.57,2.06-6.45,7.04-6.44,11.15l7.22,4.19c0-4.1,2.88-9.09,6.44-11.15,1.8-1.04,3.43-1.13,4.6-.45l-7.22-4.19Z" fill="url(#_횁책챌청챙첼챠챠청챕_찾챨횪채챔책챠챵_384)"/>
          <path d="M82.51,24.62c0-1.16-.83-1.64-1.84-1.07,0-1.79-.57-3.11-1.49-3.86-1.19-.96-2.99-.98-4.99.18-3.57,2.06-6.45,7.04-6.44,11.15-1.03.59-1.86,2.03-1.86,3.21,0,1.19.84,1.66,1.87,1.07v5.06c1.97-2.19,4.15-4.07,6.46-5.4,2.32-1.34,4.52-1.98,6.48-2.05v-5.07c1-.61,1.82-2.03,1.81-3.2Z" fill="#c7c7bf"/>
          <path d="M77.46,18.96c-3.54-.53-8.24,4.04-9.46,9.3-.2.81-.24,1.51-.27,1.98,0,.48,0,.76,0,.76,0,0,.02-.27.06-.75.07-.48.19-1.15.42-1.93,1.2-4.37,5.51-9.49,9.24-9.29.48.03.74.12.74.12,0,0-.25-.12-.73-.19Z" fill="#ecece2" opacity=".8"/>
          <path d="M80.77,24.59c-.46.27-.83.91-.83,1.44,0,.53.38.74.84.48.46-.27.83-.91.83-1.44,0-.53-.38-.74-.84-.48Z" fill="#898883"/>
          <path d="M67.6,32.2c-.46.27-.83.91-.83,1.44,0,.53.38.74.84.48.46-.27.83-.91.83-1.44,0-.53-.38-.74-.84-.48Z" fill="#898883"/>
        </g>
      </g>
    </g>
  </g>
</svg>