<?xml version="1.0" encoding="UTF-8"?>
<svg id="Layer_1" xmlns="http://www.w3.org/2000/svg" baseProfile="tiny" version="1.2" viewBox="0 0 137 112">
  <!-- Generator: Adobe Illustrator 29.2.1, SVG Export Plug-In . SVG Version: 2.1.0 Build 116)  -->
  <path d="M19.48,13.43l-8.4-4.85h0c-.2-.12-.49-.21-.71-.14-.03.01-.07.02-.1.04l-.03.02s0,0,0,0c-.3.17-.6.37-.88.6-.29.22-.56.47-.83.74-.27.27-.52.55-.77.85-.25.3-.48.62-.7.95-.22.33-.42.67-.6,1.02-.19.35-.35.71-.5,1.07-.15.36-.28.73-.4,1.1-.11.37-.21.74-.28,1.1-.14.68-.21,1.35-.21,2v18.39c0,.09,0,.17,0,.26,0,.09,0,.17.01.26.02.34.07.66.14.98.07.32.16.62.28.91.12.29.26.57.44.83.17.26.38.5.6.71.11.11.24.21.36.3.13.09.26.17.4.25,0,0,0,0,0,0,1.74.95,3.48,1.9,5.22,2.84-.12-.07-.22-.15-.32-.24-.4-.36-.65-.87-.77-1.43-.13-.57-.13-1.19-.07-1.81.63-5.72,1.26-11.44,1.89-17.17.07-.66.24-1.41.53-2.25.15-.42.32-.86.53-1.31.21-.45.45-.91.74-1.39.57-.95,1.25-1.87,2.05-2.7.79-.83,1.6-1.48,2.38-1.93h0s0,0,0,0Z" fill="#444"/>
  <path d="M10.37,8.43c.22-.07.51.02.71.14h0s8.4,4.85,8.4,4.85c3-1.73,5.99-3.46,8.99-5.19.39-.23.78-.4,1.16-.53.38-.13.75-.21,1.1-.22.35-.02.67.03.95.12.14.05.27.11.39.17-2.74-1.58-5.48-3.16-8.23-4.74h0c-.27-.16-.57-.28-.87-.37-.3-.08-.62-.13-.94-.14-.32-.01-.64.01-.96.07-.32.06-.63.15-.95.27-.31.12-.61.26-.91.44,0,0,0,0,0,0-2.99,1.72-5.97,3.45-8.96,5.17.03-.02.06-.03.1-.04Z" fill="#212121"/>
  <path d="M23.87,19.77c3.14-1.81,6.27-3.62,9.41-5.43h0c.25-.15.51-.27.77-.35.26-.08.52-.13.76-.13.24,0,.48.04.69.11.21.08.4.19.57.33.17.14.31.31.43.51-1.21-2.07-2.42-4.15-3.63-6.22l-.45-.56c-.11-.09-.22-.18-.35-.25,0,0,0,0,0,0-.12-.07-.25-.13-.39-.17-.28-.09-.6-.14-.95-.12-.35.02-.72.1-1.1.22-.38.13-.77.31-1.16.53-3,1.73-5.99,3.46-8.99,5.19,0,0,0,0,0,0l4.39,6.34h0s0,0,0,0Z" fill="#212121"/>
  <path d="M26.35,37.13c.05,0,.13,0,.2,0,.08,0,.16.03.24.06.09.03.18.07.26.12-.02-.01-.05-.03-.07-.04-.06-.03-.12-.06-.19-.08-.08-.03-.17-.05-.24-.06s-.15,0-.2,0c-.05,0-.08,0-.09.01h0s0,0,0,0h0s-.05.01-.07.02c-.27.07-.53.14-.81.21-.27.07-.53.14-.8.21-.27.07-.53.14-.81.21-.21.06-.42.11-.64.17-.27.08-.41.09-.66.09-.26,0-.5-.04-.72-.12-.22-.08-.43-.2-.6-.35-.35-.3-.6-.73-.76-1.21-.16-.48-.22-1.01-.22-1.53v-8.24c0-.49.06-1.05.21-1.67.07-.31.17-.63.29-.96.12-.33.26-.66.43-1,.33-.67.76-1.33,1.25-1.89.49-.56,1.03-1.01,1.53-1.3t0,0h0s-4.39-6.35-4.39-6.35h0c-.78.45-1.59,1.1-2.38,1.93-.79.83-1.48,1.75-2.05,2.7-.28.48-.53.93-.74,1.39-.21.45-.39.89-.53,1.31-.29.84-.45,1.59-.53,2.25-.63,5.72-1.26,11.44-1.89,17.17-.07.62-.06,1.24.07,1.81.13.56.37,1.07.77,1.43.1.09.21.17.32.24.02,0,.03.02.05.03.11.06.22.11.34.15.27.09.58.13.91.11.34-.02.7-.09,1.07-.22.37-.12.74-.3,1.12-.51,3.14-1.81,6.27-3.62,9.41-5.43l.91-.64h0s.02,0,.04,0Z" fill="#212121"/>
  <path d="M27,37.26s-.1-.08-.14-.12c-.08-.08-.15-.19-.21-.32-.06-.12-.11-.27-.14-.43-.01-.07-.03-.14-.03-.21,0-.07-.01-.15-.02-.23,0-.04,0-.04,0-.12v-8.24c0-.34.06-.72.17-1.08.11-.36.27-.7.45-.97.09-.14.19-.27.28-.38.1-.11.2-.21.3-.29.07-.05,0-.02.21-.14-.14-.08-.27-.17-.39-.26-.25-.19-.77-.78-.97-1.02.09.13-.1-.12,0,0l-2.64-3.68h0c-.5.29-1.04.74-1.53,1.3-.49.56-.92,1.23-1.25,1.89-.17.33-.31.67-.43,1-.12.33-.21.65-.29.96-.15.62-.21,1.18-.21,1.67v8.24c0,.53.07,1.06.22,1.53.16.48.41.91.76,1.21.18.15.38.27.6.35.22.08.47.12.72.12.26,0,.39,0,.66-.09.22-.06.42-.11.64-.17.27-.07.53-.14.81-.21.27-.07.53-.14.8-.21.27-.07.53-.14.81-.21.02,0,.05-.01.07-.02h0s0,0,0,0h0s.05,0,.09-.01c.05,0,.13,0,.2,0s.16.03.24.06c.06.02.13.05.19.08Z" fill="#00bade"/>
  <path d="M46.95,34.21s.02-.01.03-.02c-.2.11-.42.19-.65.24-.64.12-1.25.07-1.83-.16-.29-.12-.57-.25-.84-.41l-1.16-.67h0c-.1.06-.21.13-.31.23-.11.1-.21.21-.3.33-.09.11-.17.24-.25.37-.08.13-.15.27-.21.41-.12.27-.21.55-.26.82-.03.13-.05.26-.06.39-.01.11-.02.21-.02.32v.19c0,.34-.12.61-.32.75-.22.14-.54.12-.86-.07-3.57-2.06-7.14-4.12-10.71-6.18-.3-.17-.59-.48-.81-.84-.23-.39-.37-.84-.37-1.21v-.19c0-.11,0-.21.02-.32.01-.13.03-.26.06-.39.06-.26.14-.55.26-.82.06-.13.13-.27.21-.41.08-.13.16-.26.25-.37.09-.11.2-.23.3-.33.11-.1.21-.17.31-.23l-1.55-.9c-.21.12-.14.09-.21.14-.1.08-.2.18-.3.29-.1.11-.2.24-.28.38-.18.28-.34.62-.45.97-.11.36-.17.74-.17,1.08v8.24c0,.08,0,.08,0,.12,0,.08,0,.15.02.23,0,.07.02.14.03.21.03.16.08.3.14.43.06.12.13.23.21.32.04.05.09.09.14.12.02.02.04.03.07.04h0c.52.3,1.05.61,1.58.91-.04-.02-.08-.05-.11-.07,0,0,0,0,0,0-.04-.03-.07-.06-.1-.09-.09-.1-.17-.21-.23-.35-.06-.13-.11-.29-.14-.45-.03-.16-.05-.35-.05-.53v-.19c0-.37.14-.66.37-.78.22-.11.51-.08.81.1,3.57,2.06,7.14,4.12,10.71,6.18.32.18.64.53.86.93.2.37.32.78.32,1.12v.19c0,.18.02.37.05.53.03.16.08.31.14.45.06.14.14.25.23.35.05.05.1.09.16.13.02.01.04.02.06.03.43.25.85.49,1.28.74,0,0,0,0,0,0,.12.07.24.14.35.22.11.08.22.17.32.25.1.09.19.18.27.27.09.09.58.7.58.83,0-.92-.01-2.22-.01-3.14v-5.49c0-.57.09-1.21.27-1.82.17-.61.43-1.22.74-1.74.15-.26.32-.51.49-.73.17-.22.36-.42.54-.59.08-.07.16-.14.24-.21.06-.05.12-.09.18-.14Z" fill="#00bade"/>
  <path d="M28.52,38.14s.07.05.11.07c4.34,2.5,8.67,5.01,13.01,7.51-.06-.04-.11-.08-.16-.13-.09-.1-.17-.21-.23-.35-.06-.13-.11-.29-.14-.45-.03-.16-.05-.35-.05-.53v-.19c0-.34-.12-.75-.32-1.12-.22-.4-.54-.74-.86-.93-3.57-2.06-7.14-4.12-10.71-6.18-.3-.17-.59-.21-.81-.1-.23.12-.37.41-.37.78v.19c0,.18.02.37.05.53.03.16.08.31.14.45.06.14.14.25.23.35.03.03.07.06.1.09,0,0,0,0,0,0Z" fill="#444"/>
  <path d="M28.01,28.49v.19c0,.37.14.82.37,1.21.22.36.51.67.81.84,3.57,2.06,7.14,4.12,10.71,6.18.32.19.64.21.86.07.2-.13.32-.41.32-.75v-.19c0-.11,0-.21.02-.32.01-.13.03-.26.06-.39.06-.26.14-.55.26-.82.06-.13.13-.27.21-.41.08-.13.16-.26.25-.37.09-.11.2-.23.3-.33.11-.1.21-.17.31-.23h0l-13.07-7.55c-.1.06-.21.14-.31.23-.11.1-.21.21-.3.33-.09.11-.17.24-.25.37-.08.13-.15.27-.21.41-.12.27-.21.55-.26.82-.03.13-.05.26-.06.39-.01.11-.02.21-.02.32Z" fill="#444"/>
  <path d="M37.69,18.76s-.01-.05-.02-.08c-.07-.27-.14-.53-.22-.8-.07-.27-.14-.53-.22-.8-.07-.27-.14-.53-.22-.8-.06-.22-.12-.43-.18-.65l-.31-.76s-.02-.04-.04-.06c-.12-.19-.26-.36-.43-.51-.17-.14-.36-.26-.57-.33-.21-.08-.44-.12-.69-.11-.24,0-.5.05-.76.13-.26.08-.52.2-.77.34h0c-3.14,1.82-6.27,3.63-9.41,5.44,0,0,0,0,0,0t0,0h0s2.64,3.68,2.64,3.68c.2.24.72.83.97,1.02.12.1.25.18.39.26,1.05-.6,2.09-1.21,3.14-1.81,1.05-.6,2.09-1.21,3.14-1.81,1.05-.6,2.09-1.21,3.14-1.81.13-.08.27-.13.39-.15.13-.02.26-.01.38.03.04.01.08.03.12.05-.07-.04-.14-.09-.2-.13-.07-.06-.13-.12-.18-.17-.05-.06-.08-.1-.1-.14,0-.02-.02-.03-.02-.04h0Z" fill="#0084a0"/>
  <path d="M39.69,20.12c-.51-.29-1.01-.59-1.52-.88h0s-.08-.04-.12-.05c-.12-.04-.25-.05-.38-.03-.13.02-.26.07-.39.15-1.05.6-2.09,1.21-3.14,1.81-1.05.6-2.09,1.21-3.14,1.81-1.05.6-2.09,1.21-3.14,1.81l1.55.9c3.14-1.81,6.27-3.62,9.41-5.43.1-.06.19-.1.28-.12.1-.03.2-.04.29-.03.11,0,.2.03.28.08Z" fill="#0084a0"/>
  <path d="M46.94,52.28c6.88,3.97,13.76,7.95,20.64,11.92-.25-.15-.47-.35-.64-.61-.35-.52-.55-1.08-.62-1.68-.04-.3-.05-.6-.05-.9v-8.24c0-.64.08-1.28.23-1.91.31-1.27.86-2.43,1.66-3.49.4-.53.87-.95,1.42-1.27l-20.64-11.92c-.55.32-1.03.74-1.42,1.27-.8,1.06-1.35,2.23-1.66,3.49-.15.64-.23,1.27-.23,1.91v8.24c0,.49.05.98.17,1.46.12.48.31.95.65,1.31.13.14.27.26.44.36h0s.05.04.07.06Z" fill="#444"/>
  <path d="M47.17,34.07c-.06.04-.12.08-.18.11,0,0,0,0,0,0-.01,0-.03.02-.04.03-.06.04-.12.09-.18.14-.08.06-.16.13-.24.21-.18.17-.37.37-.54.59-.17.22-.34.47-.49.73-.3.52-.56,1.13-.74,1.74-.17.61-.27,1.25-.27,1.82v5.49c0,.92.01,2.22.01,3.14.01.18.03.35.06.53.05.35.14.69.26,1.03.06.17.13.35.21.51.08.17.17.34.27.5.1.16.21.32.32.47.12.15.25.3.38.44.14.14.29.27.44.39.13.1.28.2.43.29h0c-.16-.11-.31-.24-.44-.37-.34-.36-.53-.83-.65-1.31-.12-.48-.17-.97-.17-1.46v-8.24c0-.64.08-1.28.23-1.91.31-1.26.86-2.43,1.66-3.49.4-.53.87-.95,1.42-1.27-.13-.08-.27-.14-.42-.2-.29-.12-.6-.14-.92-.08-.06.01-.12.03-.18.05-.03,0-.05.02-.08.03-.06.03-.11.06-.17.1Z" fill="#444"/>
  <path d="M52.19,27.63c.1-.03.2-.04.29-.03.14,0,.25.06.37.13-4.37-2.52-8.75-5.05-13.12-7.57-.01,0-.03-.02-.05-.03-.08-.04-.17-.07-.28-.08-.09,0-.2,0-.29.03-.09.02-.18.06-.28.12-3.14,1.81-6.27,3.62-9.41,5.43l13.07,7.55c3.14-1.81,6.27-3.62,9.41-5.43.1-.06.19-.1.28-.12Z" fill="#212121"/>
  <path d="M55.4,33.56v.77c0,.09.1.14.1.14l7.21,4.16v-.85l-7.31-4.22Z" fill="#ed3d40"/>
  <path d="M55.4,33.56l7.31,4.22v.85s.07.03.11.04c.08.02.16.02.24,0,.04,0,.08-.02.11-.04v-.85l2.98-1.72v-.08c0-.06-.02-.12-.05-.17-.03-.05-.07-.09-.12-.12-.02-.01-.05-.03-.07-.04h0s-2.97,1.72-2.97,1.72l-7.31-4.22s-.05.03-.07.04c0,0-.09.06-.12.12-.02.05-.05.11-.05.17v.08Z" fill="#ed3d40"/>
  <path d="M55.63,33.15l7.31,4.22,2.97-1.71h0c-2.38-1.38-4.76-2.75-7.13-4.13-.05-.03-.11-.05-.17-.05-.06,0-.12.02-.16.05-.94.54-1.87,1.08-2.81,1.62Z" fill="#c72d2d"/>
  <path d="M56.06,28.84c-.08.01-.17.02-.27.03-.1,0-.2,0-.31,0-.23-.02-.46-.06-.7-.13-.23-.07-.47-.18-.69-.3h0c-.41-.24-.82-.47-1.23-.71,0,0,0,0-.01,0-.12-.07-.23-.12-.37-.13-.09,0-.2,0-.29.03-.09.03-.18.06-.28.12-3.14,1.81-6.27,3.62-9.41,5.43l1.16.67c.27.15.55.29.84.41.58.23,1.19.29,1.83.16.24-.05.45-.12.65-.24.01-.01.03-.02.05-.03.02-.02.05-.03.07-.05.05-.04.11-.07.16-.1,3.02-1.74,6.03-3.48,9.05-5.22-.01,0-.03,0-.05.01-.06.02-.12.03-.2.05Z" fill="#0084a0"/>
  <path d="M59.89,28.33c-.18-.07-.37-.13-.56-.18-.37-.08-.77-.11-1.15-.07-.38.04-.74.13-1.09.28-.14.06-.27.13-.41.2-.12.07-.24.14-.36.21,0,0,.02,0,.03,0-.96.56-1.93,1.11-2.89,1.67-1.05.6-2.09,1.21-3.14,1.81-.99.57-1.98,1.14-2.97,1.71.02-.01.05-.02.08-.03.06-.02.12-.04.18-.05.32-.06.63-.03.92.08.15.06.29.13.42.2,1.05-.6,2.09-1.21,3.14-1.81,1.05-.6,2.09-1.21,3.14-1.81,1.05-.6,2.09-1.21,3.14-1.81.33-.19.69-.34,1.07-.36.34-.02.69.06,1,.22h0c-.17-.1-.35-.19-.53-.26Z" fill="#212121"/>
  <path d="M66.15,35.97c0-.06-.02-.12-.05-.17-.03-.05-.07-.09-.12-.12-.02-.01-.05-.03-.07-.04-2.38-1.37-4.76-2.75-7.13-4.12-.05-.03-.11-.05-.17-.05-.06,0-.12.02-.16.05-.94.54-1.87,1.08-2.81,1.62-.02.01-.05.03-.07.04,0,0-.09.06-.12.12-.02.05-.05.11-.05.17v.85c0,.09.1.14.1.14l7.21,4.16s.07.03.11.04c.08.02.16.02.24,0,.04,0,.08-.02.11-.04l2.88-1.66c.08-.05.1-.14.1-.14v-.85ZM52.07,32.36c1.05-.6,2.09-1.21,3.14-1.81,1.05-.6,2.09-1.21,3.14-1.81.33-.19.69-.34,1.07-.36.34-.02.69.06,1,.22h0c6.88,3.97,13.76,7.94,20.64,11.91-.21-.11-.52-.21-.76-.22-.46-.02-.93.15-1.32.37-.53.3-7.3,4.21-7.82,4.52-.53.31-1.06.61-1.59.92l-20.64-11.92c1.05-.6,2.09-1.21,3.14-1.81Z" fill="#212121"/>
  <path d="M63.18,37.77v.85l2.88-1.66c.08-.05.1-.14.1-.14v-.77l-2.98,1.72Z" fill="#b22929"/>
  <path d="M66.26,58.26v2.75c0,.3.02.6.05.9.07.6.28,1.16.62,1.68.17.26.39.46.64.61.14.08.27.17.39.27.14.11.27.23.37.35.11.12.19.23.24.32.63.99,1.26,1.99,1.89,2.98.07.11.15.23.22.34.22.32.48.63.74.92.27.29.57.57.87.81.31.25.65.48.99.68-.64-.37-1.12-1.02-1.44-1.71-.32-.71-.47-1.46-.53-2.22-.19-.24-.39-.49-.58-.73-.09-.12-.19-.26-.26-.39-.04-.07-.07-.14-.1-.21-.03-.07-.06-.14-.08-.21-.02-.07-.04-.14-.06-.21-.02-.07-.03-.15-.04-.22,0-.07-.02-.14-.02-.21,0-.07,0-.14,0-.21,0-.06,0-.14,0-.2,0-.06.01-.13.02-.19.01-.12.04-.25.07-.36.03-.11.06-.24.1-.34.03-.11.08-.22.12-.33.04-.1.09-.22.14-.32.05-.1.11-.21.16-.31.11-.2.25-.42.38-.63.03-.05.07-.1.11-.15v-3.92c0-.99.12-1.98.36-2.96.48-1.96,1.33-3.76,2.57-5.41.62-.82,1.35-1.48,2.21-1.97-.16-.09-.32-.17-.48-.25-.33-.15-.67-.26-1.03-.33-.18-.04-.36-.05-.54-.06l-2.79-.06c-.18,0-.36-.02-.54-.06-.36-.07-.7-.18-1.03-.33-.16-.08-.32-.16-.48-.25-.55.32-1.02.74-1.42,1.27-.8,1.06-1.35,2.23-1.66,3.49-.15.63-.23,1.27-.23,1.91v5.49Z" fill="#444"/>
  <path d="M71.16,45.17c-.53.31-1.06.61-1.59.92.16.09.32.17.48.25.33.15.67.27,1.03.33.18.04.36.05.54.06l2.79.06c.18,0,.36.02.54.06.36.07.7.18,1.03.33.16.08.32.16.48.25,1.05-.6,2.09-1.21,3.14-1.81,1.05-.6,2.09-1.21,3.14-1.81,1.05-.6,2.09-1.21,3.14-1.81.59-.34,1.3-.6,2-.58.4.02.8.12,1.15.31-.66-.37-1.37-.64-2.11-.79-.45-.09-.9-.13-1.36-.12-1.06.02-2.12.04-3.18.06-.1,0-.23,0-.38-.03-.15-.03-.31-.07-.48-.13-.15-.06-.3-.13-.45-.21-.21-.11-.52-.21-.76-.22-.46-.02-.93.15-1.32.37-.53.3-7.3,4.21-7.82,4.52Z" fill="#212121"/>
  <path d="M71.32,61.71c-.04.05-.07.1-.11.15-.14.21-.27.42-.38.63-.06.1-.11.21-.16.31-.05.1-.1.21-.14.32-.04.1-.09.22-.12.33-.04.1-.07.23-.1.34-.03.11-.05.25-.07.36,0,.06-.01.13-.02.19,0,.06,0,.13,0,.2,0,.07,0,.14,0,.21,0,.07.01.14.02.21,0,.07.02.14.04.22.02.07.04.15.06.21.02.07.05.14.08.21.03.07.06.14.1.21.07.13.16.27.26.39-.15-.18-.14-.46-.09-.7.06-.33.2-.6.35-.88.19-.35.41-.69.64-1.02l6.49-9.04c.82-1.15,1.74-2.22,2.77-3.19,2.06-1.96,4.23-3.77,6.52-5.44,1.15-.83,2.33-1.6,3.55-2.3l24.28-14.02c.67-.39,1.4-.76,2.08-1.07.54-.25,1.04-.46,1.7-.61.47-.11,1.02-.18,1.31.13-.09-.11-.19-.21-.29-.3-.06-.05-.12-.1-.18-.14-.06-.04-.13-.09-.19-.12-.06-.04-.13-.07-.2-.1s-.14-.06-.2-.09c-.07-.03-.14-.05-.2-.07-.06-.02-.14-.04-.2-.05-.06-.01-.13-.03-.2-.04-.06,0-.13-.02-.19-.02-.06,0-.13,0-.19-.01-.11,0-.25,0-.36,0-.11,0-.24.02-.35.04-.11.01-.24.04-.34.06-.11.02-.23.05-.34.08-.11.03-.24.07-.35.1-.11.04-.24.08-.35.12-.23.08-.48.18-.72.29-.25.11-.5.23-.76.36-.26.13-.52.27-.8.42-.15.08-.3.17-.46.26,0,0,0,0,0,0-7.8,4.5-15.6,9.01-23.4,13.51h0c-.29.17-.59.34-.88.51,0,0,0,0,0,0-.14.08-.3.17-.44.26-.29.18-.62.38-.92.57-.3.2-.63.41-.94.63-.31.21-.64.44-.95.67-.31.23-.64.47-.96.71-.31.24-.64.49-.95.74-.31.25-.62.5-.93.76-.61.51-1.19,1.02-1.74,1.54-.28.26-.54.51-.8.76-.07.07-.14.14-.21.21-.18.18-.36.36-.53.54-.24.25-.46.48-.67.72-.22.24-.41.46-.6.7-.1.12-.18.23-.27.34-.09.11-.17.22-.25.33-.04.05-.08.11-.11.16,0,0,0,0,0,0-2.16,3.01-4.32,6.02-6.48,9.02,0,0,0,0,0,0-.04.06-.09.12-.13.18Z" fill="#212121"/>
  <path d="M71.35,66.94c.87,1.09,1.73,2.17,2.6,3.26-.15-.18-.14-.46-.09-.7.06-.33.2-.6.35-.88.19-.35.41-.7.64-1.02l6.49-9.04c.82-1.15,1.74-2.21,2.77-3.19,2.06-1.96,4.23-3.77,6.52-5.44,1.15-.83,2.33-1.6,3.55-2.3l24.28-14.02c.67-.39,1.4-.76,2.08-1.07.54-.25,1.04-.46,1.7-.61.49-.11,1.06-.18,1.34.17-1.06-1.33-2.12-2.66-3.18-3.99,0-.01-.02-.02-.03-.04-.29-.31-.84-.24-1.31-.13-.66.15-1.17.36-1.7.61-.68.31-1.41.68-2.08,1.07l-24.28,14.02c-1.22.7-2.41,1.47-3.55,2.3-2.29,1.66-4.46,3.48-6.52,5.44-1.03.98-1.95,2.05-2.77,3.19l-6.49,9.04c-.24.32-.45.67-.64,1.02-.15.28-.29.55-.35.88-.05.24-.05.52.09.7.19.24.39.49.58.73Z" fill="#212121"/>
  <path d="M71.32,60.54v1.18c.04-.06.09-.12.13-.18,0,0,0,0,0,0,2.16-3.01,4.32-6.02,6.48-9.02,0,0,0,0,0,0,.04-.05.08-.11.11-.16.08-.11.16-.22.25-.33.09-.11.18-.22.27-.34.19-.23.38-.46.6-.7.21-.24.43-.48.67-.72.17-.18.35-.36.53-.54h0s-3.92-2.26-3.92-2.26c-.85.49-1.59,1.15-2.21,1.97-1.24,1.65-2.1,3.45-2.57,5.41-.24.98-.36,1.97-.36,2.96v2.75Z" fill="#00bade"/>
  <path d="M118.48,37.16l-6.44,8.97c-.42.59-.89,1.14-1.42,1.64-1.06,1.01-2.17,1.94-3.35,2.79-.59.43-1.2.82-1.82,1.18l-2.19,1.22c.1.39.18.79.23,1.18.02.19.04.39.05.59.01.19,0,1.35,0,1.55l.03.06c.52-.3,1.04-.6,1.56-.9,0,0,0,0,0,0,.14-.08.3-.17.44-.26.29-.18.62-.38.92-.57.3-.2.63-.41.94-.63.31-.21.64-.44.95-.67.31-.23.64-.47.96-.71.31-.24.64-.49.95-.74.31-.25.62-.5.93-.76.61-.51,1.19-1.02,1.74-1.54.28-.26.54-.51.8-.76.26-.25.5-.5.74-.74.24-.25.46-.48.67-.72.22-.24.41-.46.6-.7.1-.12.18-.23.27-.34.09-.11.17-.22.25-.33.04-.05.08-.11.11-.16,0,0,0,0,0,0,2.16-3.01,4.32-6.02,6.48-9.02,0,0,0,0,0,0,.16-.23.31-.45.45-.67.07-.11.13-.21.19-.32.06-.11.11-.21.17-.32.05-.11.1-.21.14-.32.05-.12.08-.21.12-.33.04-.12.07-.22.1-.35.01-.06.02-.12.04-.18.01-.06.02-.12.03-.19,0-.07.01-.13.01-.2,0-.07,0-.13,0-.2,0-.07,0-.14-.01-.21,0-.07-.02-.14-.03-.21-.01-.07-.03-.14-.05-.22-.02-.07-.04-.14-.07-.21-.03-.07-.05-.14-.09-.21-.07-.14-.14-.27-.23-.4-.03-.04-.06-.08-.09-.12-.28-.35-.85-.28-1.34-.17-.66.15-1.17.36-1.7.61-.68.31-1.41.68-2.08,1.07l-24.28,14.02c-1.22.7-2.41,1.47-3.55,2.3-2.29,1.66-4.46,3.48-6.52,5.44-1.03.98-1.95,2.04-2.77,3.19l-6.49,9.04c-.24.32-.45.67-.64,1.02-.15.28-.29.55-.35.88-.05.24-.05.51.09.7.09.12.21.24.33.34.06.05.12.1.18.14.06.04.13.09.19.12.06.04.13.07.2.11.06.03.14.06.2.09.06.02.14.05.2.07.06.02.14.04.2.05.06.02.13.03.2.04.06,0,.13.02.19.02.06,0,.13,0,.19.01.11,0,.25,0,.36,0,.11,0,.24-.02.35-.03.11-.01.24-.04.35-.06.11-.02.23-.05.34-.08.11-.03.23-.07.35-.1.11-.04.24-.08.35-.12.23-.08.48-.18.72-.29.25-.11.5-.23.76-.36.27-.13.52-.27.81-.42.15-.08.3-.17.46-.26l.75-.95v-.05c-.39.23-.79.44-1.21.63-.33.15-.67.3-1.02.4-.23.07-.46.12-.71.13-.12,0-.25,0-.35-.05-.11-.05-.2-.16-.23-.27-.05-.15,0-.32.05-.48.07-.2.15-.37.24-.55.11-.21.25-.41.39-.61l1.87-2.6.95-1.32,3.67-5.11c.56-.79,1.19-1.52,1.9-2.19.5-.48,1.02-.95,1.54-1.4.95-.82,1.93-1.6,2.94-2.33.79-.57,1.6-1.1,2.44-1.58l5.57-3.21,1.62-.94,7.81-4.51,9.28-5.36.09.06Z" fill="#010101"/>
  <path d="M101.82,108.8c4.8,0,9.61-.79,14.19-2.32,3.65-1.23,7.15-2.93,9.82-5.8,1.98-2.14,3.5-4.92,3.5-7.76,0-.45-.02-1.14-.03-1.66,0,1.41-.31,2.83-.87,4.12-1.1,2.53-3.16,4.52-5.44,6.1-2.86,1.98-6.07,3.31-9.38,4.22-3.98,1.09-8.12,1.57-12.26,1.53-4.13-.04-8.26-.61-12.22-1.79-3.29-.98-6.46-2.39-9.23-4.51-2.21-1.69-4.17-3.83-5.03-6.43-.33-1.01-.5-2.09-.5-3.16h0c0,.5-.04,1.1-.04,1.59,0,2.84,1.52,5.62,3.5,7.76,2.66,2.87,6.17,4.57,9.82,5.8,4.58,1.54,9.38,2.32,14.19,2.32" fill="#d4d4d4"/>
  <path d="M118.87,78.73s-.02-.01-.04-.02c-.32-.18-.6-.34-.93-.51-.33-.17-.62-.32-.96-.48-.34-.16-.64-.29-.99-.44-.35-.15-.66-.27-1.02-.41-.36-.14-.67-.25-1.04-.38-.37-.13-.69-.23-1.07-.35-.38-.11-.63-.19-1.02-.29-.58.33-1.15.67-1.73,1,.24.06.48.13.71.2,1.1.33,2.17.73,3.21,1.22.52.24,1.03.5,1.53.79,1.36.79,2.64,1.73,3.67,2.95,1.03,1.21,1.81,2.7,1.97,4.26.16,1.56-.32,3.19-1.14,4.55-1.1,1.81-2.83,3.13-4.68,4.16-2.33,1.29-4.85,2.13-7.43,2.63-3.1.6-6.29.73-9.45.4-2.63-.27-5.24-.85-7.69-1.83-1.96-.78-3.81-1.8-5.38-3.24-1.17-1.07-2.18-2.38-2.64-3.88-.46-1.5-.37-3.21.2-4.68.76-1.96,2.38-3.49,4.15-4.68,2.22-1.49,4.69-2.43,7.23-3.05-.6-.35-1.19-.69-1.79-1.03-.75.43-1.5.86-2.24,1.3-.16.09-.31.17-.48.25-.18.08-.36.16-.54.23-.36.13-.74.24-1.12.3-.38.07-.78.09-1.17.09-.13,0-.25,0-.38-.02-.3.14-.63.31-.91.46-.3.16-.65.35-.94.52-.75.43-1.5.86-2.24,1.29-.05.03-.1.06-.15.09-1.51.87-2.93,1.89-4.2,3.12-1.49,1.44-2.75,3.16-3.37,5.13-.3.95-.45,1.95-.45,2.96,0,1.08.17,2.16.5,3.16.86,2.6,2.82,4.75,5.03,6.43,2.78,2.12,5.95,3.53,9.23,4.51,3.95,1.18,8.08,1.75,12.22,1.79,4.13.04,8.28-.44,12.26-1.53,3.31-.91,6.51-2.24,9.38-4.22,2.28-1.58,4.35-3.57,5.44-6.1.56-1.28.86-2.71.87-4.12,0-.06,0-.11,0-.16,0-.61-.07-1.22-.2-1.81-.43-2.01-1.57-3.84-2.97-5.37-1.41-1.54-3.08-2.77-4.86-3.8-.11-.06-.21-.12-.32-.18-.21-.12-.42-.23-.64-.35-.11-.06-1.33-.8-1.44-.86Z" fill="silver"/>
  <path d="M76.45,47.44l3.92,2.26h0c.07-.07.14-.14.21-.21.26-.25.52-.5.8-.76.55-.51,1.13-1.03,1.74-1.54.3-.25.61-.51.93-.76.31-.25.63-.5.95-.74.32-.24.64-.48.96-.71.32-.23.64-.46.95-.67.31-.21.64-.43.94-.63.3-.2.63-.4.92-.57.15-.09.3-.18.44-.26,0,0,0,0,0,0,.29-.17.59-.34.88-.51-.39-.23-.61-.35-1-.58-.02-.01-.05-.03-.07-.04-.35-.19-.75-.29-1.15-.31-.69-.02-1.4.23-2,.58-1.05.6-2.09,1.21-3.14,1.81-1.05.6-2.09,1.21-3.14,1.81-1.05.6-2.09,1.21-3.14,1.81Z" fill="#0084a0"/>
  <path d="M80.67,65.06l.5.7c.15.18.28.38.39.6.02.04.04.08.06.12v-2.73h0s-.95,1.32-.95,1.32Z" fill="#00bade"/>
  <path d="M81.7,68.41c.13-.19.2-.41.2-.66,0-.46-.1-.88-.28-1.27-.02-.04-.04-.08-.06-.12-.11-.21-.24-.41-.39-.6l-.5-.7-1.87,2.6c-.14.2-.28.4-.39.61-.1.17-.17.35-.24.55-.05.16-.1.33-.05.48.04.11.12.22.23.27.11.05.23.06.35.05.25-.01.48-.06.71-.13.34-.1.69-.25,1.02-.4.41-.19.81-.4,1.21-.63.03-.01.05-.03.08-.05Z" fill="#444"/>
  <path d="M81.9,67.75c0,.25-.07.47-.2.66l-.08.1v3.48c0,.75.08,1.49.26,2.22.18.73.47,1.44.98,1.99.22.24.52.49.81.66.04.02.09.05.13.07.29.15.58.29.89.41.37.14.75.25,1.14.33.26.05.52.09.79.11.13,0,.25.02.38.02.39,0,.78-.02,1.17-.09.38-.07.76-.17,1.12-.3.18-.07.36-.14.54-.23.16-.08.32-.16.48-.25.75-.43,1.49-.86,2.24-1.3-.09-.05-.18-.1-.27-.15h0c-.39.23-.79.46-1.18.68-.4.23-.88.41-1.34.38-.47-.03-.93-.28-1.25-.62-.32-.35-.51-.8-.62-1.26-.12-.46-.17-.93-.17-1.4v-8.24c0-.61.07-1.22.22-1.83.29-1.21.82-2.32,1.59-3.34.38-.51.84-.91,1.36-1.22-.13-.36-.28-.7-.45-1.05-.34-.68-.74-1.33-1.21-1.93-.16-.21-.33-.41-.5-.6-.52.45-1.04.92-1.54,1.4-.71.67-1.34,1.4-1.9,2.19l-3.67,5.11h0v2.74c.18.39.27.81.28,1.27Z" fill="#444"/>
  <path d="M82.96,84.38c-.57,1.47-.66,3.18-.2,4.68.46,1.51,1.47,2.81,2.64,3.88,1.57,1.44,3.43,2.47,5.38,3.24,2.45.97,5.06,1.56,7.69,1.83,3.16.33,6.35.2,9.45-.4,2.58-.5,5.11-1.34,7.43-2.63,1.85-1.03,3.58-2.34,4.68-4.16.82-1.36,1.29-2.99,1.14-4.55-.16-1.56-.94-3.04-1.97-4.26-1.03-1.22-2.31-2.17-3.67-2.95-.5-.29-1-.55-1.53-.79-1.04-.48-2.11-.89-3.21-1.22-.24-.07-.47-.14-.71-.2-1.16.67-2.31,1.34-3.47,2.01h0v2.29c.06.03.13.06.2.09.17.08.31.15.46.24.02.01.05.03.07.04.14.08.29.17.41.26.13.09.28.19.41.29.12.1.26.21.38.31.11.1.24.23.34.34.1.11.22.24.31.36.09.12.19.26.27.38.08.13.16.27.23.4.07.13.13.28.18.42.05.14.1.29.13.43.04.14.06.3.08.44.02.15.03.3.03.45,0,.46,0,.92,0,1.38-.03.68-.31,1.38-.71,1.94-.73,1.03-1.87,1.61-3.04,2.03-1.48.53-3,.8-4.53.8s-3.06-.27-4.53-.8c-1.17-.42-2.31-1.01-3.04-2.03-.41-.57-.69-1.27-.71-1.96,0-.46,0-.91,0-1.37,0-.15,0-.3.03-.45.02-.15.05-.3.08-.44.03-.14.08-.3.13-.43.05-.14.11-.29.18-.42.07-.13.15-.27.23-.4.08-.13.18-.26.27-.38.09-.12.2-.25.31-.36.1-.11.23-.23.34-.34.11-.1.25-.22.38-.31.12-.1.27-.2.41-.29.13-.09.29-.19.43-.27.15-.08.32-.17.47-.25.09-.04.18-.09.28-.13v-2.91c-.91-.52-1.81-1.05-2.72-1.57-2.54.61-5.01,1.56-7.23,3.05-1.77,1.19-3.39,2.72-4.15,4.68Z" fill="#929493"/>
  <path d="M73.32,70.87c3.44,1.98,6.87,3.97,10.31,5.95.02.01.04.02.06.03-.3-.17-.59-.42-.81-.66-.51-.55-.8-1.26-.98-1.99-.18-.73-.26-1.48-.26-2.22v-3.48l-.75.95c-.16.09-.31.18-.46.26-.28.15-.54.29-.81.42-.26.13-.51.25-.76.36-.24.11-.49.21-.72.29-.12.04-.24.08-.35.12-.11.04-.24.07-.35.1-.11.03-.24.06-.34.08-.11.02-.23.05-.35.06-.11.02-.24.03-.35.03-.11,0-.25,0-.36,0-.06,0-.13,0-.19-.01-.06,0-.13-.02-.19-.02-.06,0-.13-.02-.2-.04-.06-.01-.14-.03-.2-.05-.07-.02-.14-.05-.2-.07-.07-.02-.14-.06-.2-.09-.06-.03-.13-.07-.2-.11-.06-.04-.13-.08-.19-.12-.06-.04-.12-.09-.18-.14-.11-.1-.23-.22-.33-.34-.87-1.09-1.73-2.17-2.6-3.26.06.76.21,1.51.53,2.22.32.69.8,1.34,1.44,1.71Z" fill="#00bade"/>
  <path d="M87.73,70.49v2.75c0,.47.05.94.17,1.4.12.46.3.91.62,1.26.32.35.78.59,1.25.62.47.03.94-.14,1.34-.38.39-.23.79-.45,1.18-.68h0c-.45-.26-.9-.52-1.35-.78-.14-.08-.25-.19-.34-.33-.19-.28-.3-.58-.34-.9-.02-.16-.03-.32-.03-.49v-8.24c0-.33.04-.65.12-.97.16-.64.44-1.24.85-1.78.2-.27.44-.49.72-.65l9.41-5.43c.09-.05.18-.1.28-.13.04-.01.07-.02.11-.03,0,0,.02,0,.03,0,.01,0,.02,0,.04,0,.02,0,.03,0,.05,0,.01,0,.02,0,.03,0,0,0,0,0,.01,0,.02,0,.04,0,.06,0h0s.04,0,.05,0c.04,0,.09,0,.13.02.09.02.18.05.26.09.35.2.7.4,1.05.61,0-.42,0-1.37-.11-1.84-.11-.43-.28-.85-.58-1.18-.3-.33-.73-.55-1.17-.58-.44-.03-.88.13-1.26.35-1.05.6-2.09,1.21-3.14,1.81-1.05.6-2.09,1.21-3.14,1.81-1.05.6-2.09,1.21-3.14,1.81-.53.3-.98.71-1.36,1.22-.77,1.02-1.29,2.13-1.59,3.34-.15.61-.22,1.22-.22,1.83v5.49Z" fill="#010101"/>
  <path d="M91.67,52.7c-1.01.74-1.99,1.51-2.94,2.33.18.19.34.4.5.6.47.6.87,1.25,1.21,1.93.17.34.32.69.45,1.05,1.05-.6,2.09-1.21,3.14-1.81,1.05-.6,2.09-1.21,3.14-1.81,1.05-.6,2.09-1.21,3.14-1.81.38-.22.82-.38,1.26-.35.44.03.87.26,1.17.58.3.33.48.75.58,1.18.11.47.11,1.42.11,1.84.05-.03.11-.06.16-.09l-.03-.06c0-.19,0-1.35,0-1.55-.01-.19-.03-.4-.05-.59-.05-.39-.13-.8-.23-1.18-.1-.39-.23-.77-.38-1.14-.15-.37-.32-.72-.53-1.07-.2-.35-.42-.67-.66-.99-.25-.32-.5-.6-.79-.88-.14-.14-.29-.27-.44-.4-.15-.13-.3-.24-.47-.36-.11-.08-.21-.15-.32-.22l-5.57,3.21c-.84.48-1.65,1.01-2.44,1.58Z" fill="#212121"/>
  <path d="M90.23,64.73v8.24c0,.16,0,.32.03.49.04.32.15.62.34.9.09.14.21.25.34.33.45.26.9.52,1.35.78.09.05.18.1.27.15.6.34,1.19.69,1.79,1.03.91.52,1.81,1.05,2.72,1.57,1.42.82,2.83,1.63,4.25,2.45-.08-.05-.14-.11-.21-.17-.11-.1-.19-.22-.26-.35-.07-.12-.13-.26-.18-.39-.05-.14-.09-.28-.12-.43-.03-.15-.06-.3-.07-.46-.24-1.48-.59-3-1.08-4.53-.25-.77-.53-1.55-.85-2.32-.48-1.15-1.02-2.3-1.6-3.43-.04-.11-.07-.22-.1-.34-.05-.18-.08-.37-.11-.57-.03-.2-.04-.4-.04-.62,0-.19.01-.39.05-.61.02-.11.04-.23.08-.35.04-.12.08-.25.15-.4.04-.08.09-.17.15-.27.06-.1.14-.21.25-.33.11-.12.28-.27.46-.38l-5.9-3.41c-.28.16-.52.38-.72.65-.41.54-.69,1.13-.85,1.78-.08.32-.12.65-.12.97Z" fill="#d4d4d4"/>
  <path d="M93.53,85.61c0,.46,0,.91,0,1.37.02.69.31,1.39.71,1.96.73,1.03,1.87,1.61,3.04,2.03,1.48.53,3.01.8,4.53.8s3.06-.27,4.53-.8c1.17-.42,2.31-1.01,3.04-2.03.4-.56.68-1.27.71-1.94,0-.46,0-.93,0-1.38,0-.15,0-.3-.03-.45-.02-.15-.05-.3-.08-.44-.03-.14-.08-.3-.13-.43-.05-.14-.12-.29-.18-.42-.07-.13-.15-.27-.23-.4-.08-.13-.18-.26-.27-.38-.09-.12-.2-.25-.31-.36-.1-.11-.23-.23-.34-.34-.11-.1-.25-.22-.38-.31-.12-.1-.27-.2-.41-.29-.13-.09-.28-.18-.41-.26-.02-.01-.05-.03-.07-.04-.16-.09-.3-.16-.46-.24-.07-.03-.13-.06-.2-.09v.68c.68.45,1.33,1.1,1.49,1.86.18.87-.28,1.88-.94,2.55-.67.68-1.54,1.03-2.44,1.27-.91.25-1.83.39-2.76.41-.93.01-1.87-.11-2.78-.33-.9-.22-1.77-.54-2.5-1.17-.73-.62-1.31-1.55-1.23-2.44.09-.87.84-1.7,1.59-2.19v-.67c-.1.04-.19.09-.28.13-.15.08-.33.17-.47.25-.14.08-.3.18-.43.27-.13.09-.28.19-.41.29-.12.1-.26.21-.38.31-.11.1-.24.23-.34.34-.1.11-.22.24-.31.36-.09.12-.19.26-.27.38-.08.13-.16.27-.23.4-.07.13-.13.28-.18.42-.05.14-.1.29-.13.43-.03.14-.06.3-.08.44-.02.15-.03.3-.03.45Z" fill="silver"/>
  <path d="M95.47,84c-.09.88.5,1.81,1.23,2.44.73.63,1.6.95,2.5,1.17.91.22,1.84.34,2.78.33.93-.01,1.86-.16,2.76-.41.89-.24,1.77-.59,2.44-1.27.66-.68,1.13-1.68.94-2.55-.16-.75-.81-1.4-1.49-1.86v2.43c0,.21-.04.41-.13.61-.17.4-.42.73-.75.99-.17.13-.34.25-.52.35-1.13.65-2.53.82-3.85.77-1.06-.04-2.07-.22-2.99-.82-.68-.45-1.31-1.13-1.31-1.9v-2.45c-.76.49-1.51,1.32-1.59,2.19Z" fill="#929493"/>
  <path d="M97.06,81.8v2.45c0,.77.63,1.45,1.31,1.9.92.6,1.93.78,2.99.82,1.33.05,2.72-.12,3.85-.77.18-.1.36-.22.52-.35.33-.26.58-.59.75-.99.08-.2.13-.4.13-.61v-5.39h0c-1.07.6-2.14,1.22-3.21,1.84h-.02s0,.02-.01.02c-.05.03-.12.06-.17.08-.05.02-.12.05-.18.07-.06.02-.12.04-.18.05-.06.01-.13.03-.19.03-.06,0-.13.02-.19.02-.06,0-.13,0-.19,0-.06,0-.13-.01-.19-.02-.13-.02-.26-.05-.38-.1-.06-.02-.12-.05-.17-.07-.05-.02-.11-.05-.15-.08,0,0,0,0-.01,0,0,0,0,0,0,0-.01,0-.03-.02-.04-.03-1.42-.82-2.83-1.63-4.25-2.45v3.58Z" fill="silver"/>
  <path d="M110.09,76.85c-1.16.67-2.31,1.34-3.47,2.01-1.07.62-2.14,1.23-3.21,1.85h-.02s0,.02-.01.02c-.05.03-.12.06-.17.08-.05.02-.12.05-.18.07-.06.02-.12.04-.18.05-.06.01-.13.03-.19.03-.06,0-.13.02-.19.02-.06,0-.13,0-.19,0-.06,0-.13-.01-.19-.02-.13-.02-.26-.05-.38-.1-.06-.02-.12-.05-.17-.07-.05-.02-.11-.05-.15-.08,0,0,0,0-.01,0,0,0,0,0,0,0-.01,0-.03-.02-.04-.03-.08-.05-.14-.11-.21-.17-.11-.1-.19-.22-.26-.35-.07-.12-.13-.26-.18-.39-.05-.14-.09-.28-.12-.43-.03-.15-.06-.3-.07-.46-.24-1.48-.59-3-1.08-4.53-.25-.77-.53-1.55-.85-2.32-.48-1.15-1.02-2.3-1.6-3.43-.04-.11-.07-.22-.1-.34-.05-.18-.08-.37-.11-.57-.03-.2-.04-.4-.04-.62,0-.19.01-.39.05-.61.02-.11.04-.23.08-.35.04-.12.08-.25.15-.4.04-.08.09-.17.15-.27.06-.1.14-.21.25-.33.11-.12.28-.27.46-.38,1.05-.6,2.09-1.21,3.14-1.81,1.05-.6,2.09-1.21,3.14-1.81,1.05-.6,2.09-1.21,3.14-1.81.09-.05.18-.09.26-.12.16-.05.28-.06.38-.06.22,0,.36.07.49.14.01,0,.02.01.03.02,0,0,0,0,0,0,.09.05.19.12.27.18.04.03.09.07.13.1.04.03.09.07.13.11.08.07.17.15.24.23.08.08.15.17.22.25.07.09.14.18.21.27.15.22.3.46.43.7.36.71.72,1.44,1.05,2.16.33.72.64,1.46.92,2.18.28.73.53,1.46.76,2.19.22.73.42,1.45.58,2.18.16.7.29,1.38.39,2.06,0,0,0,0,0,0,.04.24.06.49.06.73,0,.12,0,.25-.02.38-.01.12-.03.26-.05.38-.02.12-.05.26-.09.38-.03.12-.08.26-.12.37-.02.06-.05.12-.08.18s-.06.12-.09.18c-.03.06-.06.12-.1.17-.03.06-.07.11-.11.17-.04.05-.08.11-.12.16-.04.05-.09.1-.14.15-.14.14-.29.26-.45.36h-.02c-.19.12-.39.23-.58.35-.58.33-1.15.67-1.73,1ZM98.59,66.26c.01.11.03.22.06.33.03.13.07.25.11.37.04.12.09.25.15.37.03.08.07.15.11.22.6,1.18,1.18,2.39,1.7,3.64.34.83.66,1.68.92,2.52.53,1.66.9,3.3,1.16,4.86.02.1.04.21.07.3.03.1.06.19.09.28.04.09.08.17.12.24.05.08.1.14.15.2.06.06.12.11.19.14.05.02.1.03.15.03.06,0,.11-.01.17-.04,1-.58,2-1.15,3-1.73,1-.58,2-1.15,3-1.73,1-.58,2-1.15,3-1.73.05-.03.11-.08.15-.14.05-.06.09-.12.12-.19.04-.07.07-.14.09-.21.03-.07.05-.14.07-.22.03-.13.06-.26.07-.39.02-.13.02-.26.02-.39,0-.11,0-.22-.02-.33,0-.04-.01-.09-.02-.13-.29-1.79-.74-3.68-1.4-5.59-.44-1.27-.97-2.53-1.55-3.75-.27-.57-.55-1.13-.83-1.69-.12-.23-.26-.46-.42-.66-.11-.13-.22-.26-.34-.37-.08-.07-.17-.14-.26-.19-.06-.03-.13-.06-.19-.08-.03,0-.06,0-.08,0-.01,0-.02,0-.04.01-1.05.6-2.09,1.21-3.14,1.81-1.05.6-2.09,1.21-3.14,1.81-1.05.6-2.09,1.21-3.14,1.81-.02.01-.04.04-.06.06-.01.03-.02.05-.03.08,0,.03-.01.06-.02.09,0,.05,0,.11,0,.16,0,.06,0,.11.01.17Z" fill="silver"/>
  <path d="M98.58,65.93c0,.05,0,.11,0,.16,0,.06,0,.11.01.17.01.11.03.22.06.33.03.13.07.25.11.37.04.12.09.25.15.37.03.08.07.15.11.22.6,1.18,1.18,2.39,1.7,3.64.34.83.66,1.68.92,2.52.53,1.66.9,3.3,1.16,4.86.02.1.04.21.07.3.03.1.06.19.09.28.04.09.08.17.12.24.05.08.1.14.15.2.06.06.12.11.19.14.05.02.1.03.15.03.06,0,.11-.01.17-.04,1-.58,2-1.15,3-1.73,1-.58,2-1.15,3-1.73,1-.58,2-1.15,3-1.73.05-.03.11-.08.15-.14.05-.06.09-.12.12-.19.04-.07.07-.14.09-.21.03-.07.05-.14.07-.22.03-.13.06-.26.07-.39.02-.13.02-.26.02-.39,0-.11,0-.22-.02-.33,0-.04-.01-.09-.02-.13-.29-1.79-.74-3.68-1.4-5.59-.44-1.27-.97-2.53-1.55-3.75-.27-.57-.55-1.13-.83-1.69-.12-.23-.26-.46-.42-.66-.11-.13-.22-.26-.34-.37-.08-.07-.17-.14-.26-.19-.06-.03-.13-.06-.19-.08-.03,0-.06,0-.08,0-.01,0-.02,0-.04.01-1.05.6-2.09,1.21-3.14,1.81-1.05.6-2.09,1.21-3.14,1.81-1.05.6-2.09,1.21-3.14,1.81-.02.01-.04.04-.06.06-.01.03-.02.05-.03.08,0,.03-.01.06-.02.09Z" fill="#929493"/>
  <path d="M101.3,46.97l-1.62.94c.11.07.22.14.32.22.16.12.32.23.47.36.15.13.3.26.44.4.29.28.55.56.79.88.25.32.46.64.66.99.2.35.37.7.53,1.07.15.37.28.75.38,1.14l2.19-1.22-3.18-3.99c-.18-.23-.4-.43-.64-.6-.11-.07-.22-.13-.33-.18Z" fill="#444"/>
  <path d="M109.11,42.45l-7.81,4.51c.12.05.23.11.33.18.24.17.46.37.64.6l3.18,3.99c.63-.36,1.24-.75,1.82-1.18,1.17-.85,2.29-1.78,3.35-2.79.53-.5,1-1.05,1.42-1.64l-2.93-3.67Z" fill="#444"/>
  <path d="M102.38,55.82c-.08-.05-.17-.08-.26-.09-.05,0-.09-.01-.13-.02-.02,0-.04,0-.05,0h0s-.05,0-.08,0c-.01,0-.02,0-.03,0-.02,0-.03,0-.05,0-.01,0-.02,0-.04,0,0,0-.02,0-.03,0-.04,0-.07.02-.11.03-.1.03-.19.08-.28.13l-9.41,5.43,5.9,3.41c1.05-.6,2.09-1.21,3.14-1.81,1.05-.6,2.09-1.21,3.14-1.81,1.05-.6,2.09-1.21,3.14-1.81.09-.05.18-.09.26-.12.16-.05.28-.06.38-.06.22,0,.36.07.49.14-1.64-.95-3.28-1.89-4.92-2.84-.35-.2-.7-.4-1.05-.61Z" fill="silver"/>
  <polygon points="109.11 42.45 112.04 46.13 118.48 37.16 118.39 37.1 109.11 42.45" fill="#444"/>
  <path d="M91.92,61.33c.46.33.94.64,1.42.95.48.3.97.59,1.46.88.49.28.99.56,1.49.82.5.27,1.01.52,1.53.76-.46-.33-.94-.65-1.42-.95-.48-.3-.97-.59-1.46-.88-.49-.28-.99-.56-1.49-.82-.5-.27-1.01-.52-1.53-.76Z" fill="#fff"/>
  <path d="M100.47,78.87c-.13-.9-.3-1.8-.51-2.68-.21-.89-.46-1.77-.75-2.63-.29-.86-.63-1.72-.99-2.55-.18-.42-.37-.84-.56-1.25-.19-.41-.39-.82-.6-1.23v.02c-.04-.17-.09-.33-.13-.5-.04-.17-.07-.34-.09-.51-.04-.34-.05-.69,0-1.03.04-.34.14-.68.31-.98.16-.31.4-.58.69-.78v-.02c-.18.08-.32.19-.46.31-.13.12-.25.26-.35.42-.2.31-.33.66-.4,1.02-.03.18-.05.36-.06.55,0,.18,0,.37.02.55.02.18.04.36.08.54.03.18.09.35.14.53h0s0,.02,0,.02c.2.41.41.81.61,1.22.2.41.4.81.59,1.23.38.82.73,1.66,1.04,2.51.31.85.58,1.72.81,2.6.23.88.43,1.77.59,2.66h.03Z" fill="#fff"/>
  <path d="M95.47,84c0,.06-.01.12-.02.18,0,.06,0,.12,0,.18,0,.06,0,.12.02.18,0,.06.02.12.03.18.05.23.13.46.24.67.22.43.52.81.87,1.13.35.33.77.58,1.2.78.44.2.89.34,1.35.45.46.11.93.19,1.4.25.47.05.94.07,1.42.05.94-.03,1.88-.21,2.76-.52-.92.19-1.84.3-2.77.3-.46,0-.92-.04-1.38-.1-.46-.06-.91-.14-1.36-.26-.45-.11-.89-.24-1.31-.42-.42-.18-.81-.41-1.16-.7-.35-.29-.66-.64-.9-1.03-.24-.39-.4-.84-.39-1.31Z" fill="#fff"/>
  <path d="M87.11,79.7c-.42.27-.82.56-1.21.86-.39.31-.76.64-1.11.99-.7.7-1.31,1.51-1.73,2.42-.05.11-.1.23-.15.34-.03.06-.04.12-.07.18-.02.06-.04.12-.06.18-.04.12-.08.24-.11.36l-.05.18-.04.18c-.11.49-.18.99-.19,1.49,0,.25,0,.5.02.75.02.25.05.5.1.75.04.25.11.49.17.73.08.24.16.48.26.71.2.46.44.9.72,1.32.28.42.6.81.94,1.17.34.37.7.71,1.08,1.04.38.33.77.63,1.18.92.82.57,1.69,1.06,2.59,1.49.9.43,1.83.79,2.78,1.1,1.89.62,3.85,1.02,5.83,1.25.99.11,1.98.18,2.97.2.99.02,1.99,0,2.98-.07.99-.07,1.98-.19,2.96-.35l.37-.06.37-.07c.24-.04.49-.1.73-.15.48-.11.97-.22,1.45-.35.48-.13.95-.28,1.42-.44.47-.16.93-.33,1.39-.52.46-.19.91-.39,1.36-.6.44-.22.88-.45,1.31-.7-.44.23-.88.45-1.33.66-.45.2-.91.39-1.37.57-.46.17-.93.34-1.4.49-.47.15-.95.28-1.43.4-.48.12-.96.23-1.44.33-.24.05-.48.1-.73.14l-.36.06-.37.06c-.98.15-1.96.25-2.94.31-1.97.11-3.95.06-5.91-.18-1.96-.23-3.9-.63-5.77-1.25-1.87-.61-3.69-1.42-5.3-2.54-.4-.28-.79-.58-1.17-.9-.37-.32-.73-.65-1.06-1.01-.33-.36-.64-.74-.92-1.14-.28-.4-.52-.83-.72-1.27-.1-.22-.18-.45-.26-.68-.07-.23-.13-.47-.18-.71-.05-.24-.08-.48-.1-.72-.02-.24-.03-.49-.03-.73,0-.49.06-.98.17-1.46l.04-.18.05-.18c.03-.12.07-.23.1-.35.02-.06.04-.12.06-.17.02-.06.04-.12.06-.17l.14-.34c.4-.9.98-1.71,1.66-2.42.34-.36.7-.69,1.08-1.01.38-.32.77-.62,1.18-.9Z" fill="#fff"/>
  <path d="M82.37,80.12c-.59.33-1.17.69-1.73,1.07-.56.38-1.11.79-1.63,1.23-.26.22-.52.45-.76.68-.13.12-.25.24-.37.35-.12.12-.24.24-.36.37-.47.5-.91,1.02-1.3,1.58-.4.56-.74,1.15-1.04,1.77-.04.08-.07.16-.11.23-.03.08-.07.16-.1.24-.06.16-.13.32-.18.48-.12.32-.21.65-.28.99-.31,1.34-.33,2.74-.09,4.09.06.34.14.67.23,1,.05.17.1.33.16.49.06.16.11.33.18.48.26.64.58,1.25.96,1.82.75,1.15,1.68,2.17,2.71,3.08,1.02.91,2.14,1.7,3.31,2.42.59.35,1.19.68,1.8.99.61.31,1.23.59,1.86.85.63.26,1.27.5,1.91.73.65.22,1.3.43,1.95.61,1.31.38,2.64.68,3.98.93,2.68.48,5.41.73,8.14.72h.51s.51-.01.51-.01h.26s.26-.01.26-.01l.51-.02c.68-.03,1.36-.07,2.04-.13,1.36-.11,2.71-.29,4.05-.53,1.34-.24,2.67-.55,3.98-.92.65-.19,1.3-.39,1.95-.61.64-.22,1.28-.46,1.91-.73-.63.25-1.27.48-1.92.69-.65.21-1.3.4-1.95.58-1.31.35-2.64.64-3.98.86-1.34.22-2.69.39-4.04.49-.68.05-1.35.09-2.03.11h-.51s-.25.02-.25.02h-.25s-.51,0-.51,0h-.51s-.25,0-.25,0h-.25s-.51-.02-.51-.02l-.51-.02c-.17,0-.34-.01-.51-.02l-.51-.03-.51-.03c-.34-.02-.68-.05-1.01-.08-.67-.07-1.35-.14-2.02-.24-.34-.04-.67-.1-1.01-.15-.17-.03-.33-.06-.5-.09-.17-.03-.33-.06-.5-.09-1.33-.25-2.65-.55-3.96-.93-.65-.18-1.3-.39-1.94-.61-.64-.22-1.27-.46-1.9-.72-.62-.26-1.24-.54-1.85-.84-.6-.3-1.2-.63-1.78-.98-1.15-.7-2.26-1.49-3.27-2.38-1.01-.89-1.94-1.89-2.67-3.02-.37-.56-.69-1.16-.95-1.78-.07-.15-.12-.31-.18-.47-.06-.16-.11-.32-.16-.48-.1-.32-.17-.65-.24-.98-.25-1.32-.24-2.7.05-4.01.07-.33.16-.65.27-.97.05-.16.11-.32.17-.47.03-.08.07-.16.1-.23.03-.08.06-.16.1-.23l.11-.23c.04-.08.08-.15.11-.23.07-.15.16-.3.24-.45.17-.29.35-.58.54-.86.38-.56.81-1.08,1.27-1.58.11-.13.23-.25.35-.37.12-.12.24-.24.36-.36.24-.24.49-.47.75-.69.51-.45,1.05-.86,1.6-1.26.55-.39,1.13-.76,1.71-1.11Z" fill="#fff"/>
  <path d="M70.77,66.21c-.1-.13-.12-.3-.11-.46.01-.16.05-.32.1-.47.1-.3.27-.58.43-.86.17-.28.34-.54.54-.8l.58-.78c.77-1.04,1.53-2.08,2.29-3.12.76-1.04,1.52-2.09,2.28-3.13l1.13-1.57c.19-.26.37-.52.57-.78.19-.26.39-.51.59-.76.41-.5.83-.98,1.28-1.44.22-.23.45-.45.69-.68.23-.22.47-.44.7-.66.94-.88,1.92-1.72,2.91-2.55.99-.82,2.01-1.62,3.05-2.38.52-.38,1.05-.75,1.58-1.11.27-.18.54-.35.81-.53.27-.17.55-.34.82-.51-.28.15-.56.31-.84.47-.28.16-.56.33-.83.5-.55.34-1.09.69-1.62,1.06-1.06.74-2.1,1.51-3.1,2.32-1.01.81-1.99,1.65-2.95,2.52-.24.22-.48.44-.71.66-.24.22-.47.45-.7.68-.45.46-.89.95-1.3,1.45-.21.25-.4.51-.6.77-.19.26-.38.53-.57.79l-1.13,1.58c-.75,1.05-1.5,2.1-2.24,3.16-.74,1.05-1.49,2.11-2.22,3.17l-.55.8c-.19.27-.36.54-.52.82-.16.28-.32.57-.41.88-.05.16-.08.32-.08.48,0,.16.03.33.13.46Z" fill="#fff"/>
  <path d="M43.65,33.85c-1.29-.81-2.59-1.6-3.89-2.37-.65-.39-1.31-.77-1.96-1.16l-1.97-1.15-1.98-1.13c-.66-.37-1.32-.75-1.98-1.12-1.33-.74-2.66-1.47-4-2.18,1.29.81,2.59,1.6,3.89,2.37.65.39,1.31.77,1.96,1.16l1.97,1.15,1.98,1.13c.66.37,1.32.75,1.98,1.12,1.33.74,2.66,1.47,4,2.18Z" fill="#fff"/>
  <path d="M80.37,49.7l-.95-.57-.95-.57-1.9-1.14c-.63-.39-1.35-.68-2.12-.72l-2.22-.07-.55-.02c-.18,0-.36-.02-.53-.06-.35-.07-.7-.18-1.02-.33-.16-.08-.33-.16-.48-.25l-.48-.28-.96-.56-3.84-2.22-3.84-2.21c-1.28-.73-2.57-1.47-3.85-2.2-1.28-.73-2.57-1.46-3.86-2.18l-1.94-1.08-.97-.54-.97-.54.95.57.95.57,1.9,1.14c1.27.75,2.54,1.51,3.82,2.25,1.27.75,2.55,1.49,3.83,2.24l3.84,2.22,3.84,2.21.96.55.48.27c.16.09.33.18.5.26.35.16.71.27,1.08.34.19.03.38.05.57.05h.55s2.22.04,2.22.04c.18,0,.36.02.54.06.18.03.35.08.53.14.34.11.67.27.99.46l1.94,1.08.97.54.97.54Z" fill="#fff"/>
  <path d="M90.9,58.61c-.07-.35-.18-.69-.31-1.01-.14-.33-.3-.64-.48-.95-.18-.3-.39-.59-.62-.87-.23-.27-.47-.53-.75-.75l.57.88c.19.29.37.58.55.88.18.3.35.6.52.9.17.3.34.61.51.92Z" fill="#fff"/>
  <path d="M11.07,8.57c.69.43,1.38.85,2.07,1.27l1.04.63,1.04.62c.7.41,1.39.83,2.09,1.23l1.05.61,1.05.61v-.24s-.01,0-.01,0l-.12.08.08.12c.36.53.73,1.06,1.1,1.59l1.1,1.58,1.11,1.58,1.12,1.57-.02-.06h0s0,.04,0,.04l.02.02.68.91.68.91c.45.6.91,1.21,1.37,1.8-.42-.63-.85-1.25-1.27-1.87l-.64-.93-.65-.93.02.06h0s0-.04,0-.04l-.02-.03-1.08-1.6-1.09-1.59-1.09-1.59c-.36-.53-.73-1.06-1.1-1.59l-.04.19h0s.19-.13.19-.13l-.19-.11-1.05-.6-1.05-.6c-.7-.4-1.41-.8-2.11-1.19l-1.06-.59-1.06-.59c-.71-.39-1.42-.78-2.13-1.16Z" fill="#fff"/>
</svg>