<?xml version="1.0" encoding="UTF-8"?>
<svg xmlns="http://www.w3.org/2000/svg" version="1.1" xmlns:xlink="http://www.w3.org/1999/xlink" viewBox="0 0 111 100">
  <!-- Generator: Adobe Illustrator 29.2.1, SVG Export Plug-In . SVG Version: 2.1.0 Build 116)  -->
  <defs>
    <linearGradient id="linear-gradient" x1="52.32" y1="29.81" x2="65.33" y2="57.25" gradientUnits="userSpaceOnUse">
      <stop offset="0" stop-color="#fff"/>
      <stop offset="1" stop-color="#000"/>
    </linearGradient>
    <linearGradient id="linear-gradient1" x1="41.89" y1="29.25" x2="45.95" y2="36.48" gradientUnits="userSpaceOnUse">
      <stop offset="0" stop-color="#000"/>
      <stop offset=".09" stop-color="#0a0a0a"/>
      <stop offset=".24" stop-color="#272727"/>
      <stop offset=".43" stop-color="#555"/>
      <stop offset=".66" stop-color="#969696"/>
      <stop offset=".93" stop-color="#e7e7e7"/>
      <stop offset="1" stop-color="#fff"/>
    </linearGradient>
    <linearGradient id="linear-gradient2" x1="64.31" y1="68.98" x2="58.26" y2="59.26" gradientUnits="userSpaceOnUse">
      <stop offset="0" stop-color="#000"/>
      <stop offset="1" stop-color="#fff"/>
    </linearGradient>
    <linearGradient id="linear-gradient3" x1="99.49" y1="-5.44" x2="62.76" y2="26.56" xlink:href="#linear-gradient"/>
    <linearGradient id="linear-gradient4" x1="96.85" y1="25.75" x2="96.85" y2="51.72" xlink:href="#linear-gradient"/>
    <linearGradient id="linear-gradient5" x1="46.37" y1="52.67" x2="53.08" y2="68.88" xlink:href="#linear-gradient"/>
    <linearGradient id="linear-gradient6" x1="42.48" y1="43.74" x2="42.07" y2="40.04" xlink:href="#linear-gradient"/>
  </defs>
  <g isolation="isolate">
    <g id="Layer_1">
      <g>
        <path d="M99.31,24.3c-.02-.14-.05-.26-.09-.4-.04-.14-.08-.26-.13-.4-.06-.13-.11-.25-.17-.38-.07-.12-.14-.23-.22-.36-.08-.12-.15-.22-.24-.34-.1-.12-.18-.21-.28-.32-.1-.11-.2-.2-.31-.3-.11-.11-.21-.19-.34-.29-.12-.09-.23-.17-.36-.26-.13-.08-.24-.15-.38-.23-.1-.06-.18-.11-.28-.16-.14-.07-.26-.13-.41-.2-.15-.06-.27-.11-.43-.17-.15-.06-.28-.11-.44-.16-.16-.05-.3-.09-.46-.14-.16-.04-.3-.08-.47-.11-.16-.04-.31-.07-.48-.1-.17-.03-.32-.05-.49-.07-.17-.02-.33-.04-.5-.06-.17-.01-.34-.02-.51-.02-.33-.02-.68-.01-1.01,0-.16.01-.34.02-.5.04-.17,0-.34.04-.5.06-.16.02-.34.05-.5.08-.15.03-.33.07-.48.1-.15.04-.33.08-.47.13-.15.04-.32.09-.46.14-.15.05-.31.11-.45.17-.14.06-.3.13-.43.19s-.28.14-.41.21c-.06.03-.13.07-.19.11s-.13.08-.19.12c-.12.07-.25.16-.36.24s-.23.18-.33.27c-.11.08-.22.19-.31.28-.1.1-.2.21-.29.31-.08.1-.18.22-.25.33-.08.1-.16.23-.23.34-.06.12-.13.25-.19.37-.05.12-.11.26-.15.38-.04.13-.08.27-.11.4-.03.13-.05.27-.07.41,0,.13-.02.27-.02.41v22.88c0,1.57,1.59,2.81,3.15,3.52,1.59.71,3.15.87,4.73.79.86-.05,1.73-.17,2.58-.39.47-.12.93-.27,1.39-.45,1-.39,1.99-.95,2.56-1.87,0-.01.02-.03.03-.04.3-.49.48-1.08.48-1.65h.02v-23c-.01-.14-.02-.27-.05-.41ZM94.76,26.18c-1.2.38-2.32.51-3.45.43-.95-.06-1.9-.27-2.83-.66-.74-.32-1.46-.75-1.84-1.43-.38-.66-.42-1.56-.08-2.24.44-.85,1.48-1.35,2.47-1.66,1.19-.39,2.31-.52,3.44-.44.95.06,1.91.27,2.84.66.18.08.37.17.54.27.53.28,1.01.65,1.3,1.16.37.67.41,1.56.07,2.24-.43.85-1.47,1.35-2.46,1.67Z" fill="#6e8be0"/>
        <g mix-blend-mode="screen">
          <path d="M98.99,25.36c-.04.14-.1.27-.16.39-.25.49-.65.89-1.09,1.22-.57.41-1.23.64-1.87.83-.33.1-.66.18-.99.25-.99.21-2,.29-2.99.23v-.05c1.02-.05,2.03-.23,2.99-.52.29-.09.58-.18.86-.29.61-.23,1.18-.55,1.72-.86.45-.26.84-.56,1.22-.94.09-.09.18-.19.27-.29l.04.03Z" fill="#fff"/>
        </g>
        <path d="M97.15,22.27c.38.67.42,1.56.08,2.24-.43.85-1.47,1.35-2.47,1.67-1.2.39-2.32.51-3.45.44-.95-.06-1.9-.27-2.83-.67-.74-.31-1.46-.75-1.84-1.42-.37-.66-.42-1.56-.07-2.24.43-.85,1.47-1.35,2.46-1.67,1.2-.39,2.32-.51,3.45-.44.95.06,1.9.27,2.83.67.18.08.37.17.55.26.53.29,1.01.66,1.29,1.16Z" fill="#bbcdff"/>
      </g>
      <polygon points="89.55 49.4 89.55 63.16 86.91 64.69 86.91 49.44 89.55 47.91 89.55 49.4" fill="#d7e3ff"/>
      <path d="M86.91,49.44v15.25l-11.92-6.88c3.22-1.86,6.44-3.72,9.65-5.58,0,0,1.68-1.19,2.26-2.8Z" fill="#6e8be0"/>
      <path d="M94.35,38.22c-.02-.31-.05-.58-.08-.9-.03-.31-.07-.59-.12-.91-.05-.31-.09-.59-.16-.91-.06-.32-.12-.61-.2-.93-.07-.32-.15-.61-.24-.93-.09-.32-.17-.61-.27-.93-.11-.32-.2-.61-.32-.93-.03-.08-.06-.16-.09-.24-.08-.23-.16-.45-.26-.68-.13-.32-.25-.61-.39-.92-.54-1.23-1.16-2.42-1.88-3.57-.17-.29-.36-.58-.54-.86-.19-.27-.39-.56-.58-.83-.02-.02-.03-.05-.05-.07-.18-.24-.37-.5-.55-.73-.2-.26-.42-.54-.62-.79-.21-.24-.44-.51-.65-.75-.21-.23-.45-.49-.67-.72-.22-.22-.46-.47-.69-.68-.22-.22-.47-.45-.7-.66-.23-.2-.49-.42-.73-.61-.23-.19-.49-.4-.73-.57-.24-.18-.51-.37-.75-.54-.25-.16-.52-.34-.77-.49-.24-.14-.51-.3-.76-.43-.24-.14-.51-.28-.76-.4-.25-.11-.53-.24-.77-.34-.12-.05-.24-.09-.36-.14-.14-.06-.29-.11-.42-.16-.26-.08-.54-.17-.79-.24-.26-.07-.54-.14-.79-.2-.26-.05-.54-.1-.8-.14-.26-.03-.54-.06-.8-.08-.25-.02-.54-.02-.79-.02s-.54.01-.79.04c-.26.02-.53.05-.78.1-.26.04-.53.1-.78.16-.24.07-.51.15-.75.24-.21.07-.42.16-.63.26,0,0-.03.01-.04.02-.02,0-.04.01-.06.02-.23.1-.47.23-.7.36-2.69,1.54-5.37,3.09-8.05,4.66-.46.27-.92.53-1.39.8-.95.54-1.9,1.09-2.85,1.64-.49.28-.98.56-1.47.85-15.66,9.04-31.33,18.08-46.99,27.13,2.2-1.28,5.09-.91,7.65.12.47.18.92.39,1.35.61,2.88,1.47,5.03,3.61,6.91,6.01.37.48.73.96,1.08,1.46,1.43,2.02,2.66,4.21,3.62,6.53.05.12.1.24.14.36,1.1,2.79,1.79,5.75,1.79,8.71,0,.55-.02,1.11-.08,1.67-.02.26-.05.52-.09.78-.23,1.64-.85,3.13-1.88,4.49-.52.67-1.12,1.21-1.82,1.61.59-.34,1.32-.76,2.16-1.24.36-.21.71-.42,1.06-.62,0,0,1.43-1.1,2.19-2.75l2.64-1.53v1.49c12.76-7.36,25.52-14.73,38.28-22.09,3.22-1.86,6.43-3.72,9.65-5.58,0,0,1.68-1.19,2.27-2.79l2.64-1.53v1.49c.07-.04.02-.01.09-.06.23-.14.44-.28.65-.44.22-.16.41-.32.61-.5.2-.18.38-.36.57-.56.18-.2.34-.39.51-.6.17-.22.32-.42.47-.65.15-.23.28-.44.42-.68.13-.25.24-.47.36-.73.12-.25.21-.48.31-.75.1-.27.18-.51.26-.78,0-.04.02-.07.03-.1.08-.24.13-.46.18-.71.07-.29.12-.54.17-.83s.08-.55.11-.85c.04-.3.06-.57.07-.88.02-.3.02-.57.02-.89v-.28c0-.3,0-.57-.03-.89ZM31.79,52.09c-.64-.63-1.26-1.19-1.92-1.73-.29-.24-.58-.45-.88-.67-.59-.44-1.14-.8-1.74-1.14-.2-.12-.4-.23-.61-.34.26-.15,15.59-9.02,15.85-9.17l.61.35,10.14,5.86,3.07,1.77v15.25l-15.85,9.15c0-.75-.06-1.6-.15-2.4-.11-.81-.27-1.71-.47-2.55-.2-.85-.46-1.75-.75-2.61-.13-.38-.27-.76-.43-1.14-.18-.49-.39-.98-.61-1.46-.38-.85-.81-1.71-1.28-2.53-.46-.83-.96-1.63-1.49-2.41-.12-.17-.24-.34-.36-.51-.42-.59-.86-1.16-1.32-1.72-.59-.71-1.18-1.36-1.81-2Z" fill="#d7e3ff"/>
      <polyline points="34.07 95.19 34.07 79.94 36.71 78.42 36.71 79.9 36.71 93.67" fill="#d7e3ff"/>
      <path d="M34.07,95.19l-24.21-13.98v-4.69c.16.23.32.46.48.68.2.27.39.53.6.8.21.27.41.51.63.77.22.26.42.49.65.74.23.25.43.47.67.71.23.24.45.45.68.67.24.23.46.42.7.64.25.21.47.4.72.6.25.2.47.37.73.56.26.19.48.34.74.52.26.17.49.32.75.47.13.08.25.15.38.22.27.15.51.28.78.42.27.14.52.25.79.37.28.12.52.22.8.32.28.1.52.18.8.26.28.08.53.15.81.21.28.06.53.11.81.15.28.04.53.07.81.1s.53.03.81.04c.28,0,.53,0,.8-.03.27-.02.52-.05.79-.09.27-.04.51-.09.78-.16.26-.07.5-.14.76-.22.26-.09.49-.18.73-.29.24-.11.47-.22.7-.35.03-.02.07-.04.1-.06,1.07-.62,2.14-1.24,3.22-1.86,0,0,1.43-1.1,2.19-2.75v15.25" fill="#6e8be0"/>
      <path d="M32.53,76c0,.82-.06,1.63-.17,2.46-.23,1.63-.86,3.13-1.89,4.48-.51.67-1.12,1.21-1.81,1.61-.03.02-.07.04-.1.06-.23.13-.46.24-.7.35-.25.11-.48.2-.73.29-.26.09-.5.16-.76.22-.26.07-.51.11-.78.16-.27.04-.52.07-.79.09-.27.02-.52.03-.8.03-.28,0-.53-.01-.81-.04s-.53-.05-.81-.1c-.28-.04-.53-.09-.81-.15-.28-.06-.53-.13-.81-.21-.28-.08-.52-.16-.8-.26-.28-.1-.52-.2-.8-.32-.27-.12-.52-.23-.79-.37-.27-.14-.51-.26-.78-.42-.13-.07-.25-.14-.38-.22-.26-.16-.49-.3-.75-.47-.26-.17-.48-.33-.74-.52-.26-.19-.48-.36-.73-.56-.25-.2-.47-.38-.72-.6-.25-.21-.46-.41-.7-.64-.24-.23-.45-.43-.68-.67-.23-.24-.44-.46-.67-.71-.23-.25-.43-.48-.65-.74-.22-.26-.42-.5-.63-.77-.21-.27-.4-.52-.6-.8-.17-.23-.33-.45-.48-.68-.6-.88-1.16-1.79-1.67-2.73-.16-.29-.32-.6-.46-.9-.15-.3-.3-.61-.43-.91-.14-.3-.27-.62-.4-.92-.12-.3-.25-.63-.36-.93-.11-.3-.23-.63-.33-.94-.1-.3-.2-.64-.29-.94-.09-.3-.18-.64-.25-.94-.07-.3-.15-.64-.21-.94-.06-.3-.12-.64-.17-.93-.05-.3-.09-.63-.13-.92-.03-.29-.07-.63-.09-.92-.02-.29-.04-.62-.04-.91,0-.28,0-.6,0-.88,0-.28.02-.59.04-.86.02-.27.05-.58.09-.84.03-.27.08-.56.13-.83.05-.26.12-.55.18-.8.07-.26.15-.54.23-.78.08-.25.18-.52.27-.76.1-.24.21-.5.33-.73.11-.23.25-.48.38-.7.13-.22.28-.46.43-.67.15-.21.32-.43.48-.63.16-.2.35-.4.53-.58.18-.18.38-.37.58-.54.2-.17.41-.33.62-.48.21-.15.44-.29.66-.42,2.61-1.51,6.16-.72,9,.73,2.88,1.47,5.03,3.61,6.91,6.01,1.9,2.42,3.52,5.11,4.7,7.99,1.18,2.89,1.94,5.98,1.94,9.07ZM26.29,80.53c.78-1.36,1-2.94.96-4.53-.01-.54-.06-1.07-.12-1.6-.31-2.65-1.08-5.12-2.24-7.45-1.16-2.33-2.71-4.51-4.54-6.37-1.46-1.48-3.1-2.76-5.07-3.59-1.46-.62-3.1-.99-4.59-.61-1.49.38-2.83,1.52-3.61,2.88-1.05,1.82-1.09,4.03-.84,6.13.31,2.65,1.08,5.12,2.24,7.45,1.16,2.33,2.71,4.51,4.54,6.37,1.46,1.48,3.1,2.76,5.07,3.59,1.46.62,3.1.99,4.59.6,1.49-.38,2.83-1.52,3.61-2.88Z" fill="#d7e3ff"/>
      <path d="M27.25,76c.04,1.59-.18,3.17-.96,4.53-.78,1.36-2.12,2.49-3.61,2.88-1.49.38-3.13.01-4.59-.6-1.96-.83-3.61-2.11-5.07-3.59-1.83-1.86-3.38-4.04-4.54-6.37-1.16-2.33-1.93-4.8-2.24-7.45-.25-2.1-.21-4.31.84-6.13.78-1.36,2.12-2.49,3.61-2.88,1.49-.38,3.13-.01,4.59.61,1.97.83,3.61,2.1,5.07,3.59,1.83,1.86,3.38,4.04,4.54,6.37,1.16,2.33,1.93,4.8,2.24,7.45.06.53.1,1.07.12,1.6Z" fill="#6e8be0"/>
      <path d="M9.99,52.2c.42-.25.87-.45,1.35-.59.47-.14.96-.22,1.45-.26.49-.04.99-.03,1.48.02.49.04.98.12,1.46.23.96.22,1.9.55,2.8.96.9.41,1.76.91,2.58,1.46.81.56,1.58,1.19,2.3,1.87.72.68,1.39,1.41,2.02,2.17.63.76,1.23,1.54,1.8,2.35.57.81,1.1,1.64,1.6,2.49.25.43.48.86.71,1.3.23.44.45.88.65,1.33.42.9.79,1.81,1.12,2.74.66,1.86,1.13,3.8,1.3,5.77.04.49.07.99.06,1.48,0,.49,0,.99-.04,1.48-.03.49-.09.98-.16,1.47-.08.49-.19.98-.34,1.45-.3.94-.75,1.84-1.33,2.64l-.11.15-.11.15c-.07.1-.15.2-.23.29-.16.19-.33.37-.51.54-.36.34-.76.63-1.19.86.84-.51,1.53-1.23,2.06-2.05.54-.81.96-1.7,1.23-2.64.13-.47.23-.94.29-1.42.06-.48.1-.97.13-1.46.02-.49.02-.97,0-1.46,0-.49-.04-.97-.09-1.46-.03-.24-.05-.48-.09-.72l-.05-.36-.06-.36c-.04-.24-.09-.48-.13-.72-.05-.24-.1-.48-.16-.71-.23-.95-.51-1.88-.85-2.79-.66-1.84-1.49-3.61-2.47-5.29-.49-.84-1.01-1.67-1.57-2.47-.56-.8-1.15-1.58-1.77-2.33-.62-.76-1.27-1.48-1.97-2.15-.7-.68-1.45-1.3-2.24-1.87-1.59-1.12-3.36-2-5.25-2.49-.47-.12-.95-.22-1.43-.28-.48-.06-.97-.08-1.46-.06-.97.04-1.95.27-2.81.74Z" fill="#fff"/>
      <g>
        <path d="M10.95,67.76c.02.16.07.32.14.46.07.14.17.28.28.4.09.09.19.17.32.22.09.04.19.06.28.04.09-.02.18-.1.23-.18.05-.09.06-.18.06-.28,0-.03,0-.07,0-.1-.02-.17-.07-.32-.14-.46-.07-.15-.17-.28-.28-.4-.09-.09-.19-.17-.31-.22-.09-.04-.19-.06-.29-.04-.09.02-.18.09-.22.18-.07.11-.07.25-.05.38ZM11.14,68.41c-.04-.07-.09-.15-.12-.22-.02-.04-.03-.08-.05-.12-.01-.04-.03-.08-.04-.12-.01-.04-.02-.08-.03-.12,0-.04-.02-.08-.02-.12,0-.04,0-.08,0-.12,0-.03,0-.08,0-.11,0-.03,0-.07.01-.1,0-.03.01-.07.02-.1,0-.03.02-.07.03-.1.01-.03.03-.06.05-.09.02-.03.04-.06.06-.08.02-.02.05-.05.07-.07.02-.02.05-.04.08-.06.17-.1.34-.19.51-.29.23-.13.46-.27.69-.4.19-.11.39-.22.58-.34.17-.1.4-.04.58.05.25.12.41.32.56.55.18.28.32.61.32.94s-.25.55-.25.55l-.06.03c-.17-.1-.35-.2-.54-.31-.05-.03-.14-.03-.23.02-.16.1-.3.31-.3.47,0,.07.03.12.07.15h0c.07.04.14.08.21.12-.44.25-.49.28-.92.53-.02,0-.03.02-.05.03-.03.01-.06.02-.09.03-.04,0-.07.01-.1.02s-.07,0-.1,0c-.01,0-.02,0-.03,0-.02,0-.05,0-.07-.01-.04,0-.07-.02-.1-.03-.04-.01-.07-.02-.1-.04-.04-.02-.06-.03-.1-.05-.03-.02-.06-.04-.09-.06-.03-.02-.06-.04-.09-.07-.03-.03-.06-.05-.09-.08-.01-.01-.03-.03-.04-.04-.01-.02-.03-.03-.04-.05-.03-.03-.05-.06-.08-.1s-.05-.07-.07-.1Z" fill="#d7e3ff"/>
        <path d="M19.11,70.68c.02.07.03.14.03.21,0,.1-.02.2-.06.29-.04.09-.09.18-.15.25-.03.03-.07.07-.1.09-.04.03-.07.05-.11.07-.08.04-.17.07-.26.08-.1.01-.2,0-.29-.01-.1-.02-.19-.07-.27-.12-.08-.06-.15-.12-.2-.19-.02-.04-.05-.07-.06-.11-.02-.04-.03-.08-.05-.13-.02-.07-.03-.14-.03-.21,0-.02,0-.05,0-.08,0-.1.04-.2.08-.28.05-.09.11-.17.17-.23.03-.03.07-.06.11-.08,0,0,.02,0,.03-.01.03-.02.06-.03.09-.05.08-.03.18-.06.27-.06.1,0,.2.01.29.04.09.03.18.08.25.15.07.06.13.13.17.21.03.06.06.12.08.18Z" fill="#222c6b"/>
        <path d="M17.56,70.89c-1.87-1.08-2.46-1.43-4.24-2.45-.07-.04-.14-.08-.21-.12h0s-.07-.08-.07-.15c0-.17.13-.38.3-.47.09-.05.18-.06.23-.02.19.11.37.21.54.31.68.39,1.16.68,1.65.96.61.35,1.22.71,2.19,1.27,0,0-.02,0-.03.01-.04.02-.07.05-.11.08-.07.06-.13.14-.17.23-.04.09-.07.19-.08.28,0,.03,0,.05,0,.08Z" fill="#d7e3ff"/>
        <path d="M12.39,66.2c-.23.13-.46.26-.69.4-.92-2.24-1.47-3.56-2.39-5.8.07,0,.14,0,.21,0,.09-.01.18-.04.26-.08.04-.02.08-.04.11-.07.04-.03.07-.06.1-.09.01-.02.03-.03.04-.05,1.03,2.5,1.32,3.2,2.35,5.7Z" fill="#d7e3ff"/>
        <path d="M12.26,68.42c0,.1-.01.2-.06.28-.05.09-.13.16-.23.18-.09.02-.19,0-.28-.04-.12-.05-.23-.13-.32-.22-.11-.11-.21-.25-.28-.4-.07-.15-.12-.3-.14-.46-.02-.13-.01-.27.05-.38.05-.08.13-.15.22-.18.09-.02.19,0,.29.04.12.05.22.13.31.22.11.12.21.25.28.4.07.14.12.3.14.46,0,.03,0,.07,0,.1Z" fill="#6e8be0"/>
        <path d="M10.46,71.52c-.07.11-.14.23-.22.35-.05.07-.15.08-.27,0-.17-.1-.3-.31-.3-.48,0-.05.01-.09.03-.12.04-.06.07-.11.1-.17.58-.92.92-1.48,1.52-2.45.01.01.03.03.04.04.03.03.06.05.09.08.03.03.06.05.09.07.03.02.06.04.09.06.03.02.06.04.1.05.04.02.07.03.1.04.04.01.07.02.1.03.02,0,.05,0,.07.01-.63,1-.98,1.56-1.55,2.47Z" fill="#d7e3ff"/>
        <path d="M10.17,59.8c.02.07.03.14.03.21,0,.1-.02.2-.06.29-.03.07-.07.13-.11.19-.01.02-.03.04-.04.05-.03.03-.07.07-.1.09-.03.03-.07.05-.11.07-.08.04-.16.07-.26.08-.07,0-.14,0-.21,0-.03,0-.05,0-.08-.01-.1-.02-.19-.07-.27-.12-.08-.06-.15-.12-.2-.2-.02-.04-.05-.07-.06-.11-.02-.04-.04-.08-.05-.13-.03-.09-.03-.19-.03-.29,0-.1.04-.2.08-.28.04-.09.11-.16.17-.23.03-.03.07-.06.11-.08.04-.02.07-.04.12-.06.08-.03.18-.06.27-.06.1,0,.2,0,.29.04.09.03.18.08.25.14.07.06.13.13.17.21.03.05.06.12.08.18Z" fill="#222c6b"/>
        <path d="M9.81,71.11c-.03.05-.07.11-.1.17-.02.03-.03.07-.03.12,0,.17.14.38.3.48.12.07.22.06.27,0,.08-.12.15-.24.22-.35.03.06.05.09.06.16s.03.14.03.21c0,.1-.02.2-.06.29-.04.09-.09.18-.16.25-.03.03-.07.07-.1.09-.03.03-.07.05-.11.07-.08.04-.17.07-.26.08-.09.01-.19,0-.29-.01-.1-.02-.19-.07-.27-.12-.08-.06-.14-.12-.19-.2-.02-.04-.05-.07-.07-.11-.02-.04-.03-.08-.05-.13-.01-.04-.02-.09-.02-.14,0-.05,0-.1,0-.15,0-.1.04-.2.08-.28.04-.09.1-.16.17-.23.03-.03.07-.06.11-.08.04-.02.07-.04.11-.06.08-.03.18-.06.27-.06.03,0,.05,0,.08,0Z" fill="#222c6b"/>
      </g>
      <path d="M92.87,31.54l-36.56,21.01-6.42,3.69-.69.4-10.54,6.08-7.92,4.57c-.04-.12-.09-.24-.14-.36-.96-2.32-2.19-4.51-3.62-6.53l7.94-4.59,10.96-6.33.67-.39,6.69-3.84,35.93-20.64s.03.05.05.07c.19.27.39.56.58.83.18.28.37.57.54.86.72,1.15,1.34,2.34,1.88,3.57.14.31.26.6.39.92.1.23.18.45.26.68Z" fill="url(#linear-gradient)" mix-blend-mode="screen" opacity=".8"/>
      <path d="M56.31,47.02v15.25l-15.85,9.15v-15.25l15.85-9.15Z" fill="#d7e3ff"/>
      <path d="M56.31,47.02l-15.85,9.15-13.21-7.63c-.2-.12-.4-.23-.61-.34.26-.15,15.59-9.02,15.85-9.17l.61.35,13.21,7.63Z" fill="#bbcdff"/>
      <path d="M40.46,56.17v15.25c0-.75-.05-1.6-.15-2.4-.1-.81-.26-1.71-.46-2.55-.2-.85-.46-1.75-.76-2.6-.3-.86-.65-1.75-1.03-2.6-.38-.85-.82-1.71-1.28-2.53-.46-.83-.96-1.63-1.5-2.41-.53-.78-1.09-1.52-1.68-2.23-.59-.72-1.18-1.37-1.82-2-.64-.64-1.25-1.19-1.92-1.73-.29-.24-.58-.46-.88-.67-.59-.43-1.15-.8-1.74-1.14l13.21,7.63Z" fill="#6e8be0"/>
      <path d="M40.46,56.17c1.28-.84,2.58-1.64,3.88-2.42.65-.4,1.31-.78,1.96-1.17l1.98-1.15,1.99-1.13c.67-.37,1.33-.75,2-1.11,1.34-.74,2.68-1.46,4.04-2.15-1.28.84-2.58,1.64-3.88,2.42-.65.4-1.31.78-1.96,1.17l-1.98,1.15-1.99,1.13c-.67.37-1.33.75-2,1.11-1.34.74-2.68,1.46-4.04,2.15Z" fill="#fff"/>
      <g>
        <path d="M42.87,42.45s-.06.07-.09.11c-.03.04-.06.07-.09.1-.03.04-.06.06-.1.1-.04.03-.06.06-.1.09-.04.03-.07.05-.1.08-.02.01-.03.02-.05.03v.35c0,.09-.07.17-.15.22-.11.07-.22.09-.35.1-.15,0-.31-.01-.45-.09,0,0-.12-.07-.12-.23v-.16h0s-.04-.02-.06-.03c0,0-.02,0-.02-.01-.27-.15-.53-.31-.8-.46-.02,0-.03-.02-.05-.03h0c-.12.09-.24.19-.32.33-.1.17-.14.39-.08.58.08.23.3.43.52.55.36.21.79.3,1.2.31.35.01.69-.04,1.03-.14.27-.08.53-.2.72-.4.18-.2.3-.5.22-.75-.09-.3-.45-.54-.75-.66h0s0,0,0,0Z" fill="#bbcdff"/>
        <path d="M43.23,46.78v.19h0c.12.11.22.26.24.42.03.21-.08.44-.24.6-.19.2-.46.31-.73.37-.33.08-.65.11-.98.08-.33-.03-.66-.11-.95-.28-.17-.1-.35-.24-.44-.43-.07-.15-.08-.33-.02-.48.04-.12.12-.22.21-.3v-.19s-.01,0-.02.01c-.04.02-.07.04-.11.07-.04.03-.07.05-.1.08-.03.03-.06.05-.09.08-.03.03-.06.06-.08.09-.03.03-.05.06-.07.09-.02.03-.04.06-.06.1-.02.04-.04.07-.05.1-.02.04-.03.07-.04.11-.01.04-.02.07-.03.11s-.01.07-.02.11c0,.03,0,.06,0,.09v.76c0,.09.02.18.06.27.08.18.19.33.34.44.07.06.15.11.23.16.51.29,1.13.37,1.72.34.47-.02.93-.1,1.34-.37.31-.2.59-.51.59-.85v-.76s0-.08,0-.12c0-.04-.01-.08-.02-.11,0-.04-.02-.08-.03-.11-.01-.03-.03-.07-.04-.11-.02-.03-.04-.07-.06-.1-.02-.03-.04-.07-.06-.1-.02-.03-.05-.06-.07-.09-.02-.03-.05-.06-.08-.09-.03-.03-.06-.06-.09-.08-.03-.02-.07-.05-.1-.07-.03-.02-.07-.05-.1-.07,0,0,0,0-.01,0h0Z" fill="#6e8be0"/>
        <path d="M43.3,40.47c-.08-.15-.23-.27-.39-.31-.16-.04-.34,0-.5.07-.21.09-.39.23-.55.39-.2.2-.37.44-.49.69-.13.25-.21.52-.24.81,0,.06-.01.12-.01.17,0,.17.02.34.1.49.08.15.23.27.39.31.16.04.34,0,.5-.07.21-.09.39-.23.55-.39.2-.2.37-.44.49-.69.13-.25.21-.52.24-.81.03-.23.02-.47-.09-.67ZM43.42,41.29s-.02.09-.03.14c-.01.04-.03.09-.04.14-.01.04-.03.09-.05.14-.02.04-.04.09-.06.14-.02.04-.04.09-.06.13-.08.15-.17.3-.27.44,0,0,0,0,0,0-.01.02-.02.03-.03.04,0,0,0,0,0,0-.03.04-.06.07-.09.11-.03.04-.06.07-.09.1-.03.04-.06.06-.1.1-.04.03-.06.06-.1.09-.04.03-.07.05-.1.08-.02.01-.03.02-.05.03-.02.01-.04.02-.06.04-.04.02-.07.04-.11.06-.04.02-.07.04-.11.06-.04.02-.07.03-.11.04-.04.01-.07.02-.11.03-.04,0-.07.02-.11.02s-.07,0-.11,0c-.04,0-.07,0-.11,0-.04,0-.07,0-.1-.02-.04,0-.07-.02-.1-.03-.01,0-.02,0-.04-.01-.02,0-.04-.02-.06-.03,0,0-.02,0-.02-.01-.27-.15-.53-.31-.8-.46-.02,0-.03-.02-.05-.03-.02-.01-.04-.03-.06-.05-.03-.02-.05-.05-.07-.08-.1-.13-.16-.28-.19-.44-.01-.08-.02-.16-.02-.24,0-.5.21-1,.48-1.43.22-.35.47-.65.85-.84.28-.14.63-.22.89-.07.27.15.53.31.8.46.03.02.06.04.09.06.03.02.05.05.08.07.02.02.05.05.07.08.02.03.04.06.06.09.02.03.04.06.05.1.01.03.03.07.04.1.01.03.02.07.03.11,0,.03.02.08.02.11,0,.04,0,.08.01.12,0,.04,0,.08,0,.12,0,.04,0,.09,0,.13,0,.04,0,.09-.02.13,0,.04-.02.09-.02.13Z" fill="#6e8be0"/>
        <path d="M40.12,47.27c-.05.15-.05.33.02.48.09.18.26.33.44.43.28.16.62.25.95.28.33.03.66,0,.98-.08.27-.07.54-.17.73-.37.16-.16.27-.39.24-.6-.02-.16-.12-.31-.24-.42h0c0,.15,0,.32,0,.51,0,.23-.19.44-.4.58-.28.18-.59.24-.91.25-.4.02-.83-.04-1.17-.23-.06-.03-.11-.07-.16-.11-.1-.08-.18-.18-.23-.3-.03-.06-.04-.12-.04-.18v-.51c-.09.08-.17.19-.21.3Z" fill="#bbcdff"/>
        <path d="M43.51,42.76s-.06-.05-.09-.07c-.03-.02-.06-.05-.09-.07-.03-.02-.07-.04-.1-.06-.03-.02-.08-.04-.11-.06-.04-.02-.08-.04-.12-.06-.03-.01-.06-.02-.09-.04h0s-.02.03-.03.04h0c.3.13.66.37.75.66.08.25-.04.55-.22.75-.19.21-.45.32-.72.4-.34.1-.68.15-1.03.14-.42-.01-.84-.11-1.2-.31-.21-.12-.44-.32-.52-.55-.06-.19-.02-.41.08-.58.08-.13.19-.24.32-.32h0s-.04-.03-.06-.05h0s-.05.04-.08.06c-.04.02-.06.05-.1.07-.03.03-.06.05-.09.08-.03.03-.05.05-.08.08-.03.03-.05.06-.07.09-.02.03-.04.06-.06.09-.02.03-.03.06-.05.09-.02.03-.03.06-.04.1-.01.03-.02.06-.02.1,0,.03-.01.07-.01.1,0,.02,0,.04,0,.06v.3c0,.13.04.27.1.39.11.21.31.36.51.48.56.32,1.25.38,1.92.31.47-.05.93-.16,1.28-.47.2-.18.36-.43.36-.69h0v-.31s0-.07,0-.1c0-.03-.01-.07-.02-.1,0-.03-.02-.07-.03-.1-.01-.03-.03-.07-.04-.1-.01-.03-.03-.06-.05-.09-.02-.03-.04-.06-.06-.09-.02-.03-.05-.06-.07-.08-.02-.03-.05-.06-.08-.08Z" fill="#d7e3ff"/>
        <path d="M40.32,45.03v2.45c0,.06.01.12.04.18.05.12.13.22.23.3.05.04.1.08.16.11.34.2.77.25,1.17.23.32-.01.63-.07.91-.25.21-.14.4-.34.4-.58,0-.19,0-.36,0-.51v-.19c0-.58,0-.95,0-1.75-.03.02-.08.04-.11.06-.04.02-.08.04-.12.06-.04.02-.08.04-.12.05-.04.02-.09.03-.13.04-.04.01-.09.03-.13.04-.04.01-.09.02-.14.03s-.1.02-.14.03c-.05,0-.1.02-.14.02-.05,0-.1.01-.15.01-.1,0-.2.01-.29.01-.1,0-.19,0-.29-.02-.05,0-.1-.01-.14-.02-.05,0-.09-.01-.14-.02-.05,0-.09-.02-.14-.03-.05-.01-.09-.02-.13-.03-.05-.01-.09-.03-.13-.04-.04-.02-.08-.03-.13-.05-.04-.02-.08-.03-.12-.05-.04-.02-.08-.04-.11-.06-.02-.01-.04-.02-.06-.04,0,0-.01,0-.02,0,0,0,0,0,0,0Z" fill="#6e8be0"/>
        <path d="M43.39,41.13c-.03.29-.12.56-.24.81-.13.25-.3.49-.5.69-.16.16-.33.3-.55.39-.16.07-.33.11-.5.07-.1-.03-.2-.09-.27-.17-.05-.05-.09-.1-.12-.15-.08-.14-.11-.32-.1-.49,0-.06,0-.12,0-.17.03-.29.12-.56.24-.81.13-.25.3-.49.5-.69.16-.16.33-.3.55-.39.16-.07.33-.11.5-.07.16.04.3.17.39.31.02.04.04.08.05.12.06.17.06.36.04.55Z" fill="#d7e3ff"/>
        <path d="M41.26,43.17v.16c0,.16.12.23.12.23.13.08.29.09.45.09.12,0,.24-.02.35-.1.08-.05.15-.13.15-.22v-.35s-.04.02-.06.04c-.04.02-.07.04-.11.06-.04.02-.07.04-.11.06-.04.02-.07.03-.11.04-.04.01-.07.02-.11.03-.04,0-.07.02-.11.02s-.07,0-.11,0c-.04,0-.07,0-.11,0-.04,0-.07,0-.1-.02-.04,0-.07-.02-.1-.03-.01,0-.02,0-.04-.01h0Z" fill="#d7e3ff"/>
        <path d="M43.87,43.81c0,.26-.16.51-.36.69-.35.32-.81.43-1.28.47-.67.07-1.36.01-1.92-.31-.2-.12-.4-.27-.51-.48-.06-.12-.1-.26-.1-.39v.29s0,.07,0,.1c0,.03.01.07.02.1,0,.03.02.07.03.1.01.03.03.06.04.1.02.03.03.06.05.09.02.03.04.06.06.09.02.03.05.06.07.08.02.03.05.05.08.08.03.02.06.05.09.07.03.02.06.05.1.07.03.02.06.04.1.06,0,0,0,0,0,0,0,0,.01,0,.02,0,.02.01.04.02.06.04.04.02.07.04.11.06.04.02.08.03.12.05.04.02.08.03.13.05.04.01.08.03.13.04.05.01.09.02.13.03.05.01.09.02.14.03.05,0,.09.02.14.02.05,0,.09.01.14.02.1,0,.19.01.29.02.1,0,.2,0,.29-.01.05,0,.1,0,.15-.01.05,0,.1-.01.14-.02.05,0,.1-.02.14-.03s.1-.02.14-.03c.04-.01.09-.03.13-.04.04-.01.09-.03.13-.04.04-.02.09-.03.12-.05.04-.02.08-.04.12-.06.04-.02.08-.04.11-.06.03-.02.07-.04.1-.06.03-.02.07-.05.09-.07.03-.02.06-.05.09-.07.03-.02.06-.05.08-.08.02-.03.05-.06.07-.08.02-.03.04-.06.06-.09.02-.03.04-.06.05-.09.02-.03.03-.06.04-.1.01-.03.02-.07.03-.1,0-.03.01-.07.02-.1,0-.03,0-.07,0-.1v-.28Z" fill="#d7e3ff"/>
        <path d="M43.87,43.81c0,.11-.02.22-.07.33-.05.1-.11.2-.18.28-.15.17-.34.3-.55.39-.21.09-.43.14-.65.17-.22.03-.44.04-.67.05-.44,0-.9-.06-1.3-.26-.2-.1-.39-.22-.54-.39-.15-.16-.24-.39-.23-.61h0c0,.22.09.44.24.59.15.16.34.27.54.37.4.19.84.25,1.28.24.22,0,.44-.03.66-.06.22-.03.43-.08.63-.17.2-.08.38-.2.54-.36.08-.08.14-.16.19-.26.05-.1.09-.2.09-.31h0Z" fill="#bbcdff"/>
        <path d="M43.81,43.68c-.05.1-.11.2-.18.28-.15.17-.34.3-.55.39-.21.09-.43.14-.65.17-.22.03-.44.04-.67.05-.44,0-.9-.06-1.3-.26-.2-.1-.18-.13.02-.04.4.19.84.25,1.28.24.22,0,.44-.03.66-.06.22-.03.43-.08.63-.17.2-.08.38-.2.54-.36.08-.08.14-.16.19-.26.05-.1.08-.09.03.02Z" fill="#fff"/>
        <path d="M43.81,47.97c-.05.1-.11.2-.18.28-.15.17-.34.3-.55.39-.21.09-.43.14-.65.17-.22.03-.44.04-.67.05-.44,0-.9-.06-1.3-.26-.2-.1-.18-.13.02-.04.4.19.84.24,1.28.24.22,0,.44-.03.66-.06.22-.03.43-.08.63-.17.2-.08.38-.2.54-.36.08-.08.14-.16.19-.26.05-.1.08-.09.03.02Z" fill="#d7e3ff"/>
      </g>
      <path d="M79.66,16.76L17.64,52.32c-2.56-1.03-5.45-1.4-7.65-.12,15.66-9.05,31.33-18.09,46.99-27.13.49-.29.98-.57,1.47-.85.97-.55,1.92-1.1,2.85-1.64.47-.27.93-.53,1.39-.8,3.22-1.83,6.2-3.54,8.81-5.04,0-.01.03-.02.04-.02.21-.1.42-.19.63-.26.24-.09.51-.17.75-.24.25-.06.52-.12.78-.16.25-.05.52-.08.78-.1.25-.03.53-.04.79-.04s.54,0,.79.02c.26.02.54.05.8.08.26.04.54.09.8.14.25.06.53.13.79.2.25.07.53.16.79.24.13.05.28.1.42.16Z" fill="url(#linear-gradient1)" mix-blend-mode="color-burn" opacity=".6"/>
      <path d="M93.83,43.55s-.02.06-.03.1c-.08.27-.16.51-.26.78-.1.27-.19.5-.31.75-.12.26-.23.48-.36.73-.14.24-.27.45-.42.68-.15.23-.3.43-.47.65-.17.21-.33.4-.51.6-.19.2-.37.38-.57.56-.2.18-.39.34-.61.5-.21.16-.42.3-.65.44-.07.05-.02.02-.09.06v-1.49l-2.64,1.53c-.59,1.6-2.27,2.79-2.27,2.79-3.22,1.86-6.43,3.72-9.65,5.58-12.76,7.36-25.52,14.73-38.28,22.09v-1.49l-2.64,1.53c-.76,1.65-2.19,2.75-2.19,2.75-.35.2-.7.41-1.06.62-.84.48-1.57.9-2.16,1.24.7-.4,1.3-.94,1.82-1.61,1.03-1.36,1.65-2.85,1.88-4.49.04-.26.07-.52.09-.78l60.22-34.52c.38.15.77.29,1.16.4Z" fill="url(#linear-gradient2)" mix-blend-mode="color-burn" opacity=".6"/>
      <g>
        <path d="M94.88,9v14.44c0,.61-.59,1.1-1.18,1.38-.6.28-1.2.35-1.81.35s-1.21-.07-1.81-.35c-.59-.28-1.18-.77-1.18-1.38v-12.32h0c.42-.24.83-.48,1.25-.72.7.29,1.51.35,2.28.28.61-.05,1.2-.18,1.72-.55.38-.27.73-.68.73-1.12Z" fill="#6e8be0"/>
        <path d="M94.88,8.99h0c0,.46-.35.86-.73,1.13-.52.37-1.11.5-1.72.55-.77.07-1.57,0-2.28-.28.2-.11.39-.23.59-.34.42-.24.59-.8.62-1.31.04-.69-.18-1.29-.49-1.88-.39-.74-.91-1.44-1.62-1.85-.11-.07-.23-.12-.35-.17-.25-.1-.5-.13-.77-.1-.13.01-.24.05-.35.11.13-.08.27-.15.4-.21.14-.07.3-.14.44-.19.14-.06.3-.11.45-.15.15-.04.31-.08.46-.11.15-.03.31-.05.46-.07.15-.01.31-.02.47-.02.15,0,.32,0,.47.03.15.02.31.04.46.08.3.07.6.17.88.3.11.05.23.11.34.17.27.16.53.35.76.56.11.11.22.22.32.33.1.12.2.24.29.37.09.13.17.25.25.39.08.14.14.27.2.41s.11.28.17.43c.05.15.09.29.13.44.04.15.06.29.09.45.02.16.04.3.05.46.01.16.02.3.02.47Z" fill="#6e8be0"/>
        <path d="M91.36,8.75c-.03.51-.2,1.07-.62,1.31-.19.11-.39.22-.59.34-.41.24-.83.48-1.25.72-3.31,1.91-6.63,3.83-9.94,5.74.4-.24.56-.79.59-1.29.03-.53-.09-1.01-.29-1.47-.06-.14-.13-.27-.2-.41-.36-.69-.85-1.36-1.51-1.77-.04-.03-.07-.05-.11-.07-.11-.07-.23-.13-.35-.18-.25-.1-.5-.13-.78-.09-.13.01-.25.05-.36.12h0c3.93-2.28,7.87-4.54,11.8-6.82h.02c.11-.07.23-.11.35-.12.27-.04.53,0,.78.1.12.05.24.1.35.17.05.03.11.06.16.1.63.42,1.1,1.07,1.46,1.75.08.15.16.3.22.45.19.45.3.91.27,1.42Z" fill="#6e8be0"/>
        <path d="M79.06,13.69c.31.58.53,1.19.49,1.88-.03.5-.2,1.05-.6,1.29,0,0-.02.01-.03.02,0,0-.02.01-.04.02-.02.02-.05.04-.09.07-.04.03-.08.07-.12.11s-.09.09-.14.14c-.05.05-.09.11-.14.17-.05.06-.09.13-.14.2-.05.07-.09.14-.13.21-.04.08-.08.15-.11.23-.03.07-.07.15-.09.22-.03.07-.05.14-.07.21-.02.07-.03.13-.04.18,0,.05-.02.1-.02.14,0,.04,0,.06,0,.07h0c0,.49-.39.92-.82,1.2-.58.38-1.21.49-1.87.51-.83.03-1.7-.07-2.41-.48-.11-.07-.22-.14-.33-.22-.21-.16-.36-.37-.47-.62-.05-.12-.08-.25-.08-.37h0c0-.33.02-.66.07-.98.05-.32.11-.65.2-.97.09-.32.19-.64.32-.95.12-.31.27-.62.43-.92s.33-.59.52-.87c.19-.28.39-.54.6-.8.21-.25.44-.49.68-.71.24-.22.48-.42.74-.61.19-.14.38-.26.59-.38.11-.07.23-.1.37-.12.27-.03.53,0,.77.1.12.05.24.11.35.17.71.41,1.23,1.11,1.62,1.85Z" fill="#6e8be0"/>
        <path d="M77.79,18.86v2.35c0,.07,0,.14-.02.22-.01.08-.03.13-.06.21-.03.08-.05.13-.09.2-.04.08-.07.12-.13.19-.06.08-.09.11-.16.18-.09.09-.09.09-.19.17-.07.05-.15.1-.22.15-.04.03-.2.1-.25.12-.07.03-.2.08-.27.1-.11.04-.32.09-.44.11-.13.02-.33.05-.47.06-.21.02-.53.01-.74,0-.23-.02-.52-.06-.75-.11-.23-.05-.49-.13-.7-.21-.22-.08-.43-.18-.61-.28-.19-.11-.35-.23-.49-.36-.11-.11-.19-.21-.26-.32-.03-.06-.06-.11-.08-.16-.02-.05-.04-.11-.04-.17,0-.05,0-.09,0-.13v-2.31c0,.13.03.25.08.37.1.25.26.46.47.62.1.08.21.16.33.22.71.41,1.58.51,2.41.48.66-.02,1.29-.14,1.87-.51.43-.28.82-.71.82-1.19Z" fill="#6e8be0"/>
      </g>
      <path d="M72.32,19.86c.11-2.12.76-4.24,2.02-6,.63-.88,1.43-1.64,2.35-2.22.91-.58,1.84-1.06,2.75-1.6,1.84-1.05,3.65-2.14,5.54-3.11.95-.47,1.89-.96,2.84-1.42.47-.22.95-.49,1.5-.62.53-.13,1.1-.16,1.62-.04v.07c-1.09-.03-1.98.46-2.87,1.05-.9.56-1.82,1.08-2.73,1.62-1.83,1.06-3.73,2-5.6,2.98-.93.5-1.9.97-2.79,1.49-.88.52-1.67,1.21-2.31,2.03-1.29,1.63-2.04,3.69-2.24,5.78h-.07Z" fill="url(#linear-gradient3)" mix-blend-mode="screen"/>
      <path d="M98.83,25.75v23.65c-.57.92-1.56,1.48-2.56,1.87-.46.18-.92.33-1.39.45v-23.67c.33-.07.66-.15.99-.25.64-.19,1.3-.42,1.87-.83.44-.33.84-.73,1.09-1.22Z" fill="url(#linear-gradient4)" mix-blend-mode="screen" opacity=".5"/>
      <path d="M40.46,68.04v-11.87l15.85-9.15v6.69l-15.85,14.34Z" fill="url(#linear-gradient5)" mix-blend-mode="screen" opacity=".5"/>
      <g>
        <path d="M56.19,49.87h0s0,.05,0,.07c0,.02,0,.04,0,.06,0,.02,0,.04,0,.06,0,.02,0,.04-.01.06s0,.04-.01.06c0,.02-.01.04-.02.06,0,.02-.01.04-.02.06,0,.02-.02.04-.02.06,0,.02-.02.04-.03.06,0,.02-.02.04-.03.06-.02.04-.04.08-.06.11-.02.04-.05.07-.07.11-.01.02-.03.03-.04.05-.01.02-.03.03-.04.05-.01.02-.03.03-.04.05-.02.02-.03.03-.04.04-.02.01-.03.03-.05.04-.02.01-.03.03-.05.04-.02.01-.03.02-.05.04-.02.01-.03.02-.05.03-.02.01-.03.02-.05.03-.02,0-.03.02-.05.03-.02,0-.04.02-.05.02-.02,0-.04.01-.05.02-.02,0-.04.01-.06.01-.02,0-.04,0-.06.01-.02,0-.04,0-.06,0-.02,0-.04,0-.06,0-.02,0-.04,0-.06,0-.02,0-.04,0-.06,0-.02,0-.04,0-.06-.01-.02,0-.04-.01-.05-.02-.02,0-.03-.01-.05-.02,0,0-.02,0-.02-.01-.17-.1-.34-.2-.52-.3-.17-.1-.22-.33-.22-.54,0-.02,0-.05,0-.07.02-.24.11-.43.21-.62.11-.19.23-.36.43-.49.02-.01.04-.03.06-.04.18-.11.41-.18.58-.08.17.1.34.2.52.3.02,0,.03.02.05.03.02.01.03.02.04.03.01.01.03.03.04.04.01.01.03.03.04.04.01.01.02.03.03.05.01.02.02.03.03.05,0,.02.02.03.02.05,0,.02.01.04.02.05,0,.02.01.04.02.05,0,.02,0,.04.01.05,0,.02,0,.04,0,.06,0,.02,0,.04,0,.06,0,.02,0,.04,0,.06ZM56.09,50.03c0-.07,0-.15-.05-.21-.04-.06-.1-.12-.17-.14-.07-.02-.15,0-.22.03-.09.04-.17.1-.24.17-.09.09-.16.19-.21.3-.05.11-.09.23-.11.35-.01.1,0,.2.04.29.04.06.1.12.17.14.07.02.15,0,.22-.03.09-.04.17-.1.24-.17.09-.09.16-.19.21-.3.05-.11.09-.23.11-.35,0-.02,0-.05,0-.08Z" fill="#bbcdff"/>
        <path d="M56.04,49.82c.04.06.05.14.05.21,0,.03,0,.05,0,.08-.01.12-.05.24-.11.35-.05.11-.13.21-.21.3-.07.07-.15.13-.24.17-.07.03-.15.05-.22.03-.07-.02-.13-.07-.17-.14-.05-.09-.05-.19-.04-.29.01-.12.05-.24.11-.35.05-.11.13-.21.21-.3.07-.07.15-.13.24-.17.07-.03.15-.05.22-.03.07.02.13.07.17.14Z" fill="#00b088"/>
        <path d="M54.78,49.04h0s-.04.03-.06.04c-.19.13-.32.31-.43.49-.11.19-.19.38-.21.62,0,.02,0,.04,0,.07h0c-.09-.05-.19-.11-.28-.16-.12-.07-.15-.25-.14-.4.01-.16.07-.29.14-.41.07-.12.16-.24.28-.33.13-.09.3-.15.42-.08l.28.16Z" fill="#6e8be0"/>
      </g>
      <polygon points="54.99 51.64 54.99 59.18 41.78 66.8 41.78 59.26 54.99 51.64" fill="#222c6b"/>
      <path d="M43.67,55.84c.07.13.09.27.09.42,0,.05,0,.1,0,.15-.03.25-.1.48-.21.7-.11.22-.25.42-.43.6-.14.14-.29.26-.47.34-.14.06-.29.09-.43.06-.14-.04-.27-.14-.34-.27-.1-.17-.1-.38-.08-.57.03-.25.1-.48.21-.7.11-.22.25-.42.42-.6.14-.14.29-.26.47-.34.14-.06.29-.09.43-.06.14.03.27.14.34.27Z" fill="#222c6b"/>
      <path d="M43.35,40.58l-2.02,2.34s-.09-.1-.12-.15c-.08-.14-.11-.32-.1-.49,0-.06,0-.12,0-.17.03-.29.12-.56.24-.81.13-.25.3-.49.5-.69.16-.16.33-.3.55-.39.16-.07.33-.11.5-.07.16.04.3.17.39.31.02.04.04.08.05.12Z" fill="url(#linear-gradient6)" mix-blend-mode="screen"/>
    </g>
  </g>
</svg>