<?xml version="1.0" encoding="UTF-8"?>
<svg id="Layer_1" xmlns="http://www.w3.org/2000/svg" version="1.1" viewBox="0 0 1642.3 2460.1">
  <!-- Generator: Adobe Illustrator 29.2.1, SVG Export Plug-In . SVG Version: 2.1.0 Build 116)  -->
  <defs>
    <style>
      .st0 {
        fill: #0c5880;
      }
    </style>
  </defs>
  <path class="st0" d="M485.8,570.6c-3.1-74-.8-148.7-.7-222.7,0-36.6-4.7-87.2,1.9-121.7,3.8-19.7,12.5-36.6,26.3-51.3,71-75.9,229.2-91.4,326.8-95.4,6-.4,12-.4,18-.4,106-.8,267.2,17,345.9,95.6,14.5,14.5,26.8,32.3,31.6,52.5,6.9,29.1,1.8,111.3,1.1,145.3-1.5,65.5-2.4,131.1-2.5,196.7,106.5,43.7,208,105.4,277.1,199.5,34.1,46.4,57.8,104.9,63.9,162.2,2.4,23,2.4,47.6-3.1,70.1-3.1,12.7-8.3,26.2-9.4,39.2-4.2,48.2-2.5,98.3-3.4,146.7-1.2,71.6-.7,143.3-1.4,214.9-.6,64.5-2.7,129.5-1.2,194.1.6,24.2,12.8,47.8,14.3,72.6,1.7,28.7,2.2,58.3-1.5,86.9-2.6,20.3-7.8,40.3-9.1,60.8-2.5,37.4,2.1,75-3.7,112.3-15.4,99.2-92.5,175.1-169.6,231.8-10.9,33.4-29,61.2-53,86.6-109.3,115.5-294.1,151.4-446.8,155.5-128.4,1.3-258.4-13.5-375.8-68.8-75.7-35.6-155.9-96.4-185.3-177.9-61.2-39.7-119.5-96.3-147.9-164.6-29.4-70.5-16.1-136.7-19.6-210.3-1-20.8-9-40.2-9.3-61.7-.4-21.6-.9-45.5,1.5-66.9,1.9-17,6.8-33.4,6.9-50.6.8-126,.8-252,.2-378-.3-59,.6-118.1-.6-177-.7-34.7-19-65-18.4-100.1.4-28.5,5.3-59,16.3-85.4,9-21.5,22-41.5,34.4-61.2,71.9-114.5,172.9-178.8,296.3-229ZM519.5,272.3l.8,1c4.6,10.7,12.5,20.3,20.6,28.5,25.5,25.9,54.4,38.7,90.6,38.9-9.7-6-23.2-8.2-33.8-13-28.4-12.9-54.4-33.7-77.3-54.5l-.8-1ZM481.9,619.1c-14.9,6-29.8,18.1-43.2,27.2-59.8,40.3-128,91.6-157.2,160-9,21.1-15.2,47.2-6,69.3,13,31.4,64.3,53.1,94.2,65.1,217.8,87,548.9,71,764.2-22,64-27.6,125.2-64,167.6-120.7,17-28.1,26.7-55.8,18.5-88.9-9.8-39.6-46.9-86-82.1-106.6-3-1.7-6-3.4-9.1-5l-1.2-.6c27.8,30.7,61.9,53.5,59.7,100.2-1.6,34.4-22.4,63.7-47.3,85.8-105.2,93.4-306.2,118.3-441.1,109.7-109-6.9-255-34.5-331.2-120.7-18.9-21.4-31.9-48.1-30-77.2,2.4-37,23.8-49.3,44.3-75.6l1.1-.7-1.1.7ZM1532.7,1059.7c-54.8,98.5-211.6,164.1-314.7,193.6-32.8,9.5-65.9,17.6-99.4,24.4-33.4,6.8-67.1,12.3-101,16.4-213.8,24.7-484-1-674.1-106.6-65.3-36.3-105.4-76.6-157-129,2.6,7.5,5,15.2,8.6,22.3,49.6,98.8,172.8,156.9,272.6,190,260.3,86.4,638.1,85.3,885.4-39.1,59.6-30,157.2-95.8,179.1-162.7,1.1-3.3,1.6-5.7.5-9.1l1.4-3.4-1.4,3.4ZM190.2,1112.3l.9,1c.6,2.2,1.1,4.1,1.9,6.2,38.7,95.3,153.7,159.1,244.2,194.4,247.1,96.2,560.9,96.6,812.8,16.3,51.3-16.3,97.1-39.3,146-60.9-.7,72.7,1.4,145.4,2.3,218.1l2.5,340.2c-25.4,15.6-50.8,31.2-77.6,44.2-232.3,112.5-601.2,116.1-843.1,32.4-100.8-34.9-209.9-86.2-273.3-176-14.3-20.3-24.5-42.3-35.3-64.5,2.6,16.4,5.5,32.3,11.2,48,31.2,85.2,131.7,152.1,210.2,188.8,38.4,16.1,77.2,31.8,117.2,43.6,250.9,74.2,616.8,65.8,848.9-61,63.8-34.9,115.1-75.2,152.7-138.5,11.1-18.6,21.2-38.5,27.2-59.4,4.1-14.4,6.7-27.7-.9-41.2.9,4.2,1.9,8.3.7,12.6-7,26.9-35,82.7-58.8,96.9.2-.3.4-.7.6-1,2.6-4.7,2.6-9.1,2.7-14.3.7-48.7-1-97.7-1.4-146.5l-2.6-276.6c-.5-25.7,2.3-96.3-2.8-116.1,11.3-7,23.1-23.7,31.3-34.4,9.7-12.8,25-31.8,22.7-48.4,0,.4,0,.8,0,1.2-1.9,18.7-38.9,53-54,65.5-187.9,154.8-502.9,195.8-738.7,173.4-164.5-15.7-361.8-64.6-488.2-176.9-22.6-20.1-38.7-42.6-57.7-65.4l-.9-1-.9-1ZM175.7,1742.2l1.1.8c.1,2.7.3,5.4.7,8,7.4,55.7,66.1,111.5,109.1,143.7,202.1,151.4,538.1,173.6,782.1,138.1,140.5-20.5,349-85.4,436.9-203.9,9.9-13.4,29.6-41.4,27.2-57.9.3-.3.5-.5.7-.8,6.8-7.1,5.8-15.2,5.5-24.3,0,.4,0,.8,0,1.1-1,6.2-6,13.9-9,19.4-26,48-71.5,88-116.7,117.4-222.3,144.7-564.9,163.6-819.4,109.5-135.2-28.8-279.1-83.4-373-189.4-16.9-19.1-30.4-39.7-44.2-61l-1.1-.8ZM188.2,1820.1l.7,1.2c16.1,65.9,105.2,134,160.3,167.4,166,100.7,414.1,129.4,606.4,115.7,38.3-2.9,76.4-7.4,114.3-13.5,37.9-6.1,75.5-13.9,112.8-23.3,80.5-19.9,151.4-50.4,221-94.8,3.2,59.5-5.5,107.9-46.6,153.8-9.8,10.9-21.1,20.6-30.7,31.5l-2,1.4,2-1.4c1.4-.5,2.7-1.1,4.1-1.8,13.2-6.4,26.4-16.5,38.4-24.9,46.1-32.5,95.6-73.4,114.6-128.5,6.1-17.6,10.8-75.4,2.3-92.6,18.7-13.6,37.4-44.6,47.9-65.2,5.8-11.4,10.6-19.8,6.4-32.6,0,2.7.2,5.5-.3,8.1-5.4,26.5-69.3,83.6-91,100.2-35.5,27.1-76.1,48.5-116.6,66.9-193.8,87.7-428.9,108.1-638.6,80.2-157.2-20.9-335-72-452.1-184.3-19.8-19-35.9-40.4-52.5-62.2l-.7-1.2ZM441.6,2218.3l2,1c13.2,9.9,29.7,17.2,44.4,24.7,141.5,71.9,356.3,87.3,512.6,64.7,77-11.1,146.7-31.3,218.6-60.7,16.4-6.7,39.6-15.1,52.9-26.9l1.9-1-1.9,1c-15,3.8-30,10.4-44.8,15.4-31.1,10.4-62.7,20.2-94.7,27.6-11.8,2.6-23.6,5.1-35.5,7.4-11.9,2.3-23.8,4.4-35.7,6.4-11.9,2-23.9,3.7-35.9,5.3-12,1.6-24,3-36,4.3-12,1.2-24.1,2.3-36.1,3.2-12.1.9-24.1,1.6-36.2,2.1-12.1.5-24.2.9-36.2,1.1-12.1.2-24.2.2-36.3,0-12.1-.2-24.2-.5-36.2-1-12.1-.5-24.1-1.2-36.2-2.1-12.1-.9-24.1-1.9-36.1-3.2-12-1.2-24-2.6-36-4.2-12-1.6-23.9-3.4-35.9-5.3-11.9-1.9-23.8-4.1-35.7-6.3-11.9-2.3-23.7-4.8-35.5-7.4-11.8-2.6-23.5-5.4-35.3-8.4-38.9-10-76.3-23.9-114.4-36.6l-2-1ZM811.5,162.6c-69.9,4.4-138.4,15.1-201,48.2-10.7,5.7-23.4,11.7-31.6,20.8-4.1,4.6-6.7,9.3-6.3,15.7.7,10.7,13.2,23.3,21.1,29.8,11.7,9.6,24.5,15.2,38.8,19.6,104.3-39.3,165.5-48.1,278-42.3,65.5,6.3,111.6,14.3,172.5,40.8,24.5-10.7,48.3-22.1,66.2-42.7-44.3-58.4-116.3-74.9-185.4-84.3-48.8-6.7-103.2-10.5-152.3-5.5ZM1207.1,219c-6.3,36.9-24.5,67.6-55.4,89.4-6.6,4.7-54.6,27.5-55.6,30.6l1,.7c37.5-5.1,74.7-20.1,98.5-51,14-18.2,17.8-37.2,14.7-59.7-.5-3.6-1.4-6.7-3.2-10ZM1208.4,304.6c-33.1,42.2-86.8,49.2-124.5,84.8-7.4,7-13.4,15-15.3,25.2-4.7,25.5-1.4,64.8-1.7,91.7l-1.6,243.9c5.6,6.8,11.1,12.6,18,18.1,13.5,7.5,24.9,11.1,40.3,6.9,28.1-7.6,60.6-29.5,75-55.3,3.7-6.7,5.2-13.5,5.8-21.1,1.1-13.6,0-27.4.5-41.1.7-14.3,2.5-28.5,3-42.9,2-65.6.4-131.3,1.2-196.9.3-20.8,4.4-97.7,1-110.3-.3-1.1-.8-2.2-1.6-3ZM506.8,316.4c-.5,35.8,1,333,5,343.1,3.8,3.3,4.8,4.1,9.6,5.2,4-3.2,4.5-4.7,5.4-9.8,2.2-13.4-.4-29.8-.5-43.5-.5-49.2-.6-98.4-.5-147.7,0-24.6-1.9-51.7,1.7-76,1.3-8.6,3.7-20,10.6-25.8,5.1-4.3,11.5-6.8,18.2-6.3,8.7.7,18.8,5.8,26.9,9.1,21.4,8,38.7,15.5,48.8,37.7,3.6,8,5.5,16.8,6.4,25.5,1.8,18.3.2,37.6.1,56.1l.2,102c0,9-2.1,26.3.8,34.4,2.8-4.1,1.7-10.8,2.4-15.8,2-14.6,0-31.4,0-46.2.2-41.1,4.6-98.4-1.5-137.2-2-12.6-6.4-25.5-14.4-35.7-4.3-5.5-9.8-9.9-15.8-13.7-14.5-9.1-30.9-15.2-46-23.2-18.3-9.7-36.7-28.8-57.5-32ZM819.1,334.6c-38,3-104.8,5.8-131.6,36.4-1.3,1.4-2.4,2.9-3.5,4.5-.5,42.8-1.7,85.7-1.7,128.5,12.8-.9,25.6-1.8,38.4-2.5,15.7-31.6,42.8-49.1,75.8-60.1,15-5,30.6-7.5,45.7-11.9,11.3-3.3,22.4-10.2,34.1-11.3,9-.9,18.8,1.6,27.2,4.7,8.1,4.5,15,12,22.9,15.8,38.8,18.9,54,15.8,78.7,57.4,12.4,1.9,24.8,3.7,37.2,5.9,0-22.7,6.8-128.2-2.8-138.1-23-24-145.1-30.7-179.9-30.5-13.3,0-27.3-.4-40.5,1.3ZM873.6,438.9c-5.5,4-11.1,7.9-12,15.2-.5,3.8.8,7.9,3.2,10.9,4.8,6,13.4,9.8,21,10.3,3.5.2,7.4-.3,10.9-.7,5.6-3.3,11.7-6.4,13.5-13.2,1-3.6.2-7.5-1.9-10.6-4.3-6.3-13.5-11-20.9-12.2-4.5-.7-9.2,0-13.7.4ZM948.1,472.1c3.9,10.9,7.2,19.8,2,31-6.1,13.2-18.4,20.9-31.7,25.5-33.7,11.5-86.4,9.5-118.1-6.5-11.4-5.7-22.1-14.9-26.2-27.3-2.1-6.5,0-13.7.8-20.2-12.6,8.6-30.9,19-34.1,35.3-2.2,11,3,19.7,9,28.2,31.5,30.3,77.6,37.4,119.9,36.4,33-.7,82.3-8.5,105.7-33,6.4-6.7,10.3-15.1,10.3-24.5,0-11.9-5.8-23.1-14.5-31.1-6.8-6.2-14.7-10.1-23-13.8ZM1002,543.1c-8,11.4-18.4,20.8-28.3,30.5-.1,30.8-.4,61.6-1,92.4,4.1-.8,5.8-2.9,8.2-6.3,6-8.5,3.5-17.5,1.6-26.8,9.7,6.3,19.6,11.3,22.6,23.4,1.5,5.9.2,11.5-3.1,16.5-16,24.6-62.5,37.1-90.5,42.1-53.6,9.5-129,3.8-174.7-28.3-7-4.9-15-11.9-16.7-20.8-1.2-6,.9-11.4,4.4-16.2,6.4-9.1,15.6-13.7,25.4-18.1-3.6,9-11,22.2-6.5,31.6,2.8,5.9,9.9,9.2,15.4,12.3-2.5-18.6,1-88.2-6-98.5l-6.3-4.2c-9.4-7.8-17-16.3-24.9-25.5l-37.7,3.5c0,44.8.3,89.6.8,134.3,51.9,46.9,133.5,59.7,201,56.1,46.7-2.4,112.8-14.8,145.2-51.1,4-4.4,7.1-9.5,10.2-14.6-.1-42,.1-83.9.9-125.9-13.3-2.2-26.6-4.9-40-6.4ZM778.3,588.7c0,16-4.1,79.6,5.4,90.6,11.1,12.8,71.3,17.1,88.5,16.5,18.8-.7,58.7-2,72-16.2,7.5-8.1,4.9-73.4,4.8-88.2l-2.2-1.1c-9.2,16.9-4.7,66.2-6.2,87.7-31.2,13.5-81.6,20.9-114,7.6-9-3.7-14.8-9.4-18.4-18.5-7.8-20-6.6-47.1-7.9-68.4l-22.1-10ZM503.8,693.2c9.9,31.9,37.2,56.7,66.1,72.1,14.5,7.8,36,16.3,52.5,11.2,6.5-2,13.8-6.6,17.1-12.7.9-1.6,1.3-3.2,1.8-4.9l-.4-10.2-1.7-1c0-2.5-.2-1.4.8-3.6l-.9-.2c-6.9,9.1-13.4,17.2-25.6,19-21.2,3.1-41.8-16.2-56.9-28.4-14.7-11.9-36.3-34.2-52.8-41.3ZM1326.3,819c-7.7,10.8-13,19.8-10.7,33.7,4.8,29.2,34.8,55.3,51.3,78.7,5,7,9.5,14.4,13.4,22,4,7.6,7.4,15.5,10.3,23.6,15.9,45.1,6.2,89,13.6,134.5-33.3,27.6-73.7,43.8-113.7,59.2-174.1,67-369.2,84.9-554,67.4-160.8-15.2-397.8-67.7-504.2-196.4-45.1-54.5-50.7-97.9-54.3-165.6-15,50.7-18.6,95.3,7.7,143.4,16.8,30.7,41.9,57.3,68.5,79.9,195.7,158.9,522.7,187.2,765.3,161.9,161.4-16.8,380.1-72.3,486.9-203.7,32-39.5,52.4-91.8,47.1-143.1-.8-7.7-1.6-14.1-5-21.1-.3-.7-.6-1.3-.9-2-.2-.4-.4-.8-.6-1.2,6.5,15-3.4,54.4-9.6,70.6-7.2,18.8-31.1,71.1-49.4,79.5l-3.3-.7c-5.7-13.9-2.7-44.4-3.7-60.9-4.2-68.3-55.7-126.7-117.7-152.3-12.1-5-24-8.3-37.2-7.5ZM1276.3,2219.2h2.2-2.2Z"/>
  <path class="st0" d="M1124.5,760.2c-8.3,3.5-15.8,5.5-24.9,3.4-6.8-1.6-12.6-5.6-15.9-11.8-5-9.4-1.8-272.4.6-310.3.6-9.5,1.3-21.9,5.1-30.7,10.9-25.8,39.9-40.3,64.5-49.7.5,0,.9-.1,1.4-.2,8.1-.9,18.1-.3,24.4,5.4,4.2,3.8,4.9,9.4,5.4,14.8,2.7,27.5.6,57.1.4,84.8-.5,60.8-2.1,121.6-1.4,182.3,4.7,4.1,9.3,8.2,13.9,12.4-.7,3.6-1.5,7.2-2.5,10.7-11.2,41.8-34.3,67.4-71.1,88.8Z"/>
</svg>