<?xml version="1.0" encoding="UTF-8"?>
<svg id="Layer_1" xmlns="http://www.w3.org/2000/svg" version="1.1" viewBox="0 0 247 207">
  <!-- Generator: Adobe Illustrator 29.2.1, SVG Export Plug-In . SVG Version: 2.1.0 Build 116)  -->
  <defs>
    <style>
      .st0 {
        fill: #0c5880;
      }
    </style>
  </defs>
  <path class="st0" d="M50.9,21.9c-2.1,1.6-2.2,2.2-1.1,4.5.6,1.4,1.7,2.6,2.4,2.6,1,0,.9-.3-.1-.9-1.1-.7-.8-.9,1-.9,4.4-.1,8.8-1.4,9.3-2.8s-4.5-4.4-7.4-4.4-2.8.8-4.1,1.9Z"/>
  <path class="st0" d="M63,21.5c.7.8.9,2.2.6,3.1s-.2,1.5.9,1c.8-.3,1.5-.2,1.5.3s-2,1.4-4.5,2c-5.2,1.3-6.1,2.5-1.1,1.6,2.6-.5,3.5-.3,4,1.1,1,2.5-.6,3.6-6.2,4.2-4.5.4-5,.2-7.5-2.7-2.4-2.9-2.6-2.9-3.2-1.1-.8,2.7,0,3.8,4.2,5.5,4.6,1.9,9.3,1.9,14.2-.1,3-1.2,4.4-1.3,6-.4,3.1,1.6,3.8-1.2,1.2-4.6-1.5-1.8-2.1-2.2-2.1-1.1,0,2.2-2,3.2-3.1,1.6-.5-.8-.9-3.1-.9-5.1s-.7-4.4-1.6-5.2c-2-2.1-4.1-2.1-2.4-.1Z"/>
  <path class="st0" d="M69.6,20.9c-.5.7.2,1.1,1.6,1.2,1.3.1,5.5.3,9.3.5,3.9.1,8.7.5,10.8.9,2,.3,3.7.1,3.7-.3,0-1.5,5.8-.1,6.5,1.6.3.8,0,9.2-.7,18.6-1.5,20.1-1.6,30.6-.4,47.4l.8,12.3-6.8-.5c-12-1-50.7-1.5-55.8-.8l-4.8.7,2.6,2.8c1.4,1.5,2.6,3.2,2.6,3.6s.6,1.1,1.4,1.4c1.3.5,1.3.1,0-2.8-.8-1.9-1.4-3.6-1.4-3.9s3.5-.2,7.8,0c4.2.2,17,.5,28.4.7,23,.4,25.2.9,22.3,5.4-.9,1.4-1.8,3.3-2,4.3-.3,1.7-.1,1.8,1.6.7,1-.6,1.9-1.5,1.9-2s.6-.5,1.3-.1c.9.6.9.5,0-.7-1-1.2-.8-2.2,1-4.9s2.7-4.1,3.2-5.1c.6-.9,1.7-2.4,2.4-3.3.9-1.1,1-1.6.2-1.6s-1.1.5-1.1,1.2-.3.9-1.1.1-.8-3.5-.1-8.8c.8-6.9.7-8-.9-9.6-2.3-2.3-2.4-3.3-1.4-9.3.5-3.3,1-4.4,1.6-3.5.7,1.2,1.1,1.1,1.9-.1s1.5-8,1.2-11.1c-.1-.3-.2-3-.3-6s-.7-5.7-1.3-6.1-1.2-5.5-1.4-11.8l-.4-11h-13.2c-7.2,0-14.7-.3-16.7-.6-2.2-.4-3.9-.2-4.3.5ZM105.5,54.5c-.5,4.7-.9,5.4-2.1,4.4-2-1.7-1.8-7.9.3-9.5,1-.7,2-1.1,2.2-.9s0,2.9-.4,6Z"/>
  <path class="st0" d="M186,32.6c-9.6,1.5-16.5,5.5-19.8,11.3-2.2,3.8-4.6,16.5-3,15.5,1.4-.9.9,3.6-.8,6.1-2.2,3.4-1.3,5.6,1.1,2.7,2.5-2.9,3.3-2.8,7.8.9s5.1,1.7.8-2.9c-3.7-3.8-7.1-10.4-7-13.4,0-1.4.3-1.7.6-.8,1,3,2.8,6.6,4.7,9,2.1,2.9,2,2.3-1.3-4.1-1.8-3.6-2.2-5.5-1.7-8.2.7-3.9,4.5-9.1,8-10.8,1.5-.8,1.1-.1-1.2,2.4-4,4.1-5.8,10.6-4.1,14,6.8,12.7,27.8,22.3,43.7,20.1l5.7-.8-6.8-.8c-21.6-2.6-35-9.2-39.2-19.3-2.2-5.1-1.9-6.9,2.1-10.9s7.6-5.2,17.9-6.2c6.9-.6,9.8-.1,23.7,3.8,6.1,1.8,12.2,6.2,15.4,11.3,2.3,3.6,2.5,3.7,2.1,1.3-.6-3.7.9-2.6,2.3,1.6,1.2,3.8.9,9.8-.7,11.8-.6.7-1.4,2.3-1.7,3.5-1,3.2-8.5,7.3-17.2,9.3-4,1-7.6,1.5-7.9,1.2-.8-.8-7.5-.8-7.5,0s5.4,1.2,12,.8c4.5-.2,13.3-2.7,18.6-5.3,7-3.3,9.9-12.6,6.9-21.6-1.4-4.3-2.7-6-8.6-10.5-9.6-7.5-21.8-11.7-33.9-11.5-4.7.1-9.6.3-11,.5Z"/>
  <path class="st0" d="M124.7,33.7c-.9,1.8.6,9.3,1.9,9.3s1.4,1,1.4,2.5c0,2.3-.3,2.5-4.7,2.4-2.7-.1-3.8-.4-2.6-.6,2.4-.5,5.3-3.3,3.4-3.3s-1.1-1.9-1.1-4.6-.4-4.3-1-3.9c-.5.3-1,2.3-1,4.4s-.6,4.4-1.4,5c-2.5,2.1-3.5,12.4-2.4,25.1.3,3.1,0,3.5-2.7,4.2l-3,.7,3-.2c4.2-.3,6-4.3,5.7-13-.1-6.8.3-7.7,2.8-5.5.8.7.6.3-.5-1-1.6-2-1.7-2.2-.2-1.6,1,.3,2.3.1,3-.4,2.7-2.3,3.9.4,4.4,9.4.2,4.9.6,9.5.9,10.3.7,2,1.9.4,2-2.7.1-1.5.2-3.8.3-5.2.2-2.3.3-2.4,1.1-.5.7,1.7.9,1.6.9-1,.1-1.7-.3-4.5-.8-6.2-.6-2-.6-3.5,0-3.8,1.6-1,1-5.1-1.1-7-2.4-2.2-2.6-1.3-.4,2,1.1,1.7,1.2,2.5.5,2.5s-.9.4-.6,1c.3.5.2,1-.4,1s-1.3-.5-1.6-1c-.3-.6-.1-1,.5-1s.5-.9-.4-2.3c-1-1.6-1.2-3.5-.7-6.9.6-3.8.5-5.1-.8-6.1-2.5-2.2-3.9-2.8-4.4-2ZM128.1,50c.5,0,.9.3.9.7s-2.3.9-5.1,1c-2.8,0-4.7-.3-4.3-.7,1.2-1.1,4.6-1.8,6.2-1.4s1.8.4,2.3.4Z"/>
  <path class="st0" d="M38.6,42.2c-2.8,2.3-2.9,6.2-.1,5.2.7-.3,1.6-.1,2,.5.4.8,1.5.6,3.5-.4s3.8-1.5,5-1.5c3.4,0,8,2.9,8,5s.5,2.2,1.1,2.5c1.3.9-3,3.2-7.4,4-1.8.4-4.5.1-6.1-.5-2.5-.9-2.7-.9-1.7.4,2,2.4,6.7,2.9,10.3,1.2,2-1,3.5-1.3,4.1-.7,1.8,1.8-.2,4-4.4,5.1-3.6,1-4.9.9-7.7-.4-1.9-.9-3.6-2.6-3.9-3.6-.3-1.1-.9-2-1.4-2-1.5,0-1,5.7.6,7,.8.7,1.5.9,1.5.5s1.1,0,2.5.9c3.3,2.2,9,2,14.4-.4,3.7-1.7,4.1-2.2,3.1-3.5-.7-.9-1.4-3.9-1.7-6.7-.4-5.8-1.3-7.3-4.8-8.2-1.4-.4-2.5-1.3-2.5-2.1,0-1.8-2.7-3.3-7.7-4.1-3.3-.5-4.4-.2-6.7,1.8Z"/>
  <path class="st0" d="M46.5,49c-.3.5-.1,1,.5,1s.8.5.4,1.1c-.5.8-.8.8-1.3,0-.7-1.1-4.5-1-5.7.1-.3.4-.1,1.5.5,2.5s1.1,1.3,1.1.6.8-.8,2.8.3c3.7,1.9,5.9,1.9,4.2-.1-1-1.2-.9-1.6.4-2.1.9-.3,2.2-.4,2.9-.1.8.3,2,.1,2.7-.3,1.1-.7,1.1-1.1.1-2.4-1.5-1.8-7.6-2.2-8.6-.6Z"/>
  <path class="st0" d="M64.4,59.5c-.5,1.3-.9,1.4-1.5.3-.6-.9-.9-1-.9-.1s5.8,4.9,6.1,4.1c.4-1.4.5-4.7.1-4.3s-1.1,0-1.8-.6c-1.1-.9-1.5-.7-2,.6Z"/>
  <path class="st0" d="M159.6,63.2c-1.7,2.4-2.1,5.8-.8,5.8s1.3-1.8,1.9-4c1.2-4.6,1-4.9-1.1-1.8Z"/>
  <path class="st0" d="M106.6,69.4c-.9,4.3-.7,11.6.2,11.6s1.3-1.6,1.9-3.5c.6-2,.7-3.5.2-3.5s-.9-.5-.9-1.1,1.1-.8,3.1-.4c3,.7,3,.6,2.7-2.7-.3-3-.6-3.3-3.5-3.3s-3.2.4-3.7,2.9Z"/>
  <path class="st0" d="M137,69.8c0,2.8.1,2.9,5.9,2.9,3.2.1,6.8.4,8,.8,1.6.5,2.1.2,2.2-1.2,0-1.1.3-1.3.6-.5.7,1.8,3.3-.4,3.3-2.9s-.9-1.9-10-1.9h-10v2.8Z"/>
  <path class="st0" d="M12.9,82.5l5.4,13-.2,12.2c-.3,16.2,1.4,26.9,4.6,29s3.8,1.2,1.2-2c-2-2.6-3-5.7-3.4-10.7-.1-1.4-.5-3.7-1-5.3-.4-1.5-.3-3.3.2-4,.5-.6.9-3,.8-5.2-.2-2.2.3-4.6.9-5.4.8-1.1.8-1.3-.1-.7-.8.4-1.3.1-1.3-.8s.5-1.6,1-1.6c1.7,0,1.1-2.9-2-8.8-1.6-3.2-3.4-7.8-3.9-10.2-.5-2.5-1.2-5.5-1.6-6.6-.8-2.6,2.1-3.7,6.5-2.4,1.7.5,3,.6,3,.2s6-.7,13.3-.8c7.2,0,14.6-.1,16.2-.3,1.7-.1,10.7,0,20,.3,16.1.4,26-.3,22.5-1.7-.8-.4-20.9-.8-44.5-.9l-43.1-.3,5.5,13Z"/>
  <path class="st0" d="M156.8,72.5c-.4.4-.4,1.3-.1,2.1s-.1,2.1-.8,3-1.5,2.6-1.6,3.7c-.2,1.2-1.4,3-2.6,4l-2.2,1.8,2.3-.6c2.1-.6,2.2-.3,2.2,4.2s.3,10,.7,16.4c.6,11.3-.9,35-2.7,41.6-.5,1.8-.5,3.3,0,3.3s1.3-3.9,2-8.8c.6-4.8,1.5-10.8,1.9-13.4.8-4.8.7-17.7-.4-35.1-.4-6-.2-9.7.4-9.7s.6-1.1.1-2.9c-.6-2.1-.4-3.3.7-4.4s1.3-2.4,1.1-3.7c-.1-1.2-.6-1.9-1-1.5Z"/>
  <path class="st0" d="M180,73.6c0,1.3,11.3,5.4,16.2,5.8l5.3.6-7-1.9c-3.8-1-8.3-2.6-10-3.5-3.1-1.7-4.5-2-4.5-1Z"/>
  <path class="st0" d="M234.1,81.7c-1.5,4.4-4,7.5-5.2,6.7-.5-.3-.6.1-.3.9.5,1.5-10,7.7-13,7.7s-1.6.4-1.6.9,1,.7,2.3.4c1.9-.4,2-.3.4.7-.9.6-3.6,1.5-6,2-3.8.8-3.7.9,1.6.4,6.6-.6,7.1.4,2.2,4.5-1.6,1.4-5.7,5.2-8.9,8.3-4.8,4.7-6.6,5.8-9.5,5.9-2.9.2-3.1.3-.9.6,3.4.5,4.6,3.3,1.5,3.4-2.1,0-2.1.1-.2.8,1.8.7,1.6.9-1,1.3-1.7.3-3.9.9-5,1.3-1.8.8-1.9.7-.5-1s1.4-1.7-.5-.8c-1.1.6-3.3.9-4.8.6s-2.7-.1-2.7,1.1-.6,1.6-1.2,1.6c-3.3,0-9,2.3-9.5,3.8-.4.9-1.3,2.3-2,3.1-1.4,1.4-1.2,7.1.7,19.1.5,3,1.4,10.4,2,16.5.7,6,1.3,12.6,1.6,14.5.2,1.9.5,4.4.7,5.5.2,2-.3,2-45.8,1.8-25.9-.1-44.9.2-43.5.7,1.8.6,0,.8-6,.9-5.8,0-8-.2-7-.9,1.1-.7.5-1-2.5-1.1-6.2-.1-13.7-.8-15-1.3-.6-.2-.9-2.1-.7-4.5.3-3.4.7-4,1.8-3,.8.7,1.4.7,1.4.2,0-1.8,9.2-8.3,11.7-8.3s3-1.8-.2-2.6c-1.4-.3-2.2-1.1-1.8-1.7.3-.6.1-.7-.5-.3s-.8,1.4-.5,2.3c.5,1.3.2,1.5-1.7,1-1.7-.4-3.4.1-5.6,1.8-1.8,1.4-3.5,2.5-3.7,2.5-.3,0,.1-1.9.8-4.2,1.2-4.2,1.5-6,3.1-17.7.5-3.9,1.4-6.1,3.1-7.7l2.3-2.2-3.1-.4c-5.6-.8-5.7-.6-10,29.9l-2.4,16.3,2.3,2.2,2.3,2.3,61.7.5c40.5.3,62.1.2,62.9-.5.8-.8.3-8.2-2.3-30-1.8-16-3.4-29.7-3.4-30.6s2.3-2.5,6.8-4.2c5.6-2.2,7.7-2.5,12.5-2,5.3.5,6,.4,8.6-2.1,1.9-1.8,2.7-3.4,2.4-5-.4-1.7.4-2.8,3.5-5,2.2-1.5,6.8-5.8,10.2-9.4q7.6-8.4,12.7-13.2c4.4-4.1,6.7-8.4,7.9-14.5.8-4.7-.9-4.5-2.5.2ZM54.5,168c-.4,2.8-.9,4.9-1.2,4.6-.3-.2-.2-2.8.2-5.6s.9-4.9,1.2-4.6c.3.2.2,2.8-.2,5.6ZM102.3,194.7c-1.8.2-4.8.2-6.5,0-1.8-.2-.4-.4,3.2-.4s5,.2,3.3.4Z"/>
  <path class="st0" d="M18.8,82.1c-1,.5-1.8,1.5-1.8,2s.5.7,1.2.3c.7-.5.9-.2.5.8-.6,1.8,2.6,5.8,4.7,5.8s5.8-3.5,5.6-4.6c-.1-.5.3-1,.9-1.2.5-.2,1.1.8,1.3,2.3.3,2.6,2.1,3.1,2.5.6.7-5.2-9.3-9.3-14.9-6Z"/>
  <path class="st0" d="M135.4,84.9c.4.6-.5,2.4-2.3,4.1-2.5,2.6-3.7,3-8.4,3s-5.8-.5-7.2-2c-2-2.2-3.5-2.6-3.5-.9s2.7,3.9,4.7,3.9,2.5.6,3.2,1.2c1.1,1,1.3,1,.7,0-.5-.8.3-1.2,2.8-1.2s3.6.5,3.8,1.2c.3.8,1.1.5,2.3-1,1.1-1.2,2.5-2.2,3.2-2.2s1.3-.3,1.4-.8c0-.4.2-1.7.5-2.9.2-1.2-.1-2.5-.8-2.9s-.8-.3-.4.5Z"/>
  <path class="st0" d="M161,87c0,1.9,4,9,5,9,1.6,0,1.2-1.6-1-3.5-1.1-1-2-2.2-2-2.6,0-1.8,3.3.6,6.5,4.8,3.3,4.3,3.4,4.6,1.8,6.9-2.7,4.2-.7,3.7,2.7-.6l3.2-4-3.5-1.5c-1.9-.8-4.2-2.6-5.1-4s-2.3-2.5-3-2.5-1.6-.7-2-1.5c-.6-1.7-2.6-2-2.6-.5Z"/>
  <path class="st0" d="M175,88.9q-2.4.8,1.5,2.5c10.2,4.5,17.9,6.4,8.9,2.2-2.8-1.3-5.4-3.1-5.7-4-.7-1.7-.9-1.8-4.7-.7Z"/>
  <path class="st0" d="M158.6,89.9c-.7,1.1,3.2,7.6,4,6.8s-.4-2.1-1.5-4.2c-1.1-2.3-2.1-3.3-2.5-2.6Z"/>
  <path class="st0" d="M172.4,92.8c2.1,2.4,10.1,6.6,11.5,6,.5-.1-2.3-2-6.2-4.2-5.3-2.8-6.7-3.3-5.3-1.8Z"/>
  <path class="st0" d="M202.7,97.7c1.8.2,5,.2,7,0,2.1-.2.7-.4-3.2-.4s-5.5.2-3.8.4Z"/>
  <path class="st0" d="M163.8,102.8c-2.7,6-4.3,19.9-2.1,18.1.7-.7,1.3-.5,1.6.3.3.7.6-1.1.6-4,.1-3.9.5-5.2,1.6-5.3,5.3-.4,6-.2,6,1.3s.4,2,.8,2.4.7,2.5.7,4.7v3.9l-5-.4c-3-.2-4.9.1-4.7.7.6,1.6,8.7,1.4,10.3-.2s1.2-2.6.8-5.2c-.4-2.4-.2-4.1.5-4.5,2-1.3,1.1-2.5-3.4-4.6-2.5-1.1-4.5-2.5-4.5-3.1s-.4-.8-.9-.5-1.2-.2-1.5-1.1c-.4-.9-.2-2,.5-2.3.6-.4.9-1.5.7-2.3-.2-1.1-.9-.3-2,2.1Z"/>
  <path class="st0" d="M178.8,100.9c1.8,1.2,4.2,2.1,5.5,2.1,1.9-.1,1.8-.3-.9-1.4-1.7-.7-4.1-1.7-5.5-2.1-1.9-.5-1.7-.2.9,1.4Z"/>
  <path class="st0" d="M26,104.2c0,1.3-.3,4.6-.6,7.4s0,9.3.6,14.5c.7,5.2,1.3,10.2,1.3,11.1.1.9,1.5,3.3,3.2,5.2l3,3.5,11.2.4c9,.3,11.3.1,11.7-1,.3-.8.1-1.1-.4-.8-.6.3-1,.3-1-.2s-2.6-.9-5.7-1.1c-6.4-.3-13.4-1.2-14.4-1.7-.3-.2-1.7-2.1-3.1-4.2-2-2.9-2.7-5.6-3.2-11.7-.4-4.4-.9-8.3-1.2-8.7-.2-.4.3-1.5,1.2-2.4s1.4-2.4,1.1-3.6c-.3-1,.1-2.5.8-3.3.8-.7,1.1-1.7.7-2-.3-.4.2-.4,1.3,0,1.5.6,1.7.4,1.2-1-.4-1-.7-2-.7-2.2s-1.6-.4-3.5-.4c-3,0-3.5.3-3.5,2.2Z"/>
  <path class="st0" d="M178.2,104.5c-3.9,2.1-4.5,3.1-3.2,5.4,1.3,2.6,2.2,2.2,4.8-2.4,2.3-3.9,1.8-4.8-1.6-3Z"/>
  <path class="st0" d="M131.1,110.2c-1.4,2.2-2.3,5.8-1.5,5.8s3.6-7.1,3.2-7.6c-.2-.2-1,.6-1.7,1.8Z"/>
  <path class="st0" d="M135,110.9c-.5,1.1-.7,2.8-.4,3.8.5,1.5.4,1.5-.5.3-.8-1.2-1.1-1.2-1.7.5-.5,1.2-.3,2,.5,2.3.7.2,2.3,1.5,3.4,2.8,1.2,1.4,3.1,2.4,4.6,2.3h2.6c0-.1-2.6-1-2.6-1-3.3-1.2-5.8-5.4-4.1-7.1s1.6-5.8.2-5.8-1.4.9-2,1.9Z"/>
  <path class="st0" d="M165,117.7c0,1.7,2.4,3.3,4.8,3.3,3.8,0,2.4-3.4-1.6-3.8-1.7-.2-3.2.1-3.2.5Z"/>
  <path class="st0" d="M165.8,132.1c-1.6.4-2.9.4-2.9.1-.1-.4-.9,3.1-1.9,7.8-.9,4.7-2,9.4-2.4,10.5-.7,1.8-.6,1.8,1.2-.2,1.9-2.1,3.8-9.9,3.3-13.6-.2-1.6,1.1-2.6,4.1-3,1.3-.2,2.3-1.6,1.6-2.1-.1-.2-1.5,0-3,.5Z"/>
  <path class="st0" d="M67.3,148.2c-.2.5,2.1.8,5.2.8s7.1.6,9,1.4,3.7,1.1,4,.6.2-1.1-.2-1.3c-3-1.7-17.1-2.9-18-1.5Z"/>
  <path class="st0" d="M112.6,149.9c-.6,1-2.2,1.1-5.9.7-4.6-.7-4.9-.6-3.7.9,1,1.2,2.5,1.5,5.7,1.2,4.8-.4,5.7-1,5.1-2.8-.3-1-.6-1-1.2,0Z"/>
  <path class="st0" d="M94.5,157.9c.3.6,2.4,2,4.6,3.1l3.9,2v-2.5c0-1.4-.5-2.5-1.1-2.5s-.7.4-.4,1c.9,1.5-1.2,1.2-4.7-.6-1.6-.9-2.7-1.1-2.3-.5Z"/>
  <path class="st0" d="M90.2,159.2c.6,1.8,5,4.7,8.7,5.8,4.2,1.2,3.8.8-3.3-3.5-3.2-1.9-5.6-2.9-5.4-2.3Z"/>
  <path class="st0" d="M109.6,160.7c-2.4,1.3-3,1.3-3.7.1-.7-1-.9-.9-.9.4s.9,2.2,1.9,2.8c2.5,1.3,3.4,1.3,2.6,0-.3-.6.1-1,.9-1s1.6.7,1.6,1.5.7,1.5,1.5,1.5,1.4-.6,1.3-1.2c-.2-.7.7-1.4,2-1.6,2.3-.4,2.6-1,1.4-2.8-1-1.6-5.3-1.4-8.6.3Z"/>
  <path class="st0" d="M156.7,174.7c-1.7,1.6-.6,3.3,1.6,2.8,1.7-.5,3.7.3,7.3,3l4.9,3.6-5.2-5c-4.9-4.8-7.1-6-8.6-4.4Z"/>
</svg>