<?xml version="1.0" encoding="UTF-8"?>
<svg xmlns="http://www.w3.org/2000/svg" version="1.1" xmlns:xlink="http://www.w3.org/1999/xlink" viewBox="0 0 909.5 675.3">
  <!-- Generator: Adobe Illustrator 29.2.1, SVG Export Plug-In . SVG Version: 2.1.0 Build 116)  -->
  <defs>
    <style>
      .st0 {
        fill: #585858;
      }

      .st1 {
        fill: #4f4f4f;
      }

      .st2 {
        fill: #272727;
      }

      .st3 {
        fill: #fff;
      }

      .st4 {
        mask: url(#mask);
      }

      .st5 {
        fill: #6a8084;
        opacity: .2;
      }

      .st5, .st6, .st7, .st8, .st9, .st10 {
        mix-blend-mode: multiply;
      }

      .st5, .st11, .st12 {
        display: none;
      }

      .st13 {
        fill: none;
      }

      .st14 {
        fill: #f2f2f2;
      }

      .st15 {
        fill: #191717;
      }

      .st16 {
        isolation: isolate;
      }

      .st6, .st8 {
        opacity: .3;
      }

      .st6, .st17 {
        fill: #b3b3b3;
      }

      .st18 {
        fill: #373737;
      }

      .st19 {
        fill: #0c5880;
      }

      .st7 {
        fill: url(#linear-gradient);
        opacity: .6;
      }

      .st20 {
        fill: #333;
      }

      .st21 {
        fill: #00bade;
      }

      .st22 {
        fill: #1a1a1a;
      }

      .st23 {
        fill: #999;
      }

      .st8 {
        fill: url(#linear-gradient1);
      }

      .st24 {
        fill: #1b1b1b;
      }

      .st25, .st9 {
        fill: #ccc;
      }

      .st26 {
        fill: #828282;
      }

      .st9 {
        opacity: .4;
      }

      .st27 {
        fill: #d1d1d1;
      }

      .st12 {
        fill: #889a9e;
      }

      .st28 {
        fill: #e6e6e6;
      }

      .st29 {
        filter: url(#luminosity-noclip);
      }

      .st10 {
        opacity: .5;
      }
    </style>
    <filter id="luminosity-noclip" x="-43.6" y="124.2" width="953.1" height="596" color-interpolation-filters="sRGB" filterUnits="userSpaceOnUse">
      <feFlood flood-color="#fff" result="bg"/>
      <feBlend in="SourceGraphic" in2="bg"/>
    </filter>
    <mask id="mask" x="-43.6" y="124.2" width="953.1" height="596" maskUnits="userSpaceOnUse">
      <g class="st29">
        <image width="955" height="597" transform="translate(-44.5 123.4)" xlink:href="لوازم برقی-1.png"/>
      </g>
    </mask>
    <linearGradient id="linear-gradient" x1="38.9" y1="594.3" x2="53.4" y2="620.3" gradientUnits="userSpaceOnUse">
      <stop offset="0" stop-color="#b3b3b3"/>
      <stop offset=".2" stop-color="#f2f2f2"/>
      <stop offset=".5" stop-color="#e7e7e7"/>
      <stop offset=".5" stop-color="#e6e6e6"/>
      <stop offset="1" stop-color="#999"/>
    </linearGradient>
    <linearGradient id="linear-gradient1" x1="697.4" y1="123.5" x2="708.4" y2="142.5" gradientUnits="userSpaceOnUse">
      <stop offset="0" stop-color="#ccc"/>
      <stop offset=".2" stop-color="#fff"/>
      <stop offset=".3" stop-color="#f4f4f4"/>
      <stop offset=".5" stop-color="#e6e6e6"/>
      <stop offset="1" stop-color="#666"/>
    </linearGradient>
  </defs>
  <g class="st16">
    <g id="Bg" class="st11">
      <rect class="st3" x="-128.5" y="-223.6" width="1122" height="1122"/>
    </g>
    <g id="Shadow" class="st11">
      <g class="st10">
        <g class="st4">
          <image width="955" height="597" transform="translate(-44.5 123.4)" xlink:href="لوازم برقی-2.png"/>
        </g>
      </g>
    </g>
    <g id="Object">
      <g>
        <g>
          <path class="st19" d="M887.6,194.9v2.1h0c0,.2,0,.4,0,.5,0,0,0,.2,0,.3,0,0,0,0,0,.1,0,0,0,.1,0,.2,0,.2,0,.4-.1.7,0,.1,0,.3,0,.4,0,0,0,.1,0,.2,0,0,0,.2,0,.2,0,.1,0,.3-.1.4-2,7.2-8.7,12.1-14.9,15.8-31.7,18.8-525.7,305.4-526.2,305.7-17.9,9.7-35.2,16.5-52.4,21-18.6,4.7-37.9,7.1-57.4,7.3-2.2,0-4.4,0-6.6,0-2,0-3.9,0-5.8-.1-.7,0-1.4,0-2,0-4.5-.2-9.1-.4-13.7-.7-26-1.9-51.8-7.7-75.9-17.9-.1,0-.2,0-.3-.1-4.5-1.9-9.3-3.9-14-6.1-2.1-1-4.2-2.1-6.3-3.3-.9-.5-1.8-1.1-2.7-1.6-4.1-2.4-8-5-11.8-7.9-4.6-3.5-9-7.2-13.1-11.4-4-4-7.6-8.5-10.7-13.2-3.1-4.7-5.6-9.8-7.3-15.1-1.8-5.5-2.9-11.1-3.1-16.9,0-.5,0-1.1,0-1.6v-1.4c0-5.1.8-10.1,2.2-15,1.4-4.8,3.4-9.5,5.8-13.9,2.6-4.8,5.8-9.2,9.4-13.3,3.9-4.6,8.3-8.7,13-12.5,5.2-4.3,10.8-8.1,16.6-11.5.3-.2.6-.4.9-.5L639.6,78.5c12.6-7.3,31-9.3,46.8-6,6,1.2,11.7,3.3,16.5,6l171.6,99.1c4.8,2.8,8.3,6.1,10.5,9.5,0,.1.1.2.2.3,1.5,2.4,2.3,5,2.5,7.5Z"/>
          <path class="st19" d="M887.6,197.1v52.4c-.1,0-.2,8.7-.2,8.7v39.7c-.1,0-.1,0-.1.1,0,5.6-3.6,10.7-7.6,14.2-5,4.4-534,311.1-534,311.1-31.8,18.5-69.7,26.3-105.8,27.7-38.7,1.5-77.7-5.4-113.3-20.6-30.3-12.9-64-38.5-63.9-75,0-.1.2-66.8.3-101.2,0,.4,0,.8,0,1.2.2,5.7,1.2,11.4,3.1,16.9,1.8,5.3,4.3,10.4,7.3,15.1,3.1,4.8,6.7,9.2,10.7,13.2,4,4.1,8.5,7.9,13.1,11.4,4.6,3.5,9.5,6.6,14.5,9.4,2.1,1.2,4.2,2.3,6.3,3.3,4.7,2.3,9.4,4.2,14,6.1.1,0,.2,0,.3.1,24,10.2,49.8,16,75.9,17.9,4.6.3,9.1.6,13.7.7.7,0,1.4,0,2,0,1.9,0,3.9.1,5.8.1,2.2,0,4.4,0,6.6,0,19.4-.3,38.8-2.7,57.4-7.3,17.2-4.5,34.5-11.3,52.4-21,.5-.3,494.5-286.9,526.2-305.7,6.1-3.6,12.9-8.5,14.9-15.8,0-.1,0-.3.1-.4,0,0,0-.2,0-.2,0,0,0-.1,0-.2,0-.1,0-.3,0-.4,0-.2,0-.4.1-.7,0,0,0-.1,0-.2,0,0,0,0,0-.1,0,0,0-.2,0-.3,0-.1,0-.3,0-.4Z"/>
          <path class="st12" d="M887.4,249.5v8.7c-.9,4.5-3.6,8.8-7.4,11.1-11.1,6.8-534,311.1-534,311.1-31.8,18.5-69.7,26.3-105.8,27.7-38.7,1.5-77.7-5.4-113.3-20.6-30.3-12.9-64.3-38.5-64.2-75,0,0,0-2.5,0-6.7,1,35.5,34.4,60.5,64.2,73.2,35.6,15.2,74.7,22.1,113.3,20.6,36.1-1.4,74-9.2,105.8-27.7,0,0,517.1-300.9,534-311.1,3.8-2.3,6.5-6.7,7.4-11.3Z"/>
          <g>
            <g>
              <g>
                <g>
                  <path class="st28" d="M116.2,603.7c5.3-5.6,4.4-15,2.4-21.9-2.9-9.9-8.8-18.9-16.7-25.5-5.3-4.4-13-8.6-20-6.3-.3.1-.6.2-.9.3-.3.1-.5.3-.8.4-.3.1-.6.3-.8.4-4,2.6-6.4,7.7-6.1,15,.6,14.5,11.6,31.7,24.5,38.4,6.9,3.6,13,3.4,17.1.3.2-.2.5-.3.7-.5.2-.2.5-.5.7-.7Z"/>
                  <path class="st17" d="M131.4,582.9c-.1-2.3-.5-4.5-1-6.6-2.1-8.6-6.5-16.5-12.6-22.9-5.8-6.1-14.6-13-23.6-11-1.3.3-2.5.8-3.6,1.5l-11.3,7.3s0,0,0,0c.3-.2.6-.3.8-.4.3-.1.5-.3.8-.4.3-.1.6-.2.9-.3.3,0,.5-.2.8-.3,7-1.7,14.4,2.5,19.5,6.8,7.8,6.6,13.7,15.5,16.5,25.4,2,6.8,2.8,16.1-2.5,21.8,0,0-.1.1-.2.2-.1.1-.3.3-.4.5,0,0,0,0,0,0-.2.2-.4.3-.7.5-.2.2-.5.4-.7.6l11.3-7.3c.5-.3,1-.7,1.5-1.1.2-.1.3-.3.4-.4.3-.3.6-.6.9-.9,2.8-3.5,3.5-8.2,3.2-12.8Z"/>
                </g>
                <g>
                  <path class="st28" d="M107.7,585c0,2-.5,4-1.7,5.8-.2.4-.5.7-.8,1,0,0-.2.1-.2.2-.3.3-.6.5-1,.7L-3.3,655.1c.1,0,.2-.2.3-.2.1,0,.2-.2.3-.2.2-.1.3-.3.5-.4h0c.2-.2.3-.3.3-.4.2-.2.3-.4.5-.7,3-4.8.5-12.6-2.2-16.9-2.6-4.2-8.8-10.3-14.2-9.1-.2,0-.4.1-.6.2-.2,0-.3.2-.5.2,0,0-.1,0-.2,0,.1-.1.3-.2.4-.3,9.1-5.3,106.7-62,106.7-62,.3-.2.6-.3.9-.4,2.7-1,5.6.2,7.9,1.7,5.2,3.5,10.9,11.3,10.8,18.4Z"/>
                  <path class="st28" d="M-1.4,653.2c0,.1-.2.2-.3.3,0,0-.1.1-.2.2,0,.1-.2.3-.3.4h0c-.1.2-.3.3-.5.4-.1,0-.2.2-.3.2-2.1,1.4-5,1.4-8.4-.5-6.2-3.6-11.2-12.3-11.2-19.4,0-3.7,1.4-6.2,3.6-7.4,0,0,.1,0,.2,0,.1,0,.3-.1.5-.2.2,0,.4-.1.6-.2,5.4-1.2,11.6,4.9,14.2,9.1,2.7,4.4,5.2,12.3,2.1,17.1Z"/>
                </g>
              </g>
              <path class="st7" d="M107.7,585c0,2-.5,4-1.7,5.8-.2.4-.5.7-.8,1,0,0-.2.1-.2.2-.3.3-.6.5-1,.7L-3.3,655.1c.1,0,.2-.2.3-.2.1,0,.2-.2.3-.2.2-.1.3-.3.5-.4h0c.2-.2.3-.3.3-.4.2-.2.3-.4.5-.7,3-4.8.5-12.6-2.2-16.9-2.6-4.2-8.8-10.3-14.2-9.1-.2,0-.4.1-.6.2-.2,0-.3.2-.5.2,0,0-.1,0-.2,0,.1-.1.3-.2.4-.3,9.1-5.3,106.7-62,106.7-62,.3-.2.6-.3.9-.4,2.7-1,5.6.2,7.9,1.7,5.2,3.5,10.9,11.3,10.8,18.4Z"/>
            </g>
            <g>
              <g>
                <path class="st21" d="M881.6,172.7v.4c0,1.5-.9,3-2.3,3.9l-1.3.8L329.8,496.3h0c-54.3,31.5-143.3,31.5-197.9,0-27.3-15.8-41-36.6-41.2-57.3-.1-20.8,13.4-41.6,40.5-57.3L680.8,62.3c3.1-1.8,6.8-2.3,10.2-1.3,3.9,1.2,7.6,2.7,10.9,4.6l171.6,99.1c2.6,1.5,4.8,3.1,6.6,4.8.8.8,1.3,1.7,1.4,2.8,0,.1,0,.2,0,.4Z"/>
                <path class="st21" d="M879.2,177l-1.3.8S329.9,496.3,329.8,496.3c-6,3-11.7,6.2-18,8.7-6.5,2.6-13.2,4.9-20,6.8-27.1,7.7-55.9,10.1-84,7.2-26-2.7-53.2-9.5-75.9-22.6-27.3-15.8-41-36.5-41.2-57.3,0,0,0,9.1,0,9.1,0,22.9,16.9,41.6,34.9,53.5,22.2,14.6,50.1,22,76.2,25.5,26.5,3.5,53.5,2.3,79.6-3.6,16.7-3.8,33.3-9.4,48.2-18.1L879.5,186c1.3-.8,2.1-2.2,2.1-3.7v-9.2c0,1.5-.9,3-2.3,3.9Z"/>
              </g>
              <g>
                <g>
                  <polygon class="st20" points="315.9 441.8 213.2 382.5 150.2 419.2 252.9 478.4 315.9 441.8"/>
                  <polygon class="st22" points="252.9 478.4 252.8 487.6 315.9 451 315.9 441.8 252.9 478.4"/>
                  <polygon class="st15" points="150.2 419.2 150.2 428.3 252.8 487.6 252.9 478.4 150.2 419.2"/>
                </g>
                <g>
                  <path class="st19" d="M241.8,417.8l28.1-16.3c-8.9,2.9-18.7,2.1-27.7,0-8.3-1.9-17.5-4.9-24.8-9.3-6.7,4.1-39,23.3-39.5,23,0,0,.4.2.4.2.8.4,1.6.8,2.4,1.2,9.8,4.8,42.4,18.6,61.2,1.2Z"/>
                  <path class="st19" d="M241.8,417.8c-18.8,17.4-51.4,3.6-61.2-1.2-1.5-.7-2.5-1.3-2.8-1.4v5.3s76.4,44.1,76.4,44.1l-12.4-46.8Z"/>
                  <polygon class="st19" points="281.3 394.9 269.9 401.5 241.8 417.8 254.2 464.6 293.7 441.7 281.3 394.9"/>
                </g>
              </g>
              <g class="st16">
                <polygon class="st20" points="389.8 325.4 380.8 330.7 353.7 315 362.7 309.8 389.8 325.4"/>
                <polygon class="st20" points="371.9 355.9 343.4 372.5 334 367.1 362.6 350.5 371.9 355.9"/>
                <polygon class="st20" points="442.1 355.6 433.1 360.9 406.1 345.2 415.1 340 442.1 355.6"/>
                <polygon class="st17" points="362.7 309.8 362.7 318.6 353.7 323.8 353.7 315 362.7 309.8"/>
                <polygon class="st26" points="389.8 325.4 389.8 334.2 362.7 318.6 362.7 309.8 389.8 325.4"/>
                <polygon class="st2" points="389.8 325.4 389.8 334.2 380.8 339.5 380.8 330.7 389.8 325.4"/>
                <polygon class="st24" points="380.8 330.7 380.8 339.5 353.7 323.8 353.7 315 380.8 330.7"/>
                <polygon class="st17" points="415.1 340 415 348.8 406 354.1 406.1 345.2 415.1 340"/>
                <polygon class="st26" points="442.1 355.6 442.1 364.4 415 348.8 415.1 340 442.1 355.6"/>
                <polygon class="st26" points="371.9 355.9 371.9 364.7 362.5 359.3 362.6 350.5 371.9 355.9"/>
                <polygon class="st24" points="433.1 360.9 433.1 369.7 406 354.1 406.1 345.2 433.1 360.9"/>
                <polygon class="st2" points="442.1 355.6 442.1 364.4 433.1 369.7 433.1 360.9 442.1 355.6"/>
                <polygon class="st17" points="362.6 350.5 362.5 359.3 334 375.9 334 367.1 362.6 350.5"/>
                <polygon class="st24" points="343.4 372.5 343.3 381.3 334 375.9 334 367.1 343.4 372.5"/>
                <polygon class="st2" points="371.9 355.9 371.9 364.7 343.3 381.3 343.4 372.5 371.9 355.9"/>
                <path class="st27" d="M484.3,351.1c0,0,.1-.2.2-.2,0,0,.1-.2.2-.3,0,0,0,0,0,0-.1.2-.2.4-.4.5Z"/>
                <path class="st14" d="M480.9,341.4l-93.7-54.1c-6-3.5-15.8-3.5-21.8,0l-93.1,54.1c-3,1.7-4.5,4-4.5,6.3,0,2.3,1.5,4.6,4.6,6.3l33,19c.5.3,1.1.6,1.6.9l24.3,14,2.6,1.5c.9.5,1.7,1,2.6,1.5l1,.6,2,1.2,19.9,11.5c.4.2.8.5,1.2.7l5.6,3.2c.4.2.8.4,1.2.6,8.3,4.3,13.4,3.8,20.6-.6l81.7-47.5,11.4-6.6c1.6-.9,2.8-2,3.5-3.2,0,0-.1.2-.2.2.1-.2.3-.3.4-.5h0s0,0,0,0c0,0,0,0,0-.1,0,0,0,0,0,0,0-.1.1-.3.2-.4,0,0,0,0,0,0,0-.2.2-.5.2-.7,0,0,0,0,0,0h0c0-.2,0-.3,0-.4h0c0-.2,0-.3,0-.4,0,0,0-.2,0-.2,0,0,0,0,0,0,0-2.3-1.4-4.7-4.5-6.5ZM343.4,372.5l-9.3-5.4,28.5-16.6,9.3,5.4-28.5,16.6ZM380.8,330.7l-27.1-15.6,9-5.2,27.1,15.6-9,5.2ZM433.1,360.9l-27.1-15.6,9-5.2,27.1,15.6-9,5.2Z"/>
                <path class="st17" d="M485.4,348v8.6c0,.2,0,.3,0,.5-.6,6.5-10.9,9.6-15.6,12.3-5.2,3-10.5,6.1-15.7,9.1-14.5,8.4-28.9,16.8-43.4,25.2-7.6,4.4-15.2,8.8-22.8,13.3-6.3,3.7-15.5,3.6-21.8,0,0,0-93.7-54.1-93.7-54.1-3-1.8-4.6-4.1-4.6-6.4v-8.8c0,2.3,1.6,4.6,4.6,6.3l33,19c.5.3,1.1.6,1.6.9l24.3,14,2.6,1.5c.9.5,1.7,1,2.6,1.5l1,.6,2,1.2,19.9,11.5,1.2.7,5.6,3.2c.4.2.8.4,1.2.6,8.3,4.3,13.4,3.8,20.6-.6l81.7-47.5,11.4-6.6c1.6-.9,2.8-2,3.5-3.2,0,0-.1.2-.2.2.1-.2.3-.3.4-.5h0s0,0,0,0c0,0,0,0,0-.1,0,0,0,0,0,0,0-.1.1-.3.2-.4,0,0,0,0,0,0,0-.2.2-.5.2-.7,0,0,0,0,0,0h0c0-.2,0-.3,0-.4h0c0-.2,0-.3,0-.4,0,0,0-.2,0-.2Z"/>
                <path class="st27" d="M485.4,348.2c0,.2,0,.3,0,.4,0-.2,0-.4,0-.7,0,0,0,.2,0,.2ZM484.5,350.8c0,0,.1-.2.2-.3,0,0,0,0,0,0-.1.2-.2.4-.4.5,0,0,.1-.2.2-.2Z"/>
              </g>
              <g class="st16">
                <polygon class="st20" points="538.7 238.5 529.7 243.7 502.6 228.1 511.6 222.9 538.7 238.5"/>
                <polygon class="st20" points="520.8 268.9 492.2 285.5 482.9 280.1 511.4 263.5 520.8 268.9"/>
                <polygon class="st20" points="591 268.7 582 273.9 554.9 258.3 563.9 253.1 591 268.7"/>
                <polygon class="st17" points="511.6 222.9 511.6 231.7 502.6 236.9 502.6 228.1 511.6 222.9"/>
                <polygon class="st26" points="538.7 238.5 538.6 247.3 511.6 231.7 511.6 222.9 538.7 238.5"/>
                <polygon class="st17" points="563.9 253.1 563.9 261.9 554.9 267.1 554.9 258.3 563.9 253.1"/>
                <polygon class="st26" points="591 268.7 590.9 277.5 563.9 261.9 563.9 253.1 591 268.7"/>
                <polygon class="st26" points="520.8 268.9 520.7 277.8 511.4 272.4 511.4 263.5 520.8 268.9"/>
                <polygon class="st17" points="511.4 263.5 511.4 272.4 482.9 288.9 482.9 280.1 511.4 263.5"/>
                <polygon class="st24" points="492.2 285.5 492.2 294.3 482.9 288.9 482.9 280.1 492.2 285.5"/>
                <polygon class="st2" points="520.8 268.9 520.7 277.8 492.2 294.3 492.2 285.5 520.8 268.9"/>
                <path class="st27" d="M633.1,264.1c0,0,.1-.2.2-.2,0,0,.1-.2.2-.3,0,0,0,0,0,0-.1.2-.2.4-.4.5Z"/>
                <path class="st17" d="M634.3,261v8.6c0,.2,0,.3,0,.5-.6,6.5-10.9,9.6-15.6,12.3-5.2,3-10.5,6.1-15.7,9.1-14.5,8.4-28.9,16.8-43.4,25.2-7.6,4.4-15.2,8.8-22.8,13.3-6.3,3.7-15.5,3.6-21.8,0,0,0-93.7-54.1-93.7-54.1-3-1.8-4.6-4.1-4.6-6.4v-8.8c0,2.3,1.6,4.6,4.6,6.3l33,19c.5.3,1.1.6,1.6.9l24.3,14,2.6,1.5c.9.5,1.7,1,2.6,1.5l1,.6,2,1.2,19.9,11.5,1.2.7,5.6,3.2c.4.2.8.4,1.2.6,8.3,4.3,13.4,3.8,20.6-.6l81.7-47.5,11.4-6.6c1.6-.9,2.8-2,3.5-3.2,0,0-.1.2-.2.2.1-.2.3-.3.4-.5h0s0,0,0,0c0,0,0,0,0-.1,0,0,0,0,0,0,0-.1.1-.3.2-.4,0,0,0,0,0,0,0-.2.2-.5.2-.7,0,0,0,0,0,0h0c0-.2,0-.3,0-.4h0c0-.2,0-.3,0-.4,0,0,0-.2,0-.2Z"/>
                <path class="st27" d="M634.2,261.3c0,.2,0,.3,0,.4,0-.2,0-.4,0-.7,0,0,0,.2,0,.2ZM633.3,263.9c0,0,.1-.2.2-.3,0,0,0,0,0,0-.1.2-.2.4-.4.5,0,0,.1-.2.2-.2Z"/>
                <path class="st14" d="M629.7,254.5l-93.7-54.1c-6-3.5-15.8-3.5-21.8,0l-93.1,54.1c-3,1.7-4.5,4-4.5,6.3,0,2.3,1.5,4.6,4.6,6.3l33,19c.5.3,1.1.6,1.6.9l24.3,14,2.6,1.5c.9.5,1.7,1,2.6,1.5l1,.6,2,1.2,19.9,11.5c.4.2.8.5,1.2.7l5.6,3.2c.4.2.8.4,1.2.6,8.3,4.3,13.4,3.8,20.6-.6l81.7-47.5,11.4-6.6c1.6-.9,2.8-2,3.5-3.2,0,0-.1.2-.2.2.1-.2.3-.3.4-.5h0s0,0,0,0c0,0,0,0,0-.1,0,0,0,0,0,0,0-.1.1-.3.2-.4,0,0,0,0,0,0,0-.2.2-.5.2-.7,0,0,0,0,0,0h0c0-.2,0-.3,0-.4h0c0-.2,0-.3,0-.4,0,0,0-.2,0-.2,0,0,0,0,0,0,0-2.3-1.4-4.7-4.5-6.5ZM492.2,285.5l-9.3-5.4,28.5-16.6,9.3,5.4-28.5,16.6ZM529.7,243.7l-27.1-15.6,9-5.2,27.1,15.6-9,5.2ZM582,273.9l-27.1-15.6,9-5.2,27.1,15.6-9,5.2Z"/>
              </g>
              <g class="st16">
                <polygon class="st20" points="683.5 154.9 674.5 160.1 647.5 144.5 656.5 139.3 683.5 154.9"/>
                <polygon class="st20" points="665.6 185.3 637.1 201.9 627.8 196.5 656.3 180 665.6 185.3"/>
                <polygon class="st20" points="735.9 185.1 726.9 190.3 699.8 174.7 708.8 169.5 735.9 185.1"/>
                <polygon class="st17" points="656.5 139.3 656.4 148.1 647.4 153.3 647.5 144.5 656.5 139.3"/>
                <polygon class="st26" points="683.5 154.9 683.5 163.7 656.4 148.1 656.5 139.3 683.5 154.9"/>
                <polygon class="st17" points="708.8 169.5 708.8 178.3 699.8 183.5 699.8 174.7 708.8 169.5"/>
                <polygon class="st26" points="735.9 185.1 735.8 193.9 708.8 178.3 708.8 169.5 735.9 185.1"/>
                <polygon class="st26" points="665.6 185.3 665.6 194.2 656.3 188.8 656.3 180 665.6 185.3"/>
                <polygon class="st17" points="656.3 180 656.3 188.8 627.7 205.4 627.8 196.5 656.3 180"/>
                <polygon class="st2" points="665.6 185.3 665.6 194.2 637.1 210.7 637.1 201.9 665.6 185.3"/>
                <path class="st27" d="M778,180.5c0,0,.1-.2.2-.2,0,0,.1-.2.2-.3,0,0,0,0,0,0-.1.2-.2.4-.4.5Z"/>
                <path class="st17" d="M779.1,177.5v8.6c0,.2,0,.3,0,.5-.6,6.5-10.9,9.6-15.6,12.3-5.2,3-10.5,6.1-15.7,9.1-14.5,8.4-28.9,16.8-43.4,25.2-7.6,4.4-15.2,8.8-22.8,13.3-6.3,3.7-15.5,3.6-21.8,0,0,0-93.7-54.1-93.7-54.1-3-1.8-4.6-4.1-4.6-6.4v-8.8c0,2.3,1.6,4.6,4.6,6.3l33,19c.5.3,1.1.6,1.6.9l24.3,14,2.6,1.5c.9.5,1.7,1,2.6,1.5l1,.6,2,1.2,19.9,11.5,1.2.7,5.6,3.2c.4.2.8.4,1.2.6,8.3,4.3,13.4,3.8,20.6-.6l81.7-47.5,11.4-6.6c1.6-.9,2.8-2,3.5-3.2,0,0-.1.2-.2.2.1-.2.3-.3.4-.5h0s0,0,0,0c0,0,0,0,0-.1,0,0,0,0,0,0,0-.1.1-.3.2-.4,0,0,0,0,0,0,0-.2.2-.5.2-.7,0,0,0,0,0,0h0c0-.2,0-.3,0-.4h0c0-.2,0-.3,0-.4,0,0,0-.2,0-.2Z"/>
                <path class="st27" d="M779.1,177.7c0,.2,0,.3,0,.4,0-.2,0-.4,0-.7,0,0,0,.2,0,.2ZM778.2,180.3c0,0,.1-.2.2-.3,0,0,0,0,0,0-.1.2-.2.4-.4.5,0,0,.1-.2.2-.2Z"/>
                <path class="st14" d="M774.6,170.9l-93.7-54.1c-6-3.5-15.8-3.5-21.8,0l-93.1,54.1c-3,1.7-4.5,4-4.5,6.3,0,2.3,1.5,4.6,4.6,6.3l33,19c.5.3,1.1.6,1.6.9l24.3,14,2.6,1.5c.9.5,1.7,1,2.6,1.5l1,.6,2,1.2,19.9,11.5c.4.2.8.5,1.2.7l5.6,3.2c.4.2.8.4,1.2.6,8.3,4.3,13.4,3.8,20.6-.6l81.7-47.5,11.4-6.6c1.6-.9,2.8-2,3.5-3.2,0,0-.1.2-.2.2.1-.2.3-.3.4-.5h0s0,0,0,0c0,0,0,0,0-.1,0,0,0,0,0,0,0-.1.1-.3.2-.4,0,0,0,0,0,0,0-.2.2-.5.2-.7,0,0,0,0,0,0h0c0-.2,0-.3,0-.4h0c0-.2,0-.3,0-.4,0,0,0-.2,0-.2,0,0,0,0,0,0,0-2.3-1.4-4.7-4.5-6.5ZM637.1,201.9l-9.3-5.4,28.5-16.6,9.3,5.4-28.5,16.6ZM674.5,160.1l-27.1-15.6,9-5.2,27.1,15.6-9,5.2ZM726.9,190.4l-27.1-15.6,9-5.2,27.1,15.6-9,5.2Z"/>
              </g>
              <g class="st16">
                <polygon class="st0" points="864.9 150.5 819.8 176.6 673.1 91.9 718.1 65.7 864.9 150.5"/>
                <polygon class="st1" points="864.9 150.5 864.9 159.6 819.8 185.8 819.8 176.6 864.9 150.5"/>
                <polygon class="st18" points="819.8 176.6 819.8 185.8 673 101 673.1 91.9 819.8 176.6"/>
              </g>
            </g>
          </g>
          <path class="st5" d="M887.6,197.1v52.4c-.1,0-.2,8.7-.2,8.7v39.7c-.1,0-.1,0-.1.1,0,5.6-3.6,10.7-7.6,14.2-5,4.4-534,311.1-534,311.1-8.2,4.8-16.9,8.9-25.8,12.3v-101.8c8.6-3.4,17.3-7.5,26.1-12.3.5-.3,494.5-286.9,526.2-305.7,2.2-1.3,4.4-2.7,6.5-4.3,2.1-1.6,4-3.5,5.5-5.6,1.6-2.2,2.8-4.7,3.2-7.5,0-.4.1-.9.1-1.3Z"/>
        </g>
        <g>
          <g>
            <g>
              <path class="st28" d="M887.6,32.6h0c0,.1,0,.3,0,.4,0,.1,0,.2,0,.3h0c0,.1,0,.1,0,.2,0,0,0,.1,0,.2,0,.1,0,.2,0,.3,0,0,0,0,0,.1,0,0,0,0,0,0,0,0,0,0,0,.1,0,.1,0,.2-.1.4,0,0,0,0,0,0,0,0,0,0,0,.1,0,0,0,.1,0,.2,0,0,0,.2-.1.3,0,0,0,0,0,0t0,0c0,.2-.2.3-.3.5h0c-.1.2-.3.4-.5.6,0,0,0,0-.1.1-.2.2-.4.3-.6.5l-361.4,210v-17.6c0-.8-.5-1.6-1.5-2.2l-2.5-1.4L875.3,19.6c.2-.1.4-.2.6-.3h0c.1,0,.3,0,.4-.1,0,0,0,0,0,0h0c.1,0,.3,0,.4,0,0,0,0,0,.1,0h.2c.1,0,.2,0,.4,0h0s0,0,0,0c0,0,.1,0,.2,0,.1,0,.2,0,.3,0,0,0,0,0,.1,0,0,0,0,0,0,0,0,0,0,0,.1,0,0,0,.2,0,.3,0,0,0,.1,0,.2,0,0,0,0,0,0,0,0,0,0,0,0,0,0,0,.2,0,.3.1.1,0,.2,0,.3.1,0,0,0,0,0,0,0,0,0,0,0,0,0,0,.1,0,.2,0,.1,0,.2.1.3.2,0,0,.2,0,.2.1,0,0,0,0,0,0,0,0,.2.1.3.2.1,0,.2.1.3.2,0,0,0,0,0,0,0,0,0,0,0,0,0,0,.1.1.2.2.1,0,.2.2.3.2,0,0,0,0,.1,0,0,0,0,0,0,0,0,0,0,0,.1.1.1,0,.2.2.3.3,0,0,.1,0,.2.1l.2.2c.1,0,.2.2.3.3,0,0,.1.1.2.2,0,0,0,0,0,0,0,0,0,0,0,0,0,.1.2.2.3.3,0,.1.2.2.3.3h0c0,.1.2.2.3.3.1.1.2.3.3.4.2.2.3.4.5.6,0,0,0,0,0,0,.1.1.2.3.3.5,0,.1.1.2.2.3,0,0,0,0,0,0,0,0,0,.1,0,.2,0,.1.1.2.2.4,0,.1.1.2.2.3,0,0,0,0,0,0,0,0,0,0,0,0,0,.1.1.2.2.4,0,.1.1.2.2.4,0,0,0,0,0,0,0,0,0,0,0,0,0,0,0,.2.1.2,0,.1,0,.2.1.4,0,0,0,.1,0,.2,0,0,0,0,0,0,0,0,0,0,0,0,0,.1,0,.2.1.4,0,.1,0,.2.1.4,0,0,0,0,0,0,0,0,0,0,0,0,0,0,0,.2,0,.3,0,.1,0,.2.1.4,0,0,0,.1,0,.2,0,0,0,0,0,0,0,0,0,0,0,.1,0,.1,0,.2,0,.4,0,.1,0,.2,0,.3h0c0,.2,0,.3,0,.4,0,.1,0,.2,0,.4,0,0,0,0,0,.1,0,0,0,0,0,0,0,0,0,.1,0,.2,0,.1,0,.2,0,.3s0,.2,0,.3Z"/>
              <path class="st8" d="M887.6,32.6h0c0,.1,0,.3,0,.4,0,.1,0,.2,0,.3h0c0,.1,0,.1,0,.2,0,0,0,.1,0,.2,0,.1,0,.2,0,.3,0,0,0,0,0,.1,0,0,0,0,0,0,0,0,0,0,0,.1,0,.1,0,.2-.1.4,0,0,0,0,0,0,0,0,0,0,0,.1,0,0,0,.1,0,.2,0,0,0,.2-.1.3,0,0,0,0,0,0t0,0c0,.2-.2.3-.3.5h0c-.1.2-.3.4-.5.6,0,0,0,0-.1.1-.2.2-.4.3-.6.5l-361.4,210v-17.6c0-.8-.5-1.6-1.5-2.2l-2.5-1.4L875.3,19.6c.2-.1.4-.2.6-.3h0c.1,0,.3,0,.4-.1,0,0,0,0,0,0h0c.1,0,.3,0,.4,0,0,0,0,0,.1,0h.2c.1,0,.2,0,.4,0h0s0,0,0,0c0,0,.1,0,.2,0,.1,0,.2,0,.3,0,0,0,0,0,.1,0,0,0,0,0,0,0,0,0,0,0,.1,0,0,0,.2,0,.3,0,0,0,.1,0,.2,0,0,0,0,0,0,0,0,0,0,0,0,0,0,0,.2,0,.3.1.1,0,.2,0,.3.1,0,0,0,0,0,0,0,0,0,0,0,0,0,0,.1,0,.2,0,.1,0,.2.1.3.2,0,0,.2,0,.2.1,0,0,0,0,0,0,0,0,.2.1.3.2.1,0,.2.1.3.2,0,0,0,0,0,0,0,0,0,0,0,0,0,0,.1.1.2.2.1,0,.2.2.3.2,0,0,0,0,.1,0,0,0,0,0,0,0,0,0,0,0,.1.1.1,0,.2.2.3.3,0,0,.1,0,.2.1l.2.2c.1,0,.2.2.3.3,0,0,.1.1.2.2,0,0,0,0,0,0,0,0,0,0,0,0,0,.1.2.2.3.3,0,.1.2.2.3.3h0c0,.1.2.2.3.3.1.1.2.3.3.4.2.2.3.4.5.6,0,0,0,0,0,0,.1.1.2.3.3.5,0,.1.1.2.2.3,0,0,0,0,0,0,0,0,0,.1,0,.2,0,.1.1.2.2.4,0,.1.1.2.2.3,0,0,0,0,0,0,0,0,0,0,0,0,0,.1.1.2.2.4,0,.1.1.2.2.4,0,0,0,0,0,0,0,0,0,0,0,0,0,0,0,.2.1.2,0,.1,0,.2.1.4,0,0,0,.1,0,.2,0,0,0,0,0,0,0,0,0,0,0,0,0,.1,0,.2.1.4,0,.1,0,.2.1.4,0,0,0,0,0,0,0,0,0,0,0,0,0,0,0,.2,0,.3,0,.1,0,.2.1.4,0,0,0,.1,0,.2,0,0,0,0,0,0,0,0,0,0,0,.1,0,.1,0,.2,0,.4,0,.1,0,.2,0,.3h0c0,.2,0,.3,0,.4,0,.1,0,.2,0,.4,0,0,0,0,0,.1,0,0,0,0,0,0,0,0,0,.1,0,.2,0,.1,0,.2,0,.3s0,.2,0,.3Z"/>
            </g>
            <g>
              <path class="st6" d="M631.6,230.2l-21.8,12.8-20.3-11.7,21.9-12.8c7.2,4.1,14.2,8.2,20.3,11.7Z"/>
              <path class="st6" d="M602.1,238.6l-31.5,18.3-6.7-3.8-9,5.2,6.7,3.8-33.8,19.7-1.4,2.8c-.8,1.7-2.1,3.1-3.8,4.1l-31.6,18.7-8.3-4.8-2.9-3.3,29.3-30.2,32.1-18.7,9-5.2,31.6-18.4,20.3,11.7Z"/>
              <polygon class="st6" points="764.1 153.6 754.4 159.3 734.1 147.5 743.8 141.9 764.1 153.6"/>
              <polygon class="st6" points="746.5 154.7 715 173.1 715 173.1 708.8 169.5 699.8 174.7 706 178.3 698.4 182.7 631.8 221.5 623.3 216.6 611.3 209.6 623.2 202.7 630.2 198.6 630.8 198.3 637.1 201.9 665.6 185.4 659.4 181.7 726.2 142.9 746.5 154.7"/>
              <polygon class="st6" points="809.1 118.3 764.1 144.4 743.8 132.7 788.8 106.5 809.1 118.3"/>
              <polygon class="st6" points="743.8 132.7 743.8 141.9 764.1 153.6 764.1 144.5 743.8 132.7"/>
              <polygon class="st6" points="611.3 209.6 611.3 218.5 631.6 230.2 631.8 221.5 611.3 209.6"/>
              <polygon class="st6" points="491 307.4 491 316.3 480 309.9 480 301.1 491 307.4"/>
              <polygon class="st6" points="479.9 322.8 491 316.3 480 309.9 479.9 310 479.9 322.8"/>
              <polygon class="st6" points="659.4 181.7 659.4 189 665.6 185.4 659.4 181.7"/>
            </g>
            <g>
              <path class="st13" d="M523.6,231c0,0-.1.2-.2.2,0,0,0,0,0,0,0,0,.2-.2.2-.2Z"/>
              <path class="st13" d="M523.8,230.8h0c0,.1,0,.2-.1.2,0,0,.1-.1.2-.2Z"/>
              <path class="st13" d="M524,230.5s0,0,0,0c0,0,0,.1-.1.2,0,0,0-.2.1-.2Z"/>
              <polygon class="st25" points="489.5 217.1 482.4 221.2 479.8 219.7 479.8 211.5 489.5 217.1"/>
              <polygon class="st25" points="477.4 224.1 470.4 228.2 467.7 226.7 467.7 218.6 477.4 224.1"/>
              <polygon class="st25" points="465.3 231.2 458.3 235.2 455.6 233.7 455.6 225.6 465.3 231.2"/>
              <polygon class="st17" points="509.1 228.5 509.1 232.4 509.1 234.7 509.1 236.6 502.1 232.5 509.1 228.5"/>
              <polygon class="st25" points="518.8 234 518.7 250.4 518.6 285.3 511.6 281.3 511.7 238.1 509.1 236.6 509.1 234.7 509.1 232.4 509.1 228.5 512.5 230.4 518.8 234"/>
              <path class="st17" d="M524.2,229.6v17.6s-.1,33.7-.1,33.7c0,0,0,0,0,0,0,.2,0,.3,0,.5h0s0,0,0,0c0,0,0,.2-.1.2,0,0,0,.2-.1.2,0,0,0,0,0,0,0,0,0,0,0,0-.1.1-.2.3-.4.4,0,0,0,0,0,0-.2.2-.4.3-.6.4,0,0,0,0,0,0t0,0l-3.9,2.2v-35c.1,0,.1-16.3.1-16.3l3.9-2.3s0,0,0,0c.1,0,.2-.1.3-.2.1,0,.2-.1.3-.2,0,0,0,0,0,0,0,0,0,0,0,0,0,0,.1-.1.2-.2,0,0,.1-.1.1-.2h0c0,0,0,0,0-.1,0,0,0,0,0,0,0,0,0-.1.1-.2,0,0,0,0,0,0,0,0,0-.2.1-.3h0c0,0,0-.1,0-.2,0,0,0-.1,0-.2,0,0,0-.1,0-.2Z"/>
              <polygon class="st25" points="453.2 238.2 446.2 242.3 443.5 240.7 443.6 232.6 453.2 238.2"/>
              <polygon class="st17" points="497 235.5 497 243.6 490 239.6 497 235.5"/>
              <polygon class="st25" points="506.7 241.1 506.6 292.3 499.5 288.3 499.7 245.1 497 243.6 497 235.5 506.7 241.1"/>
              <polygon class="st17" points="511.7 238.1 511.6 281.3 511.6 289.4 506.6 292.3 506.7 241.1 511.7 238.1"/>
              <polygon class="st17" points="485 242.5 484.9 250.6 477.9 246.6 485 242.5"/>
              <polygon class="st25" points="494.6 248.1 494.5 299.4 487.5 295.3 487.6 252.2 484.9 250.6 485 242.5 494.6 248.1"/>
              <polygon class="st17" points="499.7 245.1 499.5 288.3 499.5 296.4 494.5 299.4 494.6 248.1 499.7 245.1"/>
              <polygon class="st17" points="472.9 249.5 472.8 257.7 465.8 253.6 472.9 249.5"/>
              <polygon class="st17" points="487.6 252.2 487.5 295.3 487.4 303.5 482.4 306.4 482.5 255.1 487.6 252.2"/>
              <polygon class="st25" points="482.5 255.1 482.4 306.4 475.4 302.3 475.5 259.2 472.8 257.7 472.9 249.5 482.5 255.1"/>
              <path class="st28" d="M524.2,229.6c0,0,0,.2,0,.2,0,0,0,.1,0,.2,0,0,0,.1,0,.2h0c0,0,0,.2-.1.3,0,0,0,.2-.1.2,0,0,0,0,0,0s0,0,0,0c0,0-.1.1-.2.2,0,0-.2.2-.2.2,0,0,0,0,0,0,0,0-.2.1-.3.2,0,0-.2.1-.3.2,0,0,0,0,0,0l-3.9,2.3-6.3-3.6-3.4-2-7,4.1,7,4.1,2.7,1.5-5,2.9-9.7-5.6-7,4.1,7,4,2.6,1.5-5.1,2.9-9.7-5.6-7,4.1,7,4,2.7,1.5-5,2.9-9.7-5.6-7,4.1,7,4.1,2.6,1.5-14.5,8.4-39-22.5,14.6-8.5,7,4.1,2.6,1.5,7-4.1-9.7-5.6,5.1-2.9,7,4,2.7,1.5,7-4.1-9.7-5.6,5-2.9,7,4,2.7,1.5,7-4.1-9.7-5.6,5-2.9,7,4,2.7,1.5,7-4.1-9.7-5.6,3.9-2.2c2.1-1.2,5.5-1.2,7.5,0l28.9,16.7,2.5,1.4c1.1.6,1.6,1.4,1.6,2.2Z"/>
              <polygon class="st23" points="460.9 267.6 460.8 318.9 421.8 296.4 422 245.1 460.9 267.6"/>
              <polygon class="st17" points="475.5 259.2 475.4 302.3 475.3 310.5 460.8 318.9 460.9 267.6 475.5 259.2"/>
            </g>
            <g>
              <path class="st28" d="M480,275.2c0,5.1,0,17.2,0,29.7,0,17.6,0,36.1-.1,36.9-.4,7.7-8.8,13-15.1,16.2-11.5,5.8-23.1,11.4-34.7,17.2-16.3,8.2-31.9,16.7-50.6,18.6-15.9,1.6-31.9-1.3-45.9-9-7.8-4.2-15.4-8.8-23-13.2-9.8-5.7-14.8-13.2-14.8-20.9l.2-65.4v-1s0,0,0,0h0s0,0,0,0c0,.3.2,1.3.3,1.9,1,7.8,5.2,12.1,10.2,16.1,6.4,5.1,14.1,8.8,21.2,12.8,7.2,4.1,14.8,7.9,22.9,9.9,11.6,2.9,23.8,3.4,35.6,1.6.3,0,.5,0,.8-.1.4,0,.7-.1,1.1-.2,2.7-.5,5.4-1.2,8.1-2,3.7-1.1,10.2-3.7,18-7.2,5.8-2.6,12.3-5.5,18.8-8.6,14.7-7,29.5-14.6,36.8-18.9h0c.9-.5,1.6-1,2.3-1.4,4.8-3.1,7.5-7.4,7.9-11.7,0-.4,0-.8.1-1.2Z"/>
              <path class="st14" d="M479.9,276.4c-.5,4.3-3.2,8.6-7.9,11.7-.6.4-1.4.9-2.3,1.4h0c-7.2,4.4-22.1,11.9-36.8,18.9-6.5,3.1-13,6.1-18.8,8.6-7.8,3.5-14.4,6.1-18,7.2-2.6.8-5.3,1.4-8.1,2-.4,0-.7.1-1.1.2-.3,0-.6,0-.8.1-11.8,1.9-24,1.4-35.6-1.6-8.1-2-15.6-5.8-22.9-9.9-7.1-4-14.8-7.7-21.2-12.8-5.1-4-9.2-8.4-10.2-16.1,0-.5-.2-1.5-.3-1.9,0,0,0,0,0,0h0c.3-8.2,6-16,13.5-21.1l51.4-34.9c12.5-8.5,34.4-9.4,47.3-1.9l19.3,11,37.6,21.5,6.6,3.8c6.1,3.5,8.7,8.7,8.1,13.8Z"/>
            </g>
            <path class="st9" d="M485.4,355.2v-7.2s0,0,0,0c0-2.4-1.4-4.7-4.5-6.5l-1.1-.7c0-4.3,0-20.4.1-35.9,0-12.5,0-24.7,0-29.7,0,.4,0,.8-.1,1.2-.5,4.3-3.2,8.6-7.9,11.7-.6.4-1.4.9-2.3,1.4h0c-7.2,4.4-22.1,11.9-36.8,18.9-6.5,3.1-13,6.1-18.8,8.6-7.8,3.5-14.4,6.1-18,7.2-2.6.8-5.3,1.4-8.1,2-.4,0-.7.1-1.1.2-.3,0-.6,0-.8.1-4.9.8-9.9,1.2-14.9,1.1l.8,66.5,20,11.6v8.8h0l39.4,22.7,99-57.5-44.9-24.6Z"/>
          </g>
          <polygon class="st6" points="570.6 256.9 570.6 265.8 563.9 261.9 562.5 262.7 554.9 258.3 563.9 253.1 570.6 256.9"/>
          <polygon class="st6" points="715 173.1 715 181.9 708.8 178.3 707.4 179.1 699.8 174.7 708.8 169.5 715 173.1"/>
        </g>
      </g>
    </g>
  </g>
</svg>