<?xml version="1.0" encoding="UTF-8"?>
<svg id="Layer_1" xmlns="http://www.w3.org/2000/svg" version="1.1" viewBox="0 0 300 278">
  <!-- Generator: Adobe Illustrator 29.2.1, SVG Export Plug-In . SVG Version: 2.1.0 Build 116)  -->
  <defs>
    <style>
      .st0 {
        fill: #0c5880;
      }
    </style>
  </defs>
  <path class="st0" d="M158,3.3c-13.5,5.6-25.6,14.9-30.8,23.5-1.5,2.6-6.5,6-21.3,14.5-16.6,9.7-19.4,11.6-20.1,14.2-1.2,4.4,0,8.4,3.1,10.3,1.6.9,2.8,2.1,2.9,2.6,0,.5.6,1.3,1.4,1.8.9.6.6.7-1,.3-1.4-.4-3.2,0-4.7.9-3.4,2.2-4.5,1.9-1.6-.5,1.3-1.1,2.1-2.3,1.7-2.7-1-.9-4.6,3.5-4.6,5.5s-.6,1.3-2.2.8c-4.4-1.4-6.6-.7-17.6,5.5-10.5,5.8-15.2,9.7-17.4,14.5-.5,1.2-6.4,5.1-13.5,9-6.9,3.9-12.8,7.5-13,8.2-.3.6-1.1.9-1.9.6-2.2-.8-1.7,3.5.6,4.7,1.7.9,2,2.1,2,8.8s-.4,8.1-1.7,9.4c-1,.9-2.2,2.2-2.8,2.8-.5.6-3.2,2.6-5.9,4.3-5.5,3.6-7,5.7-3.4,5,2.7-.5,5.3,1.9,6.3,5.9.5,2.1.2,3-1.4,4-1.2.7-2.1,2-2.1,2.9s-1.7,3-3.9,4.7c-2.7,2.2-4,4.1-4.4,6.6-.8,5.3.2,7.4,4.8,10.1s8.2,6.2,7.3,7.1-2.1.6-3.9.7c-2.9.2-3.4-.1-3.5-2.1-.1-1.3-.8-3-1.6-3.8-1.3-1.3-1.6-1.3-2.8.1-1.1,1.3-1.1,2.1.3,5,1.8,3.7,5,5.3,7.2,3.5,2.8-2.3,5.9-.3,8.8,5.5s2.7,6.2,2.7,7-1.4,3-3.1,5c-2.9,3.3-3,3.7-1.9,6.6,1.4,3.4,4.4,5.3,6.7,4.5,1.1-.5,3.5,1.3,7.4,5.1,4.8,4.7,5.9,6.4,5.9,9s-.5,3.3-1.5,3.3c-1.7,0-3.5,3-3.5,6s1.1,3.2,2.4,4.5,2.6,3.4,2.8,4.7c.2,1.7,4.8,4.8,19.8,13.5,10.7,6.2,19.8,11.3,20.2,11.3s.1-1.6-.5-3.5c-.7-2.5-.7-4.2.1-5.9l1-2.3-3.8,2.1-3.9,2.1-2.5-2.4c-1.7-1.6-2.6-3.5-2.6-5.5s.7-3.5,3.6-5.1l3.6-1.9,2.9,3.2c1.6,1.8,2.9,3.8,2.9,4.5s.7,1.4,1.5,1.4,1.5-.4,1.5-.9-.4-.8-1-.8-.6-.7-.3-1.7c.4-.9.2-1.4-.3-1-.6.3-1.6-.9-2.2-2.7-1.5-4-4.8-5-8.8-2.9-3.6,1.8-5.3,4.2-5.4,7.5,0,1.6-.4,2.8-.9,2.8-1.6,0-20.1-11.2-20.1-12.2s.9-2.1,2-3.5c2.9-3.7,2.6-8.3-1-12.8-1.6-2.1-3-4.4-3-5.1s-2.3-3.8-5.1-6.9c-4.5-4.8-5-5.9-4.2-7.8,1.2-2.6.3-5.5-2.6-8.1-1.1-1.1-2.1-2.7-2.1-3.7,0-1.8-5.6-13-6.9-13.9-.5-.3-1.5-1.9-2.4-3.7-.9-1.7-2.7-4-4-5-2.8-2.2-4.7-5-2.6-3.8.8.4-.1-.7-1.9-2.5-2.6-2.5-3.2-3.9-3-6.4.2-2.6.8-3.2,3.1-3.4,1.5-.2,2.7-1,2.7-1.7,0-2.3,1.9-2.8,5.3-1.4,1.8.7,3.4,1.4,3.6,1.5.2.2-1,1.9-2.8,3.9-3.5,4-3.7,4.8-1.7,6.4,1.1.9,1.7.1,3.5-4,1.1-2.9,2.1-5.8,2.1-6.5s.8-1.8,1.8-2.4c1.4-.9,1.3-.9-.8-.5-3.8.7-6.1-1.6-5.4-5.3,1-4.9,3.6-6.6,10.5-6.6,5.4-.1,6.4-.4,8.5-2.9,1.3-1.5,2.4-3.7,2.4-4.9s.4-1.9,2.2-1.4c1.3.3,2.9.6,3.6.6s1.2,2,1.2,6.8-.3,7.1-.6,7.4-2.1.2-4-.4c-1.9-.5-4.7-.8-6.2-.6l-2.7.4,3,.8c1.7.4,4.9,1.6,7.3,2.7,2.3,1,4.5,1.9,4.7,1.9.3,0,.5-4.9.5-11v-11l4.1-2c2.2-1.2,7.1-4,10.7-6.2,3.7-2.3,7.5-4.1,8.5-4,1.8.1,2.3-1.3.7-2.3-.9-.5-13.8,6.3-20.3,10.8-1.6,1-3,1.7-3.3,1.5-1.2-1.3,1.1-3.6,6.1-6.2,3.1-1.6,5.4-3.1,5.1-3.3-.2-.3-3.3,1.1-6.8,3.1-4.2,2.3-6.7,4.5-7.6,6.5l-1.3,2.9-5.2-2.2c-2.9-1.3-6.2-2.7-7.5-3.2-2.1-.9-1.7-1.3,5.5-5.3,9.1-5.2,8.8-4.9,8.1-5.7-.7-.6-8.3,3.1-11.7,5.7-1.3,1.1-3.4,1.9-4.7,1.9-2.3,0-2.4-.3-2.4-7s.2-7,.5-7c1.2,0,8.3,5,8.7,6.1.3.9,1.6.8,5.3-.4,6.3-2.2,9.9-2.1,16.1.2,4.7,1.8,5.4,1.9,9.5.5,4.4-1.6,6.9-3.1,6.9-4.3s-10.4-7-16.5-10l-3.7-1.8,4.8-2.8c2.7-1.6,4.3-3,3.7-3.2-1.5-.5-7.1,2.3-10,5l-2.3,2v-3.2c0-1.7.8-4.3,1.7-5.8,1-1.4,1.8-3.2,1.9-4,.3-1.9,3.2-5,6-6.6,1.2-.7,6.1-3.4,10.9-6.1,7.6-4.2,9.1-4.8,12.6-4.2,2.5.4,3.9.2,3.9-.4s.5-.8,1.1-.5c1.7,1.1,12.2-6.4,11.5-8.1-.9-2.3,2.8-.9,10.7,4.2,6.2,4,6.7,4.6,6.7,7.9s-1.8,5.3-6.7,2.2c-2.1-1.3-4.7-2.7-5.8-3-1.6-.6-1.5-.3.5,1.3,1.4,1.1,3,2.4,3.7,3,.7.5,1.6,1,2.1,1s2.1,1.2,3.6,2.7,2.9,2.3,3.3,1.9c.4-.3.6-3.8.6-7.7v-7.2c-.1,0-13-7.4-13-7.4-7-4.1-13.2-7.8-13.7-8.3-1.7-1.6,3.1-6,10.9-10,4.4-2.3,10.5-5.9,13.5-8s7.5-4.8,10-6c2.5-1.1,5.2-3.3,6.1-4.9,1-1.7,5.5-5.1,11.2-8.6l9.6-5.7,2.8,2c6.1,4.2,29.6,17.3,30.6,16.9.9-.3-28.4-17.8-31.8-19-.5-.2.1-1.3,1.4-2.4l2.4-2,15.8,9.4c8.7,5.1,16.1,9.3,16.4,9.3s.5-3,.3-6.7l-.3-6.6-7.3-4.4c-4.1-2.4-7.7-4.3-8.2-4.3s-1.1-.6-1.3-1.3c-.4-.8-.6-.8-.6-.1-.1.7,1.3,2.6,2.9,4.4,3,3.2,3.9,7.3,2,8.5-1.5.9-4.8-1.2-5.5-3.6-.4-1.3-1-1.7-1.4-1.1-.9,1.5-8.6-2.9-8.6-4.8s1-1.6,2.3-1.8c1.2-.2,2.2-.8,2.2-1.3s-.4-.8-.8-.5c-.4.2-1.4.1-2.2-.4-1.8-1.1,5.7-3.2,10.8-2.9,2,.1,4.7-.1,5.9-.5,1.6-.5,3.2,0,5.5,1.7,1.8,1.4,5.2,3.4,7.6,4.6,4.8,2.4,5.1,3.3,2,5l-2.3,1.1,2.3-.6c1.6-.4,2.4,0,2.8,1.3,1.9,5.8,2.7,7.4,3.4,6.2.4-.6,1.3-.8,1.9-.5.6.4.8,1.2.5,1.8-.5.7,2.6.8,10.1.3,7.8-.5,10.6-.4,10.1.4-.4.6,0,1.1.9,1.1,1.9,0,2.5,1.5,3.9,9.4.9,4.9,1.5,6.1,3.1,6.4,1.8.2,1.9.2.3-.8-1.5-.9-1.8-2.6-1.8-10v-8.8l-4.7-.6c-2.7-.4-8.7-.5-13.4-.5-4.7.1-9.1-.1-9.7-.5-.7-.4-1.2-2.7-1.2-5.1v-4.4l-8.1-4.5c-8-4.5-8.2-4.6-17.3-4.6s-10.3.5-14.6,2.3ZM181.1,16.3c3.3,2.2,4.6,5.4,3.5,8.3-.5,1.3-1.2,1.2-4.6-.7-3.7-2.1-4-2.6-3.8-6.1.1-2.1.5-3.8.8-3.8s2.2,1,4.1,2.3ZM45,116.4c1.5,1.5,1.2,2.9-.6,2.2-.8-.3-2.9.1-4.5,1-2.9,1.5-3.2,1.4-10.6-2.9-4.1-2.4-7.4-4.7-7.4-5.3.1-.5,1.2-1.2,2.3-1.7,1.9-.7,1.9-.6.7,1-.9,1.1.8.5,4.3-1.5,6.9-3.8,7.5-3.9,8.1-1,.3,1.8.5,1.6.6-.7.1-2.2.9-3.5,2.9-4.7l2.7-1.7.3,7.2c.2,4,.7,7.6,1.2,8.1ZM60,113.1c8.2,4.6,8.9,5.3,7.3,6.5-2.7,2-3.9,1.7-11.2-2.6-3.7-2.2-7.3-4-7.9-4-1.8,0-1.5-2.1.6-3.6.9-.7,1.8-1.4,2-1.4s4.3,2.3,9.2,5.1ZM31,137.8c2.7,3.4,2.6,6.9-.2,7.8-1.3.4-2.8,1.4-3.5,2.3-1,1.4-1.4,1.4-3.5-.7-3.1-2.8-3.4-2.8-7.6.5l-3.5,2.6-1.8-2.4c-2.5-3.2-2.4-3.3,1.4-4.7,1.8-.6,5-2.9,7-5,3.1-3.1,4.3-3.8,6.7-3.4,1.7.2,3.9,1.6,5,3ZM25.3,210.6c2.6,3.6,1.9,6.7-1.6,6.9-1.6,0-3.1-.4-3.4-.9s-.1-.6.5-.2c.7.4,1.2.5,1.2.1,0-.9-2.4-5-3.5-5.8-.6-.4-.4-1.1.5-1.7,2.4-1.6,4.4-1.1,6.3,1.6ZM39.7,239.2c2.7,2.5,3,6.9.7,9.2-2.8,2.9-6.9,1.1-4.4-1.9.9-1.1.8-2-.8-4.3-1.9-2.6-1.9-2.9-.4-3.9q2.3-1.6,4.9.9Z"/>
  <path class="st0" d="M21.1,138.9c-2,1.3-.5,5,1.8,4.4,1-.3,2.2,0,2.5.6.4.6,1.2,1.1,1.7,1.1,1.5,0,0-4.2-2-5.7-1.9-1.5-2.2-1.5-4-.4Z"/>
  <path class="st0" d="M146.1,23.9c-1.5,1-.7,3.1,1.2,3.1s1.9-.5,2.7-1c1.3-.9,1.3-1.1,0-2-1.8-1.2-2.1-1.2-3.9-.1Z"/>
  <path class="st0" d="M200.5,40c-11,6.5-21,11.9-22.3,11.9-2.2.1-2.3.4-2,7.3l.3,7.3,5.3.2c7,.2,16.2,3,16.2,4.8s1.2.8,10.5-5.5c4-2.7,2-2.5-3.7.4l-4.8,2.4-7.2-2.4c-4-1.4-8.3-2.2-9.8-1.9-3.2.6-4.5-.3-5.3-3.7-1-3.9.8-7.6,4-8.4,3.3-.8,8.8-3.7,25.3-13.3,6.6-3.9,12.1-6.7,12.4-6.3,1.1,1.8,1,27.3-.1,28-.8.5-.5,1.4.8,3.1,1.9,2.3,1.9,2.2,1.9-16.8s-.3-19.1-.7-19c-.5,0-9.8,5.4-20.8,11.9Z"/>
  <path class="st0" d="M229.4,32.5c-1.8,1.4-1.8,1.5.9,1.1,1.6-.3,3.8-.1,5,.4,2.1.8,2.1.9-.5.9-3.1.1-4.5,1.8-2.9,3.4s1.1.7,1.1-.4.2-1.2,1,.1c1.4,2.1,1.2,3-.5,3s-1.5.7-1.5,1.5.6,1.5,1.4,1.5c2,0,3.1,1.9,1.8,3.2s-1.6.7-2.7-.2c-1.3-1.1-1.4-1-.9.4.3.9,1.4,1.6,2.4,1.6,2.6,0,5,3.3,5,6.8s1,4.1,4.7,7.4c4.5,4.2,10.3,14.3,10.3,18.1s-1.1,2.8-2.4,4.1l-2.5,2.2,4.7-1.5c4.6-1.5,4.7-1.6,4.4-5.3-.3-2.3,0-3.8.7-3.8s1.1,1.6,1.1,3.6c0,3.3.2,3.5,1.7,2.3.9-.8,1.9-1.3,2.2-1.1.3.1,2-.5,3.7-1.4,4.5-2.4,7.8-1.2,14,5.3,3,3.2,5.4,5.2,5.4,4.5s.7-1.2,1.5-1.2c2.2,0,1.8,2.1-.4,2.7-1.9.5-1.9.6-.1,4.1,1,2.1,2.1,5.1,2.4,6.7.6,2.7.3,3.2-2.4,4.2-1.6.6-3,1.7-3,2.4s.7.6,2-.6c1.9-1.7,2.1-1.7,6,0,2.8,1.3,4,2.4,4,3.9-.1,2.6-1.9,5-4.2,5.4-2.4.4-2.3-.6.5-2.9,2.1-1.9,1.9-1.9-2.1.1s-4.2,2.5-4,3,1.9,1.9,3.8,3.2c6.4,4.3,5.6,5.9-6,12.4-3.6,2-6.6,3.8-6.8,4-.2.1.4,1.6,1.3,3.3,1.6,3.2,2.9,3.9,4,2.1.5-.8,1.1-.7,2.1.1,2.1,1.7,1.7,2.4-2.3,3.8l-3.6,1.3,2.6,1.7c1.5.8,2.7,1.9,2.7,2.3s-2.1,2.1-4.7,3.7q-4.6,2.9-7.6,1.1c-2.7-1.7-3.3-1.7-5.9-.4-3.5,1.8-3.6,2.6,0,2.2,2.5-.3,2.8,0,3.3,3.7.5,3,.7,3.3.8,1.2.1-3.4,1.7-3.5,4.3-.2,1.3,1.6,2.9,2.5,4.9,2.5s2.9.5,2.9,1.1.4.8,1.4,0c.8-.7,2.9-1.6,4.6-2.1l3.3-.9-.7,6.7c-1.2,13.1-7.4,27.4-14,32.5-1.6,1.2-4.3,3.5-6,5-4.2,3.8-16.6,9.8-21.6,10.4-3.7.5-4,.4-4-1.8s-1.6-5.6-2.5-4.7c-.4.3-.2,1.5.4,2.6,1.7,3.2,1.3,4-2.1,4.7-2.4.6-3.5.3-4.5-1.1-1.2-1.6-1-2,1.2-3.1,1.4-.8,2.5-2.1,2.5-2.9s-.5-1.2-1.2-.8-.4-.2.6-1.4c1.1-1.2,1.5-2.2,1-2.2-1.8,0-3.5,1.7-5.2,5.1-.9,1.9-2.5,3.5-3.5,3.7-5.9,1.1-9.8-3.8-7.1-9,.8-1.6,2.2-3.2,3-3.5,2-.7,6,.4,7.9,2.3s1.9,1.3,2.3.9c1.1-1-5.5-6.5-7.9-6.5s-6,2-7.5,5.5c-1.2,3-1.2,3.8.3,7,1.9,4,1.4,5.2-1.5,3.6-2-1-7,1-14.8,5.9-1.9,1.1-2.5,1-5.2-.8-3.3-2.4-5.4-2.7-8.3-1.2-2.5,1.4-4.9,6.2-4.9,9.7s-.6,3.4-7.7,7.4c-1.9,1.1-4.5,2.7-5.9,3.5-2.3,1.6-2.7,1.5-6.8-.6-5-2.7-6.8-2.3-9.6,2.2l-2,3.3-.2-3.5c-.1-2.6-.3-2.2-.8,2s-.7,2.5-.8-7.3c-.1-7,.1-12.6.6-12.6,2.5.4,2.2-.4-1.1-2.7-2.1-1.4-4.5-2.3-5.2-2-.8.3-4.6-1.4-8.5-3.6l-7.1-4.1-2.2,2.2-2.2,2.2,2.8-1.2c3.2-1.5,6.8,0,8.7,3.6.9,1.6,1.8,2.1,3.7,1.7l2.6-.5-.6,5.9c-.5,6.1-4.6,16.9-5.4,14.6-.3-.7,0-1.9.6-2.6.8-.9.8-2.2,0-4.5-.6-1.8-.9-5-.5-7.2.6-3.8.5-3.9-1.7-3.3-3,.7-4.5-2.1-1.9-3.5,2.2-1.3,1.1-1.4-2.2-.2-1.8.8-2.3,1.5-1.9,3,.3,1.2.1,2.1-.6,2.1s-1.1-.9-1.1-2c0-2-.1-2-3.1-.5-1.6.9-3.8,2.4-4.8,3.3s-2.4,1.8-3.2,2-4.2,1.9-7.7,3.9c-6.4,3.5-7.8,5.2-2.7,3.3,3.5-1.3,3.9-1,1.9,1.8-1.9,2.7-6,2.9-7.3.3-.9-1.6-20.7-13.8-25.4-15.7-1.1-.4-2.5,0-3.5,1s-2.6,2.3-3.7,3.1c-1.9,1.4-1.8,1.4,1.3,1.5,2.5,0,3.5-.5,3.9-1.9.4-1.8,1-1.6,7.4,1.7,3.8,2.1,6.9,4.3,6.9,4.9s.7,1.3,1.6,1.3,1.3.4,1,.9.5,1.2,1.9,1.5c1.3.3,4,1.6,6,2.7,2.9,1.8,3.4,2.5,2.8,4.3-.4,1.1-.6,3.3-.5,4.9.1,1.9-.6,3.2-2.2,4.2-2.1,1.4-2.7,1.4-5.9-.1-3.4-1.6-3.7-1.6-6.9.2-2,1.2-3.7,3.2-4.3,5.2-.7,2.4-1.5,3.2-3.2,3.2s-2.3.5-2.3,1.1,1,.9,2.4.5c1.9-.5,2.9,0,4,1.6.9,1.2,1.6,2.8,1.6,3.4,0,1.5-6.6,5.7-7.8,5-.5-.3-1.4,1-2,3l-1,3.5,8.6-4.7c11.1-6,16.1-9.1,18.9-11.6,1.7-1.6,2.5-1.8,4.3-.8,3,1.6,7.5-.1,20.7-8l11.2-6.7,3.5,2.4c2,1.3,5.7,3.4,8.3,4.8,4.2,2.1,5.1,2.2,6.8,1.1,1.8-1.2,2.4-1.1,4,0,1.6,1.2,2.2,1.1,4.2-.8,1.3-1.2,2.3-2.7,2.3-3.5,0-1.4,2.7-3.2,15.7-10.7,6.6-3.9,8.5-4.6,10.1-3.7,2.3,1.2,5.9-.9,7.2-4.4.5-1.3,4.4-4.4,9.4-7.5l8.6-5.1,2.8,1.9c3.1,2.3,4,2.4,17.2,2.5,10.8.1,16.5-1.7,29-9.3,14.3-8.6,22.1-21.1,24.9-40,2.2-14.3,2.2-15.5,0-16.8-1.6-1-2.4-1-3.4-.2-.8.7-1.8.9-2.2.7-.5-.3-2,.4-3.3,1.5-1.5,1.2-1.8,1.8-.8,1.5.9-.3,3.4-.9,5.5-1.2l3.8-.6-2.5,2c-3.4,2.8-6.7,3.6-8.6,2-1.3-1-1.7-1-2.4.2-.7,1.1-1.4,1.1-2.7.3-2.6-1.6-2.9-4.4-.6-4.4s2.8-.7,3.9-1.5c1-.8,2.7-1.5,3.7-1.5s1.7-.9,1.7-3.8.6-4.1,1.9-4.9c4.4-2.8,10.2-20.9,7.2-22.7-.7-.5-.5-1.6.8-3.4,1.1-1.5,2.2-4.3,2.6-6.2.5-2.6.3-3.1-.4-2-.8,1.2-1.1.6-1.1-2.5,0-13.4-9-29.7-20.5-37.3-2.7-1.8-4-3.2-3.3-3.5,2.1-.7-6-2-8.7-1.3-1.4.4-2.5.3-2.4-.1.6-3.5-5.2-10.3-8.8-10.3h-2.5l3.2,4c1.7,2.2,2.9,4.4,2.5,5-1.1,1.7-2.4,1.1-4-1.9-.8-1.6-3.8-5.3-6.7-8.3-2.9-2.9-5.2-5.6-5-6,.1-.4-.5-.5-1.3-.2-1.7.7-1.8.1-1.7-9.4.1-6-.1-6.4-3.1-8.2q-3.8-2.4-6.3-.5ZM250,63.5c0,.8-.9,1.5-2,1.5-2,0-2.6-1.1-1.3-2.3,1.2-1.3,3.3-.7,3.3.8ZM258,71.4c0,2.2-1.2,5.6-2,5.6s-2.2-5.9-1.5-7.1c.7-1.1,3.5,0,3.5,1.5ZM265.3,74c-2,2.3-5.3,2.7-5.3.6s1.5-2.4,4.7-2.5c2.2-.1,2.2,0,.6,1.9ZM276.9,76.6c.2.2-1.9.4-4.7.4q-5.1,0-4.1-2.4l1.1-2.4,3.7,2c2,1.1,3.8,2.2,4,2.4ZM291.4,135.2c-2,6.4-2.3,7-4.7,6.2-2.6-.8-4.7-2.3-4.7-3.5s6.9-4.8,8.8-4.9c.9,0,1.1.7.6,2.2ZM152.1,224c1.8,0,1.9.8,1.9,12.3s-.2,12.6-.6,12.9c-.3.3-2.9-.8-5.8-2.6l-5.3-3.1,1.9-3.6c1-2,2.3-6.2,3-9.5,1.4-7.8,1.9-9.2,2.5-7.7.3.7,1.3,1.3,2.4,1.3ZM200.8,224.6c1.2.8,2.2,2.2,2.2,3.1,0,1.3-.3,1.3-1.5.3-1.8-1.5-4.5.2-4.5,3s-2.6,3.2-4.5,1.4c-2-2.1-1.9-3.6.6-6.8,2.3-3,4.5-3.3,7.7-1ZM135.4,228.2c2.8,2.9,4.6,6.4,4.5,8.8,0,2.1-1.2,3.1-8.1,6.5-4.4,2.1-8.2,4.5-8.5,5.2-.8,2.1-2,1.5-2.7-1.2-.3-1.3-2-4-3.6-5.8l-3-3.4,9.3-5.6c10.3-6.2,10.4-6.2,12.1-4.5ZM116.9,243.6c1.2,1.5,2.1,3.8,2.1,5.1,0,2.7-3.5,6.2-6.3,6.3-1.7,0-2.5.3-8.5,3.4q-3.2,1.7-4.1-.6c-.7-2-.3-2.5,3.3-4.1,5.1-2.3,4.9-2,3.5-4.9-1.4-3.2.1-6.5,3.3-7.1,4.3-.8,4.7-.7,6.7,1.9ZM168.1,244.1c1.6,1.1,2.7,2.5,2.3,3-.4.6-1.1.6-2-.2-1-.9-1.7-.9-2.8,0-.7.6-2.1.8-3.1.5-1.5-.6-1.7-.3-1.2,1.8.8,3-.1,4.2-2,2.7-2-1.7-1.6-4.3,1.2-7.3,2.9-3.1,3.8-3.2,7.6-.5ZM98.2,257c1.5,2.9,1.6,3.7.4,5.5-.7,1.1-2.8,2.4-4.5,2.9-2.6.8-3.6.6-5.2-1s-2.1-3.5-2.4-5.3c-.3-2.9,0-3.4,2.8-4.7,4.7-2,7-1.4,8.9,2.6Z"/>
  <path class="st0" d="M110.1,247.4c1.7,3.7,7.9,5.6,7.9,2.4s-.5-.6-1.4.1c-1.2,1-1.8.7-3.1-1.8-1.9-3.8-5.1-4.4-3.4-.7Z"/>
  <path class="st0" d="M90,257.2c0,.8.9,2.3,2,3.3,1.6,1.5,2,1.5,2,.3s-.9-2.3-2-3.3c-1.6-1.5-2-1.5-2-.3Z"/>
  <path class="st0" d="M156.6,34.8c-.3.5,3.1,2.7,7.4,4.9,4.4,2.3,8,3.7,8,3.2,0-.8-13-8.9-14.2-8.9s-.9.4-1.2.8Z"/>
  <path class="st0" d="M117.7,38.6c-1.1,1.2.3,2.4,2.9,2.4s2.4-.6,2.4-1.5c0-1.5-4-2.1-5.3-.9Z"/>
  <path class="st0" d="M158.6,46.9c-.8,1.3.4,4.1,1.8,4.2.6,0,4.1.1,7.8.2,6.1.2,6.6.1,5.3-1.3-.8-.9-1.5-2.2-1.5-2.8s-.4-1.2-1-1.2-1,.6-1,1.4-1.5,1.6-3.7,1.9c-2.9.4-4.2,0-5.5-1.4-.9-1.1-1.9-1.5-2.2-1Z"/>
  <path class="st0" d="M92.7,54.6c-1.1,1.2.3,2.4,2.9,2.4s2.4-.6,2.4-1.5c0-1.5-4-2.1-5.3-.9Z"/>
  <path class="st0" d="M233.4,61.5c-1.7.8-3.7,2.1-4.5,3.1-1.1,1.4-.6,1.3,2.9-.5,2.3-1.2,4.7-1.9,5.2-1.6.6.3,1-.1,1-.9,0-1.9-.5-1.9-4.6-.1Z"/>
  <path class="st0" d="M226,68.4c0,.9-.6,1.6-1.4,1.6s-1.8.5-2.2,1.2c-.4.6-.3.8.3.5.6-.4,1.9.5,2.8,1.9,1.1,1.7,2,2.3,2.4,1.5.5-.8,1.4-.4,2.9,1.2,3.9,4.1,8.7,17.7,6.3,17.7s-1.1-1-1.1-2.3-.9-4.2-2.1-6.6c-1.4-3.3-2.3-4.1-3.1-3.3s-.6,2.2.6,5.2c.9,2.2,1.6,5.2,1.6,6.5,0,2.9,1,3.1,5,1,3.4-1.8,3.8-4.1,1.6-10.3-2-5.6-6.2-11.7-10.2-14.7-2.6-2-3.4-2.2-3.4-1.1Z"/>
  <path class="st0" d="M170.7,73.2c-2.6,1.7-4.6,3.3-4.3,3.6s1.4-.2,2.3-1c1-.9,2.8-1.9,4-2.2,2.1-.7,5.3-3.7,3.7-3.5-.5,0-3.1,1.4-5.7,3.1Z"/>
  <path class="st0" d="M217.5,75.9c4.3,2.6,8,7.2,10,12.6,1.7,4.3,1.4,7.5-.4,4.6-.7-1-1.1-1-2.2.1-.8.7-3,1.8-5,2.4-3.5,1.1-3.6,1.1-5.8-3-2.5-4.7-9.8-13.2-8.6-10.1.4,1.1.9,5.8,1.2,10.5l.4,8.5-4.7,2.8c-2.5,1.5-4.5,3-4.3,3.2s2.9-.3,5.9-1.2c3-.8,9.8-1.5,15-1.6,5.2,0,8.3-.3,6.8-.5-4.6-.6-3.1-2,2-1.8,4.5.1,4.7,0,5-2.8l.4-2.9-5.8.7c-3.2.4-9.5,2.2-13.9,4.1-9.9,4.3-11.4,4.4-5.4.5,4.4-2.9,16.7-7,20.9-7s2.6-2.6-1.1-9.9c-3.2-6.3-8.1-11.1-11.5-11.1s-1.2.4,1.1,1.9ZM212,90.9c1.7,3.3,1.1,4.7-1,2.1-1.1-1.4-2-2.8-2-3.3,0-1.4,2-.7,3,1.2Z"/>
  <path class="st0" d="M185.8,80.3c-8.5,5-8.8,5.3-8.8,8.9s-1.6,5.1-2.6,1.3c-.3-1.4-.8-2.5-1.1-2.5s-9,5-19.6,11.1c-10.5,6.2-21,12.2-23.2,13.4l-4,2.3-.3,9.6c-.2,6.1-.6,9.4-1.3,9.1-.5-.4-2.6.3-4.5,1.4-3.7,2.2-7.4,2.8-7.4,1.1s-1.7-1.2-7.5,1.4c-5.2,2.5-8.7,5.4-4.9,4.2,1.1-.3,2.6-.1,3.4.4,1.1.7,1.1,1,.2,1s-1,.5-.7,1.1c.4.6,1.3.8,2,.5.7-.2,2.3.6,3.5,1.9,1.5,1.6,1.8,2.4.9,2.7-.7.2-.9.9-.5,1.7.7,1.1,1,1.1,1.6,0,.6-.9,1.3-.2,2.3,2.2,1.1,2.8,1.1,3.5,0,3.7-.7.2-1.3.8-1.3,1.4s.7.8,1.5.4c1.1-.4,1.5.1,1.5,1.9s-.4,2.7-1,3c-1.5.9-1.2,2.2.5,2.2s1.5-.4,1.5-.9.4-.7.9-.3c.5.3,1.2.1,1.6-.5.3-.6-.1-1.3-.9-1.6-.9-.3-1.6-1.7-1.6-3,0-5.4-5.7-14.8-10.5-17.4l-2.6-1.4,3.8-1.8c2-1,4.5-1.6,5.5-1.2,2.6.8,8.6,9,10,13.5l1.1,3.9,3.1-1.9c9.8-5.8,8.4-5.7,15.9-1.3,3.9,2.3,6.4,4.3,5.7,4.7s-.1,1.4,1.5,2.7c3.5,2.7,8.4,10.1,9.1,13.8.6,2.6.4,3-1.4,3s-2.6.9-3.2,2-.8,2-.5,2,4.5-2.5,9.3-5.6c9.6-6.3,7.6-6.3,17.8-.4l4.2,2.4,8.3-4.9c4.6-2.7,9.3-5.3,10.4-5.9s10.9-6.2,21.8-12.5c14.5-8.4,19.7-11.9,19.7-13.3s.5-1.7,2.5-1.2,3.4-.1,5.6-1.7c2.6-1.8,3.5-2,5.1-1,1.7,1,2.7.7,6.7-1.8,2.6-1.7,5.5-3.1,6.3-3.1s2-1.1,2.6-2.5c.7-1.5.8-2.5.2-2.5s-1,.5-1,1.2-.2.9-.6.6c-.3-.3-3.2.7-6.5,2.3-6.7,3.3-10.3,3.6-12.7,1.3-1.5-1.5-1.4-1.6.5-1,1.2.4,2.4.2,2.8-.4s-.9-1-3.4-1-4.1-.5-4.1-1-1.2-1.5-2.7-2.1c-1.6-.6-5-2.1-7.8-3.4-2.7-1.3-6.6-2.6-8.5-3-2.1-.4-.4.7,4.6,2.8,10.4,4.4,20.4,11,18.9,12.5-.2.3-6.3-2.8-13.4-6.7-15.4-8.5-24.2-11.1-37.4-11.1s-17.3,1.6-26.2,5.5c-3.1,1.4-5.9,2.4-6.1,2.2-.3-.2,1.3-1.6,3.3-3,6.3-4.2,16.5-6.8,27.8-7,5.4-.1,9-.3,8-.5-1.1-.2-2.4-.8-2.9-1.3-1.3-1.2,6.9-1.2,9.2,0,.9.5,5.3,1.7,9.7,2.6,4.4,1,9.1,2,10.4,2.3,1.6.3,2.2.1,1.7-.7-.4-.6-1.4-1.1-2.2-1.1s-2.5-.7-3.8-1.5-4.6-1.6-7.5-1.6c-2.8-.1-5.4-.6-5.7-1-.3-.5-1.7-1-3.2-1-1.5-.1.2-.5,3.8-1,5.5-.7,7.7-.5,13.9,1.4,6,1.8,7.7,2.8,9.6,5.5,2.2,3.2,2.4,3.2,3,1.3.8-2.7,4.5-2.8,4.5-.2s-.7,2.6-1.5,3.5c-1.9,1.8-2,3.7-.1,3,.8-.3,1.7-.1,2.1.5.3.6,1.4,1.1,2.3,1.1,1.5-.1,1.5-.2-.2-1.5-1.8-1.3-1.5-2,.7-1.6s.9-.3-1.9-6.6c-2.7-6.3-6.3-10.7-10.6-12.9-2.7-1.4-7.8-1.9-7.8-.8,0,1.9,2.4,4.4,4.3,4.4s11.2,3.8,10.5,4.5-4.7-.6-9.9-2c-15.9-4.2-28.9-3.4-43.6,2.9-3.4,1.4-6.5,2.6-6.9,2.6-1,0,3.6-3.5,7.1-5.3,1.7-.9,2.4-1.6,1.8-1.7-.9,0-1-.7-.4-2.3.5-1.4.5-5.9,0-11-1.1-9.6.1-13.2,4.7-14.3,3.2-.8,2-2.4-1.7-2.4s-3.3.6-4.2,3-1.5,3-2,3-.3,1,.4,2.1c1.1,2.2.6,12.9-1.1,19.9-.6,2.6-.8.5-1-8-.1-10.3-.4-14.1-1.2-16.8-.2-.5,1.1-2,2.7-3.5,1.7-1.4,2.8-2.6,2.5-2.6s-4.4,2.3-9.2,5.2ZM189,84c0,.5-.5,1-1.1,1.2-.7.2-.7,1.2,0,3.1.6,1.6,1.4,7.2,1.7,12.6l.7,9.8-4.4,2.9c-7.7,5.2-7.4,5.6-7.6-8.2-.1-7.4.2-12.4.7-12.4s1-1.1,1-2.4c0-3.5,4.5-8.5,7-7.9,1.1.3,2,.9,2,1.3ZM171.5,102.6c.8,4.3,1.4,10.2,1.5,13,0,5.1,0,5.2-5,8.4-2.8,1.8-5.3,3-5.6,2.8-.2-.3-.7-6.6-1-13.9l-.5-13.5,3.3-3.6c4.3-4.7,5.5-3.6,7.3,6.8ZM176.3,96.5c.5,2.7-1.1,20.6-1.9,21.4s-.4-3.6-.4-8.6-.3-10.5-.6-12.2c-.5-2.4-.3-3.1.9-3.1s1.7,1.1,2,2.5ZM159,113.5c-.6,7.6-1.2,14.1-1.5,14.3-.3.3-.5-3-.6-7.4,0-4.3-.4-10.2-.9-12.9-.6-3.9-.5-5.5.7-7.4,2.7-4.3,3.3-.9,2.3,13.4ZM153,106c1.1,4,3,18.4,3,22.7s-1,2.8-2.7,3.7c-1.6.8-5,3.4-7.7,5.7-4.3,3.8-4.7,4-3,1.4,1.5-2.3,1.9-4.5,1.7-11-.1-4.4-.6-10-1.1-12.5-.9-4.3-1-4.1-1.1,3.8-.1,4.6-.6,11.5-1.2,15.4-1,6.5-1,7.1.9,8.4,2.7,1.9,6.5,8.1,5.9,9.7-.2.7-1,0-1.7-1.5-.9-1.9-2.3-3-4.7-3.4-3.2-.6-3.3-.7-1.7-2.5,1.5-1.7,1.5-1.9.2-1.9-2.2,0-2.9-2.5-1.7-5.7,1.3-3.5,1.4-21.7.1-23.9-1.4-2.6,2.1-6.2,4.3-4.4.8.7,1.5.9,1.5.4,0-1.2,6.1-8.4,7.1-8.4s1.3,1.8,1.9,4ZM135.4,115.2c.8,1.8,1.7,5.3,2.1,7.8l.7,4.5-2.4-2.3c-1.3-1.2-3.1-2.2-3.9-2.2s-.1,1.3,1.9,3.1c2.9,2.6,3.3,3.5,3,7.2l-.3,4.2-4.4-4.2c-3.8-3.6-4.3-4.5-3.8-7.5,1.2-7.7,3.6-13.8,5.4-13.8s1,1.5,1.7,3.2ZM216.5,121.2c1.4.6,2.5,1.4,2.5,1.7s.8.7,1.8.8c2.6.1,16,5.3,19.2,7.3.8.6,2.5,1.4,3.7,2,2,.8,2.1,1.2,1.1,3.5-.6,1.4-1.7,2.5-2.5,2.5s-1.3.7-1.3,1.6c0,2.1-2.1,1.3-11.7-4.1-6.8-3.9-18.9-8.5-21.8-8.4-.5,0,2.4,1.3,6.5,2.8,8.3,3.1,19.4,9.2,22.5,12.2,1.8,1.8,1.8,1.9.2,1.9s-3.9-1.2-6.5-2.8c-2.6-1.5-6.3-3.6-8.3-4.7s-5.6-3-7.9-4.3c-6.8-3.8-18.2-6.2-29-6.2s-17.2,1.5-25.6,5.7l-5,2.5.4,5.4c.4,4.4.2,5.4-1.1,5.4s-1.7.7-2.1,1.5c-.8,2.1.4,1.9,2.9-.5l2.2-2.1,1.6,2.5c1.6,2.4,1.6,2.5-3,5.1-2.6,1.4-5,2.2-5.4,1.8-1.4-1.6-2-5.3-.9-5.3s-.2-1.6-2-3.6c-2.9-3.4-3-3.7-1.4-5.5,3.4-3.8,15.5-11.2,21.6-13.1,4.5-1.5,9.2-2.1,16.8-2.2,5.8,0,9.3-.2,7.8-.4-1.6-.2-2.8-.7-2.8-1.1,0-1.3,11.4-.3,16.6,1.5,5.6,1.9,14.8,2.8,13.9,1.3-.4-.5-1.6-.9-2.9-.9s-2.6-.3-3-.7c-1.3-1.4-8.1-3.2-9.8-2.7-2,.6-2.5-1.1-.5-2,1.7-.8,10.3.3,13.2,1.6ZM196.8,130.6c1.7.3,3.2.9,3.2,1.4s.8,1,1.8,1c2.4,0,7.9,2.7,8.9,4.4.5.7,2.2,2.1,3.8,3.1l3,1.7-2.2-2c-4.9-4.4-2-4.3,7.5.3,4,1.9,7.2,3.8,7.2,4.3s-1.8,2.3-4,4.1l-4.1,3.3-5.7-3.4c-7.9-4.7-16.1-8.5-20.2-9.2-2.8-.6-2.4-.2,2,1.6,9.2,4,17,8.2,20.3,11,6.8,5.8-2.6,2.3-15.8-5.9-10.4-6.5-21.5-9.6-34.7-9.7-5.3-.1-9.9-.4-10.3-.7-1-1,8.9-2.1,14.3-1.6,2.6.2,3.8.2,2.7,0-1.1-.3-2.3-.8-2.8-1.2-1-1,13.5-.2,14.7.8,1.1.9,4.7,1.8,10.1,2.6,1.7.2,4.1.7,5.5,1.1q2.4.6.5-.8c-2.4-1.8-8.9-4-12.5-4.3-1.4-.1-3.6-.3-5-.4l-2.5-.2,2.4-1.3c2.3-1.3,4.1-1.3,11.9,0ZM133.5,139c3.1,6.1,2.9,6.7-1.9,7.4-2.5.4-4.8,1.1-5.1,1.6-1.3,2.1-7.5-6.2-7.5-9.9s5.1-3.5,6.3-3.3c.4.1,1-.5,1.4-1.3.5-1.4.9-1.3,3,.7,1.4,1.3,3.1,3.4,3.8,4.8ZM184.6,142.3c2.7,1.4,7.3,3.2,10.2,4.1s8.3,3,11.9,4.7c6.1,2.8,6.4,3.1,5.1,5-.7,1.1-2.6,2.8-4.3,3.9l-3,1.9-9.5-5.4c-5.3-3-11.1-5.7-13-6-2.9-.5-2.5-.2,2.5,2.2,13,6.2,19.6,10.5,18.2,12-.5.4-3.6-.8-7-2.7-3.4-1.8-8-4.3-10.2-5.4-2.2-1.2-4.3-2.6-4.7-3.1-.5-.7-.8-.7-.8,0s-.4.4-.9-.4c-.7-1-1.3-1.1-3-.2-1.1.7-2.1,1.6-2.1,2.1,0,1.1,6.3,6.1,6.9,5.4.2-.2-.4-1.1-1.5-1.9-2.3-1.7-.6-1.9,3.3-.3,1.5.6,3.4,1.2,4.1,1.4.7.1,2.7,1.1,4.5,2.1,3.6,2.2,4.2,5,1.2,6.7-1,.6-2.5,1.7-3.3,2.3-1.1,1-2.2.8-5.9-1.3-5.7-3.2-6.6-2.6-1.3,1,6.1,4,4.8,5.1-1.7,1.4-7.3-4-7.1-3.8-4.9-5,1-.6,1.4-1.3.9-1.7-2.1-1.5-8.4-11.2-7.8-12.1.3-.5,2.4-1,4.6-1,3.6,0,3.9-.2,3-1.9s-1.9-1.8-6.9-1.4c-5.5.5-6,.4-8-2.2-2.1-2.7-2.8-5.6-1.6-6.8s5-.4,10.4-.2c8.1.2,10.6.7,14.6,2.8ZM165.3,154.9c2.9,2.7,4.9,5.8,6.1,9.8.6,1.9.4,2.3-1.6,2.3s-3,.5-3.8,1c-1.2.8-1.2,1,.5,1s1.4.3-.9,1.5c-1.6.9-3.1,1.3-3.4,1s0-.5.6-.5,1.2-.5,1.2-1.1-.5-.9-1.2-.7c-1.7.6-6.8-5.5-6.8-8.2s-.8-2.4-2-2.7c-2.9-.8-2.5-2,1.8-4.7,4.1-2.6,5.5-2.4,9.5,1.3Z"/>
  <path class="st0" d="M149.6,121.2c-.9,3.6-.7,4.1.9,2.4,1.6-1.6,2-4.6.6-4.6s-1.1,1-1.5,2.2Z"/>
  <path class="st0" d="M161,141.4c0,2.1,1.5,2.8,7.7,3.2,3,.2,5.8.6,6.3.9s3.3.8,6.2,1l5.3.4-4-1.8c-3.9-1.7-10.1-3.3-17.7-4.6-3-.5-3.8-.3-3.8.9Z"/>
  <path class="st0" d="M210.1,77.2c-1.9,1.2-2.9,2.4-2.2,2.6s2.1-.4,3.1-1.3c1.1-1,2.6-1.5,3.6-1.1,1.4.5,1.5.4.4-.9-1.5-1.8-.8-1.9-4.9.7Z"/>
  <path class="st0" d="M216.3,78.7c-2,.7-1.5,2.5.5,2.1,1.1-.2,2.7.4,3.8,1.2,1.1.9.9.4-.5-1.3-1.4-1.5-2.5-2.7-2.5-2.6-.1,0-.7.3-1.3.6Z"/>
  <path class="st0" d="M246,82.2c-.8,1.3-1.5,3.1-1.7,4.1-.2,1.4,0,1.5,1.6.5,1.2-.7,1.9-2.2,1.9-4-.1-1.5-.2-2.8-.2-2.8-.1,0-.8,1-1.6,2.2Z"/>
  <path class="st0" d="M161.2,89.2c-2.9,1.7-5.1,3.2-4.9,3.5.5.4,10.7-5.6,10.7-6.3s0-.6-5.8,2.8Z"/>
  <path class="st0" d="M255,88c-1.7,1-1.5,1.2,2.5,2.6,1.7.6,2.9,1.6,2.8,2.2-.2.7.4.9,1.4.5,1.2-.5,1.5-.2,1,.9-.3,1,.3,2.4,1.5,3.5,2.7,2.4,6.8,11.1,6.8,14.5s.5,2.8,1,2.8c2.1,0-1.9-11.2-6.1-17.3l-2.2-3.2,3.1,2.9c3,2.7,5.3,7.7,6.6,13.6.3,1.6,1.3,2.6,2.5,2.7,1.8.2,1.8-.1.6-5.3-3-13-15.1-24.5-21.5-20.4Z"/>
  <path class="st0" d="M249.1,91.2l-3.1,3.3,2.8.6c6.9,1.4,13.2,8.2,15.8,17,1.9,6.2,4,8.2,2.9,2.6-2-9.2-7.5-16.9-14.5-20.1-2.8-1.2-3.9-2.1-2.9-2.4,1-.1,1.9-1.2,2.2-2.3.7-2.6.3-2.4-3.2,1.3Z"/>
  <path class="st0" d="M123.7,92.7c-1,.9-.8,9.3.1,9.3s1.4,1,2,2.2c.8,1.7,1.1,1.8,1.1.7.1-.9-.6-2.2-1.5-3-1.1-.9-1.5-2.6-1.2-5.6.2-2.4.3-4.3.2-4.3,0,0-.4.3-.7.7Z"/>
  <path class="st0" d="M146.5,97.6c-4.4,2.6-8.4,5.1-9,5.6-1.2,1.2,12.1-6,15.6-8.4,4.5-3.1,1.4-1.8-6.6,2.8Z"/>
  <path class="st0" d="M241.9,96.9c-1.3,1-2.8,1.9-3.2,1.9s-1.1.3-1.4.6c-.4.3,1,.6,3,.6s3.7-.5,3.7-1.1-.4-.7-1-.4c-.5.3-1,.1-1-.4s1.7-1.1,3.8-1.2c3,0,3.3-.2,1.7-.9-2.8-1.2-3-1.2-5.6.9Z"/>
  <path class="st0" d="M250.4,97.9c.4.6.2,1.1-.5,1.1-1,0-1,.3,0,1.2,1.1,1.1,1.4,1,1.8,0s1.1-.8,2.9.9,2.1,2.5,1.2,3c-1,.7-1,1.1,0,2.1s1.5,1,2.2-.2c.7-1.1.1-2.3-1.8-4.3-2.9-3.1-7-5.7-5.8-3.8Z"/>
  <path class="st0" d="M86.6,104.9c-.8,1.3.4,4.2,1.5,3.5.5-.3.9,0,.9.5s.7,1.1,1.6,1.1c2.5,0,1.4-5.4-1.3-5.8-1.1-.2-2.4.1-2.7.7Z"/>
  <path class="st0" d="M106.5,112l-10,6-.2,7.5c0,4.6.3,7.5.9,7.5,1.2,0,15-7.4,19.1-10.2,2.5-1.8,2.7-2.4,2.7-9.4s-.4-7.4-1.2-7.3c-.7,0-5.8,2.7-11.3,5.9ZM117,113.7c0,5.8-1,8.1-3.6,8.7-1.3.4-2.4,1-2.4,1.5s-1.6,1.5-3.5,2.1-3.5,1.5-3.5,2-1.1,1-2.5,1.2c-2.1.4-2.6.1-3.2-2-.5-2.1.1-3.2,3.3-6,3.4-2.9,3.6-3.3,1.4-2.7q-2.5.6-.5-1.1c1.1-.9,3.4-2.2,5.1-2.9,1.7-.8,3.6-2.1,4.4-2.9.7-.9,2.1-1.6,3.1-1.6,1.5,0,1.9.7,1.9,3.7Z"/>
  <path class="st0" d="M87,113.2c0,1.5.9,2.7,2.5,3.4,2.1,1,2.5.9,3-.7.7-2.1-1.5-4.9-3.9-4.9s-1.6.9-1.6,2.2Z"/>
  <path class="st0" d="M263.1,116.7c0,1.2-.7,2.4-1.3,2.6-1,.4-1,.6,0,.6.7.1,1,.5.7,1.1-.8,1.3.6,1.3,2.5,0,1.1-.7,1.2-1.2.4-1.8-.7-.4-1.4-1.6-1.7-2.7-.4-1.9-.5-1.9-.6.2Z"/>
  <path class="st0" d="M87.5,120c-1.8.7-1.9.8-.2,1.5,1.4.6,1.7,2,1.7,7s-.4,6.7-1,7c-1.9,1.2-1,3.5,1.3,3.5s2.2-.2,1.9-10c-.2-5.5-.6-10-1-9.9-.4,0-1.6.4-2.7.9Z"/>
  <path class="st0" d="M270.8,121.6c-2.7,1.3-4.8,2.9-4.8,3.4s1.8-.1,4.1-1.5c3.5-2.3,4.4-2.5,7.3-1.5,1.9.6,4.1,1.9,5.1,3,1.6,1.7,1.5,1.9-2.8,4.4-2.4,1.4-4.8,2.6-5.4,2.6s-1.3.9-1.6,2c-.6,2.5,0,2.5,3.8-.1,1.7-1.1,5.1-3.1,7.8-4.5,2.6-1.3,4.7-2.8,4.7-3.2,0-.8-11.3-7.2-12.6-7.2-.5.1-3,1.2-5.6,2.6Z"/>
  <path class="st0" d="M63.8,130.3c-2.1,1.2-3.8,2.6-3.8,3,0,1,5.7-2.3,7.2-4.1,1.4-1.6.9-1.5-3.4,1.1Z"/>
  <path class="st0" d="M53.3,136.3c-2.9,1.7-5.1,3.3-4.9,3.5.7.6,9.3-3.5,10.1-4.8,1.3-2,.1-1.8-5.2,1.3Z"/>
  <path class="st0" d="M64,143.1c-2.5,1.6-3.8,2.9-2.9,2.9s2-.5,2.6-1.1c1.3-1.3,7.8,1.7,10.7,5,1.2,1.3,2.6,1.9,3.7,1.6.9-.3,2-.1,2.4.4.4.7,0,.8-1.1.4-1.4-.5-1.5-.3-.5,1.4.6,1.1,1.8,2.3,2.8,2.7,1.7.6,1.7.5,0-.8-1.3-1-1.5-1.6-.7-2.1.7-.4,2.5.6,4.3,2.3l3,3.1-2.6,1.2c-2.9,1.3-3.8,3.5-1.1,2.5,2-.8,5.4,2,5.4,4.3s-.4,2.2-.9,3c-.8,1.2-1.2,1.2-2.4.2-1.2-.9-1.6-.9-1.9,0-.6,1.8-3.8.3-3.8-1.7s.6-1.5,2-1.1c2.4.6,2.6-.6.3-2.4-1.3-1.1-1.7-1.1-2-.1-.3.6-.9,1-1.4.6-.5-.3-.9.4-.9,1.6,0,2.1-3.2,4-6.5,3.7-1.2-.1-1.8.6-2,2.4-.2,1.5-1.1,4.1-2,5.9-.9,1.7-1.4,3.4-1.1,3.7.3.4,1.6-1.6,2.8-4.3,1.7-3.7,2.3-4.4,2.6-2.9.7,3.3,2.2,3.4,7.8.5,5.8-3.1,10-3.2,16-.4,3.6,1.7,12,9.1,11.3,9.9-.3.2-2.1,0-4-.5-1.8-.6-4.5-1-5.9-.9-1.7.1-1.3.4,1.5,1,6.5,1.4,11.7,3,11.3,3.5-.2.2-3.7-.3-7.7-1.2-4.1-.8-7.6-1.3-7.8-1-.3.2,3.1,1.2,7.4,2.1,4.3,1,8.4,2.2,9.1,2.8,1.2.9,1.6-.1,1.3-3-.1-.6,1.2-1.7,2.8-2.4l2.9-1.3-1.9-2.6c-5.6-7.2-13.9-14.4-20.4-17.6l-7-3.5,6.3.5c4.7.4,6.2.3,6.2-.7,0-2.4-5.6-10.2-9.4-13.1-2-1.5-3.5-3.1-3.2-3.4s1.4.2,2.3,1c1,.9,2.4,1.3,3.1,1.1,2-.7,1.4-2-1.3-2.7-1.4-.4-2.5-1.1-2.5-1.7s-.5-.7-1-.4c-.6.4-1.7.1-2.5-.5-1-.8-1.5-.9-1.5-.2s.5,1.4,1.1,1.7c.5.4-1.1,1.8-3.7,3.2-4.5,2.4-4.9,2.4-9.3,1-3.5-1.1-4.7-2-5.1-3.9l-.5-2.5-4.5,2.8ZM93.6,150.2c1.7,1.8,4.1,4.8,5.4,6.7l2.3,3.3-3.4-.7c-1.9-.4-4.7-.9-6.2-1-1.8-.1-4.5-1.8-7.3-4.6l-4.4-4.3,3.7-2.3c4.1-2.5,5.2-2.2,9.9,2.9ZM104.7,173.7c3.2,3.3,4.3,6.3,2.3,6.3s-1-.7-1-1.5-.6-1.2-1.5-.9c-1,.4-1.5,0-1.5-1.2s-.3-1.4-.6-1.1-1.9-.2-3.3-1.2-3.4-2.1-4.3-2.4c-2.1-.7-2.4-3.3-.5-4,1.8-.6,6.7,2.1,10.4,6Z"/>
  <path class="st0" d="M273.4,142.4q-1.9,1.5.3,3.7c1.9,2,2.5,2.1,4.9,1,1.5-.6,2.4-1.4,2.1-1.7s-1.4-.1-2.5.5c-1.4.7-2.4.7-3.7-.3-1.8-1.3-1.7-1.4,1.1-2.9,1.6-.9,2.2-1.6,1.3-1.7-.8,0-2.4.6-3.5,1.4Z"/>
  <path class="st0" d="M97,143.5c0,.3,1.6,2,3.6,3.7,3.5,3.1,8.4,11.4,8.4,14.2s-.6,1.3-1.7.9c-1-.4.9,1.8,4.1,4.8,7.1,6.5,6.8,6.1,11.2,12.3,1.9,2.7,3.4,4.4,3.4,3.7s-1.2-2.8-2.6-4.7c-1.5-1.9-2.3-3.4-1.9-3.4s0-1-1.1-2.1c-1.9-2.1-1.9-2.2.4-3.6,1.2-.9,2.2-1.9,2.2-2.4,0-1.2-3.7-1.1-6.1.2-2.8,1.5-4.4-.1-5.9-5.9-1.5-6.3-5.3-12.6-9.4-15.7-3.2-2.4-4.6-3-4.6-2Z"/>
  <path class="st0" d="M54.2,148.8c-2.7,1.3-3.2,2.1-2.8,3.9.4,1.3.1,2.5-.8,3-.7.4-1.8,2.4-2.5,4.3-1.4,4.2-2.7,6-6.3,8.3-2.8,1.7-2.8,1.9-2.8,12.2s.4,10.5,1,10.5,1.5,1,2.1,2.3c.7,1.5,6.1,5.3,14.2,10,7.3,4.2,14.6,8.9,16.2,10.5,1.7,1.6,3.6,2.7,4.2,2.5s4.9,1.7,9.4,4.3c7.7,4.5,8.3,4.7,11.3,3.4,5.5-2.3,9.1-2.3,13.3-.1l4,2,3.9-2.1c6.9-3.6,10.4-5.9,10.4-6.9s-1.6.1-3.6,1.5c-2,1.3-4.3,2.2-5,1.9-.8-.3-1.4,0-1.4.6,0,2.2-8.3.3-10.2-2.4-.5-.7-.8-.6-.8.1s-2.1,1.4-4.7,1.7c-2.7.3-5.9.9-7.3,1.3-2.3.7-2.2.5,1.2-3.7,5.9-7.2,5.9-12.7.1-20.4-2.9-4-9.1-7.4-12.6-7-2.6.4-10.2,4.4-9.5,5.1s2.7-.4,5.6-1.2c4.9-1.5,5.4-1.4,8.5.3,4.4,2.6,8.8,10.1,9.4,16,.3,3.6.2,4.4-.6,3.3-.9-1.3-1.1-1.3-1.1.1s-5.1,5.9-6.7,5.9c-2.1-.1-4.1-2.7-3.2-4.1.8-1.2,1-1.2,1.8.1,1.5,2.3,2.3.5,1.5-3.5-.8-4.3-5.8-11.3-9.6-13.5-2.9-1.6-4.7-.8-3,1.3.8,1,.6,1.6-.8,2.5-1,.6-2.7,2.8-3.6,4.8-1.6,3.4-1.8,3.5-3,1.8-.7-1.1-1.8-2.5-2.4-3.2-.8-.9-.7-1.4.4-1.8.9-.3,1.6-1,1.6-1.6s.7-1.6,1.5-2.4c1.3-1.3,1.3-1.8.1-3.6-2.5-3.5.8-10.9,5.6-12.9,3.4-1.4,9.6.6,14.6,4.8,3.7,3,10.8,13.8,12.7,19.4.8,2.2,2.2,5,3.1,6.2,1.7,2.4,1.7,2.2-.1-4.1l-.7-2.3,5.4,2.7c2.9,1.4,5.5,3,5.6,3.5.2.5.8.9,1.3.9,2.2,0-.5-2.2-6.1-5s-8.3-5-6.6-5,10.3,4.3,11.7,5.6,1.6,1.1,1.7-1.6c0-1.6.4-3.9.7-5,.4-1.2.2-2-.5-2s-.9-.8-.5-2c.4-1.1.2-2-.4-2s-1.1-.5-1.1-1,.8-1,1.8-1,2.5,1.9,4.5,8c1.5,4.4,2.7,8.6,2.7,9.5s.5,1.5,1,1.5c1.4,0,.3-7-2.7-16-3.2-9.9-4-10.7-6.6-7.2-1.1,1.5-2.1,2.8-2.2,2.9s-1.9-.6-4.1-1.7c-2.1-1-6.8-2.4-10.4-3.1-4.8-.9-7.2-2-9.1-4-1.5-1.5-2.9-2.5-3.3-2.2-.3.3-.8-.1-1.2-1-.3-.9-1.2-1.3-2-1s-1.4,0-1.4-.7-.5-.8-1.1-.4c-.6.3-1.5,0-2-.7-.7-1.2-.9-1.2-.9,0s-.3,1.1-1.5.1c-1.1-.9-1.5-.9-1.5-.1s-.4.9-1,.6c-.5-.3-1-.2-1,.4s-.7.7-1.7.4c-1.1-.4-1.4-.3-.9.5.4.7.3,1.2-.3,1.2s-1.2-.6-1.5-1.3c-.3-.6-.3-.1,0,1.2.5,1.7.3,2.1-.7,1.6-.9-.6-1.1-.3-.6.8.4,1,.2,1.7-.4,1.7s-.9.7-.5,1.5c.3.8.2,1.5-.3,1.5s-.7,2.5-.5,5.5c.3,5.2.1,5.6-2.7,7-1.6.9-3.4,1.3-3.9,1-.6-.3-1-.1-1,.5s-.4.8-1,.5c-1.8-1.1-1-2.3,1.4-2.1,1.8.2,2.3-.1,1.8-1.2-.4-1.1-.1-1.4.9-1,.9.4,1.5-.1,1.6-1.1,0-.9.3-3.1.6-4.9.2-1.8,0-5.1-.5-7.2-.9-3.3-.6-4.9,1.3-9.7,1.3-3.2,2.7-6.3,3.1-7,.5-.6.6-2.2.3-3.5-.7-2.8.8-4.4,4.4-5,2.3-.3,2.2-.5-2.4-5.1-4.6-4.4-12.4-9.8-14.2-9.6-.4,0-2.3.8-4.1,1.7ZM61.1,151.6c1,1.3,1,1.7-.2,2.5-1,.8-.8.9.9.4,2.9-.8,6.2.3,6.2,2.1s.6,1.7,1.3,2c1.5.5,1.9,3.3.5,3.5-3.1.5-7.8-.9-7.8-2.3s-.7-.8-1.5-.4c-.8.3-1.5,0-1.5-.6s-.3-.9-.6-.5c-1.1,1.1.7,4.6,2.2,4,1.6-.6,2,1.2.4,2.2-.5.3-1,1.4-.9,2.3,0,1.2.3,1.1.9-.6.5-1.2,1.7-2.2,2.6-2.2s1.4.5,1,1.5c-.3.8-.2,1.4.2,1.4,2.2-.4,3.2.4,3.2,2.3s-3,11.2-4.3,12.4c-1.3,1.3-.7-3.3.9-7.1.8-2,1.3-4.2,1.1-4.8-.2-.7-1,.6-1.7,2.8-2,6.3-3.3,6.8-2.7,1,.5-4.5.4-4.7-.5-1.8-1.3,4-2.8,4.3-2.9.5-.1-1.7-.3-2-.6-.9-.2.9-.9,1.5-1.4,1.2-.5-.4-.2-1.9.6-3.5s1.5-3.5,1.4-4.2c0-.7-.7.2-1.5,1.9-1.4,3.2-3.4,4.5-3.4,2.2s-.6-.9-1.4-.6-1.7-.1-2-.8c-.3-.8-1.2-1.2-2.1-.9-.8.3-1.5.2-1.5-.3,0-1.3,4-4.9,4-3.7s.5.1,1.1-.9c.6-.9,1.4-1.5,2-1.2.5.4.9.2.9-.4s-.6-1.1-1.2-1.3c-.9-.3-.4-1.7,1.5-4.6,2.9-4.5,4.7-5.2,6.8-2.6ZM56,176.8c2.6,2.7,5.1,6.4,5.8,8.8,1.4,4.6,1.6,8.5.5,8.2-.5-.1-2.3,1.3-4.1,3.1-2.7,2.7-3.5,3.1-4.7,2.1-.8-.7-1.5-2-1.5-2.9,0-1.3.2-1.3.9-.2,1.4,2.2,2-.2,1.1-4.3-1.3-5.8-5.6-11.6-10.1-13.5-2.1-.9-3.9-1.8-3.9-2.1,0-.7,8-3.8,9.9-3.9.8-.1,3.5,2,6.1,4.7ZM47.1,183.8c2.4,2.1,3.2,3.8,3.6,7.5.4,3.1.2,4.7-.6,4.7s-1.1-.9-1.1-2c0-3-2.5-7.5-5.5-9.8-1.4-1.1-2.5-2.3-2.5-2.6,0-1.5,3.3-.3,6.1,2.2ZM46.8,190.3c1,1.1.9,1.7-.1,2.5-1.8,1.5-4-.1-4.3-3.2-.2-2.2,0-2.5,1.5-1.7,1,.6,2.3,1.6,2.9,2.4ZM107.7,192.7c2.9.8,5.8,2.1,6.3,2.9.7.7-1.6.3-5.7-1.2-3.7-1.3-7.6-2.4-8.5-2.4s-2-.5-2.4-1.1c-.8-1.3,1.6-.9,10.3,1.8ZM114.7,198.5c4,2.6,2.1,2.7-3.8.2-3-1.3-6.6-2.7-8.1-3.1-1.6-.3-2.8-1-2.8-1.5,0-1.2,11.4,2.3,14.7,4.4ZM62.6,198.5c-.9,1.4-2.4,2.5-3.3,2.5-1.3,0-1-.7,1.2-3,3.3-3.5,4.5-3.2,2.1.5ZM110,199.6c3.4,1.4,6.9,3.2,7.7,4,1.9,1.9,1.5,1.8-5.2-1.1-3.2-1.4-6.2-2.4-6.8-2.2s1.9,1.6,5.6,3.1c3.6,1.6,6.8,3.5,7.1,4.2.7,1.8.4,1.8-4.1-.5-2.1-1.1-5-2.4-6.4-3-2.4-.9-6.8-7.1-5-7.1s3.6,1.2,7.1,2.6ZM83.3,205.8c2,2.2,3.4,6.2,2.9,8.4-.6,2.9-1.9,2.1-2.6-1.6-.6-3.1-4.6-8.2-4.6-5.8s-.9.8-2,.5-2-.9-2-1.2c0-2.6,6-2.9,8.3-.3ZM81,210.5c1.7,2.1.6,4.3-2.2,4.1-2.6-.1-3.8-3.4-1.6-4.7,1.8-1.2,2.4-1.1,3.8.6Z"/>
  <path class="st0" d="M1.1,150.4c-1.4,1.7.4,7.3,2.8,8.6,4.3,2.3,5.1-4,1-8.1s-2.3-2.3-3.8-.5Z"/>
  <path class="st0" d="M137.8,156.9c-1.6,1-2.5,2.1-2.1,2.4.3.4-.3.7-1.5.7s-2.3.4-2.6.8c-.3.5,1.3.8,3.6.8s3.5-.2,2.8-.4c-1.6-.6,3.9-4.2,6.5-4.2s1.7-.2.5-1c-2.1-1.4-4.1-1.1-7.2.9Z"/>
  <path class="st0" d="M252.7,156.2c-.9.5-1.7,1.4-1.7,2.1s.2.9.8,0c.6-1,1.8-.8,5,.8l4.2,2.1-1.9,2.7c-1.2,1.6-20,13-48,29.1-25.4,14.6-46.1,27.1-46.1,27.7,0,2-3.9,5.5-5.3,4.7-.9-.5-.9-.4-.1.6,1.7,1.8,4.7.4,6.2-2.7,1.1-2.6,5.4-5.6,18.7-12.9,2.8-1.5,10.2-5.8,16.5-9.6s12.8-7.6,14.5-8.4c3.5-1.7,5.8-3.1,10-5.9,1.7-1.2,5.5-3.4,8.5-4.9,3-1.6,6.6-3.7,8-4.6,6.4-4.4,16.3-9.2,18.1-8.7,2.5.7,6.9-2.9,6.8-5.6,0-2.1,0-2.2-.9-.2-1.2,3.2-3.9,5-5.2,3.7s.6-4.2,2.9-4.2,1.3-.3.3-1.5c-.7-.9-1.5-1.3-1.8-1.1-.2.3-2.1-.6-4.1-1.9-2.7-1.6-4.2-2-5.4-1.3Z"/>
  <path class="st0" d="M216,164.1c-32.8,19.3-33,19.4-36,17.5-1.6-.9-3.7-1.6-4.8-1.6-2.5,0-32.8,17.6-33.6,19.5-1,2.8.6,4.5,9.8,9.6,5,2.9,9.8,5.8,10.6,6.4,1.2,1.1,5.8-1.2,26.6-13.4,13.9-8,34.2-19.8,45.3-26.1,11-6.3,20-11.7,20.1-12,0-.3-3.2-2.2-7-4.3-5.7-3-7.9-3.7-12.2-3.6-4.7.1-6.7.9-18.8,8ZM243.8,160.7c4.3,2.8,5.5,5.3,2.5,5.3s-2.4.6-3.2,1.4c-.9.7-7.7,4.8-15.1,9.1s-19.2,11.1-26.3,15.1c-7,4.1-13,7.4-13.3,7.4s-2.7,1.5-5.3,3.3c-2.5,1.9-6.3,4.1-8.3,5.1-2,.9-4,2.1-4.4,2.7-.3.6-2,1.7-3.6,2.4-2.8,1.1-3.7.9-10.9-2.9-7.9-4.1-9.5-6-6-7.1,1.1-.3,2.5-1.2,3.1-2,1-1.2.6-1.2-1.9.1-1.7.8-4.1,1.4-5.3,1.2-2.3-.3-2.2-.4.7-3.2,1.7-1.5,6.1-4.5,9.9-6.5,19.3-10.2,19.6-10.3,21.1-9.1,3.4,2.8,7.8,1.3,23-7.5,8.3-4.8,17.9-10.3,21.5-12.2,3.6-2,6.9-4,7.5-4.4,2.1-2,10-.9,14.3,1.8Z"/>
  <path class="st0" d="M233.7,163.9c.4,1.6.9,1.7,3.3.8,3.5-1.3,3-2.7-1-2.7s-2.7.4-2.3,1.9Z"/>
  <path class="st0" d="M182.9,194.5c-7.6,4.3-11.2,5.7-13.6,5.2-1.3-.2-2.3,0-2.3.4,0,2.2,6.8.6,13.6-3.2,6.4-3.5,8.4-4.9,7.1-4.9s-2.4,1.1-4.8,2.5Z"/>
  <path class="st0" d="M139.6,162.7c-1.1,1.2-.6,2.5.8,2,.8-.3,2.4.5,3.6,1.8,1.6,1.7,1.8,2.4.8,2.8-1.1.4-1.1.7,0,1.8,1,1.1,1.4,1.1,2.1.1.5-.9,1.1-.5,2,1.4.8,1.9.9,3,.1,3.8-1.5,1.5-1.2,2.9.4,2.3s1.7-.1,2,.6c.2.7.5.4.5-.6.3-5.3-9.8-18.4-12.3-16Z"/>
  <path class="st0" d="M126.5,163.9c.3.5,0,1.3-.6,1.6-.7.5.9,2.6,4.1,5.7,5.2,4.9,10,13.4,10,17.5s.5,2.3,1.1,2.3c1.7,0,.5-6.2-2.3-11.6-1.2-2.6-4.5-6.6-7.2-9.1-3.4-3.1-4.6-4.7-3.9-5.4,1.6-1.6,5-.2,9.5,3.9,4.6,4.2,6.7,7.8,8.4,14.7.9,3.9,1.3,4.6,1.9,3.1,2-4.8-5.8-18.6-12.6-22.1-3.1-1.6-9.4-2-8.4-.6Z"/>
  <path class="st0" d="M30.4,172.4c2.2,1.8,2.9,3.2,2.8,5.7,0,1.9-.6,3.5-1.2,3.7-1,.4,1.6,3.1,3,3.2.3,0,.4-2.8.4-6.2-.2-5.5-.5-6.5-2.5-7.5-4.1-2.2-5.7-1.4-2.5,1.1Z"/>
  <path class="st0" d="M279.8,173.1c1.4,1.5,1.6,5.5.3,6.3-1.7,1.1-4.3-.7-5.6-3.8-1.1-2.6-1.5-2.8-2.1-1.3-.9,2.4,3.1,6.7,6.2,6.7,4.4,0,5.6-6.9,1.6-8.5-1.4-.5-1.5-.4-.4.6Z"/>
  <path class="st0" d="M270.1,180.6c-.1,3.9-.9,4.7-2.8,2.9-3.1-3.1-9.2-.7-11.3,4.5-1.1,2.5-.9,3.4,1,6.5l2.2,3.5-3.6,2.1c-4.7,2.7-4.5,3.1.4,1.2l4.1-1.6,3.2,3.1c1.8,1.8,4.1,3.2,5.1,3.2,1.6,0,1.5-.3-.7-2-1.4-1.1-2.9-2.9-3.2-4-.4-1.1-1.7-2.3-2.9-2.6-3.5-.9-5-4.8-3.1-8.4,2.2-4.2,4.4-5.1,8.3-3.5,2.8,1.2,3.2,1.9,3.2,5s-.7,4.3-2.6,6c-1.9,1.8-2.2,2.5-1.2,2.5s2.1-.7,2.8-1.5c1.7-2.1,4-.2,4,3.3s.3,2.3.6,1.9c.6-.5-.8-11.9-2.6-21.2-.7-3.6-.8-3.7-.9-.9Z"/>
  <path class="st0" d="M151.1,182.7c-1.4,2.7,0,4.7,2.2,3,1.4-1,1.4-1.5.2-3-1.3-1.8-1.4-1.8-2.4,0Z"/>
  <path class="st0" d="M126.8,184.6c-.3.3.5,2.5,1.8,4.9,1.3,2.5,3,6.6,3.7,9.2l1.4,4.8.5-3.8c.2-2.2,0-3.7-.7-3.7-.5-.1.3-1.2,2-2.5,3.3-2.7,3-4-.7-2.6-1.5.6-3,.6-3.9,0s-1.1-1.2.6-2.5q2-1.6-.2-1.1c-1.8.4-2.3.1-2.3-1.4s-1.1-2.5-2.2-1.3Z"/>
  <path class="st0" d="M29.2,192.3c-1.7,4.6-1.5,6.1.8,8.2,1.5,1.4,3.3,1.8,6.7,1.6,4.7-.3,5.3,1.2.9,2.9-1.9.7-1.9.9-.4,1.5,2.4,1,4.9-.1,5.5-2.4.4-1.7.9-1.6,5.3,1.3,2.7,1.7,6.2,3.9,7.9,4.8s4.3,3.7,5.8,6.2c2.9,4.8,6.5,7,10.5,6.4,2.7-.4,3-1.7.5-3.2-1.3-.8-2-.8-2.7.3-.7,1.2-1.1,1.2-2.4.2-.9-.8-1.6-1.9-1.6-2.7s-.8-1.9-1.8-2.6-2.1-2-2.4-2.9c-.8-2.1-16.5-11.1-18.7-10.7-1,.2-3-.4-4.5-1.2-2.4-1.2-2.8-1.2-3.7,0-.8,1.3-1.3,1.1-2.9-.9-2.7-3.1-2.6-6.1.1-6.1s1.9-.4,1.5-1.6-.6-1.8-.6-2-.6-.4-1.3-.4-1.8,1.5-2.5,3.3Z"/>
  <path class="st0" d="M37,191.8c0,1.1.9,2.7,2,3.7,2.4,2.2,2.5,1.4.5-2.5-1.8-3.4-2.5-3.8-2.5-1.2Z"/>
  <path class="st0" d="M112.5,214.5c2.2,1.4,4.5,2.5,5,2.5.6-.1-.8-1.2-3-2.5-2.2-1.4-4.4-2.5-5-2.5-.5.1.8,1.2,3,2.5Z"/>
  <path class="st0" d="M153,216c1.3,1.1,3.4,2.3,4.7,2.6,2.6.7,2.9,1.4,1.1,3.2s-.8,1.2-.1,1.2,1.4-.7,1.7-1.6c.4-.9,1.3-1.4,2.1-1,.8.3,1.5.2,1.5-.2,0-.7-10.9-6.2-12.4-6.2s.1.9,1.4,2Z"/>
  <path class="st0" d="M71,239.6c2.7,2.1,10.1,4.3,14,4.3s-.9-1-5-2.3-8.4-2.7-9.5-3.1c-1.5-.6-1.4-.3.5,1.1Z"/>
  <path class="st0" d="M66,261.4c0,2.4,2.6,3.9,4.9,2.6,1.2-.6,2.1-1.3,2.1-1.6s-.5-.2-1,.1c-.6.4-2.2-.1-3.5-.9-2.1-1.4-2.5-1.4-2.5-.2Z"/>
</svg>