<?xml version="1.0" encoding="UTF-8"?>
<svg id="Layer_1" xmlns="http://www.w3.org/2000/svg" version="1.1" viewBox="0 0 300 160">
  <!-- Generator: Adobe Illustrator 29.2.1, SVG Export Plug-In . SVG Version: 2.1.0 Build 116)  -->
  <defs>
    <style>
      .st0 {
        fill: #0c5880;
      }
    </style>
  </defs>
  <path class="st0" d="M271.4,11.2c-1.7,3.3-1.6,3.3.3,1.5,1.1-.9,2.7-1.7,3.7-1.7s1.5-.4,1.1-.9c-.3-.6.6-.6,2.3-.1,4,1.1,7.5,3,8.4,4.6.5.6,1.7,1,2.8.7s2.7-.2,3.6.1c1.3.5,1.4.9.4,2.1s-.9,1.5.9,1.5c2.8,0,2.7-1.2-.6-5-2.2-2.6-3.1-3.1-5.5-2.6-1.9.4-4.2-.1-6.6-1.4-5.6-3-8.8-2.6-10.8,1.2Z"/>
  <path class="st0" d="M278.6,13.1c.5.9-.1,1-2,.5-1.6-.4-3.3-.3-3.9.2-.7.5-2.5,1.3-4,1.8-2.6.9-2.7,1.1-1.3,2.9,1.3,1.7,1.7,1.8,2.5.6.5-.8,2.7-1.5,5.2-1.5h4.3c0-.1,1.5,5.7,1.5,5.7,1.4,5.2,1.4,6.1,0,8.5-2.6,4.8-7.9,3.7-7.9-1.6s-1.6-1.5-2.3,3c-.4,2.9-.2,3.8.9,3.8s3.3.9,5.5,2.1c5.5,2.8,8,2.2,10.4-2.4,1.4-2.6,2.9-4,4.8-4.4,3.1-.6,5.7-4.6,5.7-8.7s-3.2-3.4-3.4,1.3c-.1.8-.7,1.6-1.4,1.9-.7.2-1-.2-.6-1.1.3-.8-.1-1.7-.9-2-1.1-.4-1.4.3-1.3,3.2,0,2.8-.8,4.7-3.3,7.9-1.9,2.3-3.7,4.2-4.1,4.2s-.1-2.5.7-5.6c1.1-4.2,1.2-6.3.4-8.6-.6-1.7-1.1-4.4-1.1-6,0-3.7-1.6-6.8-3.6-6.8s-1.2.5-.8,1.1Z"/>
  <path class="st0" d="M256.2,15.7c-1.8.3-4.1,1.2-5.1,2.2s-5.5,2.5-10.6,3.5c-4.8,1-10,2.2-11.4,2.8s-3.3,1-4.3.9c-.9-.1-1.9.3-2.3.9-.3.5-1.6,1-2.8,1-3.7,0-31.7,7.2-31.2,8.1.3.4,0,1.1-.6,1.5-.8.4-.9.3-.5-.4.5-.8-.1-1.2-1.4-1.2s-1.8.4-1.5,1c.3.5,0,.7-.9.4-1.9-.7-28.9,7.5-43.6,13.3-22,8.7-47.1,21.2-62,30.7-1.9,1.3-8,5.2-13.5,8.8-36.6,23.6-33.7,22-37.8,21.3-3-.6-4.3-.1-9.8,3.9-6.5,4.8-9.4,8.3-10.9,13.4-.9,3.4,2,10.9,6.7,17.1,2.5,3.3,13.3,9.1,16.9,9.1s14-9.7,16.5-14.5c1.9-3.7,4.9-6.5,14.2-13.3,6.5-4.8,12.8-9.4,14-10.2s6.8-4.7,12.5-8.8c28.1-20,59.1-35.5,92.7-46.2,14.2-4.5,45.1-13,51-14,2.8-.4,8.2-1.6,12-2.6,3.9-.9,11-1.8,15.9-1.8,7.4-.2,9-.5,10.2-2.1,1.9-2.5,1-3.1-1.8-1.1-4.1,2.9-4.7,2.2-3.3-4.3,1-4.8,1-6.3-.2-8.5-1.3-2.6-3.3-3.5-3.3-1.6s.4,1,1,1c1.7,0,.8,8.4-1.3,11.3-1.7,2.6-2.4,2.8-6.8,2.4-2.7-.2-4.9.1-4.9.6s-.7.6-1.6.3c-.9-.4-2.2-.2-2.8.2-.6.5-3.9,1.9-7.4,3l-6.4,2.1.7-3.8c.4-2.6,0-5.7-1.4-9.7-1.1-3.2-1.9-5.9-1.8-5.9s1.2-.6,2.4-1.3c2.7-1.4,6.3-1.6,6.3-.2s-1.3,1-3,1-3,.4-3,1c0,1.3,1.2,1.2,8.5-.4,6.6-1.5,16.8-4.9,12.1-4-7.7,1.4-8.4,1.2-2.1-.5,4.8-1.4,7.2-1.7,7.6-.9,1.2,1.8,3.9,0,3.9-2.6s.6-2.6,2.3-2.9q2-.4-.3-.4c-1.4,0-4,.2-5.8.4ZM227.4,32.1c-.3.5-1.1.7-1.7.3-.7-.3-.4.1.6.9,1.2,1,1.6,2.4,1.3,4.1-.3,1.8,0,2.6,1,2.6,3.8,0-.2,4.9-4.4,5.3-1.7.2-3.5.6-3.8,1-.3.3-1.3.3-2.2,0-1.1-.5-1.3-.3-.7.7s.3,1.2-1.3.8c-1.2-.4-2.4-.2-2.7.2-.3.5-2.4,1.1-4.8,1.5-2.3.4-4.5,1.1-4.8,1.6s-3,1-6.1,1.2c-3.1.1-5.4.5-5.2.8.3.6-.8,1-5.8,2.4-.5.2-1.1.4-1.5.5-.5.2-1.2.4-1.8.5-.5.2-1.2.3-1.5.4-.6.2-11.7,4.2-17,6.1-4.1,1.5-6.1,2.2-7.5,2.6-2.4.5-17.8,7.5-27.2,12.3-5.7,2.8-10.3,4.9-10.3,4.5s-.6.1-1.4.9c-2.7,2.7-11.5,7.9-12.5,7.3s-1.1,0-1.4.8c-.8,2.1-9.8,7.8-11.4,7.2s-1.1-.1-.8.4c.3.6.1,1-.4,1s-1.1-.6-1.1-1.3-.3-.7-1,.3c-.6.9-.5,1.7.3,2.2s.6.8-.5.8-1.8.4-1.8,1-1.2,1.6-2.7,2.4c-1.6.8-4.1,2.6-5.8,4-3.3,2.9-4.5,2.1-4.5-2.9s.3-2.7,1-1.5c.5.8,1,1,1.1.5,0-.6.4-.1.9,1,.7,1.7.9,1.5.9-1.2.1-1.7-.4-3.5-1.1-3.9-.7-.5-.9-.2-.5.9s.2,1.4-.8,1c-1.9-.7-3.6,3.8-2.9,7.4.4,2.6-.4,3.4-10.8,10.7-10.1,7.1-20.3,16.6-20.3,18.8s-2.6,3.3-5.8,6.3c-4.3,4.1-6.6,5.5-8.7,5.5s-3.2-.5-3.5-1c-.3-.6.3-1,1.4-1s2.8-1.1,3.9-2.5c1.7-2.1,1.8-3.1,1.1-6.6-.9-3.7-4.3-9.9-5.4-9.9s.7,3.3,2.2,5.5c3.1,4.6.7,8.9-4.9,8.4-4.2-.4-5.5-1.4-7.9-6-3.8-7.5-1.9-12.6,4.3-11.5l3.3.7-2.5-1.5c-1.4-.9-3.3-1.5-4.3-1.6-1.9,0-5.4,3.1-5.9,5.2-.4,2.2,1.1,6.7,3,8.7,6.4,6.8,8.2,9.1,7.2,9.1-2.5,0-5.1-2.3-8.6-7.6-2.7-4.1-3.7-6.7-3.8-9.8-.1-6.1,1.7-7.9,7.4-7.3l4.5.5-3.2-1.6c-4-1.9-4.1-2.9-.7-4.2,1.5-.6,3.8-1.9,5.3-2.9,1.4-1,5-2.1,7.9-2.4,3.4-.4,6.4-1.5,8.6-3.2,1.8-1.4,3.7-2.5,4.3-2.5s1.8-.8,2.9-1.8c2.9-2.7,14.6-10.2,16-10.2s1.4-.6,1.7-1.3c.8-2.1,19.9-14.3,32-20.4,4.2-2.2,7.4-4.3,7-4.6-.3-.4.2-.7,1.1-.7s6.9-2.7,13.1-6c7.9-4.2,11.6-5.7,12.1-4.9.4.8.3.9-.4.5s-1.2-.2-1.2.5-.3.9-.7.6c-.3-.4-3.4.8-6.7,2.7-3.4,1.9-12.1,6.6-19.3,10.4-7.3,3.9-13.8,7.6-14.5,8.2s-5.8,4-11.2,7.5c-11.8,7.7-10.7,6.8-9.7,8.3.5.9,1.6.5,3.7-1.6,1.7-1.6,4.9-3.9,7.2-5.2s4.2-2.8,4.2-3.2.4-.7.9-.4c.4.3,2.1-.5,3.6-1.8,1.6-1.4,4.6-3.2,6.7-4.2,2.1-.9,3.8-2.1,3.8-2.6s.7-.8,1.5-.8,1.5-.5,1.5-1.1.4-.7,1-.4c.5.3,1,.1,1-.5s.4-.9.9-.5c.5.3,1.7-.3,2.7-1.2,1-1,2-1.7,2.3-1.5.3.1,1.4-.5,2.4-1.3.9-.8,1.7-1.2,1.7-.9s2.6-.8,5.7-2.5,6.2-3.1,6.9-3.1,1.4-.5,1.6-1c.2-.6,1.2-1.2,2.3-1.4,1.1-.3,3.9-1.4,6.2-2.5,2.3-1.2,4.7-2.1,5.3-2.1s1.8-.4,2.8-.9c6.7-3.5,22.5-8.9,49.7-16.7,3.3-1,6.5-1.9,7-2.1,4.6-1.4,14.3-3.2,15.3-2.8.7.3,1,.1.7-.4s2.1-1.5,5.2-2.1c3.2-.7,6.3-1.3,6.8-1.5,1.4-.3,3.6,1.6,2.9,2.6Z"/>
  <path class="st0" d="M204.5,36.1c.4.5.1.9-.4.9s-.3.9.6,1.9c1.8,2.2,3.8,1.8,2.9-.5-.3-.8,0-1.4.6-1.4,1.8,0,.3-1-2.1-1.5-1.2-.2-1.9,0-1.6.6Z"/>
  <path class="st0" d="M194.6,40.7c.3,1.7,0,2.1-1.6,1.8-1.1-.2-2,.1-2,.6s-.4.7-1,.4c-.5-.3-1-.2-1,.4s-.9.8-2,.6-1.8,0-1.5.5c.6,1,3.4.6,6.2-.8s2.6-.8,3.6-.7c.9.2,1.7-.1,1.7-.6s.5-.8,1.1-.7c.6.2,1.4-.4,1.6-1.2.3-.9.1-1.1-.4-.5-.7,1-1.5,1.1-4,.6-.4,0,.1-.7,1.1-1.4,1.6-1.2,1.6-1.3-.2-1.3s-1.9.6-1.6,2.3Z"/>
  <path class="st0" d="M221.9,40.1c-.7.4-1.8.5-2.5.2s-1.9-.1-2.6.3c-1.4.9-2.8,1.2-6.5,1.6-1.3.1-2.3.5-2.3.8s-1.4.7-3.2.8c-1.7.2-3.6.7-4.2,1.1-1,.8-6,2-9.3,2.3-.7.1-1.3.5-1.3.9s-.9.6-2,.4-2,.1-2,.6-.4.7-1,.4c-.5-.3-1-.2-1,.4s-.9.8-2,.6-2,0-2,.5-.9.7-2,.5-2,.1-2,.6-.4.7-1,.4c-.5-.3-1-.2-1,.4s-.8.8-1.7.6c-1-.1-3,.4-4.4,1.1-1.5.7-3,1-3.4.6-.5-.4-.5-.1-.1.5.5.8.1,1.3-1.1,1.4-4.4.2-10.3,2.4-10.3,3.9s-.5.8-1,.5c-1.4-.9-5.2.4-4.5,1.6.4.5-.4.8-1.6.6s-3.6.3-5.2,1.1c-2.4,1.2-2.7,1.6-1.5,2.3,1.5.8,10-2.5,10.6-4.1.2-.4,1.2-.6,2.2-.3,1.2.3,2,0,2-.6s.4-1,1-.6c.5.3,1.7.1,2.7-.4,3.6-2,11-4.8,14.8-5.7.6-.1,3.6-1.2,6.8-2.3,4.8-1.7,5.7-1.8,5.7-.5s-.5,1.2-1.2.8-.8-.3-.4.5c.9,1.4,2.6.5,2.6-1.4s2.7-2.7,3.4-1.2c.2.7.5.5.5-.5.1-1.1.8-1.6,2.1-1.3,1.4.3,2-.2,2-1.3s.2-1.5,1-.2c.5.8,1,1,1,.5s.9-1.1,1.9-1.2c1.1-.1,4-.9,6.5-1.7,2.6-.9,5.5-1.6,6.6-1.6s2.1-.4,2.4-.9c.8-1.3,3.6-.7,4.8,1,.8,1.1.9,1.1.4-.4s0-1.7,1.3-1.7,2.2.6,2.4,1.2c.3.7.6.4.6-.7.1-1.5.3-1.7,1-.7.6,1.1.9.9,1.3-.5.5-2-1.1-2.6-3.3-1.2Z"/>
  <path class="st0" d="M164,52.1c0,.4-.9.6-2,.4s-2,.1-2,.6-.4.7-1,.4c-.5-.3-1-.2-1,.3s-.7.9-1.5,1-2.2.3-3,.4-1.5.5-1.5,1-.5.6-1,.3c-.6-.3-1.3.1-1.6.9-.3.9-1,1.3-1.5,1s-.9-.1-.9.5-.9.8-2,.6-2,.1-2,.6-.4.7-1,.4c-.5-.3-1-.1-1,.5s-.5.8-1.2.4-.8-.3-.4.4c.5.9,1.5.8,3.7-.3,1.6-.9,2.9-1.3,2.9-1s1.3-.1,3-1c1.6-.8,3.3-1.5,3.6-1.4.4,0,1-.4,1.4-1.1.4-.6,1.3-1.3,2.1-1.4,6.7-1.3,13.3-4.3,9.4-4.3s-1.5.4-1.5.8Z"/>
  <path class="st0" d="M137,62.1c0,.5-.5.7-1.2.3-.7-.5-.8-.3-.3.6.6,1,.4,1.2-.9.7-1.1-.5-1.5-.3-1,.5s.2.9-1,.5c-1-.4-1.9-.1-2.2.8-.4.8-1,1.2-1.5.9s-.9,0-.9.6-.4.9-.8.6c-.4-.2-3,.8-5.6,2.3-2.8,1.7-4.3,3.1-3.7,3.5s1.1.3,1.1-.2,1.4-1.2,3.1-1.6c1.8-.3,2.8-1,2.4-1.7-.4-.6-.1-.9.6-.8.8.2,3.9-1,6.9-2.6s5.8-2.8,6.2-2.7.5-.5.2-1.3c-.7-1.7-1.4-2-1.4-.4Z"/>
  <path class="st0" d="M122.1,64.9c-1.1,1.1-2.1,1.6-2.3,1.1-.2-.6-.9-.6-1.8,0-1.3.8-1.3,1.1-.1,2.2,1.1,1.1,1.3,1.1.6-.1-.6-1.1-.4-1.3.9-.8,1,.4,2.4-.1,3.5-1.2s2.2-1.7,2.5-1.4c.3.4.6.1.6-.5,0-1.8-1.8-1.4-3.9.7Z"/>
  <path class="st0" d="M133.3,67.7c-.7.2-1.3.9-1.3,1.4s.5.7,1.2.3c.6-.4.8-.3.5.2-.3.6-.2,1.6.4,2.4.7,1.3.9,1.2.9-.3s.5-1.7,1-1.7,1-.7,1-1.5c0-1.5-1.4-1.8-3.7-.8Z"/>
  <path class="st0" d="M111.7,69.5c-2.3,1.6-2.1,2.2.5,2,1.2-.1,2.4-.7,2.6-1.3.2-.7.9-.9,1.5-.5.7.3.8.2.4-.2-1.2-1.4-3.2-1.4-5,0Z"/>
  <path class="st0" d="M121.5,74.2c-3.8,2-6.9,4.2-6.7,4.8.1.6-.2.9-.8.5-1.3-.8-9,3.5-9,5.1s-.4,1.6-1,1.9c-.6.4-.7-.1-.3-1.1.5-1.4.3-1.5-1.5-.5-1.2.7-2.2,1.9-2.2,2.9,0,1.5-.2,1.5-1,.2-.5-.8-1-1.1-1-.5s.5,1.7,1,2.5c.6,1,1,1.1,1,.2s.5-1.2,1-1.2c1.8,0,7-4.3,7-5.8s.7-1.2,1.8-.9c2,.4,7.2-1.9,7.2-3.3s.7-.6,1.7-.3c1,.4,1.4.2.9-.5-.3-.6-.1-1.4.5-1.8.8-.4.9-.3.5.4-.9,1.5-.3,1.5,2.9,0,1.5-.7,2.4-1.7,2-2.5-.3-1.1.1-1.3,1.5-.8,1.3.4,2.2.1,2.6-.9.3-.9,1.1-1.3,1.8-.9.6.3.7.2.3-.2-1.4-1.6-3.1-1.1-10.2,2.7Z"/>
  <path class="st0" d="M115,73.1c0,.5-.4.7-1,.4-.5-.3-1-.1-1,.5s-.4.8-1,.5c-.6-.4-.7.1-.3,1.2.6,1.6.5,1.6-1,.4-1.4-1.1-1.8-1.1-2.3.3-.3.9-1,1.3-1.5,1s-.9,0-.9.6-.4.8-1,.5c-.5-.3-1-.1-1,.5s-.5.8-1.2.4c-.9-.5-.9-.2.1.9,1.5,1.8,2.6,2.3,1.6.7-.3-.6.3-1,1.4-1s2.1-.5,2.3-1.1c.3-.9,2.2-1.5,5.1-1.8.5-.1.5-.6.2-1.1-.3-.6.1-1,.9-1s1.6-.7,1.6-1.5-.2-1.5-.5-1.5-.5.5-.5,1.1Z"/>
  <path class="st0" d="M104,74.1c0,.5-.4.8-.9.5s-2.5.5-4.5,1.9-3.9,2.5-4.1,2.5c-.3,0-7.2,4.4-12.5,8-.8.5-4.4,2.9-7.9,5.3-3.6,2.3-6.6,4.8-6.9,5.6-.3.9,0,1.1.7.6.8-.4,1.4.1,1.8,1.4.6,2.2,1.2,2.5,3.7,1.5,1.6-.6,1.2-2.4-.5-2.4s-.7.4-.4,1c.3.5.4,1,.1,1s-1-1-1.7-2.2c-1-1.8-.9-2,.4-1.5,1.2.4,1.4.2,1-1-.5-1.2-.3-1.4.7-.8.8.5,1.1.4.7-.2-.8-1.3,2-2.6,3.5-1.6.7.4.8.1.3-.7-.6-1-.4-1.2.8-.7.9.3,1.6.3,1.6-.1-.4-2.3.3-3.4,1.7-2.8,1,.4,1.3.2.8-.6s-.2-.9,1-.5c1.1.5,1.5.3,1-.5s-.2-.9,1-.5c1.1.5,1.5.3,1-.5s-.2-.9.9-.5c.9.3,1.6.3,1.6-.1-.3-2,.2-3.3,1.1-2.7.6.3,1,.1,1-.6s.3-.9,1.4,0,1.4.8,1.2-.6c0-1.1.5-1.7,1.6-1.7,1,.1,1.5-.3,1.1-.9s0-.8,1.1-.4c1.1.5,1.5.3,1-.5s-.2-.9,1-.5c1.1.5,1.5.3,1-.5s-.2-.9,1-.5c1.1.5,1.5.3,1-.5-.5-.7-.2-.9.7-.6,1,.4,1.5-.1,1.6-1.3.1-1,0-1.9-.3-1.9s-.4.5-.4,1.1Z"/>
  <path class="st0" d="M99,81.9c0,.4-1.2,1.3-2.6,1.9-1.4.7-2.2,1.6-1.9,2.2s1.5.5,3-.2c1.3-.6,2.2-1.5,1.9-1.9-.3-.5.5-.9,1.7-.9s1.9-.3,1.5-.7c-1-1-3.6-1.3-3.6-.4Z"/>
  <path class="st0" d="M92,86.9c0,.6-.3,1-.7,1-2-.3-3.4.2-2.8,1.1.8,1.3,1.8,1.3,4-.3,1.2-1,1.4-1.6.7-2.1-.7-.4-1.2-.2-1.2.3Z"/>
  <path class="st0" d="M91.2,92.3c-4.9,3-6.2,5.5-3.4,6.5.7.2,1.2-.5,1.2-1.9s.3-1.9.7-1.6c.3.4,1.2-.1,2-1.1.8-.9,1.2-1.1.8-.5-.4.8-.1,1.1.9.7.8-.3,1.6.2,1.9,1.3.5,1.6.6,1.6.5-.2-.1-3.7.2-4.6,1.2-4,.6.3,1,.2,1-.4,0-2.1-1.7-1.8-6.8,1.2Z"/>
  <path class="st0" d="M79.2,94.8c-1.7,1.7-2,1.7-3,.3-.8-1.3-.9-1.1-.5.8.5,1.9.3,2.2-.8,1.6-1-.6-1.1-.5-.3.4.9.9,1.9.7,4.8-.9,2-1.2,3.3-2.6,3-3.1-.7-1.3-1.2-1.1-3.2.9Z"/>
  <path class="st0" d="M55.4,102c-3.8,2.7-6.5,5-6,5,.8,0,13.6-9.1,13.6-9.7s-1.1,0-7.6,4.7Z"/>
  <path class="st0" d="M82,98.7c-1.4.9-2.7,1.8-2.9,1.9-.1.1,0,.7.3,1.2.7,1.2,4.6.4,4.6-1s-.6-.6-1.2-.2c-.7.4-.4-.2.6-1.4,2.3-2.6,1.9-2.8-1.4-.5Z"/>
  <path class="st0" d="M66.7,110.6c-2.1,1.4-3.6,2.8-3.3,3.1.4.5,7.6-4.5,7.6-5.3s-.5-.5-4.3,2.2Z"/>
  <path class="st0" d="M46.4,121.5c-1.7,1.4-1.7,1.5-.1.9,1.7-.6,1.8-.5.6,1.4-.9,1.5-1,2.5-.3,3.2s1,.3,1.1-1.2c.1-1.2.8-2.5,1.5-2.9,1.1-.7,1.1-.9,0-.9s-1-.5-.7-1c.9-1.4.2-1.2-2.1.5Z"/>
  <path class="st0" d="M14.5,130.7c-.3,1-.2,1.9.4,2.1.5.2.7,1,.4,1.8-.4,1,0,1.2,1.1.8,1-.4,2.5.1,3.7,1.2,1.9,1.7,2,1.7,1.3-.2-.7-1.8-.6-1.8,1.2-.1,1.6,1.5,1.7,1.9.4,2.7-.8.5-1.9.5-2.5,0s-1.6-.5-2.3-.1c-.9.6-.8,1.1.5,2.3,4.6,3.9,7.3,3.2,7.3-1.9s-9.6-13.4-11.5-8.6Z"/>
</svg>