<?xml version="1.0" encoding="UTF-8"?>
<svg id="Layer_1" xmlns="http://www.w3.org/2000/svg" version="1.1" viewBox="0 0 109 80">
  <!-- Generator: Adobe Illustrator 29.2.1, SVG Export Plug-In . SVG Version: 2.1.0 Build 116)  -->
  <polygon points="61.45 73.44 10.39 73.44 13.82 60.13 15.7 52.85 56.14 52.85 58.02 60.12 61.45 73.44" fill="#0c5880"/>
  <path d="M58.02,60.12c-5.9,5.18-13.63,8.32-22.1,8.32s-16.19-3.14-22.09-8.31l1.88-7.28h40.44l1.88,7.27Z" fill="#1d1d1b" opacity=".1"/>
  <rect x="10.39" y="70.67" width="51.06" height="2.77" fill="#00bade"/>
  <polygon points="101.52 23.89 35.92 28.54 35.92 7.01 101.52 7.01 101.52 23.89" fill="#0c5880"/>
  <polygon points="35.92 16.11 35.92 28.54 101.52 23.89 101.52 16.11 35.92 16.11" fill="#1d1d1b" opacity=".1"/>
  <circle cx="35.92" cy="34.93" r="27.92" transform="translate(-14.18 35.63) rotate(-45)" fill="#0c5880"/>
  <circle cx="35.92" cy="34.93" r="19.37" transform="translate(-14.18 35.63) rotate(-45)" fill="#0c5880"/>
  <polygon points="37.33 32.12 35.92 34.93 33.88 32.54 32.47 13.03 34.03 12.84 37.33 32.12" fill="#e0e0e0"/>
  <polygon points="38.73 36.34 35.92 34.93 38.31 32.89 57.82 31.49 58 33.04 38.73 36.34" fill="#e0e0e0"/>
  <polygon points="34.51 37.74 35.92 34.93 37.96 37.32 39.36 56.83 37.81 57.02 34.51 37.74" fill="#e0e0e0"/>
  <polygon points="33.11 33.52 35.92 34.93 33.53 36.97 14.02 38.37 13.83 36.82 33.11 33.52" fill="#e0e0e0"/>
  <g>
    <path d="M35.38,30.46c2.47-.3,4.71,1.46,5.01,3.93.3,2.47-1.46,4.71-3.93,5.01-2.47.3-4.71-1.46-5.01-3.93-.3-2.47,1.46-4.71,3.93-5.01Z" fill="#2d2d2d"/>
    <path d="M35.65,32.74c1.21-.15,2.32.72,2.46,1.93.15,1.21-.72,2.32-1.93,2.46s-2.32-.72-2.46-1.93c-.15-1.21.72-2.32,1.93-2.46Z" fill="#d3d3d3"/>
  </g>
  <polygon points="38.9 33.94 35.92 34.93 36.17 31.8 48.97 17.01 50.2 17.98 38.9 33.94" fill="#e0e0e0"/>
  <polygon points="36.91 37.91 35.92 34.93 39.05 35.18 53.84 47.98 52.87 49.21 36.91 37.91" fill="#e0e0e0"/>
  <polygon points="32.94 35.92 35.92 34.93 35.67 38.06 22.87 52.85 21.64 51.89 32.94 35.92" fill="#e0e0e0"/>
  <polygon points="34.93 31.95 35.92 34.93 32.78 34.68 18 21.88 18.96 20.65 34.93 31.95" fill="#e0e0e0"/>
  <path d="M38.69,31.39c1.96,1.53,2.3,4.36.77,6.32-1.53,1.96-4.36,2.3-6.32.77-1.96-1.53-2.3-4.36-.77-6.32,1.53-1.96,4.36-2.3,6.32-.77Z" fill="#8c8c8c"/>
  <path d="M35.92,38.52c-1.98,0-3.59-1.61-3.59-3.59s1.61-3.59,3.59-3.59,3.59,1.61,3.59,3.59-1.61,3.59-3.59,3.59ZM35.92,31.98c-1.63,0-2.95,1.32-2.95,2.95s1.32,2.95,2.95,2.95,2.95-1.32,2.95-2.95-1.32-2.95-2.95-2.95Z" fill="#fff"/>
  <path d="M35.92,57.71c-12.56,0-22.78-10.22-22.78-22.78s10.22-22.78,22.78-22.78,22.78,10.22,22.78,22.78-10.22,22.78-22.78,22.78ZM35.92,16.21c-10.33,0-18.73,8.4-18.73,18.73s8.4,18.73,18.73,18.73,18.73-8.4,18.73-18.73-8.4-18.73-18.73-18.73Z" fill="#6e6e6e"/>
  <path d="M77.99,25.97c0,.57-.46,1.02-1.02,1.02h0c-.57,0-1.02-.46-1.02-1.02V6.89c0-.57.46-1.02,1.02-1.02h0c.57,0,1.02.46,1.02,1.02v19.08Z" fill="#0c5880"/>
  <path d="M102.39,24.57c0,.57-.46,1.02-1.02,1.02h0c-.57,0-1.02-.46-1.02-1.02V6.89c0-.57.46-1.02,1.02-1.02h0c.57,0,1.02.46,1.02,1.02v17.68Z" fill="#0c5880"/>
  <path d="M8.46,40.01c2.39,13,13.77,22.85,27.45,22.85s25.07-9.85,27.45-22.85c-10.64,17.7-45.37,18.87-54.91,0Z" fill="#1d1d1b" opacity=".1"/>
</svg>