<?xml version="1.0" encoding="UTF-8"?>
<svg id="Layer_1" xmlns="http://www.w3.org/2000/svg" version="1.1" xmlns:xlink="http://www.w3.org/1999/xlink" viewBox="0 0 107 85">
  <!-- Generator: Adobe Illustrator 29.2.1, SVG Export Plug-In . SVG Version: 2.1.0 Build 116)  -->
  <defs>
    <linearGradient id="_Áåçûìÿííûé_ãðàäèåíò_20" data-name="Áåçûìÿííûé ãðàäèåíò 20" x1="28.74" y1="37.33" x2="40.22" y2="37.33" gradientUnits="userSpaceOnUse">
      <stop offset="0" stop-color="#332c2c"/>
      <stop offset=".57" stop-color="#362e2e"/>
      <stop offset="1" stop-color="#3f3535"/>
    </linearGradient>
    <linearGradient id="_Áåçûìÿííûé_ãðàäèåíò_201" data-name="Áåçûìÿííûé ãðàäèåíò 20" x1="27.45" y1="33.96" x2="34.15" y2="33.96" xlink:href="#_Áåçûìÿííûé_ãðàäèåíò_20"/>
    <linearGradient id="_Áåçûìÿííûé_ãðàäèåíò_202" data-name="Áåçûìÿííûé ãðàäèåíò 20" x1="28.39" y1="32.19" x2="33.21" y2="32.19" xlink:href="#_Áåçûìÿííûé_ãðàäèåíò_20"/>
  </defs>
  <g id="_x32_">
    <polygon points="3.39 78.34 8.93 81.53 38.01 81.53 71.92 38.77 3.39 78.34" fill="#afaaa1" opacity=".5"/>
    <g>
      <g>
        <g id="Axonometric_Cylinder">
          <path d="M94.52,1.71c-.25-.15-.6-.13-.99.09-.76.44-1.38,1.52-1.38,2.4,0,.44.15.74.4.89l1.03.59,1.98-3.38-1.03-.59Z" fill="#4d4242"/>
          <path id="Cylinder_face" d="M93.18,4.8c0,.88.62,1.24,1.38.8.76-.44,1.38-1.52,1.38-2.4s-.62-1.24-1.38-.8c-.76.44-1.38,1.52-1.38,2.4Z" fill="#3f3535"/>
        </g>
        <path d="M100.72,6.03l-5.13-2.96c-.95-.55-2.28,1.57-1.25,2.16l4.29,2.48-5.39,3.11c-.6.35-.8,1.11-.46,1.71.23.4.65.62,1.08.62.21,0,.43-.05.62-.17l6.23-3.6c.6-.35.97-.99.97-1.68s-.37-1.33-.97-1.68Z" fill="#4d4242"/>
        <g isolation="isolate">
          <path d="M102.57,25.26l-.35-.04c.06.04.1.12.11.23,0,.23-.17.51-.36.63l-.48.28c-.1.06-.19.06-.26.03l.14.27c.07.04.29.04.39-.02l.67-.26c.2-.11.27-.63.27-.87,0-.11-.06-.21-.12-.24Z" fill="#0c5880"/>
          <polygon points="97.35 27.11 97.1 26.97 97.11 30.47 97.36 30.62 97.35 27.11" fill="#0c5880"/>
          <polygon points="102.73 23.72 97.1 26.97 97.35 27.11 102.98 23.87 102.73 23.72" fill="#0c5880"/>
          <path d="M102.98,23.87l-5.62,3.25v3.5s5.63-3.25,5.63-3.25v-3.5ZM102.2,26.22l-.48.28c-.2.12-.36.02-.37-.21,0-.23.16-.51.36-.62l.48-.28c.2-.11.36-.02.37.2,0,.23-.17.51-.36.63Z" fill="#0c5880"/>
        </g>
        <g>
          <g isolation="isolate">
            <path d="M97.92,8.99l-3.07,2.33v38.06s2.41-1.4,2.41-1.4c.45-.26.67-.6.67-.94V8.99Z" fill="#0c5880"/>
            <path d="M97.24,8.04c-.9-.52-2.36-.52-3.26,0l-2.4,1.4,3.27,1.89,2.4-1.4c.9-.52.89-1.37-.01-1.89Z" fill="#0c5880"/>
          </g>
          <g id="Axonometric_Cube">
            <polygon id="Cube_face_-_left" points="42.45 80.09 38.67 77.91 38.67 37.76 42.45 39.94 42.45 80.09" fill="#b2b1ab"/>
            <polygon id="Cube_face_-_right" points="95.07 49.7 42.45 80.09 42.45 39.94 95.07 9.56 95.07 49.7" fill="#cfcfc7"/>
            <polygon points="43.68 40.65 93.84 11.69 93.84 48.99 43.68 77.95 43.68 40.65" fill="#0c5880"/>
            <polygon id="Cube_face_-_top" points="42.45 39.94 38.67 37.76 91.3 7.38 95.07 9.56 42.45 39.94" fill="#ecece2"/>
          </g>
          <path d="M93.84,39.01v.66l-50.16,28.96v-.66l50.16-28.96ZM43.68,65.97v.66l50.16-28.96v-.66l-50.16,28.96ZM43.68,61.96v.66l50.16-28.96v-.66l-50.16,28.96ZM43.68,59.95v.66l50.16-28.96v-.66l-50.16,28.96ZM43.68,63.96v.66l50.16-28.96v-.66l-50.16,28.96ZM43.68,73.99v.66l50.16-28.96v-.66l-50.16,28.96ZM43.68,69.98v.66l50.16-28.96v-.66l-50.16,28.96ZM93.84,47.69v-.66l-50.16,28.96v.66l50.16-28.96ZM43.68,71.98v.66l50.16-28.96v-.66l-50.16,28.96ZM43.68,47.93v.66l50.16-28.96v-.66l-50.16,28.96ZM43.68,43.92v.66l50.16-28.96v-.66l-50.16,28.96ZM43.68,45.92v.66l50.16-28.96v-.66l-50.16,28.96ZM43.68,41.91v.66l50.16-28.96v-.66l-50.16,28.96ZM43.68,49.93v.66l50.16-28.96v-.66l-50.16,28.96ZM43.68,53.94v.66l50.16-28.96v-.66l-50.16,28.96ZM43.68,51.94v.66l50.16-28.96v-.66l-50.16,28.96ZM43.68,55.94v.66l50.16-28.96v-.66l-50.16,28.96ZM43.68,57.95v.66l50.16-28.96v-.66l-50.16,28.96Z" fill="#00bade"/>
          <g isolation="isolate">
            <path d="M42.15,41.77l-6.34.44v38.06c0,.34.23.69.69.95.9.52,2.36.52,3.26,0l2.4-1.39v-38.06Z" fill="#0c5880"/>
            <path d="M38.89,39.89l-2.4,1.39c-.9.52-.89,1.37.01,1.89s2.36.52,3.26,0l2.4-1.39-3.27-1.89Z" fill="#0c5880"/>
          </g>
        </g>
        <g isolation="isolate">
          <path d="M32.53,65.63h-.32c.06.04.1.12.1.23,0,.23-.16.51-.36.63l-.48.28c-.1.06-.19.06-.25.02l.21.26c.07.04.38.2.48.14l.47-.4c.2-.12.38-.62.38-.86,0-.11-.16-.27-.22-.3Z" fill="#0c5880"/>
          <polygon points="36.31 62.07 30.69 65.31 30.94 65.46 36.56 62.21 36.31 62.07" fill="#0c5880"/>
          <polygon points="30.94 65.46 30.69 65.31 30.7 68.82 30.94 68.96 30.94 65.46" fill="#0c5880"/>
          <path d="M36.56,62.21l-5.62,3.25v3.51s5.63-3.25,5.63-3.25v-3.51ZM32.2,66.64l-.48.28c-.2.11-.36.02-.36-.21,0-.23.16-.51.36-.62l.48-.28c.2-.12.36-.02.37.2,0,.23-.16.51-.36.63Z" fill="#0c5880"/>
        </g>
        <path d="M100.17,5.97s.07.04.11.06c.7.45.91,1.55.24,2.03,0,0-1.42.84-1.56.74-.14-.1,1.16-.91,1.16-.91.56-.31.39-1.19-.19-1.5-6.6-3.73-5.49-3.8.24-.42Z" fill="#605353"/>
        <polygon points="46.38 35.87 43.14 37.74 42.15 37.17 45.4 35.3 46.38 35.87" fill="#a7a6a1"/>
        <polygon points="91.56 9.78 88.32 11.65 87.33 11.09 90.58 9.21 91.56 9.78" fill="#a7a6a1"/>
      </g>
      <g>
        <path d="M41.16,45.66c.17-.1.31-.1.42-.04l1.53.88-.84,1.44-1.53-.88c-.1-.06-.17-.19-.17-.38,0-.38.26-.83.59-1.02Z" fill="#4d4242"/>
        <path id="Cylinder_face1" data-name="Cylinder_face" d="M42.1,47.57c0,.38.26.53.59.34.33-.19.59-.65.59-1.02s-.26-.53-.59-.34c-.33.19-.59.65-.59,1.02Z" fill="#3f3535"/>
        <path id="Cylinder_face2" data-name="Cylinder_face" d="M42.26,47.47c0,.27.19.38.42.25.23-.14.42-.46.42-.74s-.19-.38-.42-.25c-.23.14-.42.46-.42.74Z" fill="#332c2c"/>
      </g>
      <g>
        <path d="M96.12,13.93c.17-.1.31-.1.42-.04l1.53.88-.84,1.44-1.53-.88c-.1-.06-.17-.19-.17-.38,0-.38.26-.83.59-1.02Z" fill="#4d4242"/>
        <path id="Cylinder_face3" data-name="Cylinder_face" d="M97.05,15.84c0,.38.26.53.59.34.33-.19.59-.65.59-1.02s-.26-.53-.59-.34c-.33.19-.59.65-.59,1.02Z" fill="#3f3535"/>
        <path id="Cylinder_face4" data-name="Cylinder_face" d="M97.22,15.74c0,.27.19.38.42.25.23-.14.42-.46.42-.74s-.19-.38-.42-.25c-.23.14-.42.46-.42.74Z" fill="#332c2c"/>
      </g>
      <path d="M38.16,37.83h-3.94c-.76,0-1.38-.62-1.38-1.38v-4.14c0-1.13-4.1-1.13-4.1,0v4.83c0,2.65,2.15,4.79,4.79,4.79h2.58c0,1.69,4.1,1.69,4.1-.09v-1.96c0-1.13-.92-2.05-2.05-2.05Z" fill="url(#_Áåçûìÿííûé_ãðàäèåíò_20)"/>
      <g>
        <path d="M33.17,35.17c.66-.38.99-.88.98-1.39v-1.61l-6.7.04v1.61c0,.49.33.98.98,1.35,1.31.76,3.43.76,4.74,0Z" fill="url(#_Áåçûìÿííûé_ãðàäèåíò_201)"/>
        <path id="Cylinder_face5" data-name="Cylinder_face" d="M28.43,33.56c-1.31-.76-1.31-1.98,0-2.74,1.31-.76,3.43-.76,4.74,0,1.31.76,1.31,1.98,0,2.74-1.31.76-3.43.76-4.74,0Z" fill="#4d4242"/>
        <path id="Cylinder_face6" data-name="Cylinder_face" d="M29.09,33.18c-.94-.54-.94-1.42,0-1.97.94-.54,2.47-.54,3.41,0,.94.54.94,1.42,0,1.97-.94.54-2.47.54-3.41,0Z" fill="url(#_Áåçûìÿííûé_ãðàäèåíò_202)"/>
      </g>
    </g>
  </g>
</svg>