<?xml version="1.0" encoding="UTF-8"?>
<svg xmlns="http://www.w3.org/2000/svg" version="1.1" xmlns:xlink="http://www.w3.org/1999/xlink" viewBox="0 0 62 81">
  <!-- Generator: Adobe Illustrator 29.2.1, SVG Export Plug-In . SVG Version: 2.1.0 Build 116)  -->
  <defs>
    <style>
      .st0 {
        opacity: .8;
      }

      .st0, .st1, .st2, .st3, .st4, .st5, .st6, .st7, .st8, .st9 {
        fill: #0c5880;
      }

      .st1, .st2, .st6, .st10, .st11 {
        mix-blend-mode: multiply;
      }

      .st2 {
        opacity: .4;
      }

      .st3 {
        opacity: 0;
      }

      .st12 {
        isolation: isolate;
      }

      .st4 {
        opacity: .5;
      }

      .st6 {
        opacity: .7;
      }

      .st7 {
        opacity: .9;
      }

      .st7, .st8 {
        mix-blend-mode: screen;
      }

      .st11 {
        opacity: .6;
      }

      .st13 {
        clip-path: url(#clippath);
      }

      .st9 {
        opacity: .2;
      }
    </style>
    <clipPath id="clippath">
      <path class="st5" d="M47.4,5.6h-17.4c-2,0-3.9.6-5.5,1.8-2,1.5-4.4,3.5-5.9,4.8-7,.1-12.7,5.8-12.7,12.9v47.2c0,2.3,1.8,4.1,4.1,4.1h41.9c2.3,0,4.1-1.8,4.1-4.1V15.5c0-4.8-3.9-9.9-8.6-9.9ZM23.8,12.2c.6-.5,1.3-1.3,2-1.9,1.2-1.2,2.9-1.8,4.6-1.8h11.2c-1.8,1.8-4.4,3.8-9.3,3.8h-8.5Z"/>
    </clipPath>
  </defs>
  <g class="st12">
    <g id="Layer_1">
      <g id="_x35_">
        <g>
          <path class="st5" d="M14.6,6.1l1.7-.5c.7-.2,1.4.1,1.7.7h0c.1.2.2.5.2.8l-.3,5.9-3.7-5.9.4-1.1Z"/>
          <path class="st2" d="M15.2,7.3c.3-.2,0-.8-.3-1.3h-.4c0,.1-.4,1.2-.4,1.2l3.7,5.9v-.9s-2.6-4.8-2.6-4.8Z"/>
          <g>
            <rect class="st5" x="7.9" y="8.6" width="9.2" height="7.4" transform="translate(-4.4 7.6) rotate(-29.2)"/>
            <g class="st11">
              <path class="st5" d="M11.1,10.3c1.7-.9,3.3-1.4,4.6-1.3l-1.2-2.1-8,4.5,1.1,2c.7-1.1,1.9-2.2,3.4-3Z"/>
            </g>
            <path class="st5" d="M14.9,7.4l-8,4.5c-.5.3-1.5-1.6-1-1.9l8-4.5c.5-.3,1.5,1.6,1,1.9Z"/>
            <path class="st8" d="M14.5,5.8c-.2-.2-.4-.4-.5-.4,0,0,0,0-.1,0l-8,4.5s0,0-.1,0c0,.1,0,.4,0,.6l8.7-4.8Z"/>
          </g>
          <path class="st6" d="M17.7,6.4c.3.5.1,1.2-.4,1.5-.5.3-1.2.1-1.5-.4-.3-.5-.1-1.2.4-1.5.5-.3,1.2-.1,1.5.4Z"/>
          <path class="st5" d="M17.5,6.5c.2.4,0,1-.3,1.2-.4.2-1,0-1.2-.3-.2-.4,0-1,.3-1.2.4-.2,1,0,1.2.3Z"/>
        </g>
        <g>
          <path class="st5" d="M47.4,5.6h-17.4c-2,0-3.9.6-5.5,1.8-2,1.5-4.4,3.5-5.9,4.8-7,.1-12.7,5.8-12.7,12.9v47.2c0,2.3,1.8,4.1,4.1,4.1h41.9c2.3,0,4.1-1.8,4.1-4.1V15.5c0-4.8-3.9-9.9-8.6-9.9ZM23.8,12.2c.6-.5,1.3-1.3,2-1.9,1.2-1.2,2.9-1.8,4.6-1.8h11.2c-1.8,1.8-4.4,3.8-9.3,3.8h-8.5Z"/>
          <path class="st8" d="M34.4,42c8.6,1.2,15.8,3.6,20.7,6.2,0-3.6,0-11.4-.1-18.7,0-8.6-6.9-15.5-15.4-15.5h-20.5c-6.3,0-11.7,4.9-12,11.2,0,.2,0,.5,0,.7v17c6-1.7,16.4-2.5,27.4-.9Z"/>
          <path class="st8" d="M20.8,12c-.3,0-.5-.2-.6-.4,0-.2,0-.5.2-.7l3.9-3.2c.4-.3.7-.5,1.2-.8.9-.5,1.8-.8,2.7-1,.5-.1,1-.2,1.5-.2.3,0,.5,0,.8,0h11s4.2,0,4.2,0c.3,0,.6.3.6.6,0,.3-.3.6-.6.6,0,0-1.6,0-4.2.2-2.4.1-6.1.2-10.1.2h-.9c-.8,0-1.4,0-2,.1-.8.2-1.6.4-2.3.8-.4.2-.7.4-1,.6l-.9.7-1.7,1.3-1.2.9c-.1,0-.2.1-.4.1h-.2Z"/>
          <path class="st8" d="M20.6,11.7c-.1,0-.2,0-.3-.2,0-.1,0-.3,0-.3l3.9-3.2c.3-.3.7-.5,1.1-.7.8-.5,1.7-.8,2.6-1,.5-.1,1-.2,1.5-.2.3,0,.5,0,.8,0h11s4.2,0,4.2,0c.2,0,.3.1.3.3,0,.2-.1.3-.3.3,0,0-1.6,0-4.2.2-2.4.1-6.1.2-10.1.2h-.9c-.8,0-1.4,0-2,.2-.8.2-1.6.4-2.4.8-.4.2-.7.4-1,.6l-.9.7-1.7,1.3-1.2.9c0,0-.1,0-.2,0h-.2Z"/>
          <path class="st8" d="M41.3,6.4c-2.6,0-6.3,0-10.3,0-.5,0-1,0-1.5,0-.5,0-1,0-1.4.2-.9.2-1.8.5-2.6.9-.4.2-.7.4-1.1.7-.3.3-.6.5-.9.8-.6.5-1.2.9-1.7,1.4-.5.4-.9.7-1.3,1h.2c.4-.3.8-.6,1.2-.9.5-.4,1.1-.8,1.7-1.3.3-.2.6-.5,1-.7.3-.2.7-.4,1.1-.6.7-.4,1.6-.7,2.5-.8.9-.2,1.8-.2,2.8-.2,4,0,7.6-.1,10.3-.2,2.6-.1,4.2-.2,4.2-.2-.2,0-1.7,0-4.2,0Z"/>
          <path class="st5" d="M41.6,8.4s-.2.2-.6.6c-.4.3-.9.8-1.7,1.3-.7.5-1.7.9-2.7,1.3-.5.2-1.1.3-1.6.4-.6,0-1.2.2-1.7.2-1.2,0-2.4,0-3.5,0-1.1,0-2.1,0-3,0-1.8,0-2.9,0-2.9,0h0c0,0,.3.1.8.2.5,0,1.3.1,2.1.2.9,0,1.9.1,3,.2.6,0,1.1,0,1.7,0,.6,0,1.2,0,1.8,0,.6,0,1.2-.1,1.8-.2.6-.1,1.2-.3,1.7-.5.6-.2,1.1-.4,1.5-.7.5-.3.9-.5,1.2-.8.4-.3.7-.5.9-.8.3-.3.5-.5.7-.7.2-.2.3-.4.4-.5,0-.1.1-.2.1-.2h0Z"/>
          <g>
            <path class="st5" d="M47.4,5.6h-17.4c-2,0-3.9.6-5.5,1.8-2,1.5-4.4,3.5-5.9,4.8-7,.1-12.7,5.8-12.7,12.9v47.2c0,2.3,1.8,4.1,4.1,4.1h41.9c2.3,0,4.1-1.8,4.1-4.1V15.5c0-4.8-3.9-9.9-8.6-9.9ZM23.8,12.2c.6-.5,1.3-1.3,2-1.9,1.2-1.2,2.9-1.8,4.6-1.8h11.2c-1.8,1.8-4.4,3.8-9.3,3.8h-8.5Z"/>
            <g class="st13">
              <g class="st10">
                <path class="st3" d="M23.8,13.4c-.3,0-.6-.1-.9-.4-.4-.5-.4-1.2,0-1.7l.5-.6c.1-.2.3-.3.4-.5.3-.3.7-.7,1.1-1.2.6-.6,1.7-1.5,3.1-1.9.7-.2,1.4-.3,2.1-.4h1.8s.4,0,.4,0c1.1,0,2.1,0,3.1,0,.7,0,1.4,0,2,0,.3,0,.7,0,1,0,.6,0,1.1,0,1.6,0,.2,0,.4,0,.6,0h.8c.6,0,5.1.6,5.1,1.2s-4.5,1.2-5.1,1.3h-.8c-.2,0-.4,0-.6.1-.4,0-1,0-1.6,0-.3,0-.6,0-1,0-.6,0-1.3,0-2.1,0-1,0-2,0-3.1,0h-.3s-1.8,0-1.8,0c-.4,0-.9,0-1.3.2-.8.2-1.5.6-2.1,1.1l-1.6,1.4-.6.5c-.2.2-.5.3-.8.3Z"/>
                <path class="st9" d="M28.2,7.5c.6-.2,1.2-.3,1.8-.3,0,0,1.5,0,1.5,0,0,0,.3,0,.3,0,.6,0,1.3,0,1.9,0,.4,0,.7,0,1,0,.7,0,1.3,0,1.9,0,.3,0,.6,0,.9,0,.1,0,.3,0,.4,0,.4,0,.7,0,1,0,.2,0,.4,0,.6,0,0,0,.7,0,.8,0,.2,0,.7,0,1.3.1.9,0,1.9.2,2.6.4s.9.3.9.4-.3.3-.8.4-1.7.3-2.7.5-1.1.1-1.3.1c0,0-.7,0-.7,0-.2,0-.4,0-.6,0-.3,0-.7,0-1.1,0-.1,0-.2,0-.3,0-.3,0-.6,0-.9,0-.6,0-1.3,0-1.9,0s-.8,0-1.2,0c-.6,0-1.2,0-1.7,0,0,0-.3,0-.3,0s0,0,0,0c-.1,0-1.5,0-1.6,0-.2,0-.3,0-.5,0-.2,0-.5,0-.7.2-.7.2-1.4.6-2,1,0,0-.5.4-.5.5,0,0-.9.8-1,.9s-.6.5-.6.5c-.2.1-.4.2-.6.3s0,0-.1,0c-.3,0-.6,0-.8-.2-.1-.1-.2-.4-.1-.6,0-.3.2-.7.4-1,0,0,.5-.6.6-.6.1-.1.2-.3.4-.4.3-.3.6-.6,1-1,.6-.6,1.5-1.3,2.8-1.7Z"/>
                <path class="st4" d="M28.3,7.8c.5-.2,1-.3,1.5-.3.1,0,1.2,0,1.3,0,0,0,.3,0,.3,0,.6,0,1.2,0,1.7,0s.7,0,1,0c.6,0,1.2,0,1.8,0,.3,0,.6,0,.8,0,.1,0,.3,0,.4,0,.3,0,.7,0,1,0,.2,0,.4,0,.5,0,.1,0,.6,0,.7,0,.3,0,.7,0,1.2,0,.9,0,1.8.2,2.5.3s.8.2.8.3-.3.2-.8.3-1.6.3-2.5.4-1,0-1.2.1c0,0-.6,0-.7,0-.2,0-.3,0-.5,0-.3,0-.7,0-1.1,0-.1,0-.2,0-.3,0-.3,0-.5,0-.8,0-.6,0-1.2,0-1.8,0-.4,0-.7,0-1.1,0-.5,0-1.1,0-1.6,0,0,0-.3,0-.3,0s0,0,0,0c-.2,0-1.3,0-1.5,0-.1,0-.3,0-.4,0-.2,0-.5.1-.7.2-.7.2-1.3.6-1.8,1,0,0-.4.4-.5.4-.1.1-.8.7-.9.8s-.5.4-.5.5c-.2.1-.3.2-.5.3s0,0-.1,0c-.3.1-.6.2-.7,0,0,0,0-.3.1-.6,0-.3.3-.6.6-1,0-.1.5-.5.6-.6.1-.1.2-.2.3-.3.3-.3.5-.6.9-.9.6-.5,1.4-1.1,2.5-1.4Z"/>
                <path class="st0" d="M28.4,8.1c.4-.1.8-.2,1.2-.3.2,0,.8,0,1.1,0,0,0,.2,0,.3,0,.5,0,1.1,0,1.6,0s.6,0,.9,0c.6,0,1.1,0,1.7,0,.3,0,.5,0,.8,0,.1,0,.2,0,.3,0,.3,0,.6,0,.9,0,.2,0,.3,0,.5,0,.2,0,.5,0,.7,0,.3,0,.7,0,1.1,0,.9,0,1.7.1,2.3.2.5,0,.8.1.8.2s-.3.1-.8.2c-.6,0-1.4.2-2.3.2s-.8,0-1.2,0c-.1,0-.5,0-.6,0-.2,0-.3,0-.5,0-.3,0-.6,0-1,0s-.2,0-.3,0c-.2,0-.5,0-.8,0-.5,0-1.1,0-1.7,0-.3,0-.7,0-1,0-.5,0-1,0-1.5,0,0,0-.2,0-.3,0s0,0,0,0c-.3,0-1,0-1.3.1-.1,0-.3,0-.4,0-.2,0-.4.1-.6.2-.6.2-1.2.5-1.7.9-.1,0-.3.3-.4.4-.2.2-.7.6-.8.7s-.4.3-.5.4c-.1.1-.3.2-.4.3s0,0-.1,0c-.3.2-.6.3-.6.2,0,0,0-.3.3-.6.2-.3.4-.6.7-.9.1-.2.4-.5.6-.7,0,0,.2-.2.3-.3.2-.2.5-.5.8-.7.5-.4,1.2-.9,2.1-1.1Z"/>
                <path class="st5" d="M40.5,8.2c-.5,0-1.2,0-2.1,0-.9,0-1.9,0-3,0-1.1,0-2.3,0-3.4,0-.6,0-1.2,0-1.8,0-.6,0-1.2.1-1.7.3-1.1.3-2,1-2.6,1.6-.6.6-1.1,1.2-1.5,1.6-.3.4-.5.6-.5.6,0,0,.2-.2.6-.5.4-.3.9-.8,1.6-1.4.7-.6,1.5-1.1,2.6-1.4.5-.1,1.1-.2,1.6-.2.6,0,1.2,0,1.7,0,1.2,0,2.3,0,3.4,0,1.1,0,2.1,0,3-.1.9,0,1.6-.1,2.1-.1.5,0,.8,0,.8,0,0,0-.3,0-.8,0Z"/>
              </g>
            </g>
          </g>
          <path class="st8" d="M41.6,8.4s0,.1-.3.4c-.2.3-.5.6-.9,1.1-.4.4-1,.9-1.7,1.3-.7.4-1.6.7-2.6,1-1,.3-2.1.4-3.3.5-1.2,0-2.4.1-3.7.1-1.3,0-2.6,0-4-.1-1.4,0-2.8-.2-4.2-.2-1.4,0-2.8,0-4.2.2-1.4.2-2.8.6-4,1.3-1.2.6-2.3,1.5-3.1,2.4-.8.9-1.5,1.9-2,2.9-.5,1-.8,1.9-1,2.7-.2.8-.3,1.6-.4,2.2-.1,1.2,0,1.9,0,1.9h0s0-.7.2-1.9c.2-1.2.6-2.9,1.6-4.8.5-.9,1.1-1.9,2-2.7.8-.9,1.9-1.6,3-2.2,1.2-.6,2.5-1,3.8-1.2,1.4-.2,2.8-.2,4.2-.2,2.8,0,5.6.3,8.2.2,2.6,0,5.1-.2,7.1-.8,1-.3,1.9-.7,2.6-1.1.7-.4,1.3-.9,1.7-1.4.4-.5.7-.9.9-1.1.2-.3.3-.4.3-.4h0Z"/>
          <path class="st5" d="M39.6,50.1c-.2-.3-.3-.6-.3-1v-10.8c0-.4.1-.8.4-1.1l8.9-11.2c.6-.7.4-1.8-.4-2.5l-.4-.3c-.8-.6-1.9-.6-2.5.1l-5.5,6.9c-1.1,1.4-2.8,2.2-4.6,2.2h-8.3c-1.8,0-3.5-.8-4.6-2.2l-5.5-6.9c-.6-.7-1.7-.8-2.5-.1l-.4.3c-.8.6-1,1.7-.4,2.5l8.9,11.2c.2.3.4.7.4,1.1v10.8c0,.3-.1.7-.3,1l-9,13c-.6.8-.4,1.9.4,2.4l.4.2c.8.5,1.9.2,2.5-.6l5.5-8c1.1-1.6,2.9-2.5,4.8-2.5h7.8c1.9,0,3.7.9,4.8,2.5l5.5,8c.6.8,1.7,1.1,2.5.6l.4-.2c.8-.5,1-1.6.4-2.4l-9-13Z"/>
          <rect class="st5" x="25.8" y="35.9" width="10.1" height="15.3" rx="1.4" ry="1.4"/>
          <path class="st8" d="M34.4,42c.4,0,.8.1,1.1.2v-5c0-.6-.5-1.1-1.1-1.1h-7.3c-.6,0-1.1.5-1.1,1.1v4c2.7.1,5.5.4,8.3.8Z"/>
          <path class="st8" d="M22.6,37.3c.2.3.4.7.4,1.1v-.5c0-.4-.1-.8-.4-1.1l-8.9-11.2c-.2-.2-.3-.5-.3-.7,0,.5,0,.9.3,1.3l8.9,11.2Z"/>
          <path class="st8" d="M48.6,25.6l-8.9,11.2c-.2.3-.4.7-.4,1.1v.5c0-.4.1-.8.4-1.1l8.9-11.2c.3-.4.4-.8.3-1.3,0,.3-.1.5-.3.7Z"/>
          <path class="st8" d="M48.2,64.9l-.4.2c-.8.5-1.9.2-2.5-.6l-5.5-8c-1.1-1.6-2.9-2.5-4.8-2.5h-7.8c-1.9,0-3.7.9-4.8,2.5l-5.5,8c-.6.8-1.7,1.1-2.5.6l-.4-.2c-.4-.2-.6-.6-.7-1.1,0,.6.2,1.2.7,1.6l.4.2c.8.5,1.9.2,2.5-.6l5.5-8c1.1-1.6,2.9-2.5,4.8-2.5h7.8c1.9,0,3.7.9,4.8,2.5l5.5,8c.6.8,1.7,1.1,2.5.6l.4-.2c.5-.3.8-1,.7-1.6,0,.4-.3.8-.7,1.1Z"/>
          <g class="st10">
            <path class="st5" d="M14.1,24.5l.4-.3c.8-.6,1.9-.6,2.5.1l5.5,6.9c1.1,1.4,2.8,2.2,4.6,2.2h8.3c1.8,0,3.5-.8,4.6-2.2l5.5-6.9c.6-.7,1.7-.8,2.5-.1l.4.3c.4.3.6.7.7,1.1.2-.6,0-1.4-.7-1.9l-.4-.3c-.8-.6-1.9-.6-2.5.1l-5.5,6.9c-1.1,1.4-2.8,2.2-4.6,2.2h-8.3c-1.8,0-3.5-.8-4.6-2.2l-5.5-6.9c-.6-.7-1.7-.8-2.5-.1l-.4.3c-.6.5-.8,1.2-.7,1.9,0-.4.3-.8.7-1.1Z"/>
            <path class="st5" d="M13.7,63.9l9-13c.2-.3.3-.6.3-1v-.8c0,.3-.1.7-.3,1l-9,13c-.3.5-.4,1-.3,1.4,0-.2.1-.4.3-.6Z"/>
            <path class="st5" d="M39.6,50.1c-.2-.3-.3-.6-.3-1v.8c0,.3.1.7.3,1l9,13c.1.2.2.4.3.6.1-.5,0-1-.3-1.4l-9-13Z"/>
          </g>
          <path class="st8" d="M47.3,7.6c6.3,1.1,8.3,9.2,8.5,9.8-.6-10.1-6.8-11.6-7.6-11.2-.3.2-.7.4-1,.6-.3.2-.2.7.2.8Z"/>
          <path class="st1" d="M23.8,12.2c.6-.5,1.3-1.3,2-1.9.8-.8,1.9-1.4,3-1.6-.6-.8-1.3-1.7-1.9-2.5-.9.3-1.7.7-2.5,1.3-2,1.5-4.4,3.5-5.9,4.8-.4,0,5.3,0,5.3,0Z"/>
        </g>
        <path class="st1" d="M47.4,5.6h-17.4c-2,0-3.9.6-5.5,1.8-2,1.5-4.4,3.5-5.9,4.8-7,.1-12.7,5.8-12.7,12.9v47.2c0,2.3,1.8,4.1,4.1,4.1h41.9c2.3,0,4.1-1.8,4.1-4.1V15.5c0-4.8-3.9-9.9-8.6-9.9ZM23.8,12.2c.6-.5,1.3-1.3,2-1.9,1.2-1.2,2.9-1.8,4.6-1.8h11.2c-1.8,1.8-4.4,3.8-9.3,3.8h-8.5Z"/>
        <path class="st8" d="M19.4,14.3c-6.3,0-11.7,4.9-12,11.2,5.1-7.5,16.2-11,32.5-11.2h-20.5Z"/>
        <path class="st7" d="M17.4,6.8c0,.3-.3.6-.7.6s-.7-.3-.7-.6.3-.6.7-.6.7.3.7.6Z"/>
      </g>
    </g>
  </g>
</svg>