<?xml version="1.0" encoding="UTF-8"?>
<svg id="Layer_1" xmlns="http://www.w3.org/2000/svg" version="1.1" viewBox="0 0 230.7 257.2">
  <!-- Generator: Adobe Illustrator 29.2.1, SVG Export Plug-In . SVG Version: 2.1.0 Build 116)  -->
  <defs>
    <style>
      .st0 {
        fill: #0c5880;
      }
    </style>
  </defs>
  <path class="st0" d="M20.3,13.9c-1.7.4-4.4,2.2-6,3.9l-3,3.1-.3,100.7c-.2,98.4-.2,100.8,1.7,103.9,2.4,3.9,5.6,6.1,9.6,6.5,2.9.3,3,.4,3.5,6.8l.5,6.5h31l.3-6.2.3-6.3h85.8l.3,6.3.3,6.2h30l.3-6.6q.3-6.6,3.3-6.7c3.9-.1,7.5-2.4,9.9-6.5,1.6-2.6,2-5.1,2-13.5v-10.2h8.8c12.7-.1,19-3.4,22.7-12.2,2-5,2.2-25,.1-26.7-.9-.8-5-1.1-11.7-.9l-10.4.3-.3,7.7-.3,7.8h-8.9v-111h8.9l.3,7.7.3,7.8,10.9.3c8.1.2,11.2-.1,11.8-1,1.2-1.9,1-20.7-.3-25.3-1.5-5.4-7.5-11-13.2-12.3-2.4-.5-7.6-.7-11.5-.4l-7.2.4v-10.1c0-11.5-1.1-14.6-6.2-18.3l-3.3-2.3-78.5-.2c-43.9-.1-79.8.3-81.5.8ZM179.7,20.3c1.6.8,3.3,2.7,4,4.2.8,2.1,1.1,28.2.9,100l-.3,97.2-2.3,2.3-2.3,2.3-76.7.3c-42.2.2-78.2,0-80-.3-2.3-.4-3.9-1.6-5.3-3.8-1.9-3.1-1.9-5.4-1.7-101l.3-97.9,2.8-2.4,2.8-2.4h77.5c65.8,0,77.9.2,80.3,1.5ZM209.5,50.7c5.9,2.7,7.3,6,7.3,17.1v9h-12.7v-6.4c.2-4.1-.3-7-1.1-7.8s-3.7-1.3-7-1.4h-5.7c0-.1-.3-6.2-.3-6.2l-.3-6.2h7.8c5.5,0,9,.6,12,1.9ZM216.8,177c0,15.1-3.8,18.8-19,18.8h-8v-12h6c5.2,0,6.1-.3,7.6-2.5,1.3-1.9,1.5-3.7.9-8l-.6-5.5h13.1v9.2ZM168.8,236v3.8h-20v-3.3c0-1.9.2-3.6.4-3.8s4.7-.4,10-.4h9.6v3.7ZM51.8,236.3v3.5h-20v-7h20v3.5Z"/>
  <path class="st0" d="M30.3,32.1c-.3.6-.4,17.4-.3,37.2l.3,36,37.4.3c26.7.2,37.8-.1,38.7-.9,1.1-.9,1.4-7.7,1.4-35.9s-.3-35.5-.6-36.4c-.5-1.4-4.9-1.6-38.5-1.6s-38.1.3-38.4,1.3ZM101.8,68v31.8H34.8v-31.3c0-17.3.2-31.6.4-31.8s15.3-.4,33.5-.4h33.1v31.7Z"/>
  <path class="st0" d="M65.5,41.8c-2.5.5-5.1,2-7.5,4.3-3.1,3.1-3.6,4.3-4,9.4-.5,7.4,2.2,11.9,9,14.7,5.8,2.4,10.6,1.6,15.3-2.5,11.7-10.3,2.7-28.6-12.8-25.9ZM72.7,48.2c5.6,2.9,6.7,10.2,2.2,14.7-5.1,5-12.9,3.2-15.1-3.5-1.3-4.1-.2-7.5,3.6-10.5,3.1-2.5,5.5-2.6,9.3-.7Z"/>
  <path class="st0" d="M44.6,78.8c-2.5,2.6-2.9,3.6-2.4,6.3.7,3.8,4.8,7.7,8.1,7.7s3.7-1.2,5.4-2.6c4-3.3,4.3-8.3.6-11.9-3.4-3.5-7.8-3.3-11.7.5ZM52.2,82.3c1.9,1.9,1,4.5-1.5,4.5s-3.5-2.6-1.9-4.5q1.5-1.8,3.4,0Z"/>
  <path class="st0" d="M80.7,78.7c-1.7,1.8-2.9,4-2.9,5.6,0,3.2,5,8.5,8,8.5,7.8,0,11.9-9.1,6.5-14.5-3.4-3.5-7.8-3.3-11.6.4ZM88.2,82.3c1.9,1.9,1,4.5-1.5,4.5s-3.5-2.6-1.9-4.5q1.5-1.8,3.4,0Z"/>
  <path class="st0" d="M144.7,39c-5.5,7.6-8.9,15.4-8.9,20.4s.5,5.1,3.9,8.5c3.3,3.4,4.5,3.9,8.3,3.9,8,0,13.8-5.6,13.8-13.2s-10.1-23.8-13-23.8-2.4,1.9-4.1,4.2ZM153.3,51.1c4.1,8.3,3.8,11.5-1.2,14-4.5,2.2-8.6.5-10.5-4.2-.7-2-.2-3.9,2.7-9.8,2-4,4-7.3,4.5-7.3s2.5,3.3,4.5,7.3Z"/>
  <path class="st0" d="M129,75c-11,16.1-11.3,26-.8,31.2,4.9,2.4,9.9,1.5,14.2-2.8s5-7.5,3.4-13.1c-1.5-5.5-10.4-19.5-12.4-19.5s-2.8,1.9-4.4,4.2ZM137.7,86.2c1.7,3.2,3.1,7,3.1,8.3,0,3.2-4.2,7.3-7.5,7.3s-7.5-4.1-7.5-7.1,7.1-16.2,8-15.2c.5.4,2.2,3.5,3.9,6.7Z"/>
  <path class="st0" d="M30,166l.3,50.3,58.3.3,58.2.2v-101H29.8l.2,50.2ZM46.2,126.6v5.2c.1,0-5.6,0-5.6,0h-5.8v-4.8c0-2.7.2-5.1.4-5.3.3-.2,2.8-.4,5.6-.3h5.2l.2,5.2ZM62.8,126.5v5.3h-11v-10.5h11v5.2ZM78.8,126.5v5.3h-10.5l.2-5.3c0-2.8.2-5.2.2-5.2h10.1v5.2ZM95.6,126.6l.3,5.2h-11.1v-10.5h5.3c0,.1,5.2.1,5.2.1l.3,5.2ZM111.8,126.5v5.3h-11v-10.5h11v5.2ZM127.8,126.5v5.3h-10v-10.5h10v5.2ZM141.8,126.4v5.4h-8v-10.5h4c0-.1,4-.2,4-.2v5.3ZM46.2,142.7v5.1c.1,0-5.6,0-5.6,0h-5.8v-4.8c0-2.7.2-5.1.4-5.3s2.8-.3,5.6-.3l5.2.2.2,5.1ZM62.8,142.5v5.3h-11v-10.5h11v5.2ZM78.8,142.5v5.3h-10.7l.3-5.3c.1-2.8.3-5.2.3-5.2h10.1v5.2ZM95.6,142.7l.3,5.1h-11.1v-10.5h5.2c0,.1,5.3.3,5.3.3l.3,5.1ZM111.8,142.5v5.3h-11v-4.8c0-2.7.2-5.1.4-5.3s2.7-.4,5.5-.4h5.1v5.2ZM127.8,142.5v5.3h-10v-10.5h10v5.2ZM141.8,142.5v5.3h-8v-10.5h8c0-.1,0,5.2,0,5.2ZM46.3,158.8v5h-11.5v-10h11.5v5ZM62.8,158.8v5h-11v-10h11v5ZM78.8,158.8v5h-10.5v-10h10.5v5ZM95.8,158.8v5h-11v-10h11v5ZM111.8,158.8v5h-11v-10h11v5ZM127.8,158.8v5h-10v-10h10v5ZM141.8,158.8v5h-8v-10h8v5ZM46.3,174.8v5h-11.5v-10h11.5v5ZM62.8,174.8v5h-11v-10h11v5ZM78.8,174.8v5h-10.5v-10h10.5v5ZM95.8,174.8v5h-11v-10h11v5ZM111.8,174.8v5h-11v-10h11v5ZM127.8,174.8v5h-10v-10h10v5ZM141.8,174.8v5h-8v-10h8v5ZM46.2,190.7v5.1c.1,0-5.6,0-5.6,0h-5.8v-4.8c0-2.7.2-5.1.4-5.3s2.8-.3,5.6-.3l5.2.2.2,5.1ZM62.8,190.5v5.3h-11v-10.5h11v5.2ZM78.8,190.5v5.3h-10.5l.2-5.3c0-2.8.2-5.2.2-5.2h10.1v5.2ZM95.6,190.7l.3,5.1h-11.1v-10.5h5.2c0,.1,5.3.3,5.3.3l.3,5.1ZM111.8,190.3v5.5h-11v-9.9l5.3-.4c2.8-.2,5.3-.4,5.5-.5.1-.1.2,2.3.2,5.3ZM127.8,190.5v5.3h-10v-10.5h10v5.2ZM141.8,190.9v4.9h-8v-10.6l4,.4,4,.4v4.9ZM46.2,206.5v4.7h-10.9l-.3-4.7-.3-4.7h11.6v4.7ZM62.8,206.5v4.8h-5.5c0,.1-5.5.1-5.5.1v-9.6h11v4.7ZM78.8,206.6v4.7h-5.2c0-.1-5.2-.1-5.2-.1v-4.7c-.1,0-.2-4.7-.2-4.7h10.6v4.8ZM95.6,206.5l-.3,4.7h-10.5c0,.1,0-4.6,0-4.6v-4.8h11.1l-.3,4.7ZM111.8,206.6v4.8h-11v-9.6h11v4.8ZM127.8,206.5v4.8h-10v-9.5h10v4.7ZM141.8,206.7v4.8h-4c0-.1-4-.2-4-.2v-9.5h8v4.9Z"/>
</svg>